M48
INCH
T01C0.019
T02C0.0354
T03C0.038
T04C0.0551
T05C0.0728
%
T01
X+004565Y+019938
X+006940Y+020940
X+006940Y+021440
X+007440Y+021440
X+007940Y+021440
X+008440Y+021440
X+008440Y+020940
X+007940Y+020940
X+007440Y+020940
X+008940Y+020940
X+009440Y+020940
X+009440Y+021440
X+008940Y+021440
X+009940Y+021440
X+010440Y+021440
X+010940Y+021440
X+011440Y+021440
X+011440Y+020940
X+010940Y+020940
X+010440Y+020940
X+009940Y+020940
X+011940Y+020940
X+011940Y+021440
X+012440Y+021440
X+012940Y+021440
X+012940Y+020940
X+012440Y+020940
X+006690Y+025627
X+006190Y+025627
X+007002Y+030440
X+007002Y+030940
X+007503Y+030940
X+008003Y+030940
X+008003Y+030440
X+007503Y+030440
X+005315Y+031190
X+005315Y+032440
X+005315Y+033690
X+005315Y+034565
X+008190Y+034440
X+010315Y+031440
X+010940Y+031440
X+010940Y+030690
X+010315Y+030690
X+017815Y+028065
X+021815Y+028190
X+022940Y+027940
X+023002Y+029753
X+027940Y+029940
X+027940Y+030440
X+027940Y+030940
X+027940Y+031440
X+027940Y+031940
X+027940Y+032440
X+027940Y+032940
X+027940Y+033440
X+027940Y+033940
X+027940Y+034440
X+028440Y+034440
X+028440Y+033940
X+028940Y+033940
X+028940Y+034440
X+029440Y+034440
X+029440Y+033940
X+029440Y+033440
X+028940Y+033440
X+028440Y+033440
X+028440Y+032940
X+028440Y+032440
X+028940Y+032440
X+028940Y+032940
X+029440Y+032940
X+029440Y+032440
X+029440Y+031940
X+028940Y+031940
X+028440Y+031940
X+028440Y+031440
X+028940Y+031440
X+029440Y+031440
X+029440Y+030940
X+028940Y+030940
X+028440Y+030940
X+028440Y+030440
X+028940Y+030440
X+029440Y+030440
X+029440Y+029940
X+028940Y+029940
X+028440Y+029940
X+028440Y+029440
X+027940Y+029440
X+028940Y+029440
X+029440Y+029440
X+032503Y+027503
X+032690Y+026499
X+031815Y+025876
X+032690Y+024315
X+031815Y+023878
X+031815Y+022816
X+031565Y+019190
X+031003Y+019190
X+030378Y+019190
X+032190Y+019190
X+032565Y+018815
X+032440Y+018128
X+033003Y+018252
X+036506Y+018500
X+037253Y+018252
X+037940Y+018252
X+038565Y+018252
X+037440Y+020184
X+037006Y+020500
X+036943Y+021125
X+037440Y+022374
X+038502Y+022315
X+039440Y+022315
X+038690Y+021377
X+038319Y+021000
X+036065Y+023878
X+036006Y+026063
X+035002Y+026887
X+035002Y+027762
X+036065Y+029815
X+036065Y+030440
X+036815Y+030440
X+036815Y+029815
X+037565Y+029815
X+037565Y+030440
X+037565Y+031065
X+037565Y+031565
X+037565Y+032065
X+037565Y+032690
X+037565Y+033315
X+036815Y+033315
X+036815Y+032690
X+036815Y+032065
X+036815Y+031565
X+036815Y+031065
X+036065Y+032690
X+036065Y+033315
X+036065Y+038315
X+035565Y+038315
X+036565Y+038315
X+043440Y+038378
X+043940Y+038378
X+044440Y+038378
X+044565Y+033315
X+044565Y+032690
X+044565Y+032065
X+044565Y+031565
X+044565Y+031065
X+044565Y+030440
X+044565Y+029815
X+045315Y+029815
X+045315Y+030440
X+045315Y+031065
X+045315Y+031565
X+045315Y+032065
X+045315Y+032690
X+045315Y+033315
X+043815Y+033315
X+043815Y+032690
X+043815Y+030440
X+043815Y+029815
X+042627Y+027815
X+042627Y+026877
X+043690Y+026190
X+043690Y+023877
X+040190Y+024315
X+039444Y+025751
X+040190Y+026628
X+040190Y+027503
X+046945Y+026001
X+048065Y+026377
X+047627Y+027503
X+050252Y+027690
X+050252Y+026815
X+051253Y+026126
X+051253Y+024378
X+050505Y+024315
X+048065Y+024315
X+053133Y+024313
X+054133Y+022250
X+054133Y+019563
X+053627Y+017752
X+052753Y+017752
X+052002Y+016315
X+050011Y+016254
X+049417Y+013175
X+046252Y+012753
X+046252Y+012065
X+046757Y+015000
X+046694Y+016625
X+042946Y+015102
X+040503Y+016690
X+038253Y+014878
X+037690Y+014875
X+038194Y+014249
X+038502Y+013753
X+038940Y+014127
X+038940Y+013190
X+037815Y+011815
X+036881Y+011624
X+036006Y+012062
X+035068Y+011312
X+037065Y+012752
X+039253Y+011252
X+041371Y+011406
X+042377Y+010878
X+042946Y+011665
X+045565Y+008127
X+047847Y+009158
X+050315Y+009690
X+051565Y+009690
X+052070Y+008999
X+051565Y+008378
X+050440Y+008378
X+052440Y+010752
X+054190Y+010252
X+056190Y+011378
X+052940Y+029690
X+052940Y+030315
X+052940Y+030940
X+052940Y+031440
X+052940Y+031940
X+052940Y+032565
X+052940Y+033190
X+052190Y+033190
X+052190Y+032565
X+052190Y+031940
X+052190Y+031440
X+052190Y+030940
X+052190Y+030315
X+052190Y+029690
X+051440Y+029690
X+051440Y+030315
X+051440Y+032565
X+051440Y+033190
X+051440Y+038378
X+051940Y+038378
X+050940Y+038378
X+029440Y+035940
X+029440Y+035440
X+029440Y+034940
X+028940Y+034940
X+028940Y+035440
X+028940Y+035940
X+028440Y+035940
X+028440Y+035440
X+028440Y+034940
X+027940Y+034940
X+027940Y+035440
X+027940Y+035940
X+026877Y+023440
X+026315Y+023440
X+026690Y+019940
X+027630Y+019688
X+028193Y+019188
X+028002Y+018628
X+025692Y+019438
X+024442Y+019375
X+023817Y+019938
X+023758Y+017497
X+025065Y+017128
X+024440Y+015690
X+023940Y+015690
X+023440Y+015690
X+022940Y+015690
X+021440Y+014940
X+021440Y+014440
X+021440Y+013940
X+021440Y+013440
X+020940Y+013440
X+020940Y+013940
X+020940Y+014440
X+020940Y+014940
X+023383Y+013663
X+024070Y+013663
X+027753Y+011565
X+028378Y+013065
X+030065Y+013127
X+030505Y+013562
X+030880Y+012687
X+030443Y+012249
X+030565Y+011628
X+031752Y+011752
X+031881Y+011124
X+032315Y+012627
X+031565Y+013190
X+029505Y+014437
X+027567Y+016187
X+022503Y+023252
X+022502Y+023878
X+014129Y+013187
X+014129Y+012562
X+013691Y+010812
X+013066Y+010812
X+012441Y+010812
X+012066Y+011312
X+012191Y+012562
X+011878Y+013062
X+010566Y+010687
X+010909Y+010218
X+010691Y+009436
X+010936Y+006686
X+008690Y+005811
X+008628Y+004811
X+005315Y+004936
X+005003Y+004436
X+013565Y+005378
X+016690Y+005378
X+016627Y+008815
X+013627Y+008815
X+020440Y+007002
X+021817Y+009561
X+020879Y+010374
X+023755Y+006874
X+024255Y+006624
X+024755Y+006374
X+025255Y+006124
X+025752Y+005940
X+026255Y+005749
X+031815Y+008003
X+035690Y+008503
X+037253Y+008565
X+036565Y+016752
T02
X+025940Y+021940
X+026940Y+021940
X+027940Y+021940
X+028940Y+021940
X+029940Y+021940
X+030940Y+021940
X+031940Y+021940
X+032940Y+021940
X+033940Y+021940
X+034940Y+021940
X+035940Y+021940
X+036940Y+021940
X+037940Y+021940
X+038940Y+021940
X+039940Y+021940
X+040940Y+021940
X+041940Y+021940
X+042940Y+021940
X+043940Y+021940
X+044940Y+021940
X+045940Y+021940
X+046940Y+021940
X+047940Y+021940
X+048940Y+021940
X+049940Y+021940
X+057253Y+021878
X+057253Y+020878
X+057253Y+022878
X+057253Y+023878
X+057253Y+024878
X+057253Y+025878
X+057253Y+017877
X+057253Y+016877
X+057253Y+015877
X+057258Y+013499
X+057258Y+012499
X+057258Y+011499
X+057258Y+010499
X+057258Y+009499
X+057258Y+008499
X+049940Y+004940
X+048940Y+004940
X+047940Y+004940
X+046940Y+004940
X+045940Y+004940
X+044940Y+004940
X+043940Y+004940
X+042940Y+004940
X+041940Y+004940
X+040940Y+004940
X+039940Y+004940
X+038940Y+004940
X+037940Y+004940
X+036940Y+004940
X+035940Y+004940
X+034940Y+004940
X+033940Y+004940
X+032940Y+004940
X+031940Y+004940
X+030940Y+004940
X+029940Y+004940
X+028940Y+004940
X+027940Y+004940
X+026940Y+004940
X+025940Y+004940
X+024002Y+005003
X+023002Y+005003
X+022002Y+005003
X+021002Y+005003
X+020002Y+005003
X+019002Y+005003
X+009377Y+011753
X+009377Y+012753
T03
X+021567Y+019563
X+022879Y+032376
X+012128Y+036127
X+009191Y+028001
X+006753Y+027626
X+005878Y+021000
X+050445Y+011062
X+051445Y+011062
T04
X+042377Y+041253
X+040409Y+041253
X+038440Y+041253
X+034690Y+041190
X+032721Y+041190
X+030753Y+041190
X+046003Y+041315
X+047971Y+041315
X+049940Y+041315
T05
X+053940Y+037190
X+055909Y+037190
X+055909Y+039946
X+053940Y+039946
X+008596Y+040258
X+006628Y+040258
X+006628Y+037502
X+008596Y+037502
T00
M30
