G04 DipTrace 2.4.0.2*
%INTopAssy.gbr*%
%MOIN*%
%ADD11C,0.0055*%
%ADD31C,0.001*%
%ADD67C,0.0039*%
%FSLAX44Y44*%
G04*
G70*
G90*
G75*
G01*
%LNTopAssy*%
%LPD*%
X51970Y36847D2*
D31*
X50910D1*
Y36547D1*
X51970D1*
Y36847D1*
X50910Y37588D2*
X51970D1*
Y37888D1*
X50910D1*
Y37588D1*
X51970Y36547D2*
Y37888D1*
X50910D1*
Y36547D1*
X51970D1*
X44470Y36785D2*
X43410D1*
Y36485D1*
X44470D1*
Y36785D1*
X43410Y37525D2*
X44470D1*
Y37825D1*
X43410D1*
Y37525D1*
X44470Y36485D2*
Y37825D1*
X43410D1*
Y36485D1*
X44470D1*
X36630Y36760D2*
X35570D1*
Y36460D1*
X36630D1*
Y36760D1*
X35570Y37500D2*
X36630D1*
Y37800D1*
X35570D1*
Y37500D1*
X36630Y36460D2*
Y37800D1*
X35570D1*
Y36460D1*
X36630D1*
X8655Y30220D2*
X9225D1*
Y30520D1*
X8655D1*
Y30220D1*
X9225Y29950D2*
X8655D1*
Y29650D1*
X9225D1*
Y29950D1*
X8655Y30520D2*
Y29650D1*
X9225D1*
Y30520D1*
X8655D1*
X11535Y32720D2*
X12595D1*
Y33020D1*
X11535D1*
Y32720D1*
X12595Y31980D2*
X11535D1*
Y31680D1*
X12595D1*
Y31980D1*
X11535Y33020D2*
Y31680D1*
X12595D1*
Y33020D1*
X11535D1*
X6795Y24160D2*
X6085D1*
Y23860D1*
X6795D1*
Y24160D1*
X6085Y24900D2*
X6795D1*
Y25200D1*
X6085D1*
Y24900D1*
X6795Y23860D2*
Y25200D1*
X6085D1*
Y23860D1*
X6795D1*
X7425Y28820D2*
Y29060D1*
X7265D1*
Y28820D1*
X7425D1*
X7535Y29060D2*
Y28820D1*
X7695D1*
Y29060D1*
X7535D1*
X7265Y28820D2*
X7695D1*
Y29060D1*
X7265D1*
Y28820D1*
X12650Y28220D2*
X11480D1*
Y28020D1*
X12650D1*
Y28220D1*
X11480Y31020D2*
X12650D1*
Y31220D1*
X11480D1*
Y31020D1*
X11453Y28220D2*
X10840Y28832D1*
X12678Y28220D2*
X13290Y28832D1*
X12065Y28162D2*
Y27662D1*
X11815Y27762D2*
X12315D1*
X12065D2*
X11815Y28063D1*
X12065Y27762D2*
X11865Y28063D1*
X12065Y27762D2*
X11915Y28063D1*
X12065Y27762D2*
X11965Y28063D1*
X12065Y27762D2*
X12015Y28063D1*
X12065Y27762D2*
X12315Y28063D1*
X12065Y27762D2*
X12265Y28063D1*
X12065Y27762D2*
X12215Y28063D1*
X12065Y27762D2*
X12165Y28063D1*
X12065Y27762D2*
X12115Y28063D1*
X11815D2*
X12315D1*
X13290Y28220D2*
Y31020D1*
X10840D1*
Y28220D1*
X13290D1*
X13225Y27280D2*
Y21960D1*
X7905D1*
Y27280D1*
X13225D1*
X8156Y31462D2*
D67*
X8346D1*
Y31897D2*
Y31462D1*
X8156Y31897D2*
X8346D1*
X8156D2*
Y31462D1*
X7656D2*
X7846D1*
Y31897D2*
Y31462D1*
X7656Y31897D2*
X7846D1*
X7656D2*
Y31462D1*
X7156D2*
X7346D1*
Y31897D2*
Y31462D1*
X7156Y31897D2*
X7346D1*
X7156D2*
Y31462D1*
X6656D2*
X6846D1*
Y31897D2*
Y31462D1*
X6656Y31897D2*
X6846D1*
X6656D2*
Y31462D1*
Y29892D2*
X6846D1*
X6656D2*
Y29457D1*
X6846D1*
Y29892D2*
Y29457D1*
X7156Y29892D2*
X7346D1*
X7156D2*
Y29457D1*
X7346D1*
Y29892D2*
Y29457D1*
X7656Y29892D2*
X7846D1*
X7656D2*
Y29457D1*
X7846D1*
Y29892D2*
Y29457D1*
X8156Y29892D2*
X8346D1*
X8156D2*
Y29457D1*
X8346D1*
Y29892D2*
Y29457D1*
X6521Y31462D2*
Y29892D1*
X8481D1*
Y31462D2*
Y29892D1*
X6521Y31462D2*
X8481D1*
Y30797D2*
G03X8481Y30557I0J-120D01*
G01*
X3940Y42940D2*
D11*
Y3940D1*
X57940D1*
Y42940D1*
X3940D1*
M02*
