G04 DipTrace 2.4.0.2*
%INTopPaste.gbr*%
%MOIN*%
%ADD31R,0.106X0.044*%
%ADD59R,0.057X0.044*%
%ADD60R,0.071X0.044*%
%ADD61R,0.022X0.024*%
%ADD62R,0.117X0.071*%
%ADD63R,0.551X0.187*%
%ADD66R,0.0236X0.0571*%
%ADD67R,0.122X0.0945*%
%ADD91R,0.0511X0.2085*%
%ADD93R,0.0058X0.0058*%
%ADD95R,0.0629X0.0058*%
%ADD97R,0.0353X0.0156*%
%ADD99R,0.0707X0.0156*%
%ADD101R,0.0333X0.0176*%
%ADD103R,0.0077X0.0471*%
%ADD105R,0.0471X0.0077*%
%ADD107R,0.0038X0.0511*%
%ADD109R,0.0511X0.0038*%
%ADD113R,0.0629X0.118*%
%ADD115R,0.0176X0.0333*%
%ADD117R,0.492X0.372*%
%ADD119R,0.033X0.141*%
%ADD131R,0.0865X0.0865*%
%ADD133R,0.053X0.0156*%
%ADD137R,0.0353X0.0314*%
%ADD139R,0.0314X0.0353*%
%ADD141R,0.0511X0.0609*%
%ADD143R,0.0511X0.0235*%
%ADD145C,0.0314*%
%ADD147R,0.0235X0.0511*%
%FSLAX44Y44*%
G04*
G70*
G90*
G75*
G01*
%LNTopPaste*%
%LPD*%
D147*
X16315Y9565D3*
X15843D3*
X15370D3*
X14898D3*
X14425D3*
X13953D3*
D145*
X17398Y9663D3*
X12870D3*
D143*
X17299Y8679D3*
Y8207D3*
Y7734D3*
Y7262D3*
Y6789D3*
Y6317D3*
Y5845D3*
Y5372D3*
X12969Y8679D3*
Y8207D3*
Y7734D3*
Y7262D3*
Y6789D3*
Y6317D3*
Y5845D3*
Y5372D3*
D141*
X17102Y9319D3*
X13165D3*
D139*
X37071Y16915D3*
Y17584D3*
X36440Y17315D3*
Y17984D3*
X33571Y12602D3*
Y13272D3*
X32883Y12602D3*
Y13272D3*
D137*
X37883Y9102D3*
X37214D3*
X37883Y9727D3*
X37214D3*
D139*
X40933Y12594D3*
Y11924D3*
X41433Y12594D3*
Y11924D3*
D137*
X35146Y9690D3*
X35815D3*
X35105Y9150D3*
X35775D3*
D139*
X37628Y16940D3*
Y17609D3*
X42258Y14415D3*
Y15084D3*
D137*
X28440Y12065D3*
X27771D3*
D139*
X42258Y12290D3*
Y11621D3*
X47315Y17821D3*
Y17151D3*
X21630Y17937D3*
Y17268D3*
X48377Y17128D3*
Y17797D3*
X25571Y17310D3*
Y16640D3*
X52002Y15065D3*
Y15734D3*
X47128Y12758D3*
Y13427D3*
X48565Y13445D3*
Y12776D3*
D137*
X25070Y19997D3*
X24401D3*
D139*
X5940Y35190D3*
Y34521D3*
D137*
X21940Y13669D3*
X22609D3*
D139*
X24133Y15038D3*
Y14369D3*
D137*
X50566Y28752D3*
X49897D3*
X42981Y28850D3*
X42311D3*
X35201Y28777D3*
X34532D3*
D139*
X44480Y27043D3*
Y27712D3*
X36970Y27019D3*
Y27688D3*
X52065Y26896D3*
Y27565D3*
X47869Y10430D3*
Y9760D3*
X53690Y9565D3*
Y10234D3*
D137*
X53002Y10815D3*
X53672D3*
D31*
X51440Y36628D3*
Y37808D3*
X43940Y36565D3*
Y37745D3*
X36100Y36540D3*
Y37720D3*
D137*
X7231Y5226D3*
X7900D3*
D133*
X14941Y12062D3*
Y12562D3*
Y13062D3*
Y13562D3*
X12815D3*
Y13062D3*
Y12562D3*
Y12062D3*
D137*
X45757Y15750D3*
X46426D3*
X28380Y17937D3*
X27711D3*
X45757Y14250D3*
X46426D3*
D131*
X10065Y33690D3*
Y35422D3*
D137*
X32693Y25938D3*
X33362D3*
X40256D3*
X40926D3*
X48007Y25813D3*
X48676D3*
D139*
X13754Y18261D3*
Y18931D3*
X13128Y18256D3*
Y18925D3*
X12503Y18261D3*
Y18931D3*
X11878Y18261D3*
Y18931D3*
X11253Y18261D3*
Y18931D3*
X10628Y18261D3*
Y18931D3*
X10003Y18261D3*
Y18931D3*
X9378Y18261D3*
Y18931D3*
X8753Y18261D3*
Y18931D3*
X8128Y18261D3*
Y18931D3*
X7503Y18261D3*
Y18931D3*
X6878Y18261D3*
Y18931D3*
X6253Y18261D3*
Y18931D3*
X5628Y18261D3*
Y18931D3*
X5003Y18261D3*
Y18931D3*
X4378Y18261D3*
Y18931D3*
D137*
X22315Y16503D3*
X21646D3*
D119*
X12940Y35440D3*
X14940D3*
D117*
X13940Y39380D3*
D119*
X26940Y29940D3*
X24940D3*
D117*
X25940Y26000D3*
D119*
X18940Y35440D3*
X20940D3*
D117*
X19940Y39380D3*
D115*
X20315Y28190D3*
X21063D3*
X20689Y29096D3*
D119*
X18065Y23940D3*
X16065D3*
D117*
X17065Y20000D3*
D119*
X24940Y35440D3*
X26940D3*
D117*
X25940Y39380D3*
D115*
X16565Y28065D3*
X17313D3*
X16939Y28971D3*
D119*
X47002Y33690D3*
X49002D3*
D117*
X48002Y37630D3*
D119*
X39440Y33690D3*
X41440D3*
D117*
X40440Y37630D3*
D119*
X31690Y33565D3*
X33690D3*
D117*
X32690Y37505D3*
D115*
X46815Y29315D3*
X47563D3*
X47189Y30221D3*
X39565Y29440D3*
X40313D3*
X39939Y30346D3*
X31690Y29440D3*
X32438D3*
X32064Y30346D3*
D139*
X29002Y13065D3*
Y13734D3*
Y11690D3*
Y12359D3*
X42258Y13040D3*
Y13709D3*
X10316Y12562D3*
Y11893D3*
D137*
X52065Y17758D3*
X51396D3*
D139*
X22880Y18437D3*
Y19107D3*
D137*
X23508Y16622D3*
X24177D3*
D139*
X26946Y17935D3*
Y18604D3*
D137*
X47940Y15758D3*
X47271D3*
X49565D3*
X48896D3*
X28383Y17247D3*
X27714D3*
D139*
X22880Y17187D3*
Y17857D3*
D137*
X50565Y17758D3*
X49896D3*
D139*
X26946Y16622D3*
Y17291D3*
D137*
X52066Y12695D3*
X51396D3*
X47940Y14258D3*
X47271D3*
X49565D3*
X48896D3*
X50566Y12695D3*
X49896D3*
D139*
X20065Y31065D3*
Y30396D3*
D137*
X20690Y29690D3*
X20021D3*
X21065Y26690D3*
X20396D3*
X21065Y27440D3*
X20396D3*
X16793Y30605D3*
X17462D3*
X16815Y29690D3*
X17484D3*
D139*
X6690Y34440D3*
Y35109D3*
D137*
X17315Y26502D3*
X16646D3*
X17315Y27315D3*
X16646D3*
D139*
X50627Y30190D3*
Y29521D3*
X43002Y30315D3*
Y29646D3*
X35252Y30315D3*
Y29646D3*
D113*
X49190Y31440D3*
X51395D3*
X41565Y31563D3*
X43770D3*
X33815Y31561D3*
X36020D3*
D139*
X49877Y30190D3*
Y29521D3*
X42377Y30315D3*
Y29646D3*
X34502Y30315D3*
Y29646D3*
D137*
X47877Y31690D3*
X47208D3*
X40377D3*
X39708D3*
X32627D3*
X31958D3*
D139*
X46565Y30940D3*
Y31609D3*
X39065Y30940D3*
Y31609D3*
X31315Y31065D3*
Y31734D3*
X46877Y26690D3*
Y27359D3*
X39440Y26690D3*
Y27359D3*
X31815Y26690D3*
Y27359D3*
D137*
X40127Y28065D3*
X39458D3*
X32440D3*
X31771D3*
X47627D3*
X46958D3*
D139*
X51003Y8378D3*
Y7708D3*
X52128Y8378D3*
Y7708D3*
X5315Y6230D3*
Y5561D3*
D109*
X35071Y14727D3*
Y14530D3*
Y14334D3*
Y14137D3*
Y13940D3*
Y13743D3*
Y13546D3*
Y13349D3*
Y13153D3*
Y12956D3*
Y12759D3*
Y12562D3*
Y12365D3*
Y12168D3*
Y11971D3*
Y11775D3*
D107*
X35838Y11007D3*
X36035D3*
X36232D3*
X36429D3*
X36626D3*
X36823D3*
X37020D3*
X37216D3*
X37413D3*
X37610D3*
X37807D3*
X38004D3*
X38201D3*
X38398D3*
X38594D3*
X38791D3*
D109*
X39559Y11775D3*
Y11971D3*
Y12168D3*
Y12365D3*
Y12562D3*
Y12759D3*
Y12956D3*
Y13153D3*
Y13349D3*
Y13546D3*
Y13743D3*
Y13940D3*
Y14137D3*
Y14334D3*
Y14530D3*
Y14727D3*
D107*
X38791Y15495D3*
X38594D3*
X38398D3*
X38201D3*
X38004D3*
X37807D3*
X37610D3*
X37413D3*
X37216D3*
X37020D3*
X36823D3*
X36626D3*
X36429D3*
X36232D3*
X36035D3*
X35838D3*
D105*
X23880Y18687D3*
Y18432D3*
Y18176D3*
Y17920D3*
X25612D3*
Y18176D3*
Y18432D3*
Y18687D3*
D103*
X51195Y16250D3*
X50939D3*
X50683D3*
X50427D3*
Y14517D3*
X50683D3*
X50939D3*
X51195D3*
D101*
X22820Y14413D3*
Y15161D3*
X21915Y14787D3*
D99*
X49128Y28002D3*
Y27502D3*
Y27002D3*
Y26502D3*
X51254D3*
Y27002D3*
Y27502D3*
Y28002D3*
X41543Y28100D3*
Y27600D3*
Y27100D3*
Y26600D3*
X43669D3*
Y27100D3*
Y27600D3*
Y28100D3*
X33940Y28065D3*
Y27565D3*
Y27065D3*
Y26565D3*
X36066D3*
Y27065D3*
Y27565D3*
Y28065D3*
D97*
X49752Y9690D3*
Y10064D3*
Y10438D3*
X48690D3*
Y9690D3*
D95*
X8690Y6124D3*
Y6374D3*
Y6624D3*
Y6874D3*
Y7124D3*
Y7374D3*
Y7624D3*
Y7874D3*
Y8124D3*
Y8374D3*
Y8624D3*
Y8874D3*
X6565D3*
Y8624D3*
Y8374D3*
Y8124D3*
Y7874D3*
Y7624D3*
Y7374D3*
Y7124D3*
Y6874D3*
Y6624D3*
Y6374D3*
Y6124D3*
D93*
X52503Y10252D3*
Y10056D3*
Y9859D3*
Y9662D3*
X52699D3*
X52896D3*
X53093D3*
Y9859D3*
Y10056D3*
Y10252D3*
X52896D3*
X52699D3*
D91*
X43883Y11790D3*
Y15136D3*
D59*
X8940Y30440D3*
Y29730D3*
D31*
X12065Y32940D3*
Y31760D3*
D60*
X6440Y23940D3*
Y25120D3*
D61*
X7315Y28940D3*
X7645D3*
D62*
X12065Y28315D3*
Y30925D3*
D63*
X10565Y26440D3*
Y22800D3*
D139*
X6690Y32940D3*
Y33609D3*
X5940Y29940D3*
Y29271D3*
Y32440D3*
Y31771D3*
Y33690D3*
Y33021D3*
Y31190D3*
Y30521D3*
D66*
X8251Y31750D3*
X7751D3*
X7251D3*
X6751D3*
Y29604D3*
X7251D3*
X7751D3*
X8251D3*
D67*
X7501Y30677D3*
M02*
