G04 DipTrace 2.4.0.2*
%INTopSilk.gbr*%
%MOIN*%
%ADD10C,0.0098*%
%ADD12C,0.003*%
%ADD23C,0.01*%
%ADD31C,0.006*%
%ADD33C,0.0197*%
%ADD35C,0.0236*%
%ADD42O,0.0X0.016*%
%ADD45C,0.0154*%
%ADD49C,0.0295*%
%ADD66C,0.0079*%
%ADD149C,0.0077*%
%ADD150C,0.0046*%
%FSLAX44Y44*%
G04*
G70*
G90*
G75*
G01*
%LNTopSilk*%
%LPD*%
X17496Y3955D2*
D10*
X12772D1*
X17496D2*
Y5136D1*
X12772Y3955D2*
Y5136D1*
X13067Y9762D2*
X13756D1*
X16512D2*
X17201D1*
X12772Y8974D2*
Y9368D1*
X17496Y8974D2*
Y9368D1*
X51970Y36979D2*
D31*
Y37456D1*
X50910D2*
Y36979D1*
X44470Y36916D2*
Y37394D1*
X43410D2*
Y36916D1*
X36630Y36891D2*
Y37369D1*
X35570D2*
Y36891D1*
X13189Y11827D2*
D10*
Y13796D1*
X14567D1*
Y11827D1*
X13189D2*
X13583D1*
X14567D2*
X14173D1*
X13583D2*
G02X14173Y11827I295J0D01*
G01*
D33*
X15059Y11729D3*
X45422Y15592D2*
D10*
Y15907D1*
X28715Y18095D2*
Y17780D1*
X45422Y14092D2*
Y14407D1*
X9356Y33670D2*
Y35442D1*
X10774Y33670D2*
Y35442D1*
X9356D2*
X9455D1*
X9356Y33670D2*
X9455D1*
X10675Y35442D2*
X10774D1*
X10675Y33670D2*
X10774D1*
D35*
X10065Y32952D3*
X32358Y25781D2*
D10*
Y26096D1*
X39922Y25781D2*
Y26096D1*
X47672Y25656D2*
Y25971D1*
X13911Y17927D2*
X13596D1*
X13286Y17921D2*
X12971D1*
X12661Y17927D2*
X12346D1*
X12036D2*
X11721D1*
X11411D2*
X11096D1*
X10786D2*
X10471D1*
X10161D2*
X9846D1*
X9536D2*
X9221D1*
X8910D2*
X8596D1*
X8285D2*
X7970D1*
X7660D2*
X7345D1*
X7035D2*
X6720D1*
X6410D2*
X6095D1*
X5785D2*
X5470D1*
X5160D2*
X4845D1*
X4535D2*
X4220D1*
X22650Y16660D2*
Y16345D1*
X52956Y40930D2*
X56893D1*
Y36206D1*
X52956D1*
Y40930D1*
X50924Y39543D2*
X45019D1*
Y42811D1*
X50924D1*
Y39543D1*
X43362Y39481D2*
X37456D1*
Y42749D1*
X43362D1*
Y39481D1*
X35674Y39418D2*
X29769D1*
Y42686D1*
X35674D1*
Y39418D1*
X50440Y21440D2*
Y22440D1*
X25440Y21440D2*
X50440D1*
X25440D2*
Y22440D1*
X26190D1*
X50440D1*
Y4440D2*
Y5440D1*
X25440Y4440D2*
X50440D1*
X25440D2*
Y5440D1*
X26190D1*
X50440D1*
X18502Y4503D2*
X24502D1*
X18502Y5503D2*
X24502D1*
X18502Y4503D2*
Y5503D1*
X24502Y4503D2*
Y5503D1*
X57758Y7999D2*
Y13999D1*
X56758Y7999D2*
Y13999D1*
X57758Y7999D2*
X56758D1*
X57758Y13999D2*
X56758D1*
X9877Y13253D2*
X8877D1*
X9877Y11253D2*
Y13253D1*
Y11253D2*
X8877D1*
Y13253D1*
X56753Y18377D2*
X57753D1*
Y15377D1*
X56753D2*
X57753D1*
X56753Y18377D2*
Y15377D1*
X57753Y20378D2*
Y26378D1*
X56753Y20378D2*
Y26378D1*
X57753Y20378D2*
X56753D1*
X57753Y26378D2*
X56753D1*
X5644Y41242D2*
X9581D1*
Y36518D1*
X5644D1*
Y41242D1*
D42*
X12080Y37360D3*
X11440Y36940D2*
D10*
X16440D1*
Y40660D1*
X11440D1*
Y36940D1*
D42*
X27800Y28020D3*
X28440Y28440D2*
D10*
X23440D1*
Y24720D1*
X28440D1*
Y28440D1*
D42*
X18080Y37360D3*
X17440Y36940D2*
D10*
X22440D1*
Y40660D1*
X17440D1*
Y36940D1*
D45*
X20007Y28043D3*
X20099Y28544D2*
D10*
X21280D1*
Y28741D1*
X20099D1*
Y28544D1*
D42*
X18925Y22020D3*
X19565Y22440D2*
D10*
X14565D1*
Y18720D1*
X19565D1*
Y22440D1*
D42*
X24080Y37360D3*
X23440Y36940D2*
D10*
X28440D1*
Y40660D1*
X23440D1*
Y36940D1*
D45*
X16257Y27918D3*
X16349Y28419D2*
D10*
X17530D1*
Y28616D1*
X16349D1*
Y28419D1*
D42*
X46142Y35610D3*
X45502Y35190D2*
D10*
X50502D1*
Y38910D1*
X45502D1*
Y35190D1*
D42*
X38580Y35610D3*
X37940Y35190D2*
D10*
X42940D1*
Y38910D1*
X37940D1*
Y35190D1*
D42*
X30830Y35485D3*
X30190Y35065D2*
D10*
X35190D1*
Y38785D1*
X30190D1*
Y35065D1*
D45*
X46507Y29168D3*
X46599Y29669D2*
D10*
X47780D1*
Y29866D1*
X46599D1*
Y29669D1*
D45*
X39257Y29293D3*
X39349Y29794D2*
D10*
X40530D1*
Y29991D1*
X39349D1*
Y29794D1*
D45*
X31382Y29293D3*
X31474Y29794D2*
D10*
X32655D1*
Y29991D1*
X31474D1*
Y29794D1*
X49663Y32031D2*
X50922D1*
X49663Y30849D2*
X50922D1*
X42038Y32154D2*
X43297D1*
X42038Y30972D2*
X43297D1*
X34288Y32152D2*
X35547D1*
X34288Y30970D2*
X35547D1*
X50012Y11062D2*
G02X50012Y11062I433J0D01*
G01*
X51012D2*
G02X51012Y11062I433J0D01*
G01*
X11695Y36127D2*
G02X11695Y36127I433J0D01*
G01*
X22446Y32376D2*
G02X22446Y32376I433J0D01*
G01*
X21134Y19563D2*
G02X21134Y19563I433J0D01*
G01*
X35051Y14924D2*
Y15515D1*
X35642D2*
X35051D1*
X38988D2*
X39579D1*
Y14924D1*
Y11578D2*
Y10987D1*
X38988D1*
X35642D2*
X35051D1*
Y11578D1*
D49*
X34510Y14973D3*
X24313Y18894D2*
D10*
Y17713D1*
X25179Y18894D2*
Y17713D1*
X24313D2*
X25179D1*
X24313Y18894D2*
X24588D1*
X24903D2*
X25179D1*
X24588D2*
G03X24903Y18894I158J0D01*
G01*
X51402Y15817D2*
X50220D1*
X51402Y14950D2*
X50220D1*
Y15817D2*
Y14950D1*
X51402Y15817D2*
Y15541D1*
Y15226D2*
Y14950D1*
Y15541D2*
G03X51402Y15226I0J-158D01*
G01*
D45*
X22967Y14105D3*
X22466Y14197D2*
D10*
Y15378D1*
X22269D1*
Y14197D1*
X22466D1*
X49679Y28236D2*
Y26267D1*
X50703Y28236D2*
Y26267D1*
X49679D2*
X50703D1*
X49994Y28236D2*
X49679D1*
X50388D2*
X50703D1*
X49994D2*
G03X50388Y28236I197J0D01*
G01*
X42094Y28334D2*
Y26366D1*
X43118Y28334D2*
Y26366D1*
X42094D2*
X43118D1*
X42409Y28334D2*
X42094D1*
X42803D2*
X43118D1*
X42409D2*
G03X42803Y28334I197J0D01*
G01*
X34491Y28299D2*
Y26331D1*
X35515Y28299D2*
Y26331D1*
X34491D2*
X35515D1*
X34806Y28299D2*
X34491D1*
X35200D2*
X35515D1*
X34806D2*
G03X35200Y28299I197J0D01*
G01*
D45*
X49919Y9421D3*
X49378Y9473D2*
D10*
Y10655D1*
X49063Y9473D2*
Y10655D1*
X49378D2*
X49063D1*
X49378Y9473D2*
X49063D1*
X8177Y5766D2*
Y9231D1*
X7078Y5766D2*
Y9231D1*
X8177D2*
X7078D1*
X8177Y5766D2*
X7823D1*
X7432D2*
X7078D1*
X7823D2*
G03X7432Y5766I-196J2D01*
G01*
X52306Y10449D2*
X53290D1*
Y9465D1*
X52306D1*
Y10449D1*
D33*
X52109Y10252D3*
X43489Y11003D2*
D10*
X42702D1*
Y15924D1*
X43489D1*
X44277D2*
X45064D1*
Y11003D1*
X44277D1*
X11535Y32589D2*
D31*
Y32111D1*
X12595D2*
Y32589D1*
X6795Y24291D2*
Y24769D1*
X6085D2*
Y24291D1*
X11349Y31020D2*
X10840D1*
X12781Y28220D2*
X13290D1*
X12065Y27829D2*
Y27662D1*
X11815Y27762D2*
X12315D1*
X13290Y28220D2*
Y31020D1*
X12781D1*
X10840D2*
Y28220D1*
X11349D1*
X13225Y25374D2*
Y23866D1*
X7905D2*
Y25374D1*
X6320Y27626D2*
D10*
G02X6320Y27626I433J0D01*
G01*
X8757Y28001D2*
G02X8757Y28001I433J0D01*
G01*
X5445Y21000D2*
G02X5445Y21000I433J0D01*
G01*
X6517Y31120D2*
D66*
Y30244D1*
X8485Y31947D2*
Y30224D1*
G36*
X55253Y9252D2*
Y7627D1*
X56627Y8502D1*
D1*
X55253Y9252D1*
G37*
X53065Y13628D2*
D23*
X55690D1*
X54378Y14815D2*
Y12440D1*
X54622Y14174D2*
G02X54622Y14174I281J0D01*
G01*
X54902Y14173D2*
D3*
X54670Y15220D2*
X55030D1*
X54850Y15400D2*
Y15040D1*
X53080Y13990D2*
X53440D1*
X53260Y14170D2*
Y13810D1*
X55690Y14650D2*
X56050D1*
X55870Y14830D2*
Y14470D1*
X56446Y23375D2*
X54945D1*
X14376Y10593D2*
D149*
Y10090D1*
X14592D1*
X14664Y10114D1*
X14687Y10138D1*
X14711Y10186D1*
Y10258D1*
X14687Y10306D1*
X14664Y10329D1*
X14592Y10353D1*
X14664Y10378D1*
X14687Y10401D1*
X14711Y10449D1*
Y10497D1*
X14687Y10544D1*
X14664Y10569D1*
X14592Y10593D1*
X14376D1*
Y10353D2*
X14592D1*
X14865Y10593D2*
Y10090D1*
X15152D1*
X15617Y10593D2*
X15307D1*
Y10090D1*
X15617D1*
X15307Y10353D2*
X15498D1*
X15772Y10496D2*
X15820Y10521D1*
X15892Y10592D1*
Y10090D1*
X36949Y18417D2*
X36901Y18393D1*
X36853Y18345D1*
X36829Y18297D1*
Y18202D1*
X36853Y18154D1*
X36901Y18106D1*
X36949Y18082D1*
X37020Y18058D1*
X37140D1*
X37212Y18082D1*
X37260Y18106D1*
X37307Y18154D1*
X37332Y18202D1*
Y18297D1*
X37307Y18345D1*
X37260Y18393D1*
X37212Y18417D1*
X36925Y18571D2*
X36901Y18619D1*
X36830Y18691D1*
X37332D1*
X36318Y18709D2*
X36270Y18686D1*
X36222Y18637D1*
X36198Y18590D1*
Y18494D1*
X36222Y18446D1*
X36270Y18399D1*
X36318Y18374D1*
X36390Y18351D1*
X36510D1*
X36581Y18374D1*
X36629Y18399D1*
X36676Y18446D1*
X36701Y18494D1*
Y18590D1*
X36676Y18637D1*
X36629Y18686D1*
X36581Y18709D1*
X36318Y18888D2*
X36295D1*
X36246Y18912D1*
X36223Y18936D1*
X36199Y18984D1*
Y19079D1*
X36223Y19127D1*
X36246Y19151D1*
X36295Y19175D1*
X36342D1*
X36390Y19151D1*
X36461Y19103D1*
X36701Y18864D1*
Y19199D1*
X33449Y11809D2*
X33401Y11785D1*
X33353Y11737D1*
X33329Y11690D1*
Y11594D1*
X33353Y11546D1*
X33401Y11499D1*
X33449Y11474D1*
X33520Y11450D1*
X33640D1*
X33712Y11474D1*
X33760Y11499D1*
X33807Y11546D1*
X33832Y11594D1*
Y11690D1*
X33807Y11737D1*
X33760Y11785D1*
X33712Y11809D1*
X33330Y12012D2*
Y12274D1*
X33521Y12131D1*
Y12203D1*
X33545Y12250D1*
X33569Y12274D1*
X33640Y12298D1*
X33688D1*
X33760Y12274D1*
X33808Y12227D1*
X33832Y12155D1*
Y12083D1*
X33808Y12012D1*
X33784Y11988D1*
X33736Y11964D1*
X32761Y11797D2*
X32714Y11774D1*
X32665Y11725D1*
X32642Y11678D1*
Y11582D1*
X32665Y11534D1*
X32714Y11487D1*
X32761Y11462D1*
X32833Y11439D1*
X32953D1*
X33024Y11462D1*
X33072Y11487D1*
X33120Y11534D1*
X33144Y11582D1*
Y11678D1*
X33120Y11725D1*
X33072Y11774D1*
X33024Y11797D1*
X33144Y12191D2*
X32642D1*
X32977Y11952D1*
Y12310D1*
X38608Y9287D2*
X38585Y9335D1*
X38536Y9383D1*
X38489Y9406D1*
X38393D1*
X38345Y9383D1*
X38298Y9335D1*
X38273Y9287D1*
X38250Y9215D1*
Y9095D1*
X38273Y9024D1*
X38298Y8976D1*
X38345Y8928D1*
X38393Y8904D1*
X38489D1*
X38536Y8928D1*
X38585Y8976D1*
X38608Y9024D1*
X39050Y9406D2*
X38811D1*
X38787Y9191D1*
X38811Y9215D1*
X38883Y9239D1*
X38954D1*
X39026Y9215D1*
X39074Y9167D1*
X39098Y9095D1*
Y9048D1*
X39074Y8976D1*
X39026Y8928D1*
X38954Y8904D1*
X38883D1*
X38811Y8928D1*
X38787Y8952D1*
X38763Y9000D1*
X38620Y9912D2*
X38597Y9960D1*
X38549Y10008D1*
X38501Y10031D1*
X38405D1*
X38357Y10008D1*
X38310Y9960D1*
X38286Y9912D1*
X38262Y9840D1*
Y9720D1*
X38286Y9649D1*
X38310Y9601D1*
X38357Y9553D1*
X38405Y9529D1*
X38501D1*
X38549Y9553D1*
X38597Y9601D1*
X38620Y9649D1*
X39062Y9960D2*
X39038Y10007D1*
X38966Y10031D1*
X38919D1*
X38847Y10007D1*
X38799Y9935D1*
X38775Y9816D1*
Y9696D1*
X38799Y9601D1*
X38847Y9553D1*
X38919Y9529D1*
X38942D1*
X39014Y9553D1*
X39062Y9601D1*
X39085Y9673D1*
Y9696D1*
X39062Y9768D1*
X39014Y9816D1*
X38942Y9840D1*
X38919D1*
X38847Y9816D1*
X38799Y9768D1*
X38775Y9696D1*
X40749Y11069D2*
X40701Y11045D1*
X40653Y10997D1*
X40629Y10949D1*
Y10854D1*
X40653Y10806D1*
X40701Y10758D1*
X40749Y10734D1*
X40821Y10710D1*
X40940D1*
X41012Y10734D1*
X41060Y10758D1*
X41107Y10806D1*
X41132Y10854D1*
Y10949D1*
X41107Y10997D1*
X41060Y11045D1*
X41012Y11069D1*
X41132Y11319D2*
X40630Y11558D1*
Y11223D1*
X41374Y11069D2*
X41326Y11045D1*
X41278Y10997D1*
X41254Y10949D1*
Y10854D1*
X41278Y10806D1*
X41326Y10758D1*
X41374Y10734D1*
X41446Y10710D1*
X41565D1*
X41637Y10734D1*
X41685Y10758D1*
X41732Y10806D1*
X41757Y10854D1*
Y10949D1*
X41732Y10997D1*
X41685Y11045D1*
X41637Y11069D1*
X41255Y11343D2*
X41279Y11271D1*
X41326Y11247D1*
X41374D1*
X41422Y11271D1*
X41446Y11319D1*
X41470Y11414D1*
X41494Y11486D1*
X41542Y11534D1*
X41589Y11558D1*
X41661D1*
X41709Y11534D1*
X41733Y11510D1*
X41757Y11438D1*
Y11343D1*
X41733Y11271D1*
X41709Y11247D1*
X41661Y11223D1*
X41589D1*
X41542Y11247D1*
X41494Y11295D1*
X41470Y11366D1*
X41446Y11462D1*
X41422Y11510D1*
X41374Y11534D1*
X41326D1*
X41279Y11510D1*
X41255Y11438D1*
Y11343D1*
X36489Y9875D2*
X36466Y9922D1*
X36418Y9970D1*
X36370Y9994D1*
X36274D1*
X36226Y9970D1*
X36179Y9922D1*
X36154Y9875D1*
X36131Y9803D1*
Y9683D1*
X36154Y9612D1*
X36179Y9564D1*
X36226Y9516D1*
X36274Y9492D1*
X36370D1*
X36418Y9516D1*
X36466Y9564D1*
X36489Y9612D1*
X36955Y9827D2*
X36931Y9755D1*
X36883Y9707D1*
X36811Y9683D1*
X36788D1*
X36716Y9707D1*
X36668Y9755D1*
X36644Y9827D1*
Y9850D1*
X36668Y9922D1*
X36716Y9970D1*
X36788Y9994D1*
X36811D1*
X36883Y9970D1*
X36931Y9922D1*
X36955Y9827D1*
Y9707D1*
X36931Y9587D1*
X36883Y9515D1*
X36811Y9492D1*
X36764D1*
X36692Y9515D1*
X36668Y9564D1*
X36300Y9272D2*
X36276Y9319D1*
X36228Y9367D1*
X36181Y9391D1*
X36085D1*
X36037Y9367D1*
X35989Y9319D1*
X35965Y9272D1*
X35941Y9200D1*
Y9080D1*
X35965Y9009D1*
X35989Y8961D1*
X36037Y8913D1*
X36085Y8889D1*
X36181D1*
X36228Y8913D1*
X36276Y8961D1*
X36300Y9009D1*
X36454Y9295D2*
X36503Y9319D1*
X36574Y9391D1*
Y8889D1*
X36872Y9391D2*
X36801Y9367D1*
X36753Y9295D1*
X36729Y9176D1*
Y9104D1*
X36753Y8984D1*
X36801Y8913D1*
X36872Y8889D1*
X36920D1*
X36992Y8913D1*
X37039Y8984D1*
X37064Y9104D1*
Y9176D1*
X37039Y9295D1*
X36992Y9367D1*
X36920Y9391D1*
X36872D1*
X37039Y9295D2*
X36753Y8984D1*
X38068Y17180D2*
X38020Y17156D1*
X37972Y17108D1*
X37949Y17060D1*
Y16965D1*
X37972Y16917D1*
X38020Y16869D1*
X38068Y16845D1*
X38140Y16821D1*
X38260D1*
X38331Y16845D1*
X38379Y16869D1*
X38427Y16917D1*
X38451Y16965D1*
Y17060D1*
X38427Y17108D1*
X38379Y17156D1*
X38331Y17180D1*
X38045Y17334D2*
X38020Y17382D1*
X37949Y17454D1*
X38451D1*
X38045Y17608D2*
X38020Y17656D1*
X37949Y17728D1*
X38451D1*
X42074Y15672D2*
X42026Y15648D1*
X41978Y15600D1*
X41954Y15553D1*
Y15457D1*
X41978Y15409D1*
X42026Y15361D1*
X42074Y15337D1*
X42145Y15313D1*
X42265D1*
X42337Y15337D1*
X42385Y15361D1*
X42432Y15409D1*
X42457Y15457D1*
Y15553D1*
X42432Y15600D1*
X42385Y15648D1*
X42337Y15672D1*
X42050Y15826D2*
X42026Y15874D1*
X41955Y15946D1*
X42457D1*
X42074Y16125D2*
X42050D1*
X42002Y16149D1*
X41978Y16173D1*
X41955Y16221D1*
Y16316D1*
X41978Y16364D1*
X42002Y16388D1*
X42050Y16412D1*
X42098D1*
X42146Y16388D1*
X42217Y16340D1*
X42457Y16101D1*
Y16436D1*
X27840Y12875D2*
X27817Y12922D1*
X27769Y12970D1*
X27721Y12994D1*
X27625D1*
X27577Y12970D1*
X27530Y12922D1*
X27505Y12875D1*
X27482Y12803D1*
Y12683D1*
X27505Y12612D1*
X27530Y12564D1*
X27577Y12516D1*
X27625Y12492D1*
X27721D1*
X27769Y12516D1*
X27817Y12564D1*
X27840Y12612D1*
X27995Y12898D2*
X28043Y12922D1*
X28115Y12994D1*
Y12492D1*
X28317Y12994D2*
X28580D1*
X28437Y12802D1*
X28508D1*
X28556Y12779D1*
X28580Y12755D1*
X28604Y12683D1*
Y12635D1*
X28580Y12564D1*
X28532Y12515D1*
X28460Y12492D1*
X28388D1*
X28317Y12515D1*
X28293Y12540D1*
X28269Y12587D1*
X42136Y10553D2*
X42089Y10530D1*
X42040Y10481D1*
X42017Y10434D1*
Y10338D1*
X42040Y10290D1*
X42089Y10243D1*
X42136Y10218D1*
X42208Y10195D1*
X42328D1*
X42399Y10218D1*
X42447Y10243D1*
X42495Y10290D1*
X42519Y10338D1*
Y10434D1*
X42495Y10481D1*
X42447Y10530D1*
X42399Y10553D1*
X42113Y10708D2*
X42089Y10756D1*
X42017Y10828D1*
X42519D1*
Y11221D2*
X42017D1*
X42352Y10982D1*
Y11341D1*
X46506Y17284D2*
X46458Y17260D1*
X46410Y17212D1*
X46386Y17164D1*
Y17069D1*
X46410Y17020D1*
X46458Y16973D1*
X46506Y16949D1*
X46577Y16925D1*
X46697D1*
X46769Y16949D1*
X46817Y16973D1*
X46864Y17020D1*
X46889Y17069D1*
Y17164D1*
X46864Y17212D1*
X46817Y17260D1*
X46769Y17284D1*
X46482Y17438D2*
X46458Y17486D1*
X46387Y17558D1*
X46889D1*
X46387Y17999D2*
Y17760D1*
X46602Y17737D1*
X46578Y17760D1*
X46554Y17832D1*
Y17903D1*
X46578Y17975D1*
X46626Y18023D1*
X46697Y18047D1*
X46745D1*
X46817Y18023D1*
X46865Y17975D1*
X46889Y17903D1*
Y17832D1*
X46865Y17760D1*
X46841Y17737D1*
X46793Y17712D1*
X20820Y17412D2*
X20772Y17389D1*
X20724Y17341D1*
X20701Y17293D1*
Y17197D1*
X20724Y17149D1*
X20772Y17102D1*
X20820Y17078D1*
X20892Y17054D1*
X21012D1*
X21083Y17078D1*
X21131Y17102D1*
X21179Y17149D1*
X21203Y17197D1*
Y17293D1*
X21179Y17341D1*
X21131Y17389D1*
X21083Y17412D1*
X20797Y17567D2*
X20772Y17615D1*
X20701Y17687D1*
X21203D1*
X20772Y18128D2*
X20725Y18104D1*
X20701Y18032D1*
Y17985D1*
X20725Y17913D1*
X20797Y17865D1*
X20916Y17841D1*
X21035D1*
X21131Y17865D1*
X21179Y17913D1*
X21203Y17985D1*
Y18009D1*
X21179Y18080D1*
X21131Y18128D1*
X21059Y18152D1*
X21035D1*
X20964Y18128D1*
X20916Y18080D1*
X20892Y18009D1*
Y17985D1*
X20916Y17913D1*
X20964Y17865D1*
X21035Y17841D1*
X47755Y17260D2*
X47708Y17236D1*
X47660Y17188D1*
X47636Y17140D1*
Y17045D1*
X47660Y16997D1*
X47708Y16949D1*
X47755Y16925D1*
X47827Y16901D1*
X47947D1*
X48018Y16925D1*
X48066Y16949D1*
X48114Y16997D1*
X48138Y17045D1*
Y17140D1*
X48114Y17188D1*
X48066Y17236D1*
X48018Y17260D1*
X47732Y17414D2*
X47708Y17462D1*
X47636Y17534D1*
X48138D1*
Y17784D2*
X47636Y18023D1*
Y17688D1*
X24761Y16773D2*
X24713Y16749D1*
X24665Y16701D1*
X24641Y16653D1*
Y16558D1*
X24665Y16510D1*
X24713Y16462D1*
X24761Y16438D1*
X24833Y16414D1*
X24953D1*
X25024Y16438D1*
X25072Y16462D1*
X25120Y16510D1*
X25144Y16558D1*
Y16653D1*
X25120Y16701D1*
X25072Y16749D1*
X25024Y16773D1*
X24738Y16927D2*
X24713Y16975D1*
X24642Y17047D1*
X25144D1*
X24642Y17321D2*
X24666Y17250D1*
X24713Y17225D1*
X24761D1*
X24809Y17250D1*
X24833Y17297D1*
X24857Y17393D1*
X24881Y17465D1*
X24929Y17512D1*
X24976Y17536D1*
X25048D1*
X25096Y17512D1*
X25120Y17488D1*
X25144Y17416D1*
Y17321D1*
X25120Y17250D1*
X25096Y17225D1*
X25048Y17201D1*
X24976D1*
X24929Y17225D1*
X24881Y17273D1*
X24857Y17345D1*
X24833Y17440D1*
X24809Y17488D1*
X24761Y17512D1*
X24713D1*
X24666Y17488D1*
X24642Y17416D1*
Y17321D1*
X52443Y15209D2*
X52395Y15185D1*
X52347Y15137D1*
X52323Y15090D1*
Y14994D1*
X52347Y14946D1*
X52395Y14898D1*
X52443Y14874D1*
X52515Y14850D1*
X52635D1*
X52706Y14874D1*
X52754Y14898D1*
X52801Y14946D1*
X52826Y14994D1*
Y15090D1*
X52801Y15137D1*
X52754Y15185D1*
X52706Y15209D1*
X52420Y15363D2*
X52395Y15412D1*
X52324Y15483D1*
X52826D1*
X52491Y15949D2*
X52563Y15925D1*
X52611Y15877D1*
X52635Y15805D1*
Y15781D1*
X52611Y15710D1*
X52563Y15662D1*
X52491Y15638D1*
X52467D1*
X52395Y15662D1*
X52348Y15710D1*
X52324Y15781D1*
Y15805D1*
X52348Y15877D1*
X52395Y15925D1*
X52491Y15949D1*
X52611D1*
X52730Y15925D1*
X52802Y15877D1*
X52826Y15805D1*
Y15758D1*
X52802Y15686D1*
X52754Y15662D1*
X46318Y12782D2*
X46271Y12759D1*
X46222Y12710D1*
X46199Y12663D1*
Y12567D1*
X46222Y12519D1*
X46271Y12472D1*
X46318Y12447D1*
X46390Y12424D1*
X46510D1*
X46581Y12447D1*
X46629Y12472D1*
X46677Y12519D1*
X46701Y12567D1*
Y12663D1*
X46677Y12710D1*
X46629Y12759D1*
X46581Y12782D1*
X46319Y12961D2*
X46295D1*
X46247Y12985D1*
X46223Y13009D1*
X46199Y13057D1*
Y13152D1*
X46223Y13200D1*
X46247Y13224D1*
X46295Y13248D1*
X46342D1*
X46390Y13224D1*
X46462Y13176D1*
X46701Y12937D1*
Y13272D1*
X46199Y13570D2*
X46223Y13498D1*
X46295Y13450D1*
X46414Y13426D1*
X46486D1*
X46605Y13450D1*
X46677Y13498D1*
X46701Y13570D1*
Y13617D1*
X46677Y13689D1*
X46605Y13737D1*
X46486Y13761D1*
X46414D1*
X46295Y13737D1*
X46223Y13689D1*
X46199Y13617D1*
Y13570D1*
X46295Y13737D2*
X46605Y13450D1*
X47756Y12908D2*
X47708Y12884D1*
X47660Y12836D1*
X47636Y12789D1*
Y12693D1*
X47660Y12645D1*
X47708Y12597D1*
X47756Y12573D1*
X47828Y12549D1*
X47948D1*
X48019Y12573D1*
X48067Y12597D1*
X48114Y12645D1*
X48139Y12693D1*
Y12789D1*
X48114Y12836D1*
X48067Y12884D1*
X48019Y12908D1*
X47756Y13087D2*
X47733D1*
X47684Y13111D1*
X47661Y13134D1*
X47637Y13182D1*
Y13278D1*
X47661Y13326D1*
X47684Y13349D1*
X47733Y13374D1*
X47780D1*
X47828Y13349D1*
X47899Y13302D1*
X48139Y13062D1*
Y13397D1*
X47733Y13552D2*
X47708Y13600D1*
X47637Y13672D1*
X48139D1*
X24426Y20807D2*
X24402Y20855D1*
X24354Y20903D1*
X24306Y20926D1*
X24211D1*
X24163Y20903D1*
X24115Y20855D1*
X24091Y20807D1*
X24067Y20735D1*
Y20615D1*
X24091Y20544D1*
X24115Y20496D1*
X24163Y20448D1*
X24211Y20424D1*
X24306D1*
X24354Y20448D1*
X24402Y20496D1*
X24426Y20544D1*
X24605Y20806D2*
Y20830D1*
X24628Y20878D1*
X24652Y20902D1*
X24700Y20926D1*
X24796D1*
X24843Y20902D1*
X24867Y20878D1*
X24891Y20830D1*
Y20783D1*
X24867Y20735D1*
X24820Y20663D1*
X24580Y20424D1*
X24915D1*
X25094Y20806D2*
Y20830D1*
X25118Y20878D1*
X25141Y20902D1*
X25190Y20926D1*
X25285D1*
X25333Y20902D1*
X25356Y20878D1*
X25381Y20830D1*
Y20783D1*
X25356Y20735D1*
X25309Y20663D1*
X25070Y20424D1*
X25405D1*
X4683Y35093D2*
X4659Y35141D1*
X4611Y35189D1*
X4564Y35213D1*
X4468D1*
X4420Y35189D1*
X4373Y35141D1*
X4348Y35093D1*
X4324Y35021D1*
Y34901D1*
X4348Y34830D1*
X4373Y34782D1*
X4420Y34735D1*
X4468Y34710D1*
X4564D1*
X4611Y34735D1*
X4659Y34782D1*
X4683Y34830D1*
X4862Y35093D2*
Y35116D1*
X4886Y35165D1*
X4909Y35188D1*
X4958Y35212D1*
X5053D1*
X5101Y35188D1*
X5124Y35165D1*
X5149Y35116D1*
Y35069D1*
X5124Y35021D1*
X5077Y34950D1*
X4838Y34710D1*
X5172D1*
X5375Y35212D2*
X5638D1*
X5494Y35021D1*
X5566D1*
X5614Y34997D1*
X5638Y34973D1*
X5662Y34901D1*
Y34854D1*
X5638Y34782D1*
X5590Y34734D1*
X5518Y34710D1*
X5446D1*
X5375Y34734D1*
X5351Y34758D1*
X5327Y34806D1*
X22077Y13229D2*
X22054Y13277D1*
X22006Y13325D1*
X21958Y13349D1*
X21862D1*
X21814Y13325D1*
X21767Y13277D1*
X21743Y13229D1*
X21719Y13157D1*
Y13037D1*
X21743Y12966D1*
X21767Y12918D1*
X21814Y12870D1*
X21862Y12846D1*
X21958D1*
X22006Y12870D1*
X22054Y12918D1*
X22077Y12966D1*
X22256Y13229D2*
Y13252D1*
X22280Y13300D1*
X22304Y13324D1*
X22352Y13348D1*
X22447D1*
X22495Y13324D1*
X22519Y13300D1*
X22543Y13252D1*
Y13205D1*
X22519Y13157D1*
X22471Y13085D1*
X22232Y12846D1*
X22567D1*
X22961D2*
Y13348D1*
X22721Y13014D1*
X23080D1*
X23323Y14394D2*
X23275Y14370D1*
X23227Y14322D1*
X23203Y14274D1*
Y14179D1*
X23227Y14131D1*
X23275Y14083D1*
X23323Y14059D1*
X23395Y14035D1*
X23515D1*
X23586Y14059D1*
X23634Y14083D1*
X23682Y14131D1*
X23706Y14179D1*
Y14274D1*
X23682Y14322D1*
X23634Y14370D1*
X23586Y14394D1*
X23323Y14572D2*
X23300D1*
X23252Y14596D1*
X23228Y14620D1*
X23204Y14668D1*
Y14764D1*
X23228Y14811D1*
X23252Y14835D1*
X23300Y14859D1*
X23347D1*
X23395Y14835D1*
X23467Y14787D1*
X23706Y14548D1*
Y14883D1*
X23204Y15324D2*
Y15085D1*
X23419Y15062D1*
X23395Y15085D1*
X23371Y15157D1*
Y15229D1*
X23395Y15300D1*
X23443Y15349D1*
X23515Y15372D1*
X23562D1*
X23634Y15349D1*
X23682Y15300D1*
X23706Y15229D1*
Y15157D1*
X23682Y15085D1*
X23658Y15062D1*
X23610Y15037D1*
X51308Y28937D2*
X51285Y28984D1*
X51237Y29032D1*
X51189Y29056D1*
X51093D1*
X51045Y29032D1*
X50998Y28984D1*
X50973Y28937D1*
X50950Y28865D1*
Y28745D1*
X50973Y28673D1*
X50998Y28625D1*
X51045Y28578D1*
X51093Y28553D1*
X51189D1*
X51237Y28578D1*
X51285Y28625D1*
X51308Y28673D1*
X51487Y28936D2*
Y28960D1*
X51511Y29008D1*
X51535Y29032D1*
X51583Y29055D1*
X51678D1*
X51726Y29032D1*
X51750Y29008D1*
X51774Y28960D1*
Y28912D1*
X51750Y28864D1*
X51702Y28793D1*
X51463Y28553D1*
X51798D1*
X52239Y28984D2*
X52215Y29032D1*
X52143Y29055D1*
X52096D1*
X52024Y29032D1*
X51976Y28960D1*
X51952Y28840D1*
Y28721D1*
X51976Y28625D1*
X52024Y28577D1*
X52096Y28553D1*
X52120D1*
X52191Y28577D1*
X52239Y28625D1*
X52263Y28697D1*
Y28721D1*
X52239Y28793D1*
X52191Y28840D1*
X52120Y28864D1*
X52096D1*
X52024Y28840D1*
X51976Y28793D1*
X51952Y28721D1*
X43711Y29035D2*
X43687Y29082D1*
X43639Y29130D1*
X43592Y29154D1*
X43496D1*
X43448Y29130D1*
X43401Y29082D1*
X43376Y29035D1*
X43352Y28963D1*
Y28843D1*
X43376Y28772D1*
X43401Y28724D1*
X43448Y28676D1*
X43496Y28652D1*
X43592D1*
X43639Y28676D1*
X43687Y28724D1*
X43711Y28772D1*
X43890Y29034D2*
Y29058D1*
X43914Y29106D1*
X43937Y29130D1*
X43985Y29154D1*
X44081D1*
X44129Y29130D1*
X44152Y29106D1*
X44177Y29058D1*
Y29010D1*
X44152Y28962D1*
X44105Y28891D1*
X43866Y28652D1*
X44200D1*
X44450D2*
X44690Y29154D1*
X44355D1*
X35806Y28961D2*
X35783Y29009D1*
X35735Y29057D1*
X35687Y29081D1*
X35591D1*
X35543Y29057D1*
X35496Y29009D1*
X35472Y28961D1*
X35448Y28889D1*
Y28769D1*
X35472Y28698D1*
X35496Y28650D1*
X35543Y28603D1*
X35591Y28578D1*
X35687D1*
X35735Y28603D1*
X35783Y28650D1*
X35806Y28698D1*
X35985Y28961D2*
Y28984D1*
X36009Y29033D1*
X36033Y29056D1*
X36081Y29080D1*
X36176D1*
X36224Y29056D1*
X36248Y29033D1*
X36272Y28984D1*
Y28937D1*
X36248Y28889D1*
X36200Y28818D1*
X35961Y28578D1*
X36296D1*
X36570Y29080D2*
X36498Y29056D1*
X36474Y29009D1*
Y28961D1*
X36498Y28913D1*
X36546Y28889D1*
X36641Y28865D1*
X36713Y28841D1*
X36761Y28793D1*
X36785Y28746D1*
Y28674D1*
X36761Y28626D1*
X36737Y28602D1*
X36665Y28578D1*
X36570D1*
X36498Y28602D1*
X36474Y28626D1*
X36450Y28674D1*
Y28746D1*
X36474Y28793D1*
X36522Y28841D1*
X36593Y28865D1*
X36689Y28889D1*
X36737Y28913D1*
X36761Y28961D1*
Y29009D1*
X36737Y29056D1*
X36665Y29080D1*
X36570D1*
X45046Y27079D2*
X44998Y27056D1*
X44950Y27008D1*
X44926Y26960D1*
Y26864D1*
X44950Y26816D1*
X44998Y26769D1*
X45046Y26744D1*
X45118Y26721D1*
X45237D1*
X45309Y26744D1*
X45357Y26769D1*
X45404Y26816D1*
X45429Y26864D1*
Y26960D1*
X45404Y27008D1*
X45357Y27056D1*
X45309Y27079D1*
X45046Y27258D2*
X45022D1*
X44974Y27282D1*
X44951Y27306D1*
X44927Y27354D1*
Y27449D1*
X44951Y27497D1*
X44974Y27521D1*
X45022Y27545D1*
X45070D1*
X45118Y27521D1*
X45189Y27473D1*
X45429Y27234D1*
Y27569D1*
X45094Y28034D2*
X45166Y28010D1*
X45214Y27962D1*
X45237Y27891D1*
Y27867D1*
X45214Y27795D1*
X45166Y27747D1*
X45094Y27723D1*
X45070D1*
X44998Y27747D1*
X44951Y27795D1*
X44927Y27867D1*
Y27891D1*
X44951Y27962D1*
X44998Y28010D1*
X45094Y28034D1*
X45214D1*
X45333Y28010D1*
X45405Y27962D1*
X45429Y27891D1*
Y27843D1*
X45405Y27771D1*
X45357Y27747D1*
X37535Y27044D2*
X37487Y27020D1*
X37439Y26972D1*
X37416Y26924D1*
Y26829D1*
X37439Y26781D1*
X37487Y26733D1*
X37535Y26709D1*
X37607Y26685D1*
X37727D1*
X37798Y26709D1*
X37846Y26733D1*
X37894Y26781D1*
X37918Y26829D1*
Y26924D1*
X37894Y26972D1*
X37846Y27020D1*
X37798Y27044D1*
X37416Y27246D2*
Y27509D1*
X37607Y27365D1*
Y27437D1*
X37631Y27485D1*
X37655Y27509D1*
X37727Y27533D1*
X37774D1*
X37846Y27509D1*
X37894Y27461D1*
X37918Y27389D1*
Y27317D1*
X37894Y27246D1*
X37870Y27222D1*
X37822Y27198D1*
X37416Y27831D2*
X37440Y27759D1*
X37512Y27711D1*
X37631Y27687D1*
X37703D1*
X37822Y27711D1*
X37894Y27759D1*
X37918Y27831D1*
Y27879D1*
X37894Y27950D1*
X37822Y27998D1*
X37703Y28022D1*
X37631D1*
X37512Y27998D1*
X37440Y27950D1*
X37416Y27879D1*
Y27831D1*
X37512Y27998D2*
X37822Y27711D1*
X52755Y27028D2*
X52708Y27004D1*
X52660Y26956D1*
X52636Y26908D1*
Y26813D1*
X52660Y26765D1*
X52708Y26717D1*
X52755Y26693D1*
X52827Y26669D1*
X52947D1*
X53018Y26693D1*
X53066Y26717D1*
X53114Y26765D1*
X53138Y26813D1*
Y26908D1*
X53114Y26956D1*
X53066Y27004D1*
X53018Y27028D1*
X52636Y27230D2*
Y27493D1*
X52828Y27350D1*
Y27422D1*
X52851Y27469D1*
X52875Y27493D1*
X52947Y27517D1*
X52995D1*
X53066Y27493D1*
X53115Y27445D1*
X53138Y27374D1*
Y27302D1*
X53115Y27230D1*
X53090Y27207D1*
X53043Y27182D1*
X52732Y27672D2*
X52708Y27720D1*
X52636Y27792D1*
X53138D1*
X47059Y9797D2*
X47012Y9773D1*
X46964Y9725D1*
X46940Y9678D1*
Y9582D1*
X46964Y9534D1*
X47012Y9487D1*
X47059Y9462D1*
X47131Y9438D1*
X47251D1*
X47323Y9462D1*
X47371Y9487D1*
X47418Y9534D1*
X47442Y9582D1*
Y9678D1*
X47418Y9725D1*
X47371Y9773D1*
X47323Y9797D1*
X46941Y10000D2*
Y10262D1*
X47132Y10119D1*
Y10191D1*
X47156Y10238D1*
X47179Y10262D1*
X47251Y10287D1*
X47299D1*
X47371Y10262D1*
X47419Y10215D1*
X47442Y10143D1*
Y10071D1*
X47419Y10000D1*
X47394Y9976D1*
X47347Y9952D1*
X47012Y10728D2*
X46964Y10704D1*
X46941Y10632D1*
Y10585D1*
X46964Y10513D1*
X47036Y10465D1*
X47156Y10441D1*
X47275D1*
X47371Y10465D1*
X47419Y10513D1*
X47442Y10585D1*
Y10608D1*
X47419Y10680D1*
X47371Y10728D1*
X47299Y10752D1*
X47275D1*
X47203Y10728D1*
X47156Y10680D1*
X47132Y10608D1*
Y10585D1*
X47156Y10513D1*
X47203Y10465D1*
X47275Y10441D1*
X53568Y8152D2*
X53520Y8128D1*
X53472Y8080D1*
X53448Y8033D1*
Y7937D1*
X53472Y7889D1*
X53520Y7842D1*
X53568Y7817D1*
X53640Y7793D1*
X53760D1*
X53831Y7817D1*
X53879Y7842D1*
X53926Y7889D1*
X53951Y7937D1*
Y8033D1*
X53926Y8080D1*
X53879Y8128D1*
X53831Y8152D1*
X53449Y8355D2*
Y8617D1*
X53640Y8474D1*
Y8546D1*
X53664Y8593D1*
X53688Y8617D1*
X53760Y8642D1*
X53807D1*
X53879Y8617D1*
X53927Y8570D1*
X53951Y8498D1*
Y8426D1*
X53927Y8355D1*
X53903Y8331D1*
X53855Y8307D1*
X53951Y8892D2*
X53449Y9131D1*
Y8796D1*
X53027Y11625D2*
X53004Y11672D1*
X52956Y11720D1*
X52908Y11744D1*
X52812D1*
X52764Y11720D1*
X52717Y11672D1*
X52693Y11625D1*
X52669Y11553D1*
Y11433D1*
X52693Y11362D1*
X52717Y11314D1*
X52764Y11266D1*
X52812Y11242D1*
X52908D1*
X52956Y11266D1*
X53004Y11314D1*
X53027Y11362D1*
X53230Y11744D2*
X53492D1*
X53349Y11552D1*
X53421D1*
X53469Y11529D1*
X53492Y11505D1*
X53517Y11433D1*
Y11385D1*
X53492Y11314D1*
X53445Y11265D1*
X53373Y11242D1*
X53301D1*
X53230Y11265D1*
X53206Y11290D1*
X53182Y11337D1*
X53791Y11744D2*
X53719Y11720D1*
X53695Y11672D1*
Y11624D1*
X53719Y11577D1*
X53767Y11552D1*
X53862Y11529D1*
X53934Y11505D1*
X53982Y11457D1*
X54006Y11409D1*
Y11337D1*
X53982Y11290D1*
X53958Y11265D1*
X53886Y11242D1*
X53791D1*
X53719Y11265D1*
X53695Y11290D1*
X53671Y11337D1*
Y11409D1*
X53695Y11457D1*
X53743Y11505D1*
X53814Y11529D1*
X53910Y11552D1*
X53958Y11577D1*
X53982Y11624D1*
Y11672D1*
X53958Y11720D1*
X53886Y11744D1*
X53791D1*
X52277Y36979D2*
X52230Y36956D1*
X52182Y36908D1*
X52158Y36860D1*
Y36764D1*
X52182Y36716D1*
X52230Y36669D1*
X52277Y36644D1*
X52349Y36621D1*
X52469D1*
X52540Y36644D1*
X52588Y36669D1*
X52636Y36716D1*
X52660Y36764D1*
Y36860D1*
X52636Y36908D1*
X52588Y36956D1*
X52540Y36979D1*
X52158Y37182D2*
Y37444D1*
X52350Y37301D1*
Y37373D1*
X52373Y37421D1*
X52397Y37444D1*
X52469Y37469D1*
X52516D1*
X52588Y37444D1*
X52636Y37397D1*
X52660Y37325D1*
Y37253D1*
X52636Y37182D1*
X52612Y37158D1*
X52565Y37134D1*
X52325Y37934D2*
X52397Y37910D1*
X52445Y37862D1*
X52469Y37791D1*
Y37767D1*
X52445Y37695D1*
X52397Y37647D1*
X52325Y37623D1*
X52301D1*
X52230Y37647D1*
X52182Y37695D1*
X52158Y37767D1*
Y37791D1*
X52182Y37862D1*
X52230Y37910D1*
X52325Y37934D1*
X52445D1*
X52565Y37910D1*
X52636Y37862D1*
X52660Y37791D1*
Y37743D1*
X52636Y37671D1*
X52588Y37647D1*
X44747Y36953D2*
X44700Y36929D1*
X44652Y36881D1*
X44628Y36834D1*
Y36738D1*
X44652Y36690D1*
X44700Y36643D1*
X44747Y36618D1*
X44819Y36594D1*
X44939D1*
X45010Y36618D1*
X45058Y36643D1*
X45106Y36690D1*
X45130Y36738D1*
Y36834D1*
X45106Y36881D1*
X45058Y36929D1*
X45010Y36953D1*
X45130Y37347D2*
X44628D1*
X44963Y37108D1*
Y37466D1*
X44628Y37764D2*
X44652Y37692D1*
X44724Y37644D1*
X44843Y37621D1*
X44915D1*
X45035Y37644D1*
X45106Y37692D1*
X45130Y37764D1*
Y37812D1*
X45106Y37884D1*
X45035Y37931D1*
X44915Y37956D1*
X44843D1*
X44724Y37931D1*
X44652Y37884D1*
X44628Y37812D1*
Y37764D1*
X44724Y37931D2*
X45035Y37644D1*
X36997Y36886D2*
X36950Y36862D1*
X36902Y36814D1*
X36878Y36766D1*
Y36671D1*
X36902Y36623D1*
X36950Y36575D1*
X36997Y36551D1*
X37069Y36527D1*
X37189D1*
X37260Y36551D1*
X37308Y36575D1*
X37356Y36623D1*
X37380Y36671D1*
Y36766D1*
X37356Y36814D1*
X37308Y36862D1*
X37260Y36886D1*
X37380Y37279D2*
X36878D1*
X37213Y37040D1*
Y37399D1*
X36974Y37553D2*
X36950Y37601D1*
X36878Y37673D1*
X37380D1*
X7181Y4661D2*
X7157Y4709D1*
X7109Y4757D1*
X7062Y4780D1*
X6966D1*
X6918Y4757D1*
X6870Y4709D1*
X6846Y4661D1*
X6822Y4589D1*
Y4469D1*
X6846Y4398D1*
X6870Y4350D1*
X6918Y4302D1*
X6966Y4278D1*
X7062D1*
X7109Y4302D1*
X7157Y4350D1*
X7181Y4398D1*
X7575Y4278D2*
Y4780D1*
X7335Y4445D1*
X7694D1*
X7873Y4660D2*
Y4684D1*
X7897Y4732D1*
X7920Y4756D1*
X7968Y4780D1*
X8064D1*
X8112Y4756D1*
X8135Y4732D1*
X8160Y4684D1*
Y4637D1*
X8135Y4589D1*
X8088Y4517D1*
X7848Y4278D1*
X8183D1*
X13407Y14409D2*
X13383Y14456D1*
X13335Y14504D1*
X13288Y14528D1*
X13192D1*
X13144Y14504D1*
X13096Y14456D1*
X13072Y14409D1*
X13048Y14337D1*
Y14217D1*
X13072Y14146D1*
X13096Y14098D1*
X13144Y14050D1*
X13192Y14026D1*
X13288D1*
X13335Y14050D1*
X13383Y14098D1*
X13407Y14146D1*
X13944Y14026D2*
X13753Y14528D1*
X13561Y14026D1*
X13633Y14193D2*
X13873D1*
X14434Y14528D2*
Y14026D1*
X14099Y14528D1*
Y14026D1*
X14588Y14432D2*
X14636Y14456D1*
X14708Y14528D1*
Y14026D1*
X45728Y16679D2*
Y16176D1*
X45895D1*
X45967Y16201D1*
X46015Y16248D1*
X46039Y16296D1*
X46063Y16368D1*
Y16488D1*
X46039Y16559D1*
X46015Y16607D1*
X45967Y16655D1*
X45895Y16679D1*
X45728D1*
X46217Y16583D2*
X46265Y16607D1*
X46337Y16678D1*
Y16176D1*
X27692Y18929D2*
Y18427D1*
X27860D1*
X27932Y18451D1*
X27980Y18498D1*
X28004Y18546D1*
X28027Y18618D1*
Y18738D1*
X28004Y18810D1*
X27980Y18857D1*
X27932Y18905D1*
X27860Y18929D1*
X27692D1*
X28206Y18809D2*
Y18833D1*
X28230Y18881D1*
X28254Y18905D1*
X28302Y18928D1*
X28397D1*
X28445Y18905D1*
X28469Y18881D1*
X28493Y18833D1*
Y18785D1*
X28469Y18737D1*
X28421Y18666D1*
X28182Y18427D1*
X28517D1*
X45620Y15179D2*
Y14676D1*
X45788D1*
X45860Y14701D1*
X45908Y14748D1*
X45932Y14796D1*
X45955Y14867D1*
Y14987D1*
X45932Y15059D1*
X45908Y15107D1*
X45860Y15155D1*
X45788Y15179D1*
X45620D1*
X46158Y15178D2*
X46420D1*
X46277Y14987D1*
X46349D1*
X46397Y14963D1*
X46420Y14939D1*
X46445Y14867D1*
Y14820D1*
X46420Y14748D1*
X46373Y14700D1*
X46301Y14676D1*
X46229D1*
X46158Y14700D1*
X46134Y14724D1*
X46110Y14772D1*
X9641Y36627D2*
Y36125D1*
X9808D1*
X9880Y36149D1*
X9928Y36196D1*
X9952Y36244D1*
X9976Y36316D1*
Y36436D1*
X9952Y36508D1*
X9928Y36555D1*
X9880Y36603D1*
X9808Y36627D1*
X9641D1*
X10370Y36125D2*
Y36626D1*
X10130Y36292D1*
X10489D1*
X32556Y26867D2*
Y26365D1*
X32724D1*
X32796Y26389D1*
X32844Y26437D1*
X32868Y26485D1*
X32891Y26556D1*
Y26676D1*
X32868Y26748D1*
X32844Y26795D1*
X32796Y26844D1*
X32724Y26867D1*
X32556D1*
X33333D2*
X33094D1*
X33070Y26652D1*
X33094Y26676D1*
X33166Y26700D1*
X33237D1*
X33309Y26676D1*
X33357Y26628D1*
X33381Y26556D1*
Y26509D1*
X33357Y26437D1*
X33309Y26389D1*
X33237Y26365D1*
X33166D1*
X33094Y26389D1*
X33070Y26413D1*
X33046Y26461D1*
X40132Y26867D2*
Y26365D1*
X40299D1*
X40371Y26389D1*
X40419Y26437D1*
X40443Y26485D1*
X40467Y26556D1*
Y26676D1*
X40443Y26748D1*
X40419Y26795D1*
X40371Y26844D1*
X40299Y26867D1*
X40132D1*
X40908Y26795D2*
X40884Y26843D1*
X40812Y26867D1*
X40765D1*
X40693Y26843D1*
X40645Y26771D1*
X40621Y26652D1*
Y26532D1*
X40645Y26437D1*
X40693Y26389D1*
X40765Y26365D1*
X40789D1*
X40860Y26389D1*
X40908Y26437D1*
X40932Y26509D1*
Y26532D1*
X40908Y26604D1*
X40860Y26652D1*
X40789Y26676D1*
X40765D1*
X40693Y26652D1*
X40645Y26604D1*
X40621Y26532D1*
X47871Y26742D2*
Y26240D1*
X48038D1*
X48110Y26264D1*
X48158Y26312D1*
X48182Y26360D1*
X48206Y26431D1*
Y26551D1*
X48182Y26623D1*
X48158Y26670D1*
X48110Y26719D1*
X48038Y26742D1*
X47871D1*
X48456Y26240D2*
X48695Y26742D1*
X48360D1*
X13512Y16875D2*
X14014D1*
Y17042D1*
X13990Y17114D1*
X13943Y17162D1*
X13894Y17186D1*
X13823Y17210D1*
X13703D1*
X13631Y17186D1*
X13584Y17162D1*
X13536Y17114D1*
X13512Y17042D1*
Y16875D1*
X13513Y17484D2*
X13536Y17412D1*
X13584Y17388D1*
X13632D1*
X13679Y17412D1*
X13704Y17460D1*
X13728Y17555D1*
X13751Y17627D1*
X13799Y17675D1*
X13847Y17699D1*
X13919D1*
X13966Y17675D1*
X13991Y17651D1*
X14014Y17579D1*
Y17484D1*
X13991Y17412D1*
X13966Y17388D1*
X13919Y17364D1*
X13847D1*
X13799Y17388D1*
X13751Y17436D1*
X13728Y17507D1*
X13704Y17603D1*
X13679Y17651D1*
X13632Y17675D1*
X13584D1*
X13536Y17651D1*
X13513Y17579D1*
Y17484D1*
X12887Y16881D2*
X13389D1*
Y17048D1*
X13365Y17120D1*
X13318Y17168D1*
X13269Y17192D1*
X13198Y17216D1*
X13078D1*
X13006Y17192D1*
X12959Y17168D1*
X12911Y17120D1*
X12887Y17048D1*
Y16881D1*
X13054Y17681D2*
X13126Y17657D1*
X13174Y17610D1*
X13198Y17538D1*
Y17514D1*
X13174Y17442D1*
X13126Y17395D1*
X13054Y17370D1*
X13031D1*
X12959Y17395D1*
X12911Y17442D1*
X12888Y17514D1*
Y17538D1*
X12911Y17610D1*
X12959Y17657D1*
X13054Y17681D1*
X13174D1*
X13294Y17657D1*
X13366Y17610D1*
X13389Y17538D1*
Y17490D1*
X13366Y17418D1*
X13318Y17395D1*
X12262Y16737D2*
X12764D1*
Y16905D1*
X12740Y16977D1*
X12692Y17025D1*
X12644Y17049D1*
X12573Y17072D1*
X12453D1*
X12381Y17049D1*
X12334Y17025D1*
X12286Y16977D1*
X12262Y16905D1*
Y16737D1*
X12358Y17227D2*
X12334Y17275D1*
X12262Y17347D1*
X12764D1*
X12262Y17645D2*
X12286Y17573D1*
X12358Y17525D1*
X12477Y17501D1*
X12549D1*
X12669Y17525D1*
X12741Y17573D1*
X12764Y17645D1*
Y17692D1*
X12741Y17764D1*
X12669Y17812D1*
X12549Y17836D1*
X12477D1*
X12358Y17812D1*
X12286Y17764D1*
X12262Y17692D1*
Y17645D1*
X12358Y17812D2*
X12669Y17525D1*
X11637Y16720D2*
X12139D1*
Y16888D1*
X12115Y16959D1*
X12067Y17007D1*
X12019Y17031D1*
X11948Y17055D1*
X11828D1*
X11756Y17031D1*
X11709Y17007D1*
X11661Y16959D1*
X11637Y16888D1*
Y16720D1*
X11733Y17209D2*
X11709Y17257D1*
X11637Y17329D1*
X12139D1*
X11733Y17484D2*
X11709Y17532D1*
X11637Y17604D1*
X12139D1*
X11012Y16738D2*
X11514D1*
Y16905D1*
X11490Y16977D1*
X11442Y17025D1*
X11394Y17049D1*
X11323Y17073D1*
X11203D1*
X11131Y17049D1*
X11084Y17025D1*
X11035Y16977D1*
X11012Y16905D1*
Y16738D1*
X11108Y17227D2*
X11084Y17275D1*
X11012Y17347D1*
X11514D1*
X11132Y17526D2*
X11108D1*
X11060Y17549D1*
X11036Y17573D1*
X11012Y17621D1*
Y17717D1*
X11036Y17764D1*
X11060Y17788D1*
X11108Y17812D1*
X11155D1*
X11203Y17788D1*
X11275Y17741D1*
X11514Y17501D1*
Y17836D1*
X10387Y16737D2*
X10889D1*
Y16905D1*
X10865Y16977D1*
X10817Y17025D1*
X10769Y17049D1*
X10698Y17072D1*
X10578D1*
X10506Y17049D1*
X10459Y17025D1*
X10410Y16977D1*
X10387Y16905D1*
Y16737D1*
X10483Y17227D2*
X10459Y17275D1*
X10387Y17347D1*
X10889D1*
X10387Y17549D2*
Y17812D1*
X10578Y17669D1*
Y17740D1*
X10602Y17788D1*
X10626Y17812D1*
X10698Y17836D1*
X10745D1*
X10817Y17812D1*
X10865Y17764D1*
X10889Y17692D1*
Y17620D1*
X10865Y17549D1*
X10841Y17525D1*
X10793Y17501D1*
X9762Y16726D2*
X10264D1*
Y16893D1*
X10240Y16965D1*
X10192Y17013D1*
X10144Y17037D1*
X10073Y17061D1*
X9953D1*
X9881Y17037D1*
X9833Y17013D1*
X9785Y16965D1*
X9762Y16893D1*
Y16726D1*
X9858Y17215D2*
X9833Y17263D1*
X9762Y17335D1*
X10264D1*
Y17729D2*
X9762D1*
X10097Y17489D1*
Y17848D1*
X9136Y16738D2*
X9639D1*
Y16905D1*
X9615Y16977D1*
X9567Y17025D1*
X9519Y17049D1*
X9448Y17073D1*
X9328D1*
X9256Y17049D1*
X9208Y17025D1*
X9160Y16977D1*
X9136Y16905D1*
Y16738D1*
X9233Y17227D2*
X9208Y17275D1*
X9137Y17347D1*
X9639D1*
X9137Y17788D2*
Y17549D1*
X9352Y17526D1*
X9328Y17549D1*
X9304Y17621D1*
Y17692D1*
X9328Y17764D1*
X9376Y17812D1*
X9448Y17836D1*
X9495D1*
X9567Y17812D1*
X9615Y17764D1*
X9639Y17692D1*
Y17621D1*
X9615Y17549D1*
X9591Y17526D1*
X9543Y17501D1*
X8511Y16750D2*
X9014D1*
Y16917D1*
X8990Y16989D1*
X8942Y17037D1*
X8894Y17061D1*
X8823Y17085D1*
X8703D1*
X8631Y17061D1*
X8583Y17037D1*
X8535Y16989D1*
X8511Y16917D1*
Y16750D1*
X8608Y17239D2*
X8583Y17287D1*
X8512Y17359D1*
X9014D1*
X8583Y17800D2*
X8536Y17776D1*
X8512Y17704D1*
Y17657D1*
X8536Y17585D1*
X8608Y17537D1*
X8727Y17513D1*
X8846D1*
X8942Y17537D1*
X8990Y17585D1*
X9014Y17657D1*
Y17681D1*
X8990Y17752D1*
X8942Y17800D1*
X8870Y17824D1*
X8846D1*
X8775Y17800D1*
X8727Y17752D1*
X8703Y17681D1*
Y17657D1*
X8727Y17585D1*
X8775Y17537D1*
X8846Y17513D1*
X7886Y16737D2*
X8389D1*
Y16905D1*
X8365Y16977D1*
X8317Y17025D1*
X8269Y17049D1*
X8198Y17072D1*
X8078D1*
X8006Y17049D1*
X7958Y17025D1*
X7910Y16977D1*
X7886Y16905D1*
Y16737D1*
X7983Y17227D2*
X7958Y17275D1*
X7887Y17347D1*
X8389D1*
Y17597D2*
X7887Y17836D1*
Y17501D1*
X7261Y16738D2*
X7764D1*
Y16905D1*
X7739Y16977D1*
X7692Y17025D1*
X7644Y17049D1*
X7573Y17073D1*
X7453D1*
X7381Y17049D1*
X7333Y17025D1*
X7285Y16977D1*
X7261Y16905D1*
Y16738D1*
X7358Y17227D2*
X7333Y17275D1*
X7262Y17347D1*
X7764D1*
X7262Y17621D2*
X7286Y17549D1*
X7333Y17525D1*
X7381D1*
X7429Y17549D1*
X7453Y17597D1*
X7477Y17693D1*
X7501Y17764D1*
X7549Y17812D1*
X7596Y17836D1*
X7668D1*
X7716Y17812D1*
X7740Y17788D1*
X7764Y17716D1*
Y17621D1*
X7740Y17549D1*
X7716Y17525D1*
X7668Y17501D1*
X7596D1*
X7549Y17525D1*
X7501Y17573D1*
X7477Y17645D1*
X7453Y17740D1*
X7429Y17788D1*
X7381Y17812D1*
X7333D1*
X7286Y17788D1*
X7262Y17716D1*
Y17621D1*
X6636Y16749D2*
X7139D1*
Y16917D1*
X7114Y16989D1*
X7067Y17037D1*
X7019Y17061D1*
X6947Y17084D1*
X6827D1*
X6756Y17061D1*
X6708Y17037D1*
X6660Y16989D1*
X6636Y16917D1*
Y16749D1*
X6732Y17239D2*
X6708Y17287D1*
X6637Y17359D1*
X7139D1*
X6804Y17824D2*
X6876Y17800D1*
X6924Y17752D1*
X6947Y17681D1*
Y17657D1*
X6924Y17585D1*
X6876Y17537D1*
X6804Y17513D1*
X6780D1*
X6708Y17537D1*
X6661Y17585D1*
X6637Y17657D1*
Y17681D1*
X6661Y17752D1*
X6708Y17800D1*
X6804Y17824D1*
X6924D1*
X7043Y17800D1*
X7115Y17752D1*
X7139Y17681D1*
Y17633D1*
X7115Y17561D1*
X7067Y17537D1*
X6011Y16505D2*
X6514D1*
Y16672D1*
X6489Y16744D1*
X6442Y16792D1*
X6394Y16816D1*
X6322Y16840D1*
X6202D1*
X6131Y16816D1*
X6083Y16792D1*
X6035Y16744D1*
X6011Y16672D1*
Y16505D1*
X6131Y17019D2*
X6107D1*
X6059Y17042D1*
X6036Y17066D1*
X6012Y17114D1*
Y17210D1*
X6036Y17257D1*
X6059Y17281D1*
X6107Y17305D1*
X6155D1*
X6203Y17281D1*
X6274Y17234D1*
X6514Y16994D1*
Y17329D1*
X6012Y17627D2*
X6036Y17555D1*
X6107Y17507D1*
X6227Y17484D1*
X6299D1*
X6418Y17507D1*
X6490Y17555D1*
X6514Y17627D1*
Y17675D1*
X6490Y17747D1*
X6418Y17794D1*
X6299Y17819D1*
X6227D1*
X6107Y17794D1*
X6036Y17747D1*
X6012Y17675D1*
Y17627D1*
X6107Y17794D2*
X6418Y17507D1*
X5386Y16487D2*
X5889D1*
Y16655D1*
X5864Y16727D1*
X5817Y16775D1*
X5769Y16799D1*
X5697Y16822D1*
X5577D1*
X5506Y16799D1*
X5458Y16775D1*
X5410Y16727D1*
X5386Y16655D1*
Y16487D1*
X5506Y17001D2*
X5482D1*
X5434Y17025D1*
X5410Y17049D1*
X5387Y17097D1*
Y17192D1*
X5410Y17240D1*
X5434Y17264D1*
X5482Y17288D1*
X5530D1*
X5578Y17264D1*
X5649Y17216D1*
X5889Y16977D1*
Y17312D1*
X5482Y17466D2*
X5458Y17514D1*
X5387Y17586D1*
X5889D1*
X4761Y16505D2*
X5263D1*
Y16673D1*
X5239Y16744D1*
X5192Y16792D1*
X5143Y16816D1*
X5072Y16840D1*
X4952D1*
X4880Y16816D1*
X4833Y16792D1*
X4785Y16744D1*
X4761Y16673D1*
Y16505D1*
X4881Y17019D2*
X4857D1*
X4809Y17042D1*
X4785Y17066D1*
X4762Y17114D1*
Y17210D1*
X4785Y17257D1*
X4809Y17281D1*
X4857Y17306D1*
X4905D1*
X4953Y17281D1*
X5024Y17234D1*
X5263Y16994D1*
Y17329D1*
X4881Y17508D2*
X4857D1*
X4809Y17532D1*
X4785Y17556D1*
X4762Y17604D1*
Y17699D1*
X4785Y17747D1*
X4809Y17771D1*
X4857Y17795D1*
X4905D1*
X4953Y17771D1*
X5024Y17723D1*
X5263Y17484D1*
Y17819D1*
X4136Y16505D2*
X4638D1*
Y16672D1*
X4614Y16744D1*
X4567Y16792D1*
X4519Y16816D1*
X4447Y16840D1*
X4327D1*
X4255Y16816D1*
X4208Y16792D1*
X4160Y16744D1*
X4136Y16672D1*
Y16505D1*
X4256Y17019D2*
X4232D1*
X4184Y17042D1*
X4160Y17066D1*
X4137Y17114D1*
Y17210D1*
X4160Y17257D1*
X4184Y17281D1*
X4232Y17305D1*
X4280D1*
X4328Y17281D1*
X4399Y17234D1*
X4638Y16994D1*
Y17329D1*
X4137Y17532D2*
Y17794D1*
X4328Y17651D1*
Y17723D1*
X4352Y17770D1*
X4375Y17794D1*
X4447Y17819D1*
X4495D1*
X4567Y17794D1*
X4615Y17747D1*
X4638Y17675D1*
Y17603D1*
X4615Y17532D1*
X4590Y17508D1*
X4543Y17484D1*
X19933Y16744D2*
Y16242D1*
X20101D1*
X20173Y16266D1*
X20221Y16314D1*
X20244Y16362D1*
X20268Y16433D1*
Y16553D1*
X20244Y16625D1*
X20221Y16672D1*
X20173Y16720D1*
X20101Y16744D1*
X19933D1*
X20447Y16624D2*
Y16648D1*
X20471Y16696D1*
X20494Y16720D1*
X20543Y16744D1*
X20638D1*
X20686Y16720D1*
X20709Y16696D1*
X20734Y16648D1*
Y16600D1*
X20709Y16552D1*
X20662Y16481D1*
X20423Y16242D1*
X20757D1*
X21151D2*
Y16744D1*
X20912Y16409D1*
X21271D1*
X54477Y41543D2*
X54453Y41591D1*
X54405Y41639D1*
X54358Y41662D1*
X54262D1*
X54214Y41639D1*
X54166Y41591D1*
X54142Y41543D1*
X54118Y41471D1*
Y41351D1*
X54142Y41280D1*
X54166Y41232D1*
X54214Y41184D1*
X54262Y41160D1*
X54358D1*
X54405Y41184D1*
X54453Y41232D1*
X54477Y41280D1*
Y41351D1*
X54358D1*
X54966Y41662D2*
Y41160D1*
X54632Y41662D1*
Y41160D1*
X55121Y41662D2*
Y41160D1*
X55288D1*
X55360Y41184D1*
X55408Y41232D1*
X55432Y41280D1*
X55456Y41351D1*
Y41471D1*
X55432Y41543D1*
X55408Y41591D1*
X55360Y41639D1*
X55288Y41662D1*
X55121D1*
X55610Y41566D2*
X55658Y41591D1*
X55730Y41662D1*
Y41160D1*
X51264Y40358D2*
X51767D1*
X51264Y40693D2*
X51767D1*
X51504Y40358D2*
Y40693D1*
X51336Y41182D2*
X51288Y41134D1*
X51264Y41063D1*
Y40967D1*
X51288Y40895D1*
X51336Y40847D1*
X51384D1*
X51432Y40871D1*
X51455Y40895D1*
X51479Y40943D1*
X51527Y41086D1*
X51551Y41134D1*
X51575Y41158D1*
X51623Y41182D1*
X51695D1*
X51742Y41134D1*
X51767Y41063D1*
Y40967D1*
X51742Y40895D1*
X51695Y40847D1*
X51264Y41336D2*
X51767D1*
Y41504D1*
X51742Y41576D1*
X51695Y41624D1*
X51647Y41648D1*
X51575Y41671D1*
X51455D1*
X51384Y41648D1*
X51336Y41624D1*
X51288Y41576D1*
X51264Y41504D1*
Y41336D1*
X51850Y41826D2*
Y42280D1*
X51360Y42434D2*
X51336Y42483D1*
X51265Y42554D1*
X51767D1*
X43637Y40218D2*
X44139D1*
X43637Y40553D2*
X44139D1*
X43876Y40218D2*
Y40553D1*
X43709Y41042D2*
X43661Y40994D1*
X43637Y40923D1*
Y40827D1*
X43661Y40755D1*
X43709Y40707D1*
X43756D1*
X43804Y40731D1*
X43828Y40755D1*
X43852Y40803D1*
X43900Y40946D1*
X43924Y40994D1*
X43948Y41018D1*
X43995Y41042D1*
X44067D1*
X44115Y40994D1*
X44139Y40923D1*
Y40827D1*
X44115Y40755D1*
X44067Y40707D1*
X43637Y41196D2*
X44139D1*
Y41364D1*
X44115Y41436D1*
X44067Y41484D1*
X44019Y41508D1*
X43948Y41531D1*
X43828D1*
X43756Y41508D1*
X43709Y41484D1*
X43661Y41436D1*
X43637Y41364D1*
Y41196D1*
X44222Y41686D2*
Y42140D1*
X43757Y42319D2*
X43733D1*
X43685Y42343D1*
X43661Y42366D1*
X43637Y42414D1*
Y42510D1*
X43661Y42558D1*
X43685Y42581D1*
X43733Y42606D1*
X43780D1*
X43829Y42581D1*
X43900Y42534D1*
X44139Y42294D1*
Y42629D1*
X35919Y40035D2*
X36422D1*
X35919Y40370D2*
X36422D1*
X36159Y40035D2*
Y40370D1*
X35991Y40860D2*
X35943Y40812D1*
X35919Y40740D1*
Y40645D1*
X35943Y40573D1*
X35991Y40525D1*
X36039D1*
X36087Y40549D1*
X36110Y40573D1*
X36134Y40620D1*
X36182Y40764D1*
X36206Y40812D1*
X36230Y40836D1*
X36278Y40860D1*
X36350D1*
X36397Y40812D1*
X36422Y40740D1*
Y40645D1*
X36397Y40573D1*
X36350Y40525D1*
X35919Y41014D2*
X36422D1*
Y41181D1*
X36397Y41253D1*
X36350Y41301D1*
X36302Y41325D1*
X36230Y41349D1*
X36110D1*
X36039Y41325D1*
X35991Y41301D1*
X35943Y41253D1*
X35919Y41181D1*
Y41014D1*
X36505Y41503D2*
Y41958D1*
X35920Y42160D2*
Y42423D1*
X36111Y42279D1*
Y42351D1*
X36135Y42399D1*
X36159Y42423D1*
X36230Y42447D1*
X36278D1*
X36350Y42423D1*
X36398Y42375D1*
X36422Y42303D1*
Y42231D1*
X36398Y42160D1*
X36374Y42136D1*
X36326Y42112D1*
X51047Y22235D2*
Y21852D1*
X51024Y21780D1*
X50999Y21757D1*
X50952Y21732D1*
X50904D1*
X50856Y21757D1*
X50832Y21780D1*
X50808Y21852D1*
Y21900D1*
X51202Y22139D2*
X51250Y22163D1*
X51322Y22234D1*
Y21732D1*
X51002Y5360D2*
Y4977D1*
X50979Y4905D1*
X50954Y4882D1*
X50907Y4857D1*
X50859D1*
X50811Y4882D1*
X50787Y4905D1*
X50763Y4977D1*
Y5025D1*
X51181Y5240D2*
Y5264D1*
X51205Y5312D1*
X51229Y5335D1*
X51277Y5359D1*
X51372D1*
X51420Y5335D1*
X51444Y5312D1*
X51468Y5264D1*
Y5216D1*
X51444Y5168D1*
X51396Y5097D1*
X51157Y4857D1*
X51492D1*
X17877Y5235D2*
Y4852D1*
X17854Y4780D1*
X17829Y4757D1*
X17782Y4732D1*
X17734D1*
X17686Y4757D1*
X17662Y4780D1*
X17638Y4852D1*
Y4900D1*
X18080Y5234D2*
X18342D1*
X18199Y5043D1*
X18271D1*
X18319Y5019D1*
X18342Y4995D1*
X18367Y4924D1*
Y4876D1*
X18342Y4804D1*
X18295Y4756D1*
X18223Y4732D1*
X18151D1*
X18080Y4756D1*
X18056Y4780D1*
X18032Y4828D1*
X56963Y7112D2*
X57346D1*
X57418Y7088D1*
X57441Y7064D1*
X57466Y7016D1*
Y6968D1*
X57441Y6921D1*
X57418Y6897D1*
X57346Y6873D1*
X57298D1*
X57466Y7506D2*
X56964D1*
X57298Y7266D1*
Y7625D1*
X9458Y10440D2*
X9840D1*
X9912Y10416D1*
X9936Y10392D1*
X9960Y10344D1*
Y10296D1*
X9936Y10249D1*
X9912Y10225D1*
X9840Y10201D1*
X9793D1*
X9458Y10881D2*
Y10642D1*
X9673Y10619D1*
X9650Y10642D1*
X9625Y10714D1*
Y10786D1*
X9650Y10857D1*
X9697Y10906D1*
X9769Y10929D1*
X9816D1*
X9888Y10906D1*
X9936Y10857D1*
X9960Y10786D1*
Y10714D1*
X9936Y10642D1*
X9912Y10619D1*
X9865Y10594D1*
X57020Y18890D2*
X57403D1*
X57475Y18866D1*
X57498Y18842D1*
X57523Y18794D1*
Y18746D1*
X57498Y18698D1*
X57475Y18675D1*
X57403Y18650D1*
X57355D1*
X57092Y19331D2*
X57045Y19307D1*
X57021Y19235D1*
Y19188D1*
X57045Y19116D1*
X57116Y19068D1*
X57236Y19044D1*
X57355D1*
X57451Y19068D1*
X57499Y19116D1*
X57523Y19188D1*
Y19212D1*
X57499Y19283D1*
X57451Y19331D1*
X57379Y19355D1*
X57355D1*
X57283Y19331D1*
X57236Y19283D1*
X57212Y19212D1*
Y19188D1*
X57236Y19116D1*
X57283Y19068D1*
X57355Y19044D1*
X56895Y26815D2*
X57278D1*
X57350Y26791D1*
X57373Y26767D1*
X57398Y26719D1*
Y26671D1*
X57373Y26624D1*
X57350Y26600D1*
X57278Y26576D1*
X57230D1*
X57398Y27065D2*
X56896Y27304D1*
Y26969D1*
X6746Y41711D2*
X6962D1*
X7033Y41735D1*
X7057Y41759D1*
X7081Y41807D1*
Y41879D1*
X7057Y41926D1*
X7033Y41951D1*
X6962Y41974D1*
X6746D1*
Y41472D1*
X7236Y41974D2*
X7355Y41472D1*
X7475Y41974D1*
X7594Y41472D1*
X7714Y41974D1*
X7869Y41735D2*
X8084D1*
X8155Y41759D1*
X8180Y41783D1*
X8204Y41831D1*
Y41879D1*
X8180Y41926D1*
X8155Y41951D1*
X8084Y41974D1*
X7869D1*
Y41472D1*
X8036Y41735D2*
X8204Y41472D1*
X8358Y41878D2*
X8406Y41902D1*
X8478Y41974D1*
Y41472D1*
X13755Y42012D2*
X13707Y41989D1*
X13659Y41941D1*
X13636Y41893D1*
X13611Y41821D1*
Y41702D1*
X13636Y41630D1*
X13659Y41582D1*
X13707Y41534D1*
X13755Y41510D1*
X13851D1*
X13899Y41534D1*
X13946Y41582D1*
X13970Y41630D1*
X13994Y41702D1*
Y41821D1*
X13970Y41893D1*
X13946Y41941D1*
X13899Y41989D1*
X13851Y42012D1*
X13755D1*
X13827Y41606D2*
X13970Y41462D1*
X14149Y41916D2*
X14197Y41940D1*
X14269Y42012D1*
Y41510D1*
X25648Y31417D2*
X25600Y31394D1*
X25552Y31346D1*
X25528Y31298D1*
X25504Y31226D1*
Y31107D1*
X25528Y31035D1*
X25552Y30987D1*
X25600Y30939D1*
X25648Y30915D1*
X25743D1*
X25791Y30939D1*
X25839Y30987D1*
X25863Y31035D1*
X25887Y31107D1*
Y31226D1*
X25863Y31298D1*
X25839Y31346D1*
X25791Y31394D1*
X25743Y31417D1*
X25648D1*
X25719Y31011D2*
X25863Y30867D1*
X26066Y31297D2*
Y31321D1*
X26089Y31369D1*
X26113Y31393D1*
X26161Y31417D1*
X26257D1*
X26304Y31393D1*
X26328Y31369D1*
X26352Y31321D1*
Y31274D1*
X26328Y31225D1*
X26281Y31154D1*
X26041Y30915D1*
X26376D1*
X19648Y42012D2*
X19600Y41989D1*
X19552Y41941D1*
X19528Y41893D1*
X19504Y41821D1*
Y41702D1*
X19528Y41630D1*
X19552Y41582D1*
X19600Y41534D1*
X19648Y41510D1*
X19743D1*
X19791Y41534D1*
X19839Y41582D1*
X19863Y41630D1*
X19887Y41702D1*
Y41821D1*
X19863Y41893D1*
X19839Y41941D1*
X19791Y41989D1*
X19743Y42012D1*
X19648D1*
X19719Y41606D2*
X19863Y41462D1*
X20089Y42012D2*
X20352D1*
X20209Y41820D1*
X20281D1*
X20328Y41797D1*
X20352Y41773D1*
X20376Y41701D1*
Y41654D1*
X20352Y41582D1*
X20304Y41534D1*
X20232Y41510D1*
X20161D1*
X20089Y41534D1*
X20066Y41558D1*
X20041Y41605D1*
X18925Y28784D2*
X18878Y28761D1*
X18830Y28713D1*
X18806Y28665D1*
X18781Y28593D1*
Y28474D1*
X18806Y28402D1*
X18830Y28354D1*
X18878Y28306D1*
X18925Y28283D1*
X19021D1*
X19069Y28306D1*
X19116Y28354D1*
X19140Y28402D1*
X19164Y28474D1*
Y28593D1*
X19140Y28665D1*
X19116Y28713D1*
X19069Y28761D1*
X19021Y28784D1*
X18925D1*
X18997Y28378D2*
X19140Y28235D1*
X19558Y28282D2*
Y28784D1*
X19319Y28450D1*
X19678D1*
X19648Y23730D2*
X19600Y23706D1*
X19552Y23658D1*
X19528Y23610D1*
X19504Y23538D1*
Y23419D1*
X19528Y23347D1*
X19552Y23300D1*
X19600Y23251D1*
X19648Y23228D1*
X19743D1*
X19792Y23251D1*
X19839Y23300D1*
X19863Y23347D1*
X19887Y23419D1*
Y23538D1*
X19863Y23610D1*
X19839Y23658D1*
X19792Y23706D1*
X19743Y23730D1*
X19648D1*
X19720Y23323D2*
X19863Y23180D1*
X20328Y23729D2*
X20090D1*
X20066Y23514D1*
X20090Y23538D1*
X20161Y23562D1*
X20233D1*
X20305Y23538D1*
X20353Y23490D1*
X20376Y23418D1*
Y23371D1*
X20353Y23299D1*
X20305Y23251D1*
X20233Y23227D1*
X20161D1*
X20090Y23251D1*
X20066Y23275D1*
X20042Y23323D1*
X25660Y42012D2*
X25612Y41989D1*
X25564Y41941D1*
X25540Y41893D1*
X25516Y41821D1*
Y41702D1*
X25540Y41630D1*
X25564Y41582D1*
X25612Y41534D1*
X25660Y41510D1*
X25755D1*
X25803Y41534D1*
X25851Y41582D1*
X25875Y41630D1*
X25899Y41702D1*
Y41821D1*
X25875Y41893D1*
X25851Y41941D1*
X25803Y41989D1*
X25755Y42012D1*
X25660D1*
X25732Y41606D2*
X25875Y41462D1*
X26340Y41940D2*
X26316Y41988D1*
X26245Y42012D1*
X26197D1*
X26125Y41988D1*
X26077Y41916D1*
X26053Y41797D1*
Y41677D1*
X26077Y41582D1*
X26125Y41534D1*
X26197Y41510D1*
X26221D1*
X26292Y41534D1*
X26340Y41582D1*
X26364Y41654D1*
Y41677D1*
X26340Y41749D1*
X26292Y41797D1*
X26221Y41820D1*
X26197D1*
X26125Y41797D1*
X26077Y41749D1*
X26053Y41677D1*
X15312Y28722D2*
X15265Y28699D1*
X15216Y28651D1*
X15193Y28603D1*
X15168Y28531D1*
Y28411D1*
X15193Y28339D1*
X15216Y28292D1*
X15265Y28244D1*
X15312Y28220D1*
X15408D1*
X15456Y28244D1*
X15503Y28292D1*
X15527Y28339D1*
X15551Y28411D1*
Y28531D1*
X15527Y28603D1*
X15503Y28651D1*
X15456Y28699D1*
X15408Y28722D1*
X15312D1*
X15384Y28316D2*
X15527Y28172D1*
X15801Y28220D2*
X16041Y28721D1*
X15706D1*
X50898Y35700D2*
X50850Y35677D1*
X50802Y35628D1*
X50778Y35580D1*
X50754Y35509D1*
Y35389D1*
X50778Y35317D1*
X50802Y35270D1*
X50850Y35222D1*
X50898Y35198D1*
X50993D1*
X51042Y35222D1*
X51089Y35270D1*
X51113Y35317D1*
X51137Y35389D1*
Y35509D1*
X51113Y35580D1*
X51089Y35628D1*
X51042Y35677D1*
X50993Y35700D1*
X50898D1*
X50970Y35294D2*
X51113Y35150D1*
X51411Y35699D2*
X51340Y35675D1*
X51315Y35628D1*
Y35580D1*
X51340Y35532D1*
X51387Y35508D1*
X51483Y35484D1*
X51555Y35460D1*
X51602Y35412D1*
X51626Y35365D1*
Y35293D1*
X51602Y35245D1*
X51578Y35221D1*
X51507Y35197D1*
X51411D1*
X51340Y35221D1*
X51315Y35245D1*
X51292Y35293D1*
Y35365D1*
X51315Y35412D1*
X51363Y35460D1*
X51435Y35484D1*
X51530Y35508D1*
X51578Y35532D1*
X51602Y35580D1*
Y35628D1*
X51578Y35675D1*
X51507Y35699D1*
X51411D1*
X43347Y35700D2*
X43299Y35677D1*
X43251Y35628D1*
X43228Y35580D1*
X43203Y35509D1*
Y35389D1*
X43228Y35317D1*
X43251Y35270D1*
X43299Y35222D1*
X43347Y35198D1*
X43443D1*
X43491Y35222D1*
X43538Y35270D1*
X43562Y35317D1*
X43586Y35389D1*
Y35509D1*
X43562Y35580D1*
X43538Y35628D1*
X43491Y35677D1*
X43443Y35700D1*
X43347D1*
X43419Y35294D2*
X43562Y35150D1*
X44052Y35532D2*
X44027Y35460D1*
X43980Y35412D1*
X43908Y35389D1*
X43884D1*
X43812Y35412D1*
X43765Y35460D1*
X43741Y35532D1*
Y35556D1*
X43765Y35628D1*
X43812Y35675D1*
X43884Y35699D1*
X43908D1*
X43980Y35675D1*
X44027Y35628D1*
X44052Y35532D1*
Y35412D1*
X44027Y35293D1*
X43980Y35221D1*
X43908Y35197D1*
X43861D1*
X43789Y35221D1*
X43765Y35269D1*
X35573Y35637D2*
X35525Y35614D1*
X35477Y35566D1*
X35453Y35518D1*
X35429Y35446D1*
Y35327D1*
X35453Y35255D1*
X35477Y35207D1*
X35525Y35159D1*
X35573Y35135D1*
X35668D1*
X35717Y35159D1*
X35764Y35207D1*
X35788Y35255D1*
X35812Y35327D1*
Y35446D1*
X35788Y35518D1*
X35764Y35566D1*
X35717Y35614D1*
X35668Y35637D1*
X35573D1*
X35645Y35231D2*
X35788Y35087D1*
X35967Y35541D2*
X36015Y35565D1*
X36087Y35637D1*
Y35135D1*
X36385Y35637D2*
X36313Y35613D1*
X36265Y35541D1*
X36241Y35422D1*
Y35350D1*
X36265Y35230D1*
X36313Y35159D1*
X36385Y35135D1*
X36432D1*
X36504Y35159D1*
X36552Y35230D1*
X36576Y35350D1*
Y35422D1*
X36552Y35541D1*
X36504Y35613D1*
X36432Y35637D1*
X36385D1*
X36552Y35541D2*
X36265Y35230D1*
X45532Y29909D2*
X45485Y29886D1*
X45437Y29838D1*
X45413Y29790D1*
X45389Y29718D1*
Y29599D1*
X45413Y29527D1*
X45437Y29479D1*
X45485Y29431D1*
X45532Y29408D1*
X45628D1*
X45676Y29431D1*
X45724Y29479D1*
X45747Y29527D1*
X45772Y29599D1*
Y29718D1*
X45747Y29790D1*
X45724Y29838D1*
X45676Y29886D1*
X45628Y29909D1*
X45532D1*
X45604Y29503D2*
X45747Y29360D1*
X45926Y29813D2*
X45974Y29838D1*
X46046Y29909D1*
Y29407D1*
X46200Y29813D2*
X46249Y29838D1*
X46320Y29909D1*
Y29407D1*
X38175Y30284D2*
X38127Y30261D1*
X38079Y30213D1*
X38056Y30165D1*
X38031Y30093D1*
Y29974D1*
X38056Y29902D1*
X38079Y29854D1*
X38127Y29806D1*
X38175Y29783D1*
X38271D1*
X38319Y29806D1*
X38366Y29854D1*
X38390Y29902D1*
X38414Y29974D1*
Y30093D1*
X38390Y30165D1*
X38366Y30213D1*
X38319Y30261D1*
X38271Y30284D1*
X38175D1*
X38247Y29878D2*
X38390Y29735D1*
X38569Y30188D2*
X38617Y30213D1*
X38689Y30284D1*
Y29782D1*
X38867Y30165D2*
Y30188D1*
X38891Y30236D1*
X38915Y30260D1*
X38963Y30284D1*
X39058D1*
X39106Y30260D1*
X39130Y30236D1*
X39154Y30188D1*
Y30141D1*
X39130Y30093D1*
X39082Y30021D1*
X38843Y29782D1*
X39178D1*
X30300Y30159D2*
X30252Y30136D1*
X30204Y30088D1*
X30181Y30040D1*
X30156Y29968D1*
Y29849D1*
X30181Y29777D1*
X30204Y29729D1*
X30252Y29681D1*
X30300Y29658D1*
X30396D1*
X30444Y29681D1*
X30491Y29729D1*
X30515Y29777D1*
X30539Y29849D1*
Y29968D1*
X30515Y30040D1*
X30491Y30088D1*
X30444Y30136D1*
X30396Y30159D1*
X30300D1*
X30372Y29753D2*
X30515Y29610D1*
X30694Y30063D2*
X30742Y30088D1*
X30814Y30159D1*
Y29657D1*
X31016Y30159D2*
X31279D1*
X31135Y29968D1*
X31207D1*
X31255Y29944D1*
X31279Y29920D1*
X31303Y29848D1*
Y29801D1*
X31279Y29729D1*
X31231Y29681D1*
X31159Y29657D1*
X31087D1*
X31016Y29681D1*
X30992Y29705D1*
X30968Y29753D1*
X29688Y13220D2*
Y13435D1*
X29663Y13507D1*
X29640Y13531D1*
X29592Y13555D1*
X29544D1*
X29496Y13531D1*
X29472Y13507D1*
X29448Y13435D1*
Y13220D1*
X29951D1*
X29688Y13387D2*
X29951Y13555D1*
X29545Y13709D2*
X29520Y13757D1*
X29449Y13829D1*
X29951D1*
X29625Y11613D2*
Y11828D1*
X29601Y11899D1*
X29577Y11924D1*
X29530Y11947D1*
X29482D1*
X29434Y11924D1*
X29410Y11899D1*
X29386Y11828D1*
Y11613D1*
X29888D1*
X29625Y11780D2*
X29888Y11947D1*
X29506Y12126D2*
X29482D1*
X29434Y12150D1*
X29410Y12174D1*
X29386Y12222D1*
Y12317D1*
X29410Y12365D1*
X29434Y12389D1*
X29482Y12413D1*
X29530D1*
X29578Y12389D1*
X29649Y12341D1*
X29888Y12102D1*
Y12437D1*
X41568Y12962D2*
Y13177D1*
X41544Y13249D1*
X41520Y13274D1*
X41473Y13297D1*
X41425D1*
X41377Y13274D1*
X41353Y13249D1*
X41329Y13177D1*
Y12962D1*
X41832D1*
X41568Y13130D2*
X41832Y13297D1*
X41330Y13500D2*
Y13762D1*
X41521Y13619D1*
Y13691D1*
X41545Y13739D1*
X41568Y13762D1*
X41640Y13787D1*
X41688D1*
X41760Y13762D1*
X41808Y13715D1*
X41832Y13643D1*
Y13571D1*
X41808Y13500D1*
X41783Y13476D1*
X41736Y13452D1*
X10313Y13116D2*
Y13331D1*
X10289Y13403D1*
X10265Y13427D1*
X10218Y13451D1*
X10170D1*
X10122Y13427D1*
X10098Y13403D1*
X10074Y13331D1*
Y13116D1*
X10577D1*
X10313Y13283D2*
X10577Y13451D1*
Y13844D2*
X10075D1*
X10409Y13605D1*
Y13964D1*
X51319Y18448D2*
X51534D1*
X51605Y18472D1*
X51630Y18496D1*
X51654Y18543D1*
Y18591D1*
X51630Y18639D1*
X51605Y18663D1*
X51534Y18687D1*
X51319D1*
Y18184D1*
X51486Y18448D2*
X51654Y18184D1*
X52095Y18686D2*
X51856D1*
X51832Y18471D1*
X51856Y18495D1*
X51928Y18519D1*
X51999D1*
X52071Y18495D1*
X52119Y18448D1*
X52143Y18376D1*
Y18328D1*
X52119Y18256D1*
X52071Y18208D1*
X51999Y18184D1*
X51928D1*
X51856Y18208D1*
X51832Y18233D1*
X51808Y18280D1*
X22190Y18372D2*
Y18587D1*
X22166Y18659D1*
X22142Y18683D1*
X22094Y18707D1*
X22046D1*
X21999Y18683D1*
X21974Y18659D1*
X21951Y18587D1*
Y18372D1*
X22453D1*
X22190Y18540D2*
X22453Y18707D1*
X22022Y19148D2*
X21975Y19125D1*
X21951Y19053D1*
Y19005D1*
X21975Y18933D1*
X22047Y18885D1*
X22166Y18861D1*
X22285D1*
X22381Y18885D1*
X22429Y18933D1*
X22453Y19005D1*
Y19029D1*
X22429Y19100D1*
X22381Y19148D1*
X22309Y19172D1*
X22285D1*
X22214Y19148D1*
X22166Y19100D1*
X22142Y19029D1*
Y19005D1*
X22166Y18933D1*
X22214Y18885D1*
X22285Y18861D1*
X23430Y17312D2*
X23645D1*
X23717Y17336D1*
X23742Y17360D1*
X23765Y17407D1*
Y17455D1*
X23742Y17503D1*
X23717Y17527D1*
X23645Y17551D1*
X23430D1*
Y17049D1*
X23598Y17312D2*
X23765Y17049D1*
X24015D2*
X24255Y17551D1*
X23920D1*
X26256Y17857D2*
Y18072D1*
X26232Y18144D1*
X26208Y18169D1*
X26160Y18192D1*
X26112D1*
X26065Y18169D1*
X26040Y18144D1*
X26017Y18072D1*
Y17857D1*
X26519D1*
X26256Y18025D2*
X26519Y18192D1*
X26017Y18466D2*
X26041Y18395D1*
X26088Y18371D1*
X26137D1*
X26184Y18395D1*
X26208Y18442D1*
X26232Y18538D1*
X26256Y18610D1*
X26304Y18657D1*
X26352Y18681D1*
X26423D1*
X26471Y18657D1*
X26495Y18634D1*
X26519Y18562D1*
Y18466D1*
X26495Y18395D1*
X26471Y18371D1*
X26423Y18347D1*
X26352D1*
X26304Y18371D1*
X26256Y18419D1*
X26232Y18490D1*
X26208Y18586D1*
X26184Y18634D1*
X26137Y18657D1*
X26088D1*
X26041Y18634D1*
X26017Y18562D1*
Y18466D1*
X47205Y16448D2*
X47420D1*
X47492Y16472D1*
X47517Y16496D1*
X47540Y16543D1*
Y16591D1*
X47517Y16639D1*
X47492Y16663D1*
X47420Y16687D1*
X47205D1*
Y16184D1*
X47373Y16448D2*
X47540Y16184D1*
X48006Y16519D2*
X47982Y16448D1*
X47934Y16399D1*
X47862Y16376D1*
X47839D1*
X47767Y16399D1*
X47719Y16448D1*
X47695Y16519D1*
Y16543D1*
X47719Y16615D1*
X47767Y16663D1*
X47839Y16686D1*
X47862D1*
X47934Y16663D1*
X47982Y16615D1*
X48006Y16519D1*
Y16399D1*
X47982Y16280D1*
X47934Y16208D1*
X47862Y16184D1*
X47815D1*
X47743Y16208D1*
X47719Y16256D1*
X48681Y16448D2*
X48896D1*
X48968Y16472D1*
X48993Y16496D1*
X49016Y16543D1*
Y16591D1*
X48993Y16639D1*
X48968Y16663D1*
X48896Y16687D1*
X48681D1*
Y16184D1*
X48849Y16448D2*
X49016Y16184D1*
X49171Y16591D2*
X49219Y16615D1*
X49291Y16686D1*
Y16184D1*
X49589Y16686D2*
X49517Y16663D1*
X49469Y16591D1*
X49445Y16471D1*
Y16399D1*
X49469Y16280D1*
X49517Y16208D1*
X49589Y16184D1*
X49636D1*
X49708Y16208D1*
X49756Y16280D1*
X49780Y16399D1*
Y16471D1*
X49756Y16591D1*
X49708Y16663D1*
X49636Y16686D1*
X49589D1*
X49756Y16591D2*
X49469Y16280D1*
X27607Y16562D2*
X27822D1*
X27894Y16586D1*
X27918Y16610D1*
X27942Y16657D1*
Y16705D1*
X27918Y16753D1*
X27894Y16777D1*
X27822Y16801D1*
X27607D1*
Y16299D1*
X27774Y16562D2*
X27942Y16299D1*
X28096Y16705D2*
X28144Y16729D1*
X28216Y16800D1*
Y16299D1*
X28371Y16705D2*
X28419Y16729D1*
X28490Y16800D1*
Y16299D1*
X22190Y16973D2*
Y17188D1*
X22166Y17260D1*
X22142Y17284D1*
X22094Y17308D1*
X22046D1*
X21999Y17284D1*
X21974Y17260D1*
X21951Y17188D1*
Y16973D1*
X22453D1*
X22190Y17140D2*
X22453Y17308D1*
X22047Y17462D2*
X22022Y17510D1*
X21951Y17582D1*
X22453D1*
X22070Y17761D2*
X22047D1*
X21999Y17785D1*
X21975Y17808D1*
X21951Y17856D1*
Y17952D1*
X21975Y18000D1*
X21999Y18023D1*
X22047Y18048D1*
X22094D1*
X22142Y18023D1*
X22214Y17976D1*
X22453Y17736D1*
Y18071D1*
X49681Y18448D2*
X49896D1*
X49968Y18472D1*
X49993Y18496D1*
X50016Y18543D1*
Y18591D1*
X49993Y18639D1*
X49968Y18663D1*
X49896Y18687D1*
X49681D1*
Y18184D1*
X49849Y18448D2*
X50016Y18184D1*
X50171Y18591D2*
X50219Y18615D1*
X50291Y18686D1*
Y18184D1*
X50493Y18686D2*
X50756D1*
X50613Y18495D1*
X50684D1*
X50732Y18471D1*
X50756Y18448D1*
X50780Y18376D1*
Y18328D1*
X50756Y18256D1*
X50708Y18208D1*
X50636Y18184D1*
X50564D1*
X50493Y18208D1*
X50469Y18233D1*
X50445Y18280D1*
X26256Y16395D2*
Y16610D1*
X26232Y16682D1*
X26208Y16707D1*
X26160Y16730D1*
X26112D1*
X26065Y16707D1*
X26040Y16682D1*
X26017Y16610D1*
Y16395D1*
X26519D1*
X26256Y16563D2*
X26519Y16730D1*
X26113Y16885D2*
X26088Y16933D1*
X26017Y17005D1*
X26519D1*
Y17398D2*
X26017D1*
X26352Y17159D1*
Y17518D1*
X51182Y13385D2*
X51397D1*
X51469Y13409D1*
X51493Y13433D1*
X51517Y13480D1*
Y13529D1*
X51493Y13576D1*
X51469Y13600D1*
X51397Y13624D1*
X51182D1*
Y13122D1*
X51349Y13385D2*
X51517Y13122D1*
X51671Y13528D2*
X51719Y13552D1*
X51791Y13624D1*
Y13122D1*
X52232Y13624D2*
X51994D1*
X51970Y13409D1*
X51994Y13432D1*
X52065Y13457D1*
X52137D1*
X52209Y13432D1*
X52257Y13385D1*
X52280Y13313D1*
Y13265D1*
X52257Y13194D1*
X52209Y13146D1*
X52137Y13122D1*
X52065D1*
X51994Y13146D1*
X51970Y13170D1*
X51946Y13217D1*
X47069Y14948D2*
X47284D1*
X47355Y14972D1*
X47380Y14996D1*
X47404Y15043D1*
Y15091D1*
X47380Y15139D1*
X47355Y15163D1*
X47284Y15187D1*
X47069D1*
Y14684D1*
X47236Y14948D2*
X47404Y14684D1*
X47558Y15091D2*
X47606Y15115D1*
X47678Y15186D1*
Y14684D1*
X48119Y15115D2*
X48095Y15163D1*
X48023Y15186D1*
X47976D1*
X47904Y15163D1*
X47856Y15091D1*
X47832Y14971D1*
Y14852D1*
X47856Y14756D1*
X47904Y14708D1*
X47976Y14684D1*
X48000D1*
X48071Y14708D1*
X48119Y14756D1*
X48143Y14828D1*
Y14852D1*
X48119Y14924D1*
X48071Y14971D1*
X48000Y14995D1*
X47976D1*
X47904Y14971D1*
X47856Y14924D1*
X47832Y14852D1*
X48681Y14948D2*
X48896D1*
X48968Y14972D1*
X48993Y14996D1*
X49016Y15043D1*
Y15091D1*
X48993Y15139D1*
X48968Y15163D1*
X48896Y15187D1*
X48681D1*
Y14684D1*
X48849Y14948D2*
X49016Y14684D1*
X49171Y15091D2*
X49219Y15115D1*
X49291Y15186D1*
Y14684D1*
X49541D2*
X49780Y15186D1*
X49445D1*
X49682Y13385D2*
X49897D1*
X49969Y13409D1*
X49993Y13433D1*
X50017Y13480D1*
Y13529D1*
X49993Y13576D1*
X49969Y13600D1*
X49897Y13624D1*
X49682D1*
Y13122D1*
X49850Y13385D2*
X50017Y13122D1*
X50171Y13528D2*
X50220Y13552D1*
X50291Y13624D1*
Y13122D1*
X50565Y13624D2*
X50494Y13600D1*
X50470Y13552D1*
Y13504D1*
X50494Y13457D1*
X50541Y13432D1*
X50637Y13409D1*
X50709Y13385D1*
X50756Y13337D1*
X50780Y13289D1*
Y13217D1*
X50756Y13170D1*
X50733Y13146D1*
X50661Y13122D1*
X50565D1*
X50494Y13146D1*
X50470Y13170D1*
X50446Y13217D1*
Y13289D1*
X50470Y13337D1*
X50518Y13385D1*
X50589Y13409D1*
X50685Y13432D1*
X50733Y13457D1*
X50756Y13504D1*
Y13552D1*
X50733Y13600D1*
X50661Y13624D1*
X50565D1*
X19375Y30193D2*
Y30408D1*
X19351Y30480D1*
X19327Y30504D1*
X19280Y30528D1*
X19232D1*
X19184Y30504D1*
X19160Y30480D1*
X19136Y30408D1*
Y30193D1*
X19638D1*
X19375Y30360D2*
X19638Y30528D1*
X19232Y30682D2*
X19208Y30730D1*
X19136Y30802D1*
X19638D1*
X19303Y31268D2*
X19375Y31243D1*
X19423Y31196D1*
X19447Y31124D1*
Y31100D1*
X19423Y31028D1*
X19375Y30981D1*
X19303Y30957D1*
X19280D1*
X19208Y30981D1*
X19160Y31028D1*
X19136Y31100D1*
Y31124D1*
X19160Y31196D1*
X19208Y31243D1*
X19303Y31268D1*
X19423D1*
X19543Y31243D1*
X19615Y31196D1*
X19638Y31124D1*
Y31077D1*
X19615Y31005D1*
X19566Y30981D1*
X18449Y29755D2*
X18664D1*
X18735Y29779D1*
X18760Y29803D1*
X18783Y29850D1*
Y29898D1*
X18760Y29946D1*
X18735Y29970D1*
X18664Y29994D1*
X18449D1*
Y29492D1*
X18616Y29755D2*
X18783Y29492D1*
X18962Y29874D2*
Y29898D1*
X18986Y29946D1*
X19010Y29970D1*
X19058Y29994D1*
X19153D1*
X19201Y29970D1*
X19225Y29946D1*
X19249Y29898D1*
Y29850D1*
X19225Y29802D1*
X19177Y29731D1*
X18938Y29492D1*
X19273D1*
X19571Y29994D2*
X19499Y29970D1*
X19451Y29898D1*
X19427Y29779D1*
Y29707D1*
X19451Y29587D1*
X19499Y29515D1*
X19571Y29492D1*
X19618D1*
X19690Y29515D1*
X19738Y29587D1*
X19762Y29707D1*
Y29779D1*
X19738Y29898D1*
X19690Y29970D1*
X19618Y29994D1*
X19571D1*
X19738Y29898D2*
X19451Y29587D1*
X18681Y26630D2*
X18896D1*
X18968Y26654D1*
X18992Y26678D1*
X19016Y26725D1*
Y26773D1*
X18992Y26821D1*
X18968Y26845D1*
X18896Y26869D1*
X18681D1*
Y26367D1*
X18849Y26630D2*
X19016Y26367D1*
X19195Y26749D2*
Y26773D1*
X19218Y26821D1*
X19242Y26845D1*
X19290Y26869D1*
X19386D1*
X19433Y26845D1*
X19457Y26821D1*
X19482Y26773D1*
Y26725D1*
X19457Y26677D1*
X19410Y26606D1*
X19170Y26367D1*
X19505D1*
X19660Y26773D2*
X19708Y26797D1*
X19780Y26869D1*
Y26367D1*
X18574Y27505D2*
X18789D1*
X18860Y27529D1*
X18885Y27553D1*
X18908Y27600D1*
Y27648D1*
X18885Y27696D1*
X18860Y27720D1*
X18789Y27744D1*
X18574D1*
Y27242D1*
X18741Y27505D2*
X18908Y27242D1*
X19087Y27624D2*
Y27648D1*
X19111Y27696D1*
X19135Y27720D1*
X19183Y27744D1*
X19278D1*
X19326Y27720D1*
X19350Y27696D1*
X19374Y27648D1*
Y27600D1*
X19350Y27552D1*
X19302Y27481D1*
X19063Y27242D1*
X19398D1*
X19577Y27624D2*
Y27648D1*
X19600Y27696D1*
X19624Y27720D1*
X19672Y27744D1*
X19768D1*
X19815Y27720D1*
X19839Y27696D1*
X19863Y27648D1*
Y27600D1*
X19839Y27552D1*
X19792Y27481D1*
X19552Y27242D1*
X19887D1*
X15221Y30608D2*
X15436D1*
X15508Y30632D1*
X15532Y30656D1*
X15556Y30703D1*
Y30751D1*
X15532Y30799D1*
X15508Y30823D1*
X15436Y30847D1*
X15221D1*
Y30345D1*
X15388Y30608D2*
X15556Y30345D1*
X15734Y30727D2*
Y30751D1*
X15758Y30799D1*
X15782Y30823D1*
X15830Y30846D1*
X15926D1*
X15973Y30823D1*
X15997Y30799D1*
X16021Y30751D1*
Y30703D1*
X15997Y30655D1*
X15949Y30584D1*
X15710Y30345D1*
X16045D1*
X16247Y30846D2*
X16510D1*
X16367Y30655D1*
X16439D1*
X16486Y30631D1*
X16510Y30608D1*
X16534Y30536D1*
Y30488D1*
X16510Y30416D1*
X16462Y30368D1*
X16391Y30345D1*
X16319D1*
X16247Y30368D1*
X16224Y30393D1*
X16199Y30440D1*
X15168Y29692D2*
X15383D1*
X15455Y29717D1*
X15480Y29740D1*
X15503Y29788D1*
Y29836D1*
X15480Y29883D1*
X15455Y29908D1*
X15383Y29932D1*
X15168D1*
Y29429D1*
X15336Y29692D2*
X15503Y29429D1*
X15682Y29812D2*
Y29835D1*
X15706Y29883D1*
X15730Y29907D1*
X15778Y29931D1*
X15873D1*
X15921Y29907D1*
X15945Y29883D1*
X15969Y29835D1*
Y29788D1*
X15945Y29740D1*
X15897Y29668D1*
X15658Y29429D1*
X15993D1*
X16386D2*
Y29931D1*
X16147Y29597D1*
X16506D1*
X7086Y35018D2*
X7301D1*
X7373Y35042D1*
X7398Y35066D1*
X7421Y35113D1*
Y35161D1*
X7398Y35209D1*
X7373Y35233D1*
X7301Y35257D1*
X7086D1*
Y34754D1*
X7254Y35018D2*
X7421Y34754D1*
X7600Y35137D2*
Y35161D1*
X7624Y35209D1*
X7648Y35233D1*
X7696Y35256D1*
X7791D1*
X7839Y35233D1*
X7863Y35209D1*
X7887Y35161D1*
Y35113D1*
X7863Y35065D1*
X7815Y34994D1*
X7576Y34754D1*
X7911D1*
X8352Y35256D2*
X8113D1*
X8089Y35041D1*
X8113Y35065D1*
X8185Y35089D1*
X8256D1*
X8328Y35065D1*
X8376Y35018D1*
X8400Y34946D1*
Y34898D1*
X8376Y34826D1*
X8328Y34778D1*
X8256Y34754D1*
X8185D1*
X8113Y34778D1*
X8089Y34803D1*
X8065Y34850D1*
X14889Y26579D2*
X15104D1*
X15176Y26603D1*
X15200Y26627D1*
X15224Y26674D1*
Y26722D1*
X15200Y26770D1*
X15176Y26794D1*
X15104Y26818D1*
X14889D1*
Y26315D1*
X15056Y26579D2*
X15224Y26315D1*
X15403Y26698D2*
Y26722D1*
X15426Y26770D1*
X15450Y26794D1*
X15498Y26817D1*
X15594D1*
X15641Y26794D1*
X15665Y26770D1*
X15689Y26722D1*
Y26674D1*
X15665Y26626D1*
X15618Y26555D1*
X15378Y26315D1*
X15713D1*
X16154Y26746D2*
X16131Y26794D1*
X16059Y26817D1*
X16011D1*
X15939Y26794D1*
X15891Y26722D1*
X15868Y26602D1*
Y26483D1*
X15891Y26387D1*
X15939Y26339D1*
X16011Y26315D1*
X16035D1*
X16106Y26339D1*
X16154Y26387D1*
X16178Y26459D1*
Y26483D1*
X16154Y26555D1*
X16106Y26602D1*
X16035Y26626D1*
X16011D1*
X15939Y26602D1*
X15891Y26555D1*
X15868Y26483D1*
X14949Y27380D2*
X15164D1*
X15235Y27404D1*
X15260Y27428D1*
X15283Y27475D1*
Y27523D1*
X15260Y27571D1*
X15235Y27595D1*
X15164Y27619D1*
X14949D1*
Y27117D1*
X15116Y27380D2*
X15283Y27117D1*
X15462Y27499D2*
Y27523D1*
X15486Y27571D1*
X15510Y27595D1*
X15558Y27619D1*
X15653D1*
X15701Y27595D1*
X15725Y27571D1*
X15749Y27523D1*
Y27475D1*
X15725Y27427D1*
X15677Y27356D1*
X15438Y27117D1*
X15773D1*
X16023D2*
X16262Y27619D1*
X15927D1*
X51313Y29199D2*
Y29414D1*
X51288Y29486D1*
X51265Y29510D1*
X51217Y29534D1*
X51169D1*
X51121Y29510D1*
X51097Y29486D1*
X51073Y29414D1*
Y29199D1*
X51576D1*
X51313Y29366D2*
X51576Y29534D1*
X51193Y29712D2*
X51170D1*
X51121Y29736D1*
X51098Y29760D1*
X51074Y29808D1*
Y29904D1*
X51098Y29951D1*
X51121Y29975D1*
X51170Y29999D1*
X51217D1*
X51265Y29975D1*
X51336Y29927D1*
X51576Y29688D1*
Y30023D1*
X51074Y30297D2*
X51098Y30226D1*
X51145Y30201D1*
X51193D1*
X51241Y30226D1*
X51265Y30273D1*
X51289Y30369D1*
X51313Y30441D1*
X51361Y30488D1*
X51408Y30512D1*
X51480D1*
X51528Y30488D1*
X51552Y30464D1*
X51576Y30392D1*
Y30297D1*
X51552Y30226D1*
X51528Y30201D1*
X51480Y30177D1*
X51408D1*
X51361Y30201D1*
X51313Y30249D1*
X51289Y30321D1*
X51265Y30416D1*
X51241Y30464D1*
X51193Y30488D1*
X51145D1*
X51098Y30464D1*
X51074Y30392D1*
Y30297D1*
X43688Y29335D2*
Y29550D1*
X43663Y29622D1*
X43640Y29647D1*
X43592Y29670D1*
X43544D1*
X43496Y29647D1*
X43472Y29622D1*
X43448Y29550D1*
Y29335D1*
X43951D1*
X43688Y29503D2*
X43951Y29670D1*
X43568Y29849D2*
X43545D1*
X43496Y29873D1*
X43473Y29897D1*
X43449Y29945D1*
Y30040D1*
X43473Y30088D1*
X43496Y30112D1*
X43545Y30136D1*
X43592D1*
X43640Y30112D1*
X43711Y30064D1*
X43951Y29825D1*
Y30160D1*
X43616Y30625D2*
X43688Y30601D1*
X43736Y30553D1*
X43760Y30482D1*
Y30458D1*
X43736Y30386D1*
X43688Y30338D1*
X43616Y30314D1*
X43592D1*
X43520Y30338D1*
X43473Y30386D1*
X43449Y30458D1*
Y30482D1*
X43473Y30553D1*
X43520Y30601D1*
X43616Y30625D1*
X43736D1*
X43855Y30601D1*
X43927Y30553D1*
X43951Y30482D1*
Y30434D1*
X43927Y30362D1*
X43879Y30338D1*
X35938Y29324D2*
Y29539D1*
X35913Y29610D1*
X35890Y29635D1*
X35842Y29658D1*
X35794D1*
X35746Y29635D1*
X35722Y29610D1*
X35698Y29539D1*
Y29324D1*
X36201D1*
X35938Y29491D2*
X36201Y29658D1*
X35699Y29861D2*
Y30124D1*
X35890Y29980D1*
Y30052D1*
X35914Y30100D1*
X35938Y30124D1*
X36010Y30148D1*
X36057D1*
X36129Y30124D1*
X36177Y30076D1*
X36201Y30004D1*
Y29932D1*
X36177Y29861D1*
X36153Y29837D1*
X36105Y29813D1*
X35699Y30446D2*
X35723Y30374D1*
X35795Y30326D1*
X35914Y30302D1*
X35986D1*
X36105Y30326D1*
X36177Y30374D1*
X36201Y30446D1*
Y30493D1*
X36177Y30565D1*
X36105Y30613D1*
X35986Y30637D1*
X35914D1*
X35795Y30613D1*
X35723Y30565D1*
X35699Y30493D1*
Y30446D1*
X35795Y30613D2*
X36105Y30326D1*
X49743Y32563D2*
X49958D1*
X50030Y32587D1*
X50054Y32611D1*
X50078Y32658D1*
Y32706D1*
X50054Y32754D1*
X50030Y32778D1*
X49958Y32802D1*
X49743D1*
Y32300D1*
X49911Y32563D2*
X50078Y32300D1*
X50281Y32801D2*
X50543D1*
X50400Y32610D1*
X50472D1*
X50519Y32586D1*
X50543Y32563D1*
X50568Y32491D1*
Y32443D1*
X50543Y32371D1*
X50496Y32323D1*
X50424Y32300D1*
X50352D1*
X50281Y32323D1*
X50257Y32348D1*
X50233Y32395D1*
X50722Y32706D2*
X50770Y32730D1*
X50842Y32801D1*
Y32300D1*
X42011Y32686D2*
X42226D1*
X42298Y32710D1*
X42322Y32734D1*
X42346Y32781D1*
Y32829D1*
X42322Y32877D1*
X42298Y32901D1*
X42226Y32925D1*
X42011D1*
Y32422D1*
X42178Y32686D2*
X42346Y32422D1*
X42548Y32924D2*
X42811D1*
X42668Y32733D1*
X42739D1*
X42787Y32709D1*
X42811Y32686D1*
X42835Y32614D1*
Y32566D1*
X42811Y32494D1*
X42763Y32446D1*
X42691Y32422D1*
X42620D1*
X42548Y32446D1*
X42524Y32471D1*
X42500Y32518D1*
X43014Y32805D2*
Y32829D1*
X43038Y32877D1*
X43061Y32901D1*
X43109Y32924D1*
X43205D1*
X43253Y32901D1*
X43276Y32877D1*
X43301Y32829D1*
Y32781D1*
X43276Y32733D1*
X43229Y32662D1*
X42989Y32422D1*
X43324D1*
X34221Y32829D2*
X34436D1*
X34508Y32854D1*
X34532Y32878D1*
X34556Y32925D1*
Y32973D1*
X34532Y33021D1*
X34508Y33045D1*
X34436Y33069D1*
X34221D1*
Y32566D1*
X34389Y32829D2*
X34556Y32566D1*
X34759Y33068D2*
X35021D1*
X34878Y32877D1*
X34950D1*
X34997Y32853D1*
X35021Y32829D1*
X35045Y32758D1*
Y32710D1*
X35021Y32638D1*
X34974Y32590D1*
X34902Y32566D1*
X34830D1*
X34759Y32590D1*
X34735Y32614D1*
X34710Y32662D1*
X35248Y33068D2*
X35510D1*
X35367Y32877D1*
X35439D1*
X35487Y32853D1*
X35510Y32829D1*
X35535Y32758D1*
Y32710D1*
X35510Y32638D1*
X35463Y32590D1*
X35391Y32566D1*
X35319D1*
X35248Y32590D1*
X35224Y32614D1*
X35200Y32662D1*
X49188Y29187D2*
Y29402D1*
X49163Y29474D1*
X49140Y29498D1*
X49092Y29522D1*
X49044D1*
X48996Y29498D1*
X48972Y29474D1*
X48948Y29402D1*
Y29187D1*
X49451D1*
X49188Y29354D2*
X49451Y29522D1*
X48949Y29724D2*
Y29987D1*
X49140Y29843D1*
Y29915D1*
X49164Y29963D1*
X49188Y29987D1*
X49260Y30011D1*
X49307D1*
X49379Y29987D1*
X49427Y29939D1*
X49451Y29867D1*
Y29795D1*
X49427Y29724D1*
X49403Y29700D1*
X49355Y29676D1*
X49451Y30405D2*
X48949D1*
X49283Y30165D1*
Y30524D1*
X41688Y29324D2*
Y29539D1*
X41663Y29610D1*
X41640Y29635D1*
X41592Y29658D1*
X41544D1*
X41496Y29635D1*
X41472Y29610D1*
X41448Y29539D1*
Y29324D1*
X41951D1*
X41688Y29491D2*
X41951Y29658D1*
X41449Y29861D2*
Y30124D1*
X41640Y29980D1*
Y30052D1*
X41664Y30100D1*
X41688Y30124D1*
X41760Y30148D1*
X41807D1*
X41879Y30124D1*
X41927Y30076D1*
X41951Y30004D1*
Y29932D1*
X41927Y29861D1*
X41903Y29837D1*
X41855Y29813D1*
X41449Y30589D2*
Y30350D1*
X41664Y30327D1*
X41640Y30350D1*
X41616Y30422D1*
Y30493D1*
X41640Y30565D1*
X41688Y30613D1*
X41760Y30637D1*
X41807D1*
X41879Y30613D1*
X41927Y30565D1*
X41951Y30493D1*
Y30422D1*
X41927Y30350D1*
X41903Y30327D1*
X41855Y30302D1*
X33813Y29336D2*
Y29551D1*
X33788Y29623D1*
X33765Y29647D1*
X33717Y29671D1*
X33669D1*
X33621Y29647D1*
X33597Y29623D1*
X33573Y29551D1*
Y29336D1*
X34076D1*
X33813Y29503D2*
X34076Y29671D1*
X33574Y29873D2*
Y30136D1*
X33765Y29993D1*
Y30064D1*
X33789Y30112D1*
X33813Y30136D1*
X33885Y30160D1*
X33932D1*
X34004Y30136D1*
X34052Y30088D1*
X34076Y30016D1*
Y29944D1*
X34052Y29873D1*
X34028Y29849D1*
X33980Y29825D1*
X33645Y30601D2*
X33598Y30577D1*
X33574Y30506D1*
Y30458D1*
X33598Y30386D1*
X33670Y30338D1*
X33789Y30314D1*
X33908D1*
X34004Y30338D1*
X34052Y30386D1*
X34076Y30458D1*
Y30482D1*
X34052Y30553D1*
X34004Y30601D1*
X33932Y30625D1*
X33908D1*
X33836Y30601D1*
X33789Y30553D1*
X33765Y30482D1*
Y30458D1*
X33789Y30386D1*
X33836Y30338D1*
X33908Y30314D1*
X46886Y32380D2*
X47101D1*
X47173Y32404D1*
X47197Y32428D1*
X47221Y32475D1*
Y32523D1*
X47197Y32571D1*
X47173Y32595D1*
X47101Y32619D1*
X46886D1*
Y32117D1*
X47054Y32380D2*
X47221Y32117D1*
X47423Y32619D2*
X47686D1*
X47543Y32427D1*
X47615D1*
X47662Y32404D1*
X47686Y32380D1*
X47710Y32308D1*
Y32260D1*
X47686Y32189D1*
X47638Y32140D1*
X47567Y32117D1*
X47495D1*
X47423Y32140D1*
X47400Y32165D1*
X47375Y32212D1*
X47960Y32117D2*
X48200Y32619D1*
X47865D1*
X39386Y32380D2*
X39601D1*
X39673Y32404D1*
X39697Y32428D1*
X39721Y32475D1*
Y32523D1*
X39697Y32571D1*
X39673Y32595D1*
X39601Y32619D1*
X39386D1*
Y32117D1*
X39554Y32380D2*
X39721Y32117D1*
X39924Y32619D2*
X40186D1*
X40043Y32427D1*
X40115D1*
X40163Y32404D1*
X40186Y32380D1*
X40211Y32308D1*
Y32260D1*
X40186Y32189D1*
X40139Y32140D1*
X40067Y32117D1*
X39995D1*
X39924Y32140D1*
X39900Y32165D1*
X39876Y32212D1*
X40484Y32619D2*
X40413Y32595D1*
X40389Y32547D1*
Y32499D1*
X40413Y32452D1*
X40461Y32427D1*
X40556Y32404D1*
X40628Y32380D1*
X40676Y32332D1*
X40699Y32284D1*
Y32212D1*
X40676Y32165D1*
X40652Y32140D1*
X40580Y32117D1*
X40484D1*
X40413Y32140D1*
X40389Y32165D1*
X40365Y32212D1*
Y32284D1*
X40389Y32332D1*
X40437Y32380D1*
X40508Y32404D1*
X40604Y32427D1*
X40652Y32452D1*
X40676Y32499D1*
Y32547D1*
X40652Y32595D1*
X40580Y32619D1*
X40484D1*
X31648Y32380D2*
X31863D1*
X31935Y32404D1*
X31959Y32428D1*
X31983Y32475D1*
Y32523D1*
X31959Y32571D1*
X31935Y32595D1*
X31863Y32619D1*
X31648D1*
Y32117D1*
X31815Y32380D2*
X31983Y32117D1*
X32185Y32619D2*
X32448D1*
X32305Y32427D1*
X32377D1*
X32424Y32404D1*
X32448Y32380D1*
X32472Y32308D1*
Y32260D1*
X32448Y32189D1*
X32400Y32140D1*
X32328Y32117D1*
X32257D1*
X32185Y32140D1*
X32162Y32165D1*
X32137Y32212D1*
X32938Y32452D2*
X32913Y32380D1*
X32866Y32332D1*
X32794Y32308D1*
X32770D1*
X32698Y32332D1*
X32651Y32380D1*
X32627Y32452D1*
Y32475D1*
X32651Y32547D1*
X32698Y32595D1*
X32770Y32619D1*
X32794D1*
X32866Y32595D1*
X32913Y32547D1*
X32938Y32452D1*
Y32332D1*
X32913Y32212D1*
X32866Y32140D1*
X32794Y32117D1*
X32747D1*
X32675Y32140D1*
X32651Y32189D1*
X45875Y30606D2*
Y30821D1*
X45851Y30893D1*
X45827Y30917D1*
X45780Y30941D1*
X45732D1*
X45684Y30917D1*
X45660Y30893D1*
X45636Y30821D1*
Y30606D1*
X46138D1*
X45875Y30773D2*
X46138Y30941D1*
Y31335D2*
X45636D1*
X45971Y31095D1*
Y31454D1*
X45636Y31752D2*
X45660Y31680D1*
X45732Y31632D1*
X45851Y31608D1*
X45923D1*
X46043Y31632D1*
X46115Y31680D1*
X46138Y31752D1*
Y31800D1*
X46115Y31871D1*
X46043Y31919D1*
X45923Y31943D1*
X45851D1*
X45732Y31919D1*
X45660Y31871D1*
X45636Y31800D1*
Y31752D1*
X45732Y31919D2*
X46043Y31632D1*
X38375Y30713D2*
Y30928D1*
X38351Y31000D1*
X38327Y31025D1*
X38280Y31048D1*
X38232D1*
X38184Y31025D1*
X38160Y31000D1*
X38136Y30928D1*
Y30713D1*
X38638D1*
X38375Y30881D2*
X38638Y31048D1*
Y31442D2*
X38136D1*
X38471Y31203D1*
Y31561D1*
X38232Y31716D2*
X38208Y31764D1*
X38136Y31836D1*
X38638D1*
X30625Y30731D2*
Y30946D1*
X30601Y31018D1*
X30577Y31042D1*
X30530Y31066D1*
X30482D1*
X30434Y31042D1*
X30410Y31018D1*
X30386Y30946D1*
Y30731D1*
X30888D1*
X30625Y30898D2*
X30888Y31066D1*
Y31460D2*
X30386D1*
X30721Y31220D1*
Y31579D1*
X30506Y31758D2*
X30482D1*
X30434Y31781D1*
X30410Y31805D1*
X30386Y31853D1*
Y31949D1*
X30410Y31996D1*
X30434Y32020D1*
X30482Y32045D1*
X30530D1*
X30578Y32020D1*
X30649Y31973D1*
X30888Y31733D1*
Y32068D1*
X46188Y26356D2*
Y26571D1*
X46163Y26643D1*
X46140Y26667D1*
X46092Y26691D1*
X46044D1*
X45996Y26667D1*
X45972Y26643D1*
X45948Y26571D1*
Y26356D1*
X46451D1*
X46188Y26523D2*
X46451Y26691D1*
Y27085D2*
X45949D1*
X46283Y26845D1*
Y27204D1*
X45949Y27406D2*
Y27669D1*
X46140Y27526D1*
Y27598D1*
X46164Y27645D1*
X46188Y27669D1*
X46260Y27693D1*
X46307D1*
X46379Y27669D1*
X46427Y27621D1*
X46451Y27550D1*
Y27478D1*
X46427Y27406D1*
X46403Y27383D1*
X46355Y27358D1*
X38750Y26344D2*
Y26559D1*
X38726Y26631D1*
X38702Y26655D1*
X38655Y26679D1*
X38607D1*
X38559Y26655D1*
X38535Y26631D1*
X38511Y26559D1*
Y26344D1*
X39013D1*
X38750Y26512D2*
X39013Y26679D1*
Y27073D2*
X38511D1*
X38846Y26833D1*
Y27192D1*
X39013Y27586D2*
X38511D1*
X38846Y27347D1*
Y27705D1*
X31125Y26356D2*
Y26571D1*
X31101Y26643D1*
X31077Y26667D1*
X31030Y26691D1*
X30982D1*
X30934Y26667D1*
X30910Y26643D1*
X30886Y26571D1*
Y26356D1*
X31388D1*
X31125Y26523D2*
X31388Y26691D1*
Y27085D2*
X30886D1*
X31221Y26845D1*
Y27204D1*
X30886Y27645D2*
Y27406D1*
X31101Y27383D1*
X31078Y27406D1*
X31053Y27478D1*
Y27550D1*
X31078Y27621D1*
X31125Y27670D1*
X31197Y27693D1*
X31245D1*
X31316Y27670D1*
X31365Y27621D1*
X31388Y27550D1*
Y27478D1*
X31365Y27406D1*
X31340Y27383D1*
X31293Y27358D1*
X39136Y28755D2*
X39351D1*
X39423Y28779D1*
X39447Y28803D1*
X39471Y28850D1*
Y28898D1*
X39447Y28946D1*
X39423Y28970D1*
X39351Y28994D1*
X39136D1*
Y28492D1*
X39304Y28755D2*
X39471Y28492D1*
X39865D2*
Y28994D1*
X39626Y28659D1*
X39984D1*
X40426Y28922D2*
X40402Y28970D1*
X40330Y28994D1*
X40282D1*
X40211Y28970D1*
X40163Y28898D1*
X40139Y28779D1*
Y28659D1*
X40163Y28564D1*
X40211Y28515D1*
X40282Y28492D1*
X40306D1*
X40378Y28515D1*
X40426Y28564D1*
X40449Y28635D1*
Y28659D1*
X40426Y28731D1*
X40378Y28779D1*
X40306Y28802D1*
X40282D1*
X40211Y28779D1*
X40163Y28731D1*
X40139Y28659D1*
X31437Y28755D2*
X31652D1*
X31724Y28779D1*
X31748Y28803D1*
X31772Y28850D1*
Y28898D1*
X31748Y28946D1*
X31724Y28970D1*
X31652Y28994D1*
X31437D1*
Y28492D1*
X31604Y28755D2*
X31772Y28492D1*
X32165D2*
Y28994D1*
X31926Y28659D1*
X32285D1*
X32535Y28492D2*
X32774Y28994D1*
X32439D1*
X46624Y28755D2*
X46839D1*
X46911Y28779D1*
X46936Y28803D1*
X46959Y28850D1*
Y28898D1*
X46936Y28946D1*
X46911Y28970D1*
X46839Y28994D1*
X46624D1*
Y28492D1*
X46792Y28755D2*
X46959Y28492D1*
X47353D2*
Y28994D1*
X47114Y28659D1*
X47472D1*
X47746Y28994D2*
X47675Y28970D1*
X47651Y28922D1*
Y28874D1*
X47675Y28827D1*
X47722Y28802D1*
X47818Y28779D1*
X47890Y28755D1*
X47937Y28707D1*
X47961Y28659D1*
Y28587D1*
X47937Y28540D1*
X47914Y28515D1*
X47842Y28492D1*
X47746D1*
X47675Y28515D1*
X47651Y28540D1*
X47627Y28587D1*
Y28659D1*
X47651Y28707D1*
X47699Y28755D1*
X47770Y28779D1*
X47866Y28802D1*
X47914Y28827D1*
X47937Y28874D1*
Y28922D1*
X47914Y28970D1*
X47842Y28994D1*
X47746D1*
X51000Y6074D2*
Y6289D1*
X50976Y6360D1*
X50952Y6385D1*
X50905Y6409D1*
X50857D1*
X50809Y6385D1*
X50785Y6360D1*
X50761Y6289D1*
Y6074D1*
X51263D1*
X51000Y6241D2*
X51263Y6409D1*
Y6802D2*
X50761D1*
X51096Y6563D1*
Y6922D1*
X50928Y7387D2*
X51000Y7363D1*
X51048Y7315D1*
X51072Y7243D1*
Y7220D1*
X51048Y7148D1*
X51000Y7100D1*
X50928Y7076D1*
X50905D1*
X50833Y7100D1*
X50785Y7148D1*
X50761Y7220D1*
Y7243D1*
X50785Y7315D1*
X50833Y7363D1*
X50928Y7387D1*
X51048D1*
X51168Y7363D1*
X51240Y7315D1*
X51263Y7243D1*
Y7196D1*
X51240Y7124D1*
X51191Y7100D1*
X52125Y6074D2*
Y6289D1*
X52101Y6360D1*
X52077Y6385D1*
X52030Y6408D1*
X51982D1*
X51934Y6385D1*
X51910Y6360D1*
X51886Y6289D1*
Y6074D1*
X52388D1*
X52125Y6241D2*
X52388Y6408D1*
X51886Y6850D2*
Y6611D1*
X52101Y6587D1*
X52078Y6611D1*
X52053Y6683D1*
Y6754D1*
X52078Y6826D1*
X52125Y6874D1*
X52197Y6898D1*
X52245D1*
X52316Y6874D1*
X52365Y6826D1*
X52388Y6754D1*
Y6683D1*
X52365Y6611D1*
X52340Y6587D1*
X52293Y6563D1*
X51886Y7196D2*
X51910Y7124D1*
X51982Y7076D1*
X52101Y7052D1*
X52173D1*
X52293Y7076D1*
X52365Y7124D1*
X52388Y7196D1*
Y7243D1*
X52365Y7315D1*
X52293Y7363D1*
X52173Y7387D1*
X52101D1*
X51982Y7363D1*
X51910Y7315D1*
X51886Y7243D1*
Y7196D1*
X51982Y7363D2*
X52293Y7076D1*
X4625Y5346D2*
Y5561D1*
X4601Y5633D1*
X4577Y5658D1*
X4530Y5681D1*
X4482D1*
X4434Y5658D1*
X4410Y5633D1*
X4386Y5561D1*
Y5346D1*
X4888D1*
X4625Y5514D2*
X4888Y5681D1*
X4387Y6123D2*
Y5884D1*
X4602Y5860D1*
X4578Y5884D1*
X4554Y5956D1*
Y6027D1*
X4578Y6099D1*
X4625Y6147D1*
X4697Y6171D1*
X4745D1*
X4817Y6147D1*
X4865Y6099D1*
X4888Y6027D1*
Y5956D1*
X4865Y5884D1*
X4840Y5860D1*
X4793Y5836D1*
X4482Y6325D2*
X4458Y6373D1*
X4387Y6445D1*
X4888D1*
X49631Y12227D2*
Y11725D1*
X49464Y12227D2*
X49799D1*
X49953Y11964D2*
X50169D1*
X50240Y11988D1*
X50264Y12012D1*
X50288Y12059D1*
Y12131D1*
X50264Y12179D1*
X50240Y12203D1*
X50169Y12227D1*
X49953D1*
Y11725D1*
X50682D2*
Y12226D1*
X50442Y11892D1*
X50801D1*
X51206Y12227D2*
Y11725D1*
X51038Y12227D2*
X51373D1*
X51528Y11964D2*
X51743D1*
X51814Y11988D1*
X51839Y12012D1*
X51862Y12059D1*
Y12131D1*
X51839Y12179D1*
X51814Y12203D1*
X51743Y12227D1*
X51528D1*
Y11725D1*
X52304Y12226D2*
X52065D1*
X52041Y12011D1*
X52065Y12035D1*
X52137Y12059D1*
X52208D1*
X52280Y12035D1*
X52328Y11988D1*
X52352Y11916D1*
Y11868D1*
X52328Y11796D1*
X52280Y11748D1*
X52208Y11725D1*
X52137D1*
X52065Y11748D1*
X52041Y11773D1*
X52017Y11820D1*
X11401Y35542D2*
Y35040D1*
X11234Y35542D2*
X11569D1*
X11723Y35279D2*
X11939D1*
X12010Y35303D1*
X12034Y35327D1*
X12058Y35374D1*
Y35446D1*
X12034Y35494D1*
X12010Y35518D1*
X11939Y35542D1*
X11723D1*
Y35040D1*
X12499Y35470D2*
X12475Y35518D1*
X12404Y35541D1*
X12356D1*
X12284Y35518D1*
X12236Y35446D1*
X12212Y35326D1*
Y35207D1*
X12236Y35111D1*
X12284Y35063D1*
X12356Y35040D1*
X12380D1*
X12451Y35063D1*
X12499Y35111D1*
X12523Y35183D1*
Y35207D1*
X12499Y35279D1*
X12451Y35326D1*
X12380Y35350D1*
X12356D1*
X12284Y35326D1*
X12236Y35279D1*
X12212Y35207D1*
X22390Y33542D2*
Y33039D1*
X22223Y33542D2*
X22558D1*
X22712Y33279D2*
X22928D1*
X22999Y33302D1*
X23023Y33327D1*
X23047Y33374D1*
Y33446D1*
X23023Y33494D1*
X22999Y33518D1*
X22928Y33542D1*
X22712D1*
Y33039D1*
X23297D2*
X23536Y33541D1*
X23201D1*
X21078Y20728D2*
Y20225D1*
X20910Y20728D2*
X21245D1*
X21400Y20465D2*
X21615D1*
X21687Y20489D1*
X21711Y20513D1*
X21735Y20560D1*
Y20632D1*
X21711Y20680D1*
X21687Y20704D1*
X21615Y20728D1*
X21400D1*
Y20225D1*
X22008Y20727D2*
X21937Y20704D1*
X21913Y20656D1*
Y20608D1*
X21937Y20560D1*
X21985Y20536D1*
X22080Y20512D1*
X22152Y20489D1*
X22200Y20440D1*
X22223Y20393D1*
Y20321D1*
X22200Y20274D1*
X22176Y20249D1*
X22104Y20225D1*
X22008D1*
X21937Y20249D1*
X21913Y20274D1*
X21889Y20321D1*
Y20393D1*
X21913Y20440D1*
X21961Y20489D1*
X22032Y20512D1*
X22128Y20536D1*
X22176Y20560D1*
X22200Y20608D1*
Y20656D1*
X22176Y20704D1*
X22104Y20727D1*
X22008D1*
X36804Y16523D2*
Y16164D1*
X36827Y16092D1*
X36875Y16044D1*
X36947Y16020D1*
X36995D1*
X37067Y16044D1*
X37115Y16092D1*
X37138Y16164D1*
Y16523D1*
X37293Y16426D2*
X37341Y16451D1*
X37413Y16522D1*
Y16020D1*
X24334Y19626D2*
Y19268D1*
X24357Y19196D1*
X24405Y19148D1*
X24477Y19124D1*
X24525D1*
X24597Y19148D1*
X24645Y19196D1*
X24669Y19268D1*
Y19626D1*
X24847Y19506D2*
Y19530D1*
X24871Y19578D1*
X24895Y19602D1*
X24943Y19626D1*
X25038D1*
X25086Y19602D1*
X25110Y19578D1*
X25134Y19530D1*
Y19483D1*
X25110Y19435D1*
X25062Y19363D1*
X24823Y19124D1*
X25158D1*
X51371Y14616D2*
Y14257D1*
X51395Y14185D1*
X51443Y14138D1*
X51515Y14113D1*
X51562D1*
X51634Y14138D1*
X51682Y14185D1*
X51706Y14257D1*
Y14616D1*
X51908Y14615D2*
X52171D1*
X52028Y14424D1*
X52100D1*
X52147Y14400D1*
X52171Y14377D1*
X52195Y14305D1*
Y14257D1*
X52171Y14185D1*
X52123Y14137D1*
X52051Y14113D1*
X51980D1*
X51908Y14137D1*
X51885Y14162D1*
X51860Y14209D1*
X20976Y14279D2*
X21334D1*
X21406Y14303D1*
X21454Y14351D1*
X21478Y14422D1*
Y14470D1*
X21454Y14542D1*
X21406Y14590D1*
X21334Y14614D1*
X20976D1*
X21478Y15007D2*
X20976D1*
X21311Y14768D1*
Y15127D1*
X49904Y25968D2*
Y25609D1*
X49928Y25538D1*
X49976Y25490D1*
X50048Y25466D1*
X50095D1*
X50167Y25490D1*
X50215Y25538D1*
X50239Y25609D1*
Y25968D1*
X50680D2*
X50441D1*
X50418Y25753D1*
X50441Y25776D1*
X50513Y25801D1*
X50585D1*
X50656Y25776D1*
X50705Y25729D1*
X50728Y25657D1*
Y25609D1*
X50705Y25538D1*
X50656Y25490D1*
X50585Y25466D1*
X50513D1*
X50441Y25490D1*
X50418Y25514D1*
X50393Y25561D1*
X42206Y25941D2*
Y25583D1*
X42230Y25511D1*
X42278Y25463D1*
X42350Y25439D1*
X42397D1*
X42469Y25463D1*
X42517Y25511D1*
X42541Y25583D1*
Y25941D1*
X42982Y25870D2*
X42959Y25917D1*
X42887Y25941D1*
X42839D1*
X42767Y25917D1*
X42719Y25845D1*
X42695Y25726D1*
Y25606D1*
X42719Y25511D1*
X42767Y25463D1*
X42839Y25439D1*
X42863D1*
X42934Y25463D1*
X42982Y25511D1*
X43006Y25583D1*
Y25606D1*
X42982Y25678D1*
X42934Y25726D1*
X42863Y25750D1*
X42839D1*
X42767Y25726D1*
X42719Y25678D1*
X42695Y25606D1*
X34591Y26157D2*
Y25798D1*
X34615Y25726D1*
X34663Y25678D1*
X34735Y25654D1*
X34782D1*
X34854Y25678D1*
X34902Y25726D1*
X34926Y25798D1*
Y26157D1*
X35176Y25654D2*
X35415Y26156D1*
X35080D1*
X48230Y11375D2*
Y11017D1*
X48253Y10945D1*
X48301Y10897D1*
X48373Y10873D1*
X48421D1*
X48493Y10897D1*
X48541Y10945D1*
X48565Y11017D1*
Y11375D1*
X48838D2*
X48767Y11351D1*
X48743Y11304D1*
Y11255D1*
X48767Y11208D1*
X48815Y11184D1*
X48910Y11160D1*
X48982Y11136D1*
X49030Y11088D1*
X49053Y11040D1*
Y10969D1*
X49030Y10921D1*
X49006Y10897D1*
X48934Y10873D1*
X48838D1*
X48767Y10897D1*
X48743Y10921D1*
X48719Y10969D1*
Y11040D1*
X48743Y11088D1*
X48791Y11136D1*
X48862Y11160D1*
X48958Y11184D1*
X49006Y11208D1*
X49030Y11255D1*
Y11304D1*
X49006Y11351D1*
X48934Y11375D1*
X48838D1*
X7227Y9963D2*
Y9605D1*
X7251Y9533D1*
X7299Y9485D1*
X7371Y9461D1*
X7418D1*
X7490Y9485D1*
X7538Y9533D1*
X7562Y9605D1*
Y9963D1*
X8028Y9796D2*
X8003Y9724D1*
X7956Y9676D1*
X7884Y9652D1*
X7860D1*
X7788Y9676D1*
X7741Y9724D1*
X7717Y9796D1*
Y9820D1*
X7741Y9891D1*
X7788Y9939D1*
X7860Y9963D1*
X7884D1*
X7956Y9939D1*
X8003Y9891D1*
X8028Y9796D1*
Y9676D1*
X8003Y9556D1*
X7956Y9485D1*
X7884Y9461D1*
X7837D1*
X7765Y9485D1*
X7741Y9533D1*
X52333Y9182D2*
Y8823D1*
X52357Y8751D1*
X52405Y8703D1*
X52477Y8679D1*
X52525D1*
X52596Y8703D1*
X52645Y8751D1*
X52668Y8823D1*
Y9182D1*
X52823Y9085D2*
X52871Y9110D1*
X52943Y9181D1*
Y8679D1*
X53097Y9085D2*
X53145Y9110D1*
X53217Y9181D1*
Y8679D1*
X43555Y16951D2*
X43746Y16712D1*
Y16449D1*
X43937Y16951D2*
X43746Y16712D1*
X44092Y16855D2*
X44140Y16879D1*
X44212Y16951D1*
Y16449D1*
X9542Y29775D2*
X9495Y29751D1*
X9447Y29703D1*
X9423Y29656D1*
Y29560D1*
X9447Y29512D1*
X9495Y29464D1*
X9542Y29440D1*
X9614Y29416D1*
X9734D1*
X9805Y29440D1*
X9853Y29464D1*
X9901Y29512D1*
X9925Y29560D1*
Y29656D1*
X9901Y29703D1*
X9853Y29751D1*
X9805Y29775D1*
X9423Y29978D2*
Y30240D1*
X9615Y30097D1*
Y30169D1*
X9638Y30216D1*
X9662Y30240D1*
X9734Y30264D1*
X9781D1*
X9853Y30240D1*
X9901Y30192D1*
X9925Y30121D1*
Y30049D1*
X9901Y29978D1*
X9877Y29954D1*
X9830Y29929D1*
X9543Y30443D2*
X9519D1*
X9471Y30467D1*
X9447Y30491D1*
X9423Y30539D1*
Y30634D1*
X9447Y30682D1*
X9471Y30706D1*
X9519Y30730D1*
X9566D1*
X9615Y30706D1*
X9686Y30658D1*
X9925Y30419D1*
Y30754D1*
X10922Y32040D2*
X10875Y32016D1*
X10827Y31968D1*
X10803Y31921D1*
Y31825D1*
X10827Y31777D1*
X10875Y31729D1*
X10922Y31705D1*
X10994Y31681D1*
X11114D1*
X11185Y31705D1*
X11233Y31729D1*
X11281Y31777D1*
X11305Y31825D1*
Y31921D1*
X11281Y31968D1*
X11233Y32016D1*
X11185Y32040D1*
X10803Y32243D2*
Y32505D1*
X10995Y32362D1*
Y32434D1*
X11018Y32481D1*
X11042Y32505D1*
X11114Y32529D1*
X11161D1*
X11233Y32505D1*
X11281Y32457D1*
X11305Y32386D1*
Y32314D1*
X11281Y32243D1*
X11257Y32219D1*
X11210Y32194D1*
X10803Y32732D2*
Y32994D1*
X10995Y32851D1*
Y32923D1*
X11018Y32971D1*
X11042Y32994D1*
X11114Y33019D1*
X11161D1*
X11233Y32994D1*
X11281Y32947D1*
X11305Y32875D1*
Y32803D1*
X11281Y32732D1*
X11257Y32708D1*
X11210Y32684D1*
X5472Y24208D2*
X5425Y24184D1*
X5377Y24136D1*
X5353Y24089D1*
Y23993D1*
X5377Y23945D1*
X5425Y23898D1*
X5472Y23873D1*
X5544Y23849D1*
X5664D1*
X5735Y23873D1*
X5783Y23898D1*
X5831Y23945D1*
X5855Y23993D1*
Y24089D1*
X5831Y24136D1*
X5783Y24184D1*
X5735Y24208D1*
X5353Y24411D2*
Y24673D1*
X5545Y24530D1*
Y24602D1*
X5568Y24649D1*
X5592Y24673D1*
X5664Y24697D1*
X5711D1*
X5783Y24673D1*
X5831Y24626D1*
X5855Y24554D1*
Y24482D1*
X5831Y24411D1*
X5807Y24387D1*
X5760Y24363D1*
X5855Y25091D2*
X5353D1*
X5688Y24852D1*
Y25211D1*
X7045Y28548D2*
X7021Y28595D1*
X6973Y28643D1*
X6926Y28667D1*
X6830D1*
X6782Y28643D1*
X6734Y28595D1*
X6710Y28548D1*
X6686Y28476D1*
Y28356D1*
X6710Y28285D1*
X6734Y28237D1*
X6782Y28189D1*
X6830Y28165D1*
X6926D1*
X6973Y28189D1*
X7021Y28237D1*
X7045Y28285D1*
X7248Y28667D2*
X7510D1*
X7367Y28475D1*
X7439D1*
X7486Y28452D1*
X7510Y28428D1*
X7534Y28356D1*
Y28309D1*
X7510Y28237D1*
X7462Y28189D1*
X7391Y28165D1*
X7319D1*
X7248Y28189D1*
X7224Y28213D1*
X7199Y28260D1*
X7976Y28667D2*
X7737D1*
X7713Y28452D1*
X7737Y28475D1*
X7809Y28500D1*
X7880D1*
X7952Y28475D1*
X8000Y28428D1*
X8024Y28356D1*
Y28309D1*
X8000Y28237D1*
X7952Y28189D1*
X7880Y28165D1*
X7809D1*
X7737Y28189D1*
X7713Y28213D1*
X7689Y28260D1*
X11408Y32012D2*
Y31510D1*
X11576D1*
X11648Y31534D1*
X11696Y31582D1*
X11719Y31630D1*
X11743Y31701D1*
Y31821D1*
X11719Y31893D1*
X11696Y31940D1*
X11648Y31988D1*
X11576Y32012D1*
X11408D1*
X11922Y31892D2*
Y31916D1*
X11946Y31964D1*
X11969Y31988D1*
X12017Y32012D1*
X12113D1*
X12161Y31988D1*
X12184Y31964D1*
X12209Y31916D1*
Y31869D1*
X12184Y31820D1*
X12137Y31749D1*
X11898Y31510D1*
X12232D1*
X12674Y32012D2*
X12435D1*
X12411Y31797D1*
X12435Y31820D1*
X12507Y31845D1*
X12578D1*
X12650Y31820D1*
X12698Y31773D1*
X12722Y31701D1*
Y31654D1*
X12698Y31582D1*
X12650Y31534D1*
X12578Y31510D1*
X12507D1*
X12435Y31534D1*
X12411Y31558D1*
X12387Y31605D1*
X10284Y28107D2*
Y27605D1*
X10571D1*
X10726Y28011D2*
X10774Y28035D1*
X10846Y28107D1*
Y27605D1*
X7086Y33268D2*
X7301D1*
X7373Y33292D1*
X7398Y33316D1*
X7421Y33363D1*
Y33411D1*
X7398Y33459D1*
X7373Y33483D1*
X7301Y33507D1*
X7086D1*
Y33004D1*
X7254Y33268D2*
X7421Y33004D1*
X7863Y33506D2*
X7624D1*
X7600Y33291D1*
X7624Y33315D1*
X7696Y33339D1*
X7767D1*
X7839Y33315D1*
X7887Y33268D1*
X7911Y33196D1*
Y33148D1*
X7887Y33076D1*
X7839Y33028D1*
X7767Y33004D1*
X7696D1*
X7624Y33028D1*
X7600Y33053D1*
X7576Y33100D1*
X8089Y33387D2*
Y33411D1*
X8113Y33459D1*
X8137Y33483D1*
X8185Y33506D1*
X8281D1*
X8328Y33483D1*
X8352Y33459D1*
X8376Y33411D1*
Y33363D1*
X8352Y33315D1*
X8304Y33244D1*
X8065Y33004D1*
X8400D1*
X4263Y29545D2*
X4478D1*
X4549Y29569D1*
X4574Y29593D1*
X4597Y29641D1*
Y29689D1*
X4574Y29736D1*
X4549Y29761D1*
X4478Y29784D1*
X4263D1*
Y29282D1*
X4430Y29545D2*
X4597Y29282D1*
X5039Y29784D2*
X4800D1*
X4776Y29569D1*
X4800Y29593D1*
X4872Y29617D1*
X4943D1*
X5015Y29593D1*
X5063Y29545D1*
X5087Y29473D1*
Y29426D1*
X5063Y29354D1*
X5015Y29306D1*
X4943Y29282D1*
X4872D1*
X4800Y29306D1*
X4776Y29330D1*
X4752Y29378D1*
X5289Y29784D2*
X5552D1*
X5409Y29593D1*
X5481D1*
X5528Y29569D1*
X5552Y29545D1*
X5576Y29473D1*
Y29426D1*
X5552Y29354D1*
X5504Y29306D1*
X5432Y29282D1*
X5361D1*
X5289Y29306D1*
X5266Y29330D1*
X5241Y29378D1*
X4251Y32045D2*
X4466D1*
X4538Y32069D1*
X4562Y32093D1*
X4586Y32141D1*
Y32189D1*
X4562Y32236D1*
X4538Y32261D1*
X4466Y32284D1*
X4251D1*
Y31782D1*
X4418Y32045D2*
X4586Y31782D1*
X5027Y32284D2*
X4788D1*
X4764Y32069D1*
X4788Y32093D1*
X4860Y32117D1*
X4931D1*
X5003Y32093D1*
X5051Y32045D1*
X5075Y31973D1*
Y31926D1*
X5051Y31854D1*
X5003Y31806D1*
X4931Y31782D1*
X4860D1*
X4788Y31806D1*
X4764Y31830D1*
X4740Y31878D1*
X5469Y31782D2*
Y32284D1*
X5229Y31950D1*
X5588D1*
X4316Y33244D2*
X4531D1*
X4603Y33268D1*
X4627Y33292D1*
X4651Y33340D1*
Y33388D1*
X4627Y33435D1*
X4603Y33459D1*
X4531Y33483D1*
X4316D1*
Y32981D1*
X4483Y33244D2*
X4651Y32981D1*
X5092Y33483D2*
X4853D1*
X4829Y33268D1*
X4853Y33291D1*
X4925Y33316D1*
X4996D1*
X5068Y33291D1*
X5116Y33244D1*
X5140Y33172D1*
Y33125D1*
X5116Y33053D1*
X5068Y33005D1*
X4996Y32981D1*
X4925D1*
X4853Y33005D1*
X4829Y33029D1*
X4805Y33076D1*
X5581Y33483D2*
X5342D1*
X5319Y33268D1*
X5342Y33291D1*
X5414Y33316D1*
X5486D1*
X5557Y33291D1*
X5606Y33244D1*
X5629Y33172D1*
Y33125D1*
X5606Y33053D1*
X5557Y33005D1*
X5486Y32981D1*
X5414D1*
X5342Y33005D1*
X5319Y33029D1*
X5294Y33076D1*
X4275Y30795D2*
X4490D1*
X4562Y30819D1*
X4586Y30843D1*
X4610Y30891D1*
Y30939D1*
X4586Y30986D1*
X4562Y31011D1*
X4490Y31034D1*
X4275D1*
Y30532D1*
X4442Y30795D2*
X4610Y30532D1*
X5051Y31034D2*
X4812D1*
X4788Y30819D1*
X4812Y30843D1*
X4884Y30867D1*
X4955D1*
X5027Y30843D1*
X5075Y30795D1*
X5099Y30723D1*
Y30676D1*
X5075Y30604D1*
X5027Y30556D1*
X4955Y30532D1*
X4884D1*
X4812Y30556D1*
X4788Y30580D1*
X4764Y30628D1*
X5540Y30963D2*
X5516Y31010D1*
X5445Y31034D1*
X5397D1*
X5325Y31010D1*
X5277Y30938D1*
X5253Y30819D1*
Y30700D1*
X5277Y30604D1*
X5325Y30556D1*
X5397Y30532D1*
X5421D1*
X5492Y30556D1*
X5540Y30604D1*
X5564Y30676D1*
Y30700D1*
X5540Y30771D1*
X5492Y30819D1*
X5421Y30843D1*
X5397D1*
X5325Y30819D1*
X5277Y30771D1*
X5253Y30700D1*
X6308Y26979D2*
Y26476D1*
X6141Y26979D2*
X6476D1*
X6630Y26715D2*
X6846D1*
X6917Y26739D1*
X6941Y26764D1*
X6965Y26811D1*
Y26883D1*
X6941Y26930D1*
X6917Y26955D1*
X6846Y26979D1*
X6630D1*
Y26476D1*
X7120Y26882D2*
X7168Y26907D1*
X7240Y26978D1*
Y26476D1*
X8701Y29166D2*
Y28664D1*
X8534Y29166D2*
X8869D1*
X9023Y28903D2*
X9239D1*
X9310Y28927D1*
X9334Y28951D1*
X9358Y28999D1*
Y29071D1*
X9334Y29118D1*
X9310Y29142D1*
X9239Y29166D1*
X9023D1*
Y28664D1*
X9537Y29046D2*
Y29070D1*
X9560Y29118D1*
X9584Y29142D1*
X9632Y29166D1*
X9728D1*
X9775Y29142D1*
X9799Y29118D1*
X9824Y29070D1*
Y29023D1*
X9799Y28974D1*
X9752Y28903D1*
X9512Y28664D1*
X9847D1*
X5388Y22165D2*
Y21663D1*
X5221Y22165D2*
X5556D1*
X5710Y21902D2*
X5926D1*
X5997Y21926D1*
X6021Y21950D1*
X6045Y21998D1*
Y22070D1*
X6021Y22117D1*
X5997Y22142D1*
X5926Y22165D1*
X5710D1*
Y21663D1*
X6248Y22165D2*
X6510D1*
X6367Y21974D1*
X6439D1*
X6486Y21950D1*
X6510Y21926D1*
X6534Y21854D1*
Y21807D1*
X6510Y21735D1*
X6463Y21687D1*
X6391Y21663D1*
X6319D1*
X6248Y21687D1*
X6224Y21711D1*
X6200Y21759D1*
X5784Y30128D2*
X6143D1*
X6215Y30151D1*
X6263Y30200D1*
X6287Y30271D1*
Y30319D1*
X6263Y30391D1*
X6215Y30439D1*
X6143Y30463D1*
X5784D1*
X5881Y30617D2*
X5856Y30665D1*
X5785Y30737D1*
X6287D1*
X5785Y31035D2*
X5809Y30963D1*
X5881Y30915D1*
X6000Y30891D1*
X6072D1*
X6191Y30915D1*
X6263Y30963D1*
X6287Y31035D1*
Y31083D1*
X6263Y31154D1*
X6191Y31202D1*
X6072Y31226D1*
X6000D1*
X5881Y31202D1*
X5809Y31154D1*
X5785Y31083D1*
Y31035D1*
X5881Y31202D2*
X6191Y30915D1*
X45521Y11660D2*
X45449Y11636D1*
X45425Y11588D1*
Y11540D1*
X45449Y11493D1*
X45497Y11468D1*
X45593Y11445D1*
X45664Y11421D1*
X45712Y11373D1*
X45736Y11325D1*
Y11253D1*
X45712Y11206D1*
X45688Y11181D1*
X45616Y11158D1*
X45521D1*
X45449Y11181D1*
X45425Y11206D1*
X45401Y11253D1*
Y11325D1*
X45425Y11373D1*
X45473Y11421D1*
X45545Y11445D1*
X45640Y11468D1*
X45688Y11493D1*
X45712Y11540D1*
Y11588D1*
X45688Y11636D1*
X45616Y11660D1*
X45521D1*
X46273Y11158D2*
Y11660D1*
X46081Y11158D1*
X45890Y11660D1*
Y11158D1*
X46427Y11660D2*
Y11158D1*
X46762Y11660D2*
Y11158D1*
X46427Y11421D2*
X46762D1*
X46916Y11493D2*
X47179D1*
X46916Y11158D1*
X47179D1*
X16139Y17772D2*
X15900D1*
X15876Y17557D1*
X15900Y17581D1*
X15972Y17605D1*
X16043D1*
X16115Y17581D1*
X16163Y17533D1*
X16187Y17462D1*
Y17414D1*
X16163Y17342D1*
X16115Y17294D1*
X16043Y17270D1*
X15972D1*
X15900Y17294D1*
X15876Y17318D1*
X15852Y17366D1*
X16341Y17773D2*
X16532Y17270D1*
X16723Y17773D1*
X16878Y17187D2*
X17332D1*
X17822Y17701D2*
X17774Y17749D1*
X17702Y17773D1*
X17607D1*
X17535Y17749D1*
X17487Y17701D1*
Y17653D1*
X17511Y17605D1*
X17535Y17582D1*
X17582Y17558D1*
X17726Y17510D1*
X17774Y17486D1*
X17798Y17462D1*
X17822Y17414D1*
Y17342D1*
X17774Y17295D1*
X17702Y17270D1*
X17607D1*
X17535Y17295D1*
X17487Y17342D1*
X17976Y17773D2*
X18096Y17270D1*
X18215Y17773D1*
X18335Y17270D1*
X18455Y17773D1*
X8171Y11676D2*
X8674D1*
X8171Y12011D2*
X8674D1*
X8411Y11676D2*
Y12011D1*
X8171Y12651D2*
X8674D1*
Y12938D1*
X55900Y9460D2*
Y9676D1*
X55876Y9747D1*
X55852Y9771D1*
X55804Y9795D1*
X55733D1*
X55685Y9771D1*
X55661Y9747D1*
X55637Y9676D1*
Y9460D1*
X56139D1*
X55876Y9949D2*
Y10164D1*
X55852Y10236D1*
X55828Y10261D1*
X55781Y10284D1*
X55733D1*
X55685Y10261D1*
X55661Y10236D1*
X55637Y10164D1*
Y9949D1*
X56139D1*
X55876Y10117D2*
X56139Y10284D1*
X55756Y10797D2*
X55709Y10774D1*
X55661Y10726D1*
X55637Y10678D1*
Y10582D1*
X55661Y10534D1*
X55709Y10487D1*
X55756Y10462D1*
X55828Y10439D1*
X55948D1*
X56019Y10462D1*
X56068Y10487D1*
X56115Y10534D1*
X56139Y10582D1*
Y10678D1*
X56115Y10726D1*
X56068Y10774D1*
X56019Y10797D1*
X55948D1*
Y10678D1*
X56139Y11334D2*
X55637D1*
X56139Y11143D1*
X55637Y10952D1*
X56139D1*
X26014Y6206D2*
D150*
Y6335D1*
X25999Y6378D1*
X25985Y6393D1*
X25957Y6407D1*
X25928D1*
X25899Y6393D1*
X25885Y6378D1*
X25870Y6335D1*
Y6206D1*
X26172D1*
X26014Y6306D2*
X26172Y6407D1*
X26057Y6499D2*
Y6672D1*
X26028D1*
X25999Y6657D1*
X25985Y6643D1*
X25971Y6614D1*
Y6571D1*
X25985Y6543D1*
X26014Y6514D1*
X26057Y6499D1*
X26086D1*
X26129Y6514D1*
X26157Y6543D1*
X26172Y6571D1*
Y6614D1*
X26157Y6643D1*
X26129Y6672D1*
X26014Y6922D2*
X25985Y6908D1*
X25971Y6865D1*
Y6822D1*
X25985Y6778D1*
X26014Y6764D1*
X26043Y6778D1*
X26057Y6807D1*
X26071Y6879D1*
X26086Y6908D1*
X26115Y6922D1*
X26129D1*
X26157Y6908D1*
X26172Y6865D1*
Y6822D1*
X26157Y6778D1*
X26129Y6764D1*
X26057Y7015D2*
Y7187D1*
X26028D1*
X25999Y7172D1*
X25985Y7158D1*
X25971Y7129D1*
Y7086D1*
X25985Y7058D1*
X26014Y7029D1*
X26057Y7015D1*
X26086D1*
X26129Y7029D1*
X26157Y7058D1*
X26172Y7086D1*
Y7129D1*
X26157Y7158D1*
X26129Y7187D1*
X25870Y7323D2*
X26115D1*
X26157Y7337D1*
X26172Y7366D1*
Y7394D1*
X25971Y7279D2*
Y7380D1*
X26953Y5669D2*
Y5798D1*
X26938Y5841D1*
X26924Y5856D1*
X26895Y5870D1*
X26866D1*
X26838Y5856D1*
X26823Y5841D1*
X26809Y5798D1*
Y5669D1*
X27110D1*
X26953Y5770D2*
X27110Y5870D1*
X26967Y5963D2*
Y6092D1*
X26953Y6135D1*
X26938Y6149D1*
X26909Y6164D1*
X26866D1*
X26838Y6149D1*
X26823Y6135D1*
X26809Y6092D1*
Y5963D1*
X27110D1*
X26809Y6256D2*
X27110D1*
X26867Y6349D2*
X26852Y6378D1*
X26809Y6421D1*
X27110D1*
X26881Y6528D2*
X26867D1*
X26838Y6542D1*
X26824Y6557D1*
X26809Y6586D1*
Y6643D1*
X26824Y6671D1*
X26838Y6686D1*
X26867Y6700D1*
X26895D1*
X26924Y6686D1*
X26967Y6657D1*
X27110Y6514D1*
Y6715D1*
X26867Y6807D2*
X26852Y6836D1*
X26809Y6879D1*
X27110D1*
Y6972D2*
X26809Y7173D1*
X26953Y7265D2*
Y7394D1*
X26938Y7437D1*
X26924Y7452D1*
X26895Y7466D1*
X26866D1*
X26838Y7452D1*
X26823Y7437D1*
X26809Y7394D1*
Y7265D1*
X27110D1*
X26953Y7366D2*
X27110Y7466D1*
X26881Y7774D2*
X26852Y7760D1*
X26823Y7731D1*
X26809Y7703D1*
Y7645D1*
X26823Y7616D1*
X26852Y7588D1*
X26881Y7573D1*
X26924Y7559D1*
X26996D1*
X27038Y7573D1*
X27067Y7588D1*
X27096Y7616D1*
X27110Y7645D1*
Y7703D1*
X27096Y7731D1*
X27067Y7760D1*
X27038Y7774D1*
X26996D1*
Y7703D1*
X26909Y8054D2*
X26953Y8039D1*
X26981Y8010D1*
X26996Y7967D1*
Y7953D1*
X26981Y7910D1*
X26953Y7881D1*
X26909Y7867D1*
X26895D1*
X26852Y7881D1*
X26824Y7910D1*
X26809Y7953D1*
Y7967D1*
X26824Y8010D1*
X26852Y8039D1*
X26909Y8054D1*
X26981D1*
X27053Y8039D1*
X27096Y8010D1*
X27110Y7967D1*
Y7939D1*
X27096Y7896D1*
X27067Y7881D1*
X27874Y5741D2*
X28046D1*
X27917Y5669D2*
X28003Y5813D1*
X27917D2*
X28003Y5669D1*
X28110Y6135D2*
X27809Y6020D1*
X28110Y5905D1*
X28010Y5948D2*
Y6092D1*
X27809Y6429D2*
X28110D1*
X27809Y6228D1*
X28110D1*
X27867Y6521D2*
X27852Y6550D1*
X27809Y6593D1*
X28110D1*
X27809Y6772D2*
X27824Y6729D1*
X27867Y6700D1*
X27938Y6686D1*
X27981D1*
X28053Y6700D1*
X28096Y6729D1*
X28110Y6772D1*
Y6801D1*
X28096Y6844D1*
X28053Y6872D1*
X27981Y6887D1*
X27938D1*
X27867Y6872D1*
X27824Y6844D1*
X27809Y6801D1*
Y6772D1*
X27867Y6872D2*
X28053Y6700D1*
X28110Y6980D2*
X27809Y7181D1*
X27953Y7273D2*
Y7402D1*
X27938Y7445D1*
X27924Y7460D1*
X27895Y7474D1*
X27866D1*
X27838Y7460D1*
X27823Y7445D1*
X27809Y7402D1*
Y7273D1*
X28110D1*
X27953Y7374D2*
X28110Y7474D1*
X27967Y7567D2*
Y7696D1*
X27953Y7739D1*
X27938Y7754D1*
X27909Y7768D1*
X27866D1*
X27838Y7754D1*
X27823Y7739D1*
X27809Y7696D1*
Y7567D1*
X28110D1*
X27809Y7860D2*
X28110D1*
X27881Y7968D2*
X27867D1*
X27838Y7982D1*
X27824Y7996D1*
X27809Y8025D1*
Y8082D1*
X27824Y8111D1*
X27838Y8125D1*
X27867Y8140D1*
X27895D1*
X27924Y8125D1*
X27967Y8097D1*
X28110Y7953D1*
Y8154D1*
X27809Y8318D2*
X27824Y8275D1*
X27852Y8261D1*
X27881D1*
X27909Y8275D1*
X27924Y8304D1*
X27938Y8361D1*
X27953Y8404D1*
X27981Y8433D1*
X28010Y8447D1*
X28053D1*
X28082Y8433D1*
X28096Y8419D1*
X28110Y8376D1*
Y8318D1*
X28096Y8275D1*
X28082Y8261D1*
X28053Y8247D1*
X28010D1*
X27981Y8261D1*
X27953Y8290D1*
X27938Y8333D1*
X27924Y8390D1*
X27909Y8419D1*
X27881Y8433D1*
X27852D1*
X27824Y8419D1*
X27809Y8376D1*
Y8318D1*
X28110Y8540D2*
X27809Y8741D1*
X27953Y8833D2*
Y8962D1*
X27938Y9006D1*
X27924Y9020D1*
X27895Y9034D1*
X27866D1*
X27838Y9020D1*
X27823Y9006D1*
X27809Y8962D1*
Y8833D1*
X28110D1*
X27953Y8934D2*
X28110Y9034D1*
Y9357D2*
X27809Y9242D1*
X28110Y9127D1*
X28010Y9170D2*
Y9314D1*
X27867Y9450D2*
X27852Y9478D1*
X27809Y9521D1*
X28110D1*
X27881Y9629D2*
X27867D1*
X27838Y9643D1*
X27824Y9657D1*
X27809Y9686D1*
Y9743D1*
X27824Y9772D1*
X27838Y9786D1*
X27867Y9801D1*
X27895D1*
X27924Y9786D1*
X27967Y9758D1*
X28110Y9614D1*
Y9815D1*
X28874Y5741D2*
X29046D1*
X28917Y5669D2*
X29003Y5813D1*
X28917D2*
X29003Y5669D1*
X29110Y6135D2*
X28809Y6020D1*
X29110Y5905D1*
X29010Y5948D2*
Y6092D1*
X28809Y6429D2*
X29110D1*
X28809Y6228D1*
X29110D1*
X28909Y6708D2*
X28953Y6694D1*
X28981Y6665D1*
X28996Y6622D1*
Y6608D1*
X28981Y6565D1*
X28953Y6536D1*
X28909Y6521D1*
X28895D1*
X28852Y6536D1*
X28824Y6565D1*
X28809Y6608D1*
Y6622D1*
X28824Y6665D1*
X28852Y6694D1*
X28909Y6708D1*
X28981D1*
X29053Y6694D1*
X29096Y6665D1*
X29110Y6622D1*
Y6593D1*
X29096Y6550D1*
X29067Y6536D1*
X29110Y6801D2*
X28809Y7002D1*
X28953Y7094D2*
Y7223D1*
X28938Y7266D1*
X28924Y7281D1*
X28895Y7295D1*
X28866D1*
X28838Y7281D1*
X28823Y7266D1*
X28809Y7223D1*
Y7094D1*
X29110D1*
X28953Y7195D2*
X29110Y7295D1*
X28967Y7388D2*
Y7517D1*
X28953Y7560D1*
X28938Y7575D1*
X28909Y7589D1*
X28866D1*
X28838Y7575D1*
X28823Y7560D1*
X28809Y7517D1*
Y7388D1*
X29110D1*
X28809Y7682D2*
X29110D1*
X28881Y7789D2*
X28867D1*
X28838Y7803D1*
X28824Y7817D1*
X28809Y7846D1*
Y7904D1*
X28824Y7932D1*
X28838Y7946D1*
X28867Y7961D1*
X28895D1*
X28924Y7946D1*
X28967Y7918D1*
X29110Y7774D1*
Y7975D1*
Y8125D2*
X28809Y8269D1*
Y8068D1*
X29110Y8361D2*
X28809Y8562D1*
X28953Y8655D2*
Y8784D1*
X28938Y8827D1*
X28924Y8842D1*
X28895Y8856D1*
X28866D1*
X28838Y8842D1*
X28823Y8827D1*
X28809Y8784D1*
Y8655D1*
X29110D1*
X28953Y8755D2*
X29110Y8856D1*
Y9178D2*
X28809Y9063D1*
X29110Y8949D1*
X29010Y8992D2*
Y9135D1*
X28867Y9271D2*
X28852Y9300D1*
X28809Y9343D1*
X29110D1*
X28867Y9436D2*
X28852Y9464D1*
X28809Y9508D1*
X29110D1*
X29874Y5741D2*
X30046D1*
X29917Y5669D2*
X30003Y5813D1*
X29917D2*
X30003Y5669D1*
X30110Y6135D2*
X29809Y6020D1*
X30110Y5905D1*
X30010Y5949D2*
Y6092D1*
X29809Y6429D2*
X30110D1*
X29809Y6228D1*
X30110D1*
X29809Y6608D2*
X29824Y6565D1*
X29867Y6536D1*
X29938Y6521D1*
X29981D1*
X30053Y6536D1*
X30096Y6565D1*
X30110Y6608D1*
Y6636D1*
X30096Y6679D1*
X30053Y6708D1*
X29981Y6722D1*
X29938D1*
X29867Y6708D1*
X29824Y6679D1*
X29809Y6636D1*
Y6608D1*
X29867Y6708D2*
X30053Y6536D1*
X30110Y6815D2*
X29809Y7016D1*
X29953Y7109D2*
Y7238D1*
X29938Y7281D1*
X29924Y7295D1*
X29895Y7310D1*
X29866D1*
X29838Y7295D1*
X29823Y7281D1*
X29809Y7238D1*
Y7109D1*
X30110D1*
X29953Y7209D2*
X30110Y7310D1*
Y7632D2*
X29809Y7517D1*
X30110Y7402D1*
X30010Y7445D2*
Y7589D1*
X29809Y7811D2*
X29824Y7768D1*
X29867Y7739D1*
X29938Y7725D1*
X29981D1*
X30053Y7739D1*
X30096Y7768D1*
X30110Y7811D1*
Y7839D1*
X30096Y7883D1*
X30053Y7911D1*
X29981Y7926D1*
X29938D1*
X29867Y7911D1*
X29824Y7883D1*
X29809Y7839D1*
Y7811D1*
X29867Y7911D2*
X30053Y7739D1*
X30874Y5741D2*
X31046D1*
X30917Y5669D2*
X31003Y5813D1*
X30917D2*
X31003Y5669D1*
X31110Y6135D2*
X30809Y6020D1*
X31110Y5905D1*
X31010Y5948D2*
Y6092D1*
X30809Y6429D2*
X31110D1*
X30809Y6228D1*
X31110D1*
X30867Y6521D2*
X30852Y6550D1*
X30809Y6593D1*
X31110D1*
Y6686D2*
X30809Y6887D1*
X30953Y6980D2*
Y7109D1*
X30938Y7152D1*
X30924Y7166D1*
X30895Y7181D1*
X30866D1*
X30838Y7166D1*
X30823Y7152D1*
X30809Y7109D1*
Y6980D1*
X31110D1*
X30953Y7080D2*
X31110Y7181D1*
Y7503D2*
X30809Y7388D1*
X31110Y7273D1*
X31010Y7316D2*
Y7460D1*
X30867Y7596D2*
X30852Y7625D1*
X30809Y7668D1*
X31110D1*
X31874Y5741D2*
X32046D1*
X31917Y5669D2*
X32003Y5813D1*
X31917D2*
X32003Y5669D1*
X32110Y6135D2*
X31809Y6020D1*
X32110Y5905D1*
X32010Y5948D2*
Y6092D1*
X31809Y6429D2*
X32110D1*
X31809Y6228D1*
X32110D1*
X31881Y6536D2*
X31867D1*
X31838Y6550D1*
X31824Y6565D1*
X31809Y6593D1*
Y6651D1*
X31824Y6679D1*
X31838Y6694D1*
X31867Y6708D1*
X31895D1*
X31924Y6694D1*
X31967Y6665D1*
X32110Y6521D1*
Y6722D1*
Y6815D2*
X31809Y7016D1*
X31953Y7109D2*
Y7238D1*
X31938Y7281D1*
X31924Y7295D1*
X31895Y7310D1*
X31866D1*
X31838Y7295D1*
X31823Y7281D1*
X31809Y7238D1*
Y7109D1*
X32110D1*
X31953Y7209D2*
X32110Y7310D1*
X31967Y7402D2*
Y7532D1*
X31953Y7574D1*
X31938Y7589D1*
X31909Y7603D1*
X31866D1*
X31838Y7589D1*
X31823Y7574D1*
X31809Y7532D1*
Y7402D1*
X32110D1*
X31809Y7696D2*
X32110D1*
X31809Y7817D2*
Y7975D1*
X31924Y7889D1*
Y7932D1*
X31938Y7961D1*
X31953Y7975D1*
X31996Y7989D1*
X32024D1*
X32067Y7975D1*
X32096Y7946D1*
X32110Y7903D1*
Y7860D1*
X32096Y7817D1*
X32082Y7803D1*
X32053Y7788D1*
X31881Y8097D2*
X31867D1*
X31838Y8111D1*
X31824Y8125D1*
X31809Y8154D1*
Y8211D1*
X31824Y8240D1*
X31838Y8254D1*
X31867Y8269D1*
X31895D1*
X31924Y8254D1*
X31967Y8226D1*
X32110Y8082D1*
Y8283D1*
Y8376D2*
X31809Y8577D1*
X31953Y8669D2*
Y8798D1*
X31938Y8841D1*
X31924Y8856D1*
X31895Y8870D1*
X31866D1*
X31838Y8856D1*
X31823Y8841D1*
X31809Y8798D1*
Y8669D1*
X32110D1*
X31953Y8770D2*
X32110Y8870D1*
X31809Y8963D2*
X32110D1*
Y9092D1*
X32096Y9135D1*
X32082Y9150D1*
X32053Y9164D1*
X32010D1*
X31981Y9150D1*
X31967Y9135D1*
X31953Y9092D1*
X31938Y9135D1*
X31924Y9150D1*
X31895Y9164D1*
X31866D1*
X31838Y9150D1*
X31823Y9135D1*
X31809Y9092D1*
Y8963D1*
X31953D2*
Y9092D1*
X31809Y9343D2*
X31824Y9300D1*
X31867Y9271D1*
X31938Y9256D1*
X31981D1*
X32053Y9271D1*
X32096Y9300D1*
X32110Y9343D1*
Y9371D1*
X32096Y9414D1*
X32053Y9443D1*
X31981Y9457D1*
X31938D1*
X31867Y9443D1*
X31824Y9414D1*
X31809Y9371D1*
Y9343D1*
X31867Y9443D2*
X32053Y9271D1*
X33110Y5899D2*
X32809Y5784D1*
X33110Y5669D1*
X33010Y5712D2*
Y5856D1*
X32809Y6193D2*
X33110D1*
X32809Y5992D1*
X33110D1*
X32809Y6314D2*
Y6472D1*
X32924Y6386D1*
Y6429D1*
X32938Y6457D1*
X32953Y6472D1*
X32996Y6486D1*
X33024D1*
X33067Y6472D1*
X33096Y6443D1*
X33110Y6400D1*
Y6357D1*
X33096Y6314D1*
X33082Y6300D1*
X33053Y6285D1*
X33110Y6579D2*
X32809Y6780D1*
X32953Y6872D2*
Y7001D1*
X32938Y7044D1*
X32924Y7059D1*
X32895Y7073D1*
X32866D1*
X32838Y7059D1*
X32823Y7044D1*
X32809Y7001D1*
Y6872D1*
X33110D1*
X32953Y6973D2*
X33110Y7073D1*
X32967Y7166D2*
Y7295D1*
X32953Y7338D1*
X32938Y7353D1*
X32909Y7367D1*
X32866D1*
X32838Y7353D1*
X32823Y7338D1*
X32809Y7295D1*
Y7166D1*
X33110D1*
X32809Y7460D2*
X33110D1*
X32809Y7581D2*
Y7739D1*
X32924Y7653D1*
Y7696D1*
X32938Y7724D1*
X32953Y7739D1*
X32996Y7753D1*
X33024D1*
X33067Y7739D1*
X33096Y7710D1*
X33110Y7667D1*
Y7624D1*
X33096Y7581D1*
X33082Y7567D1*
X33053Y7552D1*
X32809Y7875D2*
Y8032D1*
X32924Y7946D1*
Y7989D1*
X32938Y8018D1*
X32953Y8032D1*
X32996Y8047D1*
X33024D1*
X33067Y8032D1*
X33096Y8004D1*
X33110Y7961D1*
Y7917D1*
X33096Y7875D1*
X33082Y7860D1*
X33053Y7846D1*
X33110Y8139D2*
X32809Y8340D1*
X32953Y8433D2*
Y8562D1*
X32938Y8605D1*
X32924Y8620D1*
X32895Y8634D1*
X32866D1*
X32838Y8620D1*
X32823Y8605D1*
X32809Y8562D1*
Y8433D1*
X33110D1*
X32953Y8533D2*
X33110Y8634D1*
X32809Y8727D2*
X33110D1*
Y8856D1*
X33096Y8899D1*
X33082Y8913D1*
X33053Y8928D1*
X33010D1*
X32981Y8913D1*
X32967Y8899D1*
X32953Y8856D1*
X32938Y8899D1*
X32924Y8913D1*
X32895Y8928D1*
X32866D1*
X32838Y8913D1*
X32823Y8899D1*
X32809Y8856D1*
Y8727D1*
X32953D2*
Y8856D1*
X32867Y9020D2*
X32852Y9049D1*
X32809Y9092D1*
X33110D1*
X33874Y5741D2*
X34046D1*
X33917Y5669D2*
X34003Y5813D1*
X33917D2*
X34003Y5669D1*
X34110Y6135D2*
X33809Y6020D1*
X34110Y5905D1*
X34010Y5948D2*
Y6092D1*
X33809Y6429D2*
X34110D1*
X33809Y6228D1*
X34110D1*
Y6665D2*
X33809D1*
X34010Y6521D1*
Y6737D1*
X34110Y6829D2*
X33809Y7030D1*
X33953Y7123D2*
Y7252D1*
X33938Y7295D1*
X33924Y7310D1*
X33895Y7324D1*
X33866D1*
X33838Y7310D1*
X33823Y7295D1*
X33809Y7252D1*
Y7123D1*
X34110D1*
X33953Y7223D2*
X34110Y7324D1*
X33967Y7416D2*
Y7546D1*
X33953Y7589D1*
X33938Y7603D1*
X33909Y7617D1*
X33866D1*
X33838Y7603D1*
X33823Y7589D1*
X33809Y7546D1*
Y7416D1*
X34110D1*
X33809Y7710D2*
X34110D1*
X33809Y7832D2*
Y7989D1*
X33924Y7903D1*
Y7946D1*
X33938Y7975D1*
X33953Y7989D1*
X33996Y8004D1*
X34024D1*
X34067Y7989D1*
X34096Y7961D1*
X34110Y7917D1*
Y7874D1*
X34096Y7832D1*
X34082Y7817D1*
X34053Y7803D1*
X34110Y8240D2*
X33809D1*
X34010Y8096D1*
Y8312D1*
X34110Y8404D2*
X33809Y8605D1*
X33953Y8698D2*
Y8827D1*
X33938Y8870D1*
X33924Y8884D1*
X33895Y8899D1*
X33866D1*
X33838Y8884D1*
X33823Y8870D1*
X33809Y8827D1*
Y8698D1*
X34110D1*
X33953Y8798D2*
X34110Y8899D1*
X33809Y8991D2*
X34110D1*
Y9121D1*
X34096Y9164D1*
X34082Y9178D1*
X34053Y9192D1*
X34010D1*
X33981Y9178D1*
X33967Y9164D1*
X33953Y9121D1*
X33938Y9164D1*
X33924Y9178D1*
X33895Y9192D1*
X33866D1*
X33838Y9178D1*
X33823Y9164D1*
X33809Y9121D1*
Y8991D1*
X33953D2*
Y9121D1*
X33881Y9300D2*
X33867D1*
X33838Y9314D1*
X33824Y9328D1*
X33809Y9357D1*
Y9414D1*
X33824Y9443D1*
X33838Y9457D1*
X33867Y9472D1*
X33895D1*
X33924Y9457D1*
X33967Y9429D1*
X34110Y9285D1*
Y9486D1*
X34874Y5741D2*
X35046D1*
X34917Y5669D2*
X35003Y5813D1*
X34917D2*
X35003Y5669D1*
X35110Y6135D2*
X34809Y6020D1*
X35110Y5905D1*
X35010Y5949D2*
Y6092D1*
X34809Y6429D2*
X35110D1*
X34809Y6228D1*
X35110D1*
X34809Y6694D2*
Y6550D1*
X34938Y6536D1*
X34924Y6550D1*
X34909Y6593D1*
Y6636D1*
X34924Y6679D1*
X34953Y6708D1*
X34996Y6722D1*
X35024D1*
X35067Y6708D1*
X35096Y6679D1*
X35110Y6636D1*
Y6593D1*
X35096Y6550D1*
X35082Y6536D1*
X35053Y6521D1*
X35110Y6815D2*
X34809Y7016D1*
X34953Y7109D2*
Y7238D1*
X34938Y7281D1*
X34924Y7295D1*
X34895Y7310D1*
X34866D1*
X34838Y7295D1*
X34823Y7281D1*
X34809Y7238D1*
Y7109D1*
X35110D1*
X34953Y7209D2*
X35110Y7310D1*
X34967Y7402D2*
Y7532D1*
X34953Y7574D1*
X34938Y7589D1*
X34909Y7603D1*
X34866D1*
X34838Y7589D1*
X34823Y7574D1*
X34809Y7532D1*
Y7402D1*
X35110D1*
X34809Y7725D2*
Y7882D1*
X34924Y7796D1*
Y7839D1*
X34938Y7868D1*
X34953Y7882D1*
X34996Y7897D1*
X35024D1*
X35067Y7882D1*
X35096Y7854D1*
X35110Y7811D1*
Y7767D1*
X35096Y7725D1*
X35082Y7710D1*
X35053Y7696D1*
X34809Y8162D2*
Y8018D1*
X34938Y8004D1*
X34924Y8018D1*
X34909Y8061D1*
Y8104D1*
X34924Y8147D1*
X34953Y8176D1*
X34996Y8190D1*
X35024D1*
X35067Y8176D1*
X35096Y8147D1*
X35110Y8104D1*
Y8061D1*
X35096Y8018D1*
X35082Y8004D1*
X35053Y7989D1*
X35110Y8283D2*
X34809Y8484D1*
X34953Y8577D2*
Y8706D1*
X34938Y8749D1*
X34924Y8763D1*
X34895Y8778D1*
X34866D1*
X34838Y8763D1*
X34823Y8749D1*
X34809Y8706D1*
Y8577D1*
X35110D1*
X34953Y8677D2*
X35110Y8778D1*
X34809Y8870D2*
X35110D1*
Y9000D1*
X35096Y9043D1*
X35082Y9057D1*
X35053Y9071D1*
X35010D1*
X34981Y9057D1*
X34967Y9043D1*
X34953Y9000D1*
X34938Y9043D1*
X34924Y9057D1*
X34895Y9071D1*
X34866D1*
X34838Y9057D1*
X34823Y9043D1*
X34809Y9000D1*
Y8870D1*
X34953D2*
Y9000D1*
X34809Y9193D2*
Y9350D1*
X34924Y9264D1*
Y9307D1*
X34938Y9336D1*
X34953Y9350D1*
X34996Y9365D1*
X35024D1*
X35067Y9350D1*
X35096Y9322D1*
X35110Y9279D1*
Y9235D1*
X35096Y9193D1*
X35082Y9178D1*
X35053Y9164D1*
X35874Y5741D2*
X36046D1*
X35917Y5669D2*
X36003Y5813D1*
X35917D2*
X36003Y5669D1*
X36110Y6135D2*
X35809Y6020D1*
X36110Y5905D1*
X36010Y5948D2*
Y6092D1*
X35809Y6429D2*
X36110D1*
X35809Y6228D1*
X36110D1*
X35852Y6694D2*
X35824Y6679D1*
X35809Y6636D1*
Y6608D1*
X35824Y6565D1*
X35867Y6536D1*
X35938Y6521D1*
X36010D1*
X36067Y6536D1*
X36096Y6565D1*
X36110Y6608D1*
Y6622D1*
X36096Y6665D1*
X36067Y6694D1*
X36024Y6708D1*
X36010D1*
X35967Y6694D1*
X35938Y6665D1*
X35924Y6622D1*
Y6608D1*
X35938Y6565D1*
X35967Y6536D1*
X36010Y6521D1*
X36110Y6800D2*
X35809Y7001D1*
X35953Y7094D2*
Y7223D1*
X35938Y7266D1*
X35924Y7281D1*
X35895Y7295D1*
X35866D1*
X35838Y7281D1*
X35823Y7266D1*
X35809Y7223D1*
Y7094D1*
X36110D1*
X35953Y7195D2*
X36110Y7295D1*
X35881Y7603D2*
X35852Y7589D1*
X35823Y7560D1*
X35809Y7531D1*
Y7474D1*
X35823Y7445D1*
X35852Y7416D1*
X35881Y7402D1*
X35924Y7388D1*
X35996D1*
X36038Y7402D1*
X36067Y7416D1*
X36096Y7445D1*
X36110Y7474D1*
Y7531D1*
X36096Y7560D1*
X36067Y7589D1*
X36038Y7603D1*
X35809Y7782D2*
X35824Y7739D1*
X35867Y7710D1*
X35938Y7695D1*
X35981D1*
X36053Y7710D1*
X36096Y7739D1*
X36110Y7782D1*
Y7810D1*
X36096Y7853D1*
X36053Y7882D1*
X35981Y7896D1*
X35938D1*
X35867Y7882D1*
X35824Y7853D1*
X35809Y7810D1*
Y7782D1*
X35867Y7882D2*
X36053Y7710D1*
X36811Y5741D2*
X36983D1*
X36854Y5669D2*
X36940Y5813D1*
X36854D2*
X36940Y5669D1*
X37048Y6135D2*
X36746Y6020D1*
X37048Y5905D1*
X36947Y5948D2*
Y6092D1*
X36746Y6429D2*
X37048D1*
X36746Y6228D1*
X37048D1*
Y6579D2*
X36747Y6722D1*
Y6521D1*
X37048Y6815D2*
X36747Y7016D1*
X36890Y7109D2*
Y7238D1*
X36875Y7281D1*
X36861Y7295D1*
X36833Y7310D1*
X36804D1*
X36775Y7295D1*
X36761Y7281D1*
X36746Y7238D1*
Y7109D1*
X37048D1*
X36890Y7209D2*
X37048Y7310D1*
X36818Y7617D2*
X36790Y7603D1*
X36761Y7574D1*
X36746Y7546D1*
Y7488D1*
X36761Y7460D1*
X36790Y7431D1*
X36818Y7416D1*
X36861Y7402D1*
X36933D1*
X36976Y7416D1*
X37005Y7431D1*
X37033Y7460D1*
X37048Y7488D1*
Y7546D1*
X37033Y7574D1*
X37005Y7603D1*
X36976Y7617D1*
X36804Y7710D2*
X36790Y7739D1*
X36747Y7782D1*
X37048D1*
X38048Y5899D2*
X37746Y5784D1*
X38048Y5669D1*
X37947Y5712D2*
Y5856D1*
X37746Y6193D2*
X38048D1*
X37746Y5992D1*
X38048D1*
X37747Y6357D2*
X37761Y6314D1*
X37790Y6299D1*
X37818D1*
X37847Y6314D1*
X37861Y6343D1*
X37876Y6400D1*
X37890Y6443D1*
X37919Y6472D1*
X37947Y6486D1*
X37990D1*
X38019Y6472D1*
X38034Y6457D1*
X38048Y6414D1*
Y6357D1*
X38034Y6314D1*
X38019Y6299D1*
X37990Y6285D1*
X37947D1*
X37919Y6299D1*
X37890Y6328D1*
X37876Y6371D1*
X37861Y6428D1*
X37847Y6457D1*
X37818Y6472D1*
X37790D1*
X37761Y6457D1*
X37747Y6414D1*
Y6357D1*
X38048Y6578D2*
X37747Y6779D1*
X37890Y6872D2*
Y7001D1*
X37875Y7044D1*
X37861Y7059D1*
X37833Y7073D1*
X37804D1*
X37775Y7059D1*
X37761Y7044D1*
X37746Y7001D1*
Y6872D1*
X38048D1*
X37890Y6973D2*
X38048Y7073D1*
X37818Y7381D2*
X37790Y7367D1*
X37761Y7338D1*
X37746Y7309D1*
Y7252D1*
X37761Y7223D1*
X37790Y7195D1*
X37818Y7180D1*
X37861Y7166D1*
X37933D1*
X37976Y7180D1*
X38005Y7195D1*
X38033Y7223D1*
X38048Y7252D1*
Y7309D1*
X38033Y7338D1*
X38005Y7367D1*
X37976Y7381D1*
X37818Y7488D2*
X37804D1*
X37775Y7502D1*
X37761Y7517D1*
X37747Y7545D1*
Y7603D1*
X37761Y7631D1*
X37775Y7646D1*
X37804Y7660D1*
X37833D1*
X37861Y7646D1*
X37904Y7617D1*
X38048Y7474D1*
Y7674D1*
X39048Y5899D2*
X38746Y5784D1*
X39048Y5669D1*
X38947Y5712D2*
Y5856D1*
X38746Y6193D2*
X39048D1*
X38746Y5992D1*
X39048D1*
X38804Y6285D2*
X38790Y6314D1*
X38747Y6357D1*
X39048D1*
X38804Y6450D2*
X38790Y6479D1*
X38747Y6522D1*
X39048D1*
Y6614D2*
X38747Y6815D1*
X38890Y6908D2*
Y7037D1*
X38875Y7080D1*
X38861Y7095D1*
X38833Y7109D1*
X38804D1*
X38775Y7095D1*
X38761Y7080D1*
X38746Y7037D1*
Y6908D1*
X39048D1*
X38890Y7008D2*
X39048Y7109D1*
X38818Y7417D2*
X38790Y7403D1*
X38761Y7374D1*
X38746Y7345D1*
Y7288D1*
X38761Y7259D1*
X38790Y7230D1*
X38818Y7216D1*
X38861Y7202D1*
X38933D1*
X38976Y7216D1*
X39005Y7230D1*
X39033Y7259D1*
X39048Y7288D1*
Y7345D1*
X39033Y7374D1*
X39005Y7403D1*
X38976Y7417D1*
X38804Y7509D2*
X38790Y7538D1*
X38747Y7581D1*
X39048D1*
X38804Y7674D2*
X38790Y7703D1*
X38747Y7746D1*
X39048D1*
X39811Y5741D2*
X39983D1*
X39854Y5669D2*
X39940Y5813D1*
X39854D2*
X39940Y5669D1*
X40048Y6135D2*
X39746Y6020D1*
X40048Y5905D1*
X39947Y5949D2*
Y6092D1*
X39746Y6429D2*
X40048D1*
X39746Y6228D1*
X40048D1*
X39804Y6521D2*
X39790Y6550D1*
X39747Y6593D1*
X40048D1*
X39818Y6701D2*
X39804D1*
X39775Y6715D1*
X39761Y6729D1*
X39747Y6758D1*
Y6815D1*
X39761Y6844D1*
X39775Y6858D1*
X39804Y6873D1*
X39833D1*
X39861Y6858D1*
X39904Y6830D1*
X40048Y6686D1*
Y6887D1*
Y6980D2*
X39747Y7181D1*
X39890Y7273D2*
Y7402D1*
X39875Y7445D1*
X39861Y7460D1*
X39833Y7474D1*
X39804D1*
X39775Y7460D1*
X39761Y7445D1*
X39746Y7402D1*
Y7273D1*
X40048D1*
X39890Y7374D2*
X40048Y7474D1*
X39746Y7753D2*
Y7567D1*
X40048D1*
Y7753D1*
X39890Y7567D2*
Y7682D1*
X39804Y7846D2*
X39790Y7875D1*
X39747Y7918D1*
X40048D1*
X39818Y8025D2*
X39804D1*
X39775Y8039D1*
X39761Y8054D1*
X39747Y8082D1*
Y8140D1*
X39761Y8168D1*
X39775Y8183D1*
X39804Y8197D1*
X39833D1*
X39861Y8183D1*
X39904Y8154D1*
X40048Y8010D1*
Y8211D1*
X40811Y5741D2*
X40983D1*
X40854Y5669D2*
X40940Y5813D1*
X40854D2*
X40940Y5669D1*
X41048Y6135D2*
X40746Y6020D1*
X41048Y5905D1*
X40947Y5948D2*
Y6092D1*
X40746Y6429D2*
X41048D1*
X40746Y6228D1*
X41048D1*
X40804Y6521D2*
X40790Y6550D1*
X40747Y6593D1*
X41048D1*
X40747Y6715D2*
Y6872D1*
X40861Y6787D1*
Y6830D1*
X40876Y6858D1*
X40890Y6872D1*
X40933Y6887D1*
X40962D1*
X41005Y6872D1*
X41034Y6844D1*
X41048Y6801D1*
Y6758D1*
X41034Y6715D1*
X41019Y6701D1*
X40990Y6686D1*
X41048Y6980D2*
X40747Y7181D1*
X40890Y7273D2*
Y7402D1*
X40875Y7445D1*
X40861Y7460D1*
X40833Y7474D1*
X40804D1*
X40775Y7460D1*
X40761Y7445D1*
X40746Y7402D1*
Y7273D1*
X41048D1*
X40890Y7374D2*
X41048Y7474D1*
X40746Y7753D2*
Y7567D1*
X41048D1*
Y7753D1*
X40890Y7567D2*
Y7682D1*
X40804Y7846D2*
X40790Y7875D1*
X40747Y7918D1*
X41048D1*
X40747Y8039D2*
Y8197D1*
X40861Y8111D1*
Y8154D1*
X40876Y8183D1*
X40890Y8197D1*
X40933Y8211D1*
X40962D1*
X41005Y8197D1*
X41034Y8168D1*
X41048Y8125D1*
Y8082D1*
X41034Y8039D1*
X41019Y8025D1*
X40990Y8010D1*
X42048Y5899D2*
X41746Y5784D1*
X42048Y5669D1*
X41947Y5712D2*
Y5856D1*
X41746Y6193D2*
X42048D1*
X41746Y5992D1*
X42048D1*
X41804Y6285D2*
X41790Y6314D1*
X41747Y6357D1*
X42048D1*
Y6593D2*
X41747D1*
X41947Y6450D1*
Y6665D1*
X42048Y6758D2*
X41747Y6959D1*
X41890Y7051D2*
Y7180D1*
X41875Y7223D1*
X41861Y7238D1*
X41833Y7252D1*
X41804D1*
X41775Y7238D1*
X41761Y7223D1*
X41746Y7180D1*
Y7051D1*
X42048D1*
X41890Y7152D2*
X42048Y7252D1*
X41904Y7345D2*
Y7474D1*
X41890Y7517D1*
X41875Y7532D1*
X41847Y7546D1*
X41804D1*
X41775Y7532D1*
X41761Y7517D1*
X41746Y7474D1*
Y7345D1*
X42048D1*
X41746Y7638D2*
X42048D1*
X41847Y7918D2*
X41890Y7903D1*
X41919Y7875D1*
X41933Y7832D1*
Y7817D1*
X41919Y7774D1*
X41890Y7746D1*
X41847Y7731D1*
X41833D1*
X41790Y7746D1*
X41761Y7774D1*
X41747Y7817D1*
Y7832D1*
X41761Y7875D1*
X41790Y7903D1*
X41847Y7918D1*
X41919D1*
X41991Y7903D1*
X42034Y7875D1*
X42048Y7832D1*
Y7803D1*
X42034Y7760D1*
X42005Y7746D1*
X42048Y8154D2*
X41747D1*
X41947Y8010D1*
Y8226D1*
X42048Y8318D2*
X41747Y8519D1*
X41890Y8612D2*
Y8741D1*
X41875Y8784D1*
X41861Y8799D1*
X41833Y8813D1*
X41804D1*
X41775Y8799D1*
X41761Y8784D1*
X41746Y8741D1*
Y8612D1*
X42048D1*
X41890Y8712D2*
X42048Y8813D1*
X41746Y9092D2*
Y8905D1*
X42048D1*
Y9092D1*
X41890Y8905D2*
Y9020D1*
X41804Y9184D2*
X41790Y9213D1*
X41747Y9256D1*
X42048D1*
Y9493D2*
X41747D1*
X41947Y9349D1*
Y9564D1*
X43048Y5899D2*
X42746Y5784D1*
X43048Y5669D1*
X42947Y5712D2*
Y5856D1*
X42746Y6193D2*
X43048D1*
X42746Y5992D1*
X43048D1*
X42804Y6285D2*
X42790Y6314D1*
X42747Y6357D1*
X43048D1*
X42747Y6622D2*
Y6479D1*
X42876Y6464D1*
X42862Y6479D1*
X42847Y6522D1*
Y6565D1*
X42862Y6608D1*
X42890Y6636D1*
X42933Y6651D1*
X42962D1*
X43005Y6636D1*
X43034Y6608D1*
X43048Y6565D1*
Y6522D1*
X43034Y6479D1*
X43019Y6464D1*
X42991Y6450D1*
X43048Y6743D2*
X42747Y6944D1*
X42890Y7037D2*
Y7166D1*
X42875Y7209D1*
X42861Y7224D1*
X42833Y7238D1*
X42804D1*
X42775Y7224D1*
X42761Y7209D1*
X42746Y7166D1*
Y7037D1*
X43048D1*
X42890Y7137D2*
X43048Y7238D1*
X42904Y7331D2*
Y7460D1*
X42890Y7503D1*
X42875Y7517D1*
X42847Y7532D1*
X42804D1*
X42775Y7517D1*
X42761Y7503D1*
X42746Y7460D1*
Y7331D1*
X43048D1*
X42746Y7624D2*
X43048D1*
X42847Y7904D2*
X42890Y7889D1*
X42919Y7860D1*
X42933Y7817D1*
Y7803D1*
X42919Y7760D1*
X42890Y7731D1*
X42847Y7717D1*
X42833D1*
X42790Y7731D1*
X42761Y7760D1*
X42747Y7803D1*
Y7817D1*
X42761Y7860D1*
X42790Y7889D1*
X42847Y7904D1*
X42919D1*
X42991Y7889D1*
X43034Y7860D1*
X43048Y7817D1*
Y7789D1*
X43034Y7746D1*
X43005Y7731D1*
X42747Y8168D2*
Y8025D1*
X42876Y8011D1*
X42862Y8025D1*
X42847Y8068D1*
Y8111D1*
X42862Y8154D1*
X42890Y8183D1*
X42933Y8197D1*
X42962D1*
X43005Y8183D1*
X43034Y8154D1*
X43048Y8111D1*
Y8068D1*
X43034Y8025D1*
X43019Y8011D1*
X42991Y7996D1*
X43048Y8290D2*
X42747Y8491D1*
X42890Y8583D2*
Y8712D1*
X42875Y8755D1*
X42861Y8770D1*
X42833Y8784D1*
X42804D1*
X42775Y8770D1*
X42761Y8755D1*
X42746Y8712D1*
Y8583D1*
X43048D1*
X42890Y8684D2*
X43048Y8784D1*
X42746Y9063D2*
Y8877D1*
X43048D1*
Y9063D1*
X42890Y8877D2*
Y8992D1*
X42804Y9156D2*
X42790Y9185D1*
X42747Y9228D1*
X43048D1*
X42747Y9493D2*
Y9349D1*
X42876Y9335D1*
X42862Y9349D1*
X42847Y9392D1*
Y9435D1*
X42862Y9478D1*
X42890Y9507D1*
X42933Y9521D1*
X42962D1*
X43005Y9507D1*
X43034Y9478D1*
X43048Y9435D1*
Y9392D1*
X43034Y9349D1*
X43019Y9335D1*
X42991Y9321D1*
X43811Y5741D2*
X43983D1*
X43854Y5669D2*
X43940Y5813D1*
X43854D2*
X43940Y5669D1*
X43890Y5905D2*
Y6034D1*
X43875Y6077D1*
X43861Y6092D1*
X43833Y6106D1*
X43804D1*
X43775Y6092D1*
X43761Y6077D1*
X43746Y6034D1*
Y5905D1*
X44048D1*
X43890Y6006D2*
X44048Y6106D1*
X43904Y6199D2*
Y6328D1*
X43890Y6371D1*
X43875Y6386D1*
X43847Y6400D1*
X43804D1*
X43775Y6386D1*
X43761Y6371D1*
X43746Y6328D1*
Y6199D1*
X44048D1*
X43746Y6493D2*
X44048D1*
X43818Y6600D2*
X43804D1*
X43775Y6614D1*
X43761Y6628D1*
X43747Y6657D1*
Y6715D1*
X43761Y6743D1*
X43775Y6757D1*
X43804Y6772D1*
X43833D1*
X43862Y6757D1*
X43904Y6729D1*
X44048Y6585D1*
Y6786D1*
Y7022D2*
X43747D1*
X43947Y6879D1*
Y7094D1*
X44048Y7187D2*
X43747Y7388D1*
X43890Y7480D2*
Y7609D1*
X43875Y7652D1*
X43861Y7667D1*
X43833Y7681D1*
X43804D1*
X43775Y7667D1*
X43761Y7652D1*
X43746Y7609D1*
Y7480D1*
X44048D1*
X43890Y7581D2*
X44048Y7681D1*
Y8004D2*
X43746Y7889D1*
X44048Y7774D1*
X43947Y7817D2*
Y7961D1*
X43747Y8168D2*
X43761Y8125D1*
X43790Y8111D1*
X43818D1*
X43847Y8125D1*
X43862Y8154D1*
X43876Y8211D1*
X43890Y8254D1*
X43919Y8283D1*
X43947Y8297D1*
X43991D1*
X44019Y8283D1*
X44034Y8268D1*
X44048Y8225D1*
Y8168D1*
X44034Y8125D1*
X44019Y8111D1*
X43991Y8096D1*
X43947D1*
X43919Y8111D1*
X43890Y8139D1*
X43876Y8182D1*
X43862Y8240D1*
X43847Y8268D1*
X43818Y8283D1*
X43790D1*
X43761Y8268D1*
X43747Y8225D1*
Y8168D1*
X44811Y5741D2*
X44983D1*
X44854Y5669D2*
X44940Y5813D1*
X44854D2*
X44940Y5669D1*
X44890Y5905D2*
Y6034D1*
X44875Y6078D1*
X44861Y6092D1*
X44833Y6106D1*
X44804D1*
X44775Y6092D1*
X44761Y6078D1*
X44746Y6034D1*
Y5905D1*
X45048D1*
X44890Y6006D2*
X45048Y6106D1*
X44904Y6199D2*
Y6328D1*
X44890Y6371D1*
X44875Y6386D1*
X44847Y6400D1*
X44804D1*
X44775Y6386D1*
X44761Y6371D1*
X44746Y6328D1*
Y6199D1*
X45048D1*
X44747Y6521D2*
Y6679D1*
X44861Y6593D1*
Y6636D1*
X44876Y6665D1*
X44890Y6679D1*
X44933Y6694D1*
X44962D1*
X45005Y6679D1*
X45034Y6650D1*
X45048Y6607D1*
Y6564D1*
X45034Y6521D1*
X45019Y6507D1*
X44990Y6493D1*
X44790Y6958D2*
X44761Y6944D1*
X44747Y6901D1*
Y6872D1*
X44761Y6829D1*
X44804Y6800D1*
X44876Y6786D1*
X44947D1*
X45005Y6800D1*
X45034Y6829D1*
X45048Y6872D1*
Y6887D1*
X45034Y6929D1*
X45005Y6958D1*
X44962Y6973D1*
X44947D1*
X44904Y6958D1*
X44876Y6929D1*
X44861Y6887D1*
Y6872D1*
X44876Y6829D1*
X44904Y6800D1*
X44947Y6786D1*
X45048Y7065D2*
X44747Y7266D1*
X44890Y7359D2*
Y7488D1*
X44875Y7531D1*
X44861Y7545D1*
X44833Y7560D1*
X44804D1*
X44775Y7545D1*
X44761Y7531D1*
X44746Y7488D1*
Y7359D1*
X45048D1*
X44890Y7459D2*
X45048Y7560D1*
X44746Y7652D2*
X45048D1*
Y7782D1*
X45033Y7825D1*
X45019Y7839D1*
X44990Y7853D1*
X44947D1*
X44919Y7839D1*
X44904Y7825D1*
X44890Y7782D1*
X44875Y7825D1*
X44861Y7839D1*
X44833Y7853D1*
X44804D1*
X44775Y7839D1*
X44761Y7825D1*
X44746Y7782D1*
Y7652D1*
X44890D2*
Y7782D1*
X45048Y8090D2*
X44747D1*
X44947Y7946D1*
Y8161D1*
X45890Y5669D2*
Y5798D1*
X45875Y5841D1*
X45861Y5856D1*
X45833Y5870D1*
X45804D1*
X45775Y5856D1*
X45761Y5841D1*
X45746Y5798D1*
Y5669D1*
X46048D1*
X45890Y5770D2*
X46048Y5870D1*
X45904Y5963D2*
Y6092D1*
X45890Y6135D1*
X45875Y6149D1*
X45847Y6164D1*
X45804D1*
X45775Y6149D1*
X45761Y6135D1*
X45746Y6092D1*
Y5963D1*
X46048D1*
X45818Y6271D2*
X45804D1*
X45775Y6285D1*
X45761Y6299D1*
X45747Y6328D1*
Y6386D1*
X45761Y6414D1*
X45775Y6428D1*
X45804Y6443D1*
X45833D1*
X45861Y6428D1*
X45904Y6400D1*
X46048Y6256D1*
Y6457D1*
X45747Y6636D2*
X45761Y6593D1*
X45804Y6564D1*
X45876Y6550D1*
X45919D1*
X45990Y6564D1*
X46034Y6593D1*
X46048Y6636D1*
Y6665D1*
X46034Y6708D1*
X45990Y6736D1*
X45919Y6751D1*
X45876D1*
X45804Y6736D1*
X45761Y6708D1*
X45747Y6665D1*
Y6636D1*
X45804Y6736D2*
X45990Y6564D1*
X46048Y6844D2*
X45747Y7044D1*
X45890Y7137D2*
Y7266D1*
X45875Y7309D1*
X45861Y7324D1*
X45833Y7338D1*
X45804D1*
X45775Y7324D1*
X45761Y7309D1*
X45746Y7266D1*
Y7137D1*
X46048D1*
X45890Y7238D2*
X46048Y7338D1*
Y7661D2*
X45746Y7545D1*
X46048Y7431D1*
X45947Y7474D2*
Y7617D1*
X46048Y7897D2*
X45747D1*
X45947Y7753D1*
Y7968D1*
X46890Y5607D2*
Y5736D1*
X46875Y5779D1*
X46861Y5793D1*
X46833Y5808D1*
X46804D1*
X46775Y5793D1*
X46761Y5779D1*
X46746Y5736D1*
Y5607D1*
X47048D1*
X46890Y5707D2*
X47048Y5808D1*
X46904Y5900D2*
Y6030D1*
X46890Y6072D1*
X46875Y6087D1*
X46847Y6101D1*
X46804D1*
X46775Y6087D1*
X46761Y6072D1*
X46746Y6030D1*
Y5900D1*
X47048D1*
X46746Y6194D2*
X47048D1*
X46818Y6301D2*
X46804D1*
X46775Y6315D1*
X46761Y6330D1*
X46747Y6358D1*
Y6416D1*
X46761Y6444D1*
X46775Y6459D1*
X46804Y6473D1*
X46833D1*
X46861Y6459D1*
X46904Y6430D1*
X47048Y6286D1*
Y6487D1*
X46747Y6752D2*
Y6609D1*
X46876Y6595D1*
X46861Y6609D1*
X46847Y6652D1*
Y6695D1*
X46861Y6738D1*
X46890Y6767D1*
X46933Y6781D1*
X46962D1*
X47005Y6767D1*
X47034Y6738D1*
X47048Y6695D1*
Y6652D1*
X47034Y6609D1*
X47019Y6595D1*
X46990Y6580D1*
X47048Y6874D2*
X46747Y7075D1*
X46890Y7167D2*
Y7296D1*
X46875Y7339D1*
X46861Y7354D1*
X46833Y7368D1*
X46804D1*
X46775Y7354D1*
X46761Y7339D1*
X46746Y7296D1*
Y7167D1*
X47048D1*
X46890Y7268D2*
X47048Y7368D1*
Y7691D2*
X46746Y7576D1*
X47048Y7461D1*
X46947Y7504D2*
Y7648D1*
X46847Y7970D2*
X46890Y7955D1*
X46919Y7927D1*
X46933Y7884D1*
Y7870D1*
X46919Y7826D1*
X46890Y7798D1*
X46847Y7783D1*
X46833D1*
X46790Y7798D1*
X46761Y7826D1*
X46747Y7870D1*
Y7884D1*
X46761Y7927D1*
X46790Y7955D1*
X46847Y7970D1*
X46919D1*
X46990Y7955D1*
X47034Y7927D1*
X47048Y7884D1*
Y7855D1*
X47034Y7812D1*
X47005Y7798D1*
X47811Y5679D2*
X47983D1*
X47854Y5607D2*
X47940Y5750D1*
X47854D2*
X47940Y5607D1*
X47890Y5843D2*
Y5972D1*
X47875Y6015D1*
X47861Y6030D1*
X47833Y6044D1*
X47804D1*
X47775Y6030D1*
X47761Y6015D1*
X47746Y5972D1*
Y5843D1*
X48048D1*
X47890Y5943D2*
X48048Y6044D1*
X47904Y6136D2*
Y6266D1*
X47890Y6309D1*
X47875Y6323D1*
X47847Y6337D1*
X47804D1*
X47775Y6323D1*
X47761Y6309D1*
X47746Y6266D1*
Y6136D1*
X48048D1*
X47746Y6430D2*
X48048D1*
X47747Y6695D2*
Y6552D1*
X47876Y6537D1*
X47861Y6552D1*
X47847Y6595D1*
Y6637D1*
X47861Y6681D1*
X47890Y6709D1*
X47933Y6724D1*
X47962D1*
X48005Y6709D1*
X48034Y6681D1*
X48048Y6637D1*
Y6595D1*
X48034Y6552D1*
X48019Y6537D1*
X47990Y6523D1*
X47804Y6816D2*
X47790Y6845D1*
X47747Y6888D1*
X48048D1*
Y6981D2*
X47747Y7182D1*
X47890Y7275D2*
Y7404D1*
X47875Y7447D1*
X47861Y7461D1*
X47833Y7475D1*
X47804D1*
X47775Y7461D1*
X47761Y7447D1*
X47746Y7404D1*
Y7275D1*
X48048D1*
X47890Y7375D2*
X48048Y7475D1*
X47818Y7783D2*
X47790Y7769D1*
X47761Y7740D1*
X47746Y7712D1*
Y7654D1*
X47761Y7625D1*
X47790Y7597D1*
X47818Y7582D1*
X47861Y7568D1*
X47933D1*
X47976Y7582D1*
X48005Y7597D1*
X48033Y7625D1*
X48048Y7654D1*
Y7712D1*
X48033Y7740D1*
X48005Y7769D1*
X47976Y7783D1*
X47747Y7905D2*
Y8062D1*
X47861Y7976D1*
Y8020D1*
X47876Y8048D1*
X47890Y8062D1*
X47933Y8077D1*
X47962D1*
X48005Y8062D1*
X48034Y8034D1*
X48048Y7991D1*
Y7948D1*
X48034Y7905D1*
X48019Y7891D1*
X47990Y7876D1*
X48811Y5679D2*
X48983D1*
X48854Y5607D2*
X48940Y5750D1*
X48854D2*
X48940Y5607D1*
X48904Y5843D2*
Y5972D1*
X48890Y6015D1*
X48875Y6030D1*
X48847Y6044D1*
X48804D1*
X48775Y6030D1*
X48761Y6015D1*
X48746Y5972D1*
Y5843D1*
X49048D1*
X48890Y6136D2*
Y6265D1*
X48875Y6309D1*
X48861Y6323D1*
X48833Y6337D1*
X48804D1*
X48775Y6323D1*
X48761Y6309D1*
X48746Y6265D1*
Y6136D1*
X49048D1*
X48890Y6237D2*
X49048Y6337D1*
X48746Y6430D2*
X49048D1*
X48747Y6695D2*
Y6552D1*
X48876Y6537D1*
X48861Y6552D1*
X48847Y6595D1*
Y6637D1*
X48861Y6681D1*
X48890Y6709D1*
X48933Y6724D1*
X48962D1*
X49005Y6709D1*
X49034Y6681D1*
X49048Y6637D1*
Y6595D1*
X49034Y6552D1*
X49019Y6537D1*
X48990Y6523D1*
X48818Y6831D2*
X48804D1*
X48775Y6845D1*
X48761Y6859D1*
X48747Y6888D1*
Y6946D1*
X48761Y6974D1*
X48775Y6988D1*
X48804Y7003D1*
X48833D1*
X48861Y6988D1*
X48904Y6960D1*
X49048Y6816D1*
Y7017D1*
Y7110D2*
X48747Y7311D1*
X48890Y7404D2*
Y7533D1*
X48875Y7576D1*
X48861Y7590D1*
X48833Y7604D1*
X48804D1*
X48775Y7590D1*
X48761Y7576D1*
X48746Y7533D1*
Y7404D1*
X49048D1*
X48890Y7504D2*
X49048Y7604D1*
X48818Y7912D2*
X48790Y7898D1*
X48761Y7869D1*
X48746Y7841D1*
Y7783D1*
X48761Y7754D1*
X48790Y7726D1*
X48818Y7711D1*
X48861Y7697D1*
X48933D1*
X48976Y7711D1*
X49005Y7726D1*
X49033Y7754D1*
X49048Y7783D1*
Y7841D1*
X49033Y7869D1*
X49005Y7898D1*
X48976Y7912D1*
X49048Y8149D2*
X48747D1*
X48947Y8005D1*
Y8220D1*
X49811Y5679D2*
X49983D1*
X49854Y5607D2*
X49940Y5750D1*
X49854D2*
X49940Y5607D1*
X49890Y5843D2*
Y5972D1*
X49875Y6015D1*
X49861Y6030D1*
X49833Y6044D1*
X49804D1*
X49775Y6030D1*
X49761Y6015D1*
X49746Y5972D1*
Y5843D1*
X50048D1*
X49890Y5943D2*
X50048Y6044D1*
X49904Y6136D2*
Y6266D1*
X49890Y6309D1*
X49875Y6323D1*
X49847Y6337D1*
X49804D1*
X49775Y6323D1*
X49761Y6309D1*
X49746Y6266D1*
Y6136D1*
X50048D1*
X49746Y6430D2*
X50048D1*
X49747Y6695D2*
Y6552D1*
X49876Y6537D1*
X49861Y6552D1*
X49847Y6595D1*
Y6637D1*
X49861Y6681D1*
X49890Y6709D1*
X49933Y6724D1*
X49962D1*
X50005Y6709D1*
X50034Y6681D1*
X50048Y6637D1*
Y6595D1*
X50034Y6552D1*
X50019Y6537D1*
X49990Y6523D1*
X49747Y6845D2*
Y7003D1*
X49861Y6917D1*
Y6960D1*
X49876Y6988D1*
X49890Y7003D1*
X49933Y7017D1*
X49962D1*
X50005Y7003D1*
X50034Y6974D1*
X50048Y6931D1*
Y6888D1*
X50034Y6845D1*
X50019Y6831D1*
X49990Y6816D1*
X50048Y7110D2*
X49747Y7311D1*
X49890Y7404D2*
Y7533D1*
X49875Y7576D1*
X49861Y7590D1*
X49833Y7604D1*
X49804D1*
X49775Y7590D1*
X49761Y7576D1*
X49746Y7533D1*
Y7404D1*
X50048D1*
X49890Y7504D2*
X50048Y7604D1*
X49818Y7912D2*
X49790Y7898D1*
X49761Y7869D1*
X49746Y7841D1*
Y7783D1*
X49761Y7754D1*
X49790Y7726D1*
X49818Y7711D1*
X49861Y7697D1*
X49933D1*
X49976Y7711D1*
X50005Y7726D1*
X50033Y7754D1*
X50048Y7783D1*
Y7841D1*
X50033Y7869D1*
X50005Y7898D1*
X49976Y7912D1*
X49747Y8177D2*
Y8034D1*
X49876Y8020D1*
X49861Y8034D1*
X49847Y8077D1*
Y8120D1*
X49861Y8163D1*
X49890Y8192D1*
X49933Y8206D1*
X49962D1*
X50005Y8192D1*
X50034Y8163D1*
X50048Y8120D1*
Y8077D1*
X50034Y8034D1*
X50019Y8020D1*
X49990Y8005D1*
X26078Y18919D2*
Y19048D1*
X26063Y19091D1*
X26049Y19106D1*
X26020Y19120D1*
X25991D1*
X25963Y19106D1*
X25948Y19091D1*
X25934Y19048D1*
Y18919D1*
X26235D1*
X26078Y19020D2*
X26235Y19120D1*
X26092Y19213D2*
Y19342D1*
X26078Y19385D1*
X26063Y19399D1*
X26034Y19414D1*
X25991D1*
X25963Y19399D1*
X25948Y19385D1*
X25934Y19342D1*
Y19213D1*
X26235D1*
X25992Y19506D2*
X25977Y19535D1*
X25934Y19578D1*
X26235D1*
X26006Y19686D2*
X25992D1*
X25963Y19700D1*
X25949Y19714D1*
X25934Y19743D1*
Y19800D1*
X25949Y19829D1*
X25963Y19843D1*
X25992Y19858D1*
X26020D1*
X26049Y19843D1*
X26092Y19815D1*
X26235Y19671D1*
Y19872D1*
X25934Y20051D2*
X25949Y20008D1*
X25992Y19979D1*
X26063Y19965D1*
X26106D1*
X26178Y19979D1*
X26221Y20008D1*
X26235Y20051D1*
Y20079D1*
X26221Y20122D1*
X26178Y20151D1*
X26106Y20166D1*
X26063D1*
X25992Y20151D1*
X25949Y20122D1*
X25934Y20079D1*
Y20051D1*
X25992Y20151D2*
X26178Y19979D1*
X26235Y20258D2*
X25934Y20459D1*
X26078Y20552D2*
Y20681D1*
X26063Y20724D1*
X26049Y20738D1*
X26020Y20753D1*
X25991D1*
X25963Y20738D1*
X25948Y20724D1*
X25934Y20681D1*
Y20552D1*
X26235D1*
X26078Y20652D2*
X26235Y20753D1*
X26006Y21061D2*
X25977Y21046D1*
X25948Y21017D1*
X25934Y20989D1*
Y20932D1*
X25948Y20903D1*
X25977Y20874D1*
X26006Y20860D1*
X26049Y20845D1*
X26121D1*
X26163Y20860D1*
X26192Y20874D1*
X26221Y20903D1*
X26235Y20932D1*
Y20989D1*
X26221Y21017D1*
X26192Y21046D1*
X26163Y21061D1*
X26121D1*
Y20989D1*
X25934Y21225D2*
X25949Y21182D1*
X25977Y21167D1*
X26006D1*
X26034Y21182D1*
X26049Y21211D1*
X26063Y21268D1*
X26078Y21311D1*
X26106Y21340D1*
X26135Y21354D1*
X26178D1*
X26207Y21340D1*
X26221Y21325D1*
X26235Y21282D1*
Y21225D1*
X26221Y21182D1*
X26207Y21167D1*
X26178Y21153D1*
X26135D1*
X26106Y21167D1*
X26078Y21196D1*
X26063Y21239D1*
X26049Y21296D1*
X26034Y21325D1*
X26006Y21340D1*
X25977D1*
X25949Y21325D1*
X25934Y21282D1*
Y21225D1*
X26953Y18919D2*
Y19048D1*
X26938Y19091D1*
X26924Y19106D1*
X26895Y19120D1*
X26866D1*
X26838Y19106D1*
X26823Y19091D1*
X26809Y19048D1*
Y18919D1*
X27110D1*
X26953Y19020D2*
X27110Y19120D1*
X26967Y19213D2*
Y19342D1*
X26953Y19385D1*
X26938Y19399D1*
X26909Y19414D1*
X26866D1*
X26838Y19399D1*
X26823Y19385D1*
X26809Y19342D1*
Y19213D1*
X27110D1*
X26809Y19506D2*
X27110D1*
X26867Y19599D2*
X26852Y19628D1*
X26809Y19671D1*
X27110D1*
X26867Y19764D2*
X26852Y19792D1*
X26809Y19836D1*
X27110D1*
X26909Y20115D2*
X26953Y20100D1*
X26981Y20072D1*
X26996Y20029D1*
Y20014D1*
X26981Y19971D1*
X26953Y19943D1*
X26909Y19928D1*
X26895D1*
X26852Y19943D1*
X26824Y19971D1*
X26809Y20014D1*
Y20029D1*
X26824Y20072D1*
X26852Y20100D1*
X26909Y20115D1*
X26981D1*
X27053Y20100D1*
X27096Y20072D1*
X27110Y20029D1*
Y20000D1*
X27096Y19957D1*
X27067Y19943D1*
X27110Y20208D2*
X26809Y20408D1*
X26953Y20501D2*
Y20630D1*
X26938Y20673D1*
X26924Y20688D1*
X26895Y20702D1*
X26866D1*
X26838Y20688D1*
X26823Y20673D1*
X26809Y20630D1*
Y20501D1*
X27110D1*
X26953Y20602D2*
X27110Y20702D1*
X26881Y21010D2*
X26852Y20996D1*
X26823Y20967D1*
X26809Y20938D1*
Y20881D1*
X26823Y20852D1*
X26852Y20824D1*
X26881Y20809D1*
X26924Y20795D1*
X26996D1*
X27038Y20809D1*
X27067Y20824D1*
X27096Y20852D1*
X27110Y20881D1*
Y20938D1*
X27096Y20967D1*
X27067Y20996D1*
X27038Y21010D1*
X26996D1*
Y20938D1*
X27110Y21160D2*
X26809Y21304D1*
Y21103D1*
X27890Y18982D2*
Y19111D1*
X27875Y19154D1*
X27861Y19168D1*
X27833Y19183D1*
X27804D1*
X27775Y19168D1*
X27761Y19154D1*
X27746Y19111D1*
Y18982D1*
X28048D1*
X27890Y19082D2*
X28048Y19183D1*
X27904Y19275D2*
Y19405D1*
X27890Y19447D1*
X27875Y19462D1*
X27847Y19476D1*
X27804D1*
X27775Y19462D1*
X27761Y19447D1*
X27746Y19405D1*
Y19275D1*
X28048D1*
X27804Y19569D2*
X27790Y19598D1*
X27747Y19641D1*
X28048D1*
X27804Y19733D2*
X27790Y19762D1*
X27747Y19805D1*
X28048D1*
X27747Y19970D2*
X27761Y19927D1*
X27790Y19912D1*
X27818D1*
X27847Y19927D1*
X27861Y19955D1*
X27876Y20013D1*
X27890Y20056D1*
X27919Y20084D1*
X27947Y20099D1*
X27990D1*
X28019Y20084D1*
X28034Y20070D1*
X28048Y20027D1*
Y19970D1*
X28034Y19927D1*
X28019Y19912D1*
X27990Y19898D1*
X27947D1*
X27919Y19912D1*
X27890Y19941D1*
X27876Y19984D1*
X27861Y20041D1*
X27847Y20070D1*
X27818Y20084D1*
X27790D1*
X27761Y20070D1*
X27747Y20027D1*
Y19970D1*
X28048Y20191D2*
X27747Y20392D1*
X27890Y20485D2*
Y20614D1*
X27875Y20657D1*
X27861Y20672D1*
X27833Y20686D1*
X27804D1*
X27775Y20672D1*
X27761Y20657D1*
X27746Y20614D1*
Y20485D1*
X28048D1*
X27890Y20585D2*
X28048Y20686D1*
X27818Y20994D2*
X27790Y20979D1*
X27761Y20951D1*
X27746Y20922D1*
Y20865D1*
X27761Y20836D1*
X27790Y20807D1*
X27818Y20793D1*
X27861Y20779D1*
X27933D1*
X27976Y20793D1*
X28005Y20807D1*
X28033Y20836D1*
X28048Y20865D1*
Y20922D1*
X28033Y20951D1*
X28005Y20979D1*
X27976Y20994D1*
X27933D1*
Y20922D1*
X27790Y21258D2*
X27761Y21244D1*
X27747Y21201D1*
Y21173D1*
X27761Y21129D1*
X27804Y21101D1*
X27876Y21086D1*
X27947D1*
X28005Y21101D1*
X28034Y21129D1*
X28048Y21173D1*
Y21187D1*
X28034Y21230D1*
X28005Y21258D1*
X27962Y21273D1*
X27947D1*
X27904Y21258D1*
X27876Y21230D1*
X27861Y21187D1*
Y21173D1*
X27876Y21129D1*
X27904Y21101D1*
X27947Y21086D1*
X28953Y18732D2*
Y18861D1*
X28938Y18904D1*
X28924Y18918D1*
X28895Y18933D1*
X28866D1*
X28838Y18918D1*
X28823Y18904D1*
X28809Y18861D1*
Y18732D1*
X29110D1*
X28953Y18832D2*
X29110Y18933D1*
X28967Y19025D2*
Y19155D1*
X28953Y19197D1*
X28938Y19212D1*
X28909Y19226D1*
X28866D1*
X28838Y19212D1*
X28823Y19197D1*
X28809Y19155D1*
Y19025D1*
X29110D1*
X28809Y19319D2*
X29110D1*
Y19555D2*
X28809D1*
X29010Y19412D1*
Y19627D1*
X29110Y19777D2*
X28809Y19920D1*
Y19719D1*
X29110Y20013D2*
X28809Y20214D1*
X28953Y20307D2*
Y20436D1*
X28938Y20479D1*
X28924Y20493D1*
X28895Y20508D1*
X28866D1*
X28838Y20493D1*
X28823Y20479D1*
X28809Y20436D1*
Y20307D1*
X29110D1*
X28953Y20407D2*
X29110Y20508D1*
X28809Y20600D2*
X29110D1*
Y20729D1*
X29096Y20773D1*
X29082Y20787D1*
X29053Y20801D1*
X29010D1*
X28981Y20787D1*
X28967Y20773D1*
X28953Y20729D1*
X28938Y20773D1*
X28924Y20787D1*
X28895Y20801D1*
X28866D1*
X28838Y20787D1*
X28823Y20773D1*
X28809Y20729D1*
Y20600D1*
X28953D2*
Y20729D1*
X28867Y20894D2*
X28852Y20923D1*
X28809Y20966D1*
X29110D1*
X28809Y21230D2*
Y21087D1*
X28938Y21073D1*
X28924Y21087D1*
X28909Y21130D1*
Y21173D1*
X28924Y21216D1*
X28953Y21245D1*
X28996Y21259D1*
X29024D1*
X29067Y21245D1*
X29096Y21216D1*
X29110Y21173D1*
Y21130D1*
X29096Y21087D1*
X29082Y21073D1*
X29053Y21058D1*
X29953Y18732D2*
Y18861D1*
X29938Y18904D1*
X29924Y18918D1*
X29895Y18933D1*
X29866D1*
X29838Y18918D1*
X29823Y18904D1*
X29809Y18861D1*
Y18732D1*
X30110D1*
X29953Y18832D2*
X30110Y18933D1*
X29967Y19025D2*
Y19155D1*
X29953Y19197D1*
X29938Y19212D1*
X29909Y19226D1*
X29866D1*
X29838Y19212D1*
X29823Y19197D1*
X29809Y19155D1*
Y19025D1*
X30110D1*
X29809Y19319D2*
X30110D1*
Y19555D2*
X29809D1*
X30010Y19411D1*
Y19627D1*
X29852Y19891D2*
X29824Y19877D1*
X29809Y19834D1*
Y19806D1*
X29824Y19762D1*
X29867Y19734D1*
X29938Y19719D1*
X30010D1*
X30067Y19734D1*
X30096Y19762D1*
X30110Y19806D1*
Y19820D1*
X30096Y19863D1*
X30067Y19891D1*
X30024Y19906D1*
X30010D1*
X29967Y19891D1*
X29938Y19863D1*
X29924Y19820D1*
Y19806D1*
X29938Y19762D1*
X29967Y19734D1*
X30010Y19719D1*
X30110Y19998D2*
X29809Y20199D1*
X29953Y20292D2*
Y20421D1*
X29938Y20464D1*
X29924Y20479D1*
X29895Y20493D1*
X29866D1*
X29838Y20479D1*
X29823Y20464D1*
X29809Y20421D1*
Y20292D1*
X30110D1*
X29953Y20392D2*
X30110Y20493D1*
X29809Y20586D2*
X30110D1*
Y20715D1*
X30096Y20758D1*
X30082Y20772D1*
X30053Y20786D1*
X30010D1*
X29981Y20772D1*
X29967Y20758D1*
X29953Y20715D1*
X29938Y20758D1*
X29924Y20772D1*
X29895Y20786D1*
X29866D1*
X29838Y20772D1*
X29823Y20758D1*
X29809Y20715D1*
Y20586D1*
X29953D2*
Y20715D1*
X29867Y20879D2*
X29852Y20908D1*
X29809Y20951D1*
X30110D1*
Y21187D2*
X29809D1*
X30010Y21044D1*
Y21259D1*
X30953Y20169D2*
Y20298D1*
X30938Y20341D1*
X30924Y20356D1*
X30895Y20370D1*
X30866D1*
X30838Y20356D1*
X30823Y20341D1*
X30809Y20298D1*
Y20169D1*
X31110D1*
X30953Y20270D2*
X31110Y20370D1*
Y20693D2*
X30809Y20578D1*
X31110Y20463D1*
X31010Y20506D2*
Y20649D1*
X31110Y20843D2*
X30809Y20986D1*
Y20785D1*
X30874Y21151D2*
X31046D1*
X30917Y21079D2*
X31003Y21222D1*
X30917D2*
X31003Y21079D1*
X31953Y20044D2*
Y20173D1*
X31938Y20216D1*
X31924Y20231D1*
X31895Y20245D1*
X31866D1*
X31838Y20231D1*
X31823Y20216D1*
X31809Y20173D1*
Y20044D1*
X32110D1*
X31953Y20145D2*
X32110Y20245D1*
Y20568D2*
X31809Y20453D1*
X32110Y20338D1*
X32010Y20381D2*
Y20524D1*
X31867Y20660D2*
X31852Y20689D1*
X31809Y20732D1*
X32110D1*
X31809Y20911D2*
X31824Y20868D1*
X31867Y20839D1*
X31938Y20825D1*
X31981D1*
X32053Y20839D1*
X32096Y20868D1*
X32110Y20911D1*
Y20940D1*
X32096Y20983D1*
X32053Y21011D1*
X31981Y21026D1*
X31938D1*
X31867Y21011D1*
X31824Y20983D1*
X31809Y20940D1*
Y20911D1*
X31867Y21011D2*
X32053Y20839D1*
X31874Y21190D2*
X32046D1*
X31917Y21118D2*
X32003Y21262D1*
X31917D2*
X32003Y21118D1*
X32953Y18482D2*
Y18611D1*
X32938Y18654D1*
X32924Y18668D1*
X32895Y18683D1*
X32866D1*
X32838Y18668D1*
X32823Y18654D1*
X32809Y18611D1*
Y18482D1*
X33110D1*
X32953Y18582D2*
X33110Y18683D1*
X32967Y18775D2*
Y18905D1*
X32953Y18947D1*
X32938Y18962D1*
X32909Y18976D1*
X32866D1*
X32838Y18962D1*
X32823Y18947D1*
X32809Y18905D1*
Y18775D1*
X33110D1*
X32809Y19069D2*
X33110D1*
Y19305D2*
X32809D1*
X33010Y19161D1*
Y19377D1*
X32809Y19641D2*
Y19498D1*
X32938Y19484D1*
X32924Y19498D1*
X32909Y19541D1*
Y19584D1*
X32924Y19627D1*
X32953Y19656D1*
X32996Y19670D1*
X33024D1*
X33067Y19656D1*
X33096Y19627D1*
X33110Y19584D1*
Y19541D1*
X33096Y19498D1*
X33082Y19484D1*
X33053Y19469D1*
X33110Y19763D2*
X32809Y19964D1*
X32953Y20057D2*
Y20186D1*
X32938Y20229D1*
X32924Y20243D1*
X32895Y20257D1*
X32866D1*
X32838Y20243D1*
X32823Y20229D1*
X32809Y20186D1*
Y20057D1*
X33110D1*
X32953Y20157D2*
X33110Y20257D1*
X32809Y20350D2*
X33110D1*
Y20479D1*
X33096Y20523D1*
X33082Y20537D1*
X33053Y20551D1*
X33010D1*
X32981Y20537D1*
X32967Y20523D1*
X32953Y20479D1*
X32938Y20523D1*
X32924Y20537D1*
X32895Y20551D1*
X32866D1*
X32838Y20537D1*
X32823Y20523D1*
X32809Y20479D1*
Y20350D1*
X32953D2*
Y20479D1*
X32867Y20644D2*
X32852Y20673D1*
X32809Y20716D1*
X33110D1*
X32809Y20837D2*
Y20995D1*
X32924Y20909D1*
Y20952D1*
X32938Y20980D1*
X32953Y20995D1*
X32996Y21009D1*
X33024D1*
X33067Y20995D1*
X33096Y20966D1*
X33110Y20923D1*
Y20880D1*
X33096Y20837D1*
X33082Y20823D1*
X33053Y20808D1*
X32874Y21174D2*
X33046D1*
X32917Y21102D2*
X33003Y21246D1*
X32917D2*
X33003Y21102D1*
X33953Y18482D2*
Y18611D1*
X33938Y18654D1*
X33924Y18668D1*
X33895Y18683D1*
X33866D1*
X33838Y18668D1*
X33823Y18654D1*
X33809Y18611D1*
Y18482D1*
X34110D1*
X33953Y18582D2*
X34110Y18683D1*
X33967Y18775D2*
Y18905D1*
X33953Y18947D1*
X33938Y18962D1*
X33909Y18976D1*
X33866D1*
X33838Y18962D1*
X33823Y18947D1*
X33809Y18905D1*
Y18775D1*
X34110D1*
X33809Y19069D2*
X34110D1*
Y19305D2*
X33809D1*
X34010Y19162D1*
Y19377D1*
X34110Y19613D2*
X33809D1*
X34010Y19469D1*
Y19685D1*
X34110Y19777D2*
X33809Y19978D1*
X33953Y20071D2*
Y20200D1*
X33938Y20243D1*
X33924Y20258D1*
X33895Y20272D1*
X33866D1*
X33838Y20258D1*
X33823Y20243D1*
X33809Y20200D1*
Y20071D1*
X34110D1*
X33953Y20171D2*
X34110Y20272D1*
X33809Y20364D2*
X34110D1*
Y20494D1*
X34096Y20537D1*
X34082Y20551D1*
X34053Y20565D1*
X34010D1*
X33981Y20551D1*
X33967Y20537D1*
X33953Y20494D1*
X33938Y20537D1*
X33924Y20551D1*
X33895Y20565D1*
X33866D1*
X33838Y20551D1*
X33823Y20537D1*
X33809Y20494D1*
Y20364D1*
X33953D2*
Y20494D1*
X33867Y20658D2*
X33852Y20687D1*
X33809Y20730D1*
X34110D1*
X33881Y20837D2*
X33867D1*
X33838Y20851D1*
X33824Y20866D1*
X33809Y20895D1*
Y20952D1*
X33824Y20980D1*
X33838Y20995D1*
X33867Y21009D1*
X33895D1*
X33924Y20995D1*
X33967Y20966D1*
X34110Y20823D1*
Y21024D1*
X33874Y21188D2*
X34046D1*
X33917Y21116D2*
X34003Y21260D1*
X33917D2*
X34003Y21116D1*
X34953Y18732D2*
Y18861D1*
X34938Y18904D1*
X34924Y18918D1*
X34895Y18933D1*
X34866D1*
X34838Y18918D1*
X34823Y18904D1*
X34809Y18861D1*
Y18732D1*
X35110D1*
X34953Y18832D2*
X35110Y18933D1*
X34967Y19025D2*
Y19155D1*
X34953Y19197D1*
X34938Y19212D1*
X34909Y19226D1*
X34866D1*
X34838Y19212D1*
X34823Y19197D1*
X34809Y19155D1*
Y19025D1*
X35110D1*
Y19462D2*
X34809D1*
X35010Y19319D1*
Y19534D1*
X34809Y19656D2*
Y19813D1*
X34924Y19727D1*
Y19770D1*
X34938Y19799D1*
X34953Y19813D1*
X34996Y19828D1*
X35024D1*
X35067Y19813D1*
X35096Y19785D1*
X35110Y19741D1*
Y19698D1*
X35096Y19656D1*
X35082Y19641D1*
X35053Y19627D1*
X35110Y19920D2*
X34809Y20121D1*
X34953Y20214D2*
Y20343D1*
X34938Y20386D1*
X34924Y20401D1*
X34895Y20415D1*
X34866D1*
X34838Y20401D1*
X34823Y20386D1*
X34809Y20343D1*
Y20214D1*
X35110D1*
X34953Y20314D2*
X35110Y20415D1*
X34809Y20507D2*
X35110D1*
Y20637D1*
X35096Y20680D1*
X35082Y20694D1*
X35053Y20708D1*
X35010D1*
X34981Y20694D1*
X34967Y20680D1*
X34953Y20637D1*
X34938Y20680D1*
X34924Y20694D1*
X34895Y20708D1*
X34866D1*
X34838Y20694D1*
X34823Y20680D1*
X34809Y20637D1*
Y20507D1*
X34953D2*
Y20637D1*
X34867Y20801D2*
X34852Y20830D1*
X34809Y20873D1*
X35110D1*
X34867Y20966D2*
X34852Y20995D1*
X34809Y21038D1*
X35110D1*
X34874Y21202D2*
X35046D1*
X34917Y21130D2*
X35003Y21274D1*
X34917D2*
X35003Y21130D1*
X35953Y18607D2*
Y18736D1*
X35938Y18779D1*
X35924Y18793D1*
X35895Y18808D1*
X35866D1*
X35838Y18793D1*
X35823Y18779D1*
X35809Y18736D1*
Y18607D1*
X36110D1*
X35953Y18707D2*
X36110Y18808D1*
X35967Y18900D2*
Y19030D1*
X35953Y19072D1*
X35938Y19087D1*
X35909Y19101D1*
X35866D1*
X35838Y19087D1*
X35823Y19072D1*
X35809Y19030D1*
Y18900D1*
X36110D1*
Y19337D2*
X35809D1*
X36010Y19194D1*
Y19409D1*
X35881Y19516D2*
X35867D1*
X35838Y19531D1*
X35824Y19545D1*
X35809Y19574D1*
Y19631D1*
X35824Y19660D1*
X35838Y19674D1*
X35867Y19688D1*
X35895D1*
X35924Y19674D1*
X35967Y19645D1*
X36110Y19502D1*
Y19703D1*
Y19795D2*
X35809Y19996D1*
X35953Y20089D2*
Y20218D1*
X35938Y20261D1*
X35924Y20276D1*
X35895Y20290D1*
X35866D1*
X35838Y20276D1*
X35823Y20261D1*
X35809Y20218D1*
Y20089D1*
X36110D1*
X35953Y20189D2*
X36110Y20290D1*
X35809Y20382D2*
X36110D1*
Y20512D1*
X36096Y20555D1*
X36082Y20569D1*
X36053Y20583D1*
X36010D1*
X35981Y20569D1*
X35967Y20555D1*
X35953Y20512D1*
X35938Y20555D1*
X35924Y20569D1*
X35895Y20583D1*
X35866D1*
X35838Y20569D1*
X35823Y20555D1*
X35809Y20512D1*
Y20382D1*
X35953D2*
Y20512D1*
X35867Y20676D2*
X35852Y20705D1*
X35809Y20748D1*
X36110D1*
X35809Y20927D2*
X35824Y20884D1*
X35867Y20855D1*
X35938Y20841D1*
X35981D1*
X36053Y20855D1*
X36096Y20884D1*
X36110Y20927D1*
Y20955D1*
X36096Y20999D1*
X36053Y21027D1*
X35981Y21042D1*
X35938D1*
X35867Y21027D1*
X35824Y20999D1*
X35809Y20955D1*
Y20927D1*
X35867Y21027D2*
X36053Y20855D1*
X35874Y21206D2*
X36046D1*
X35917Y21134D2*
X36003Y21278D1*
X35917D2*
X36003Y21134D1*
X36890Y18857D2*
Y18986D1*
X36875Y19029D1*
X36861Y19043D1*
X36833Y19058D1*
X36804D1*
X36775Y19043D1*
X36761Y19029D1*
X36746Y18986D1*
Y18857D1*
X37048D1*
X36890Y18957D2*
X37048Y19058D1*
X36904Y19150D2*
Y19280D1*
X36890Y19322D1*
X36875Y19337D1*
X36847Y19351D1*
X36804D1*
X36775Y19337D1*
X36761Y19322D1*
X36746Y19280D1*
Y19150D1*
X37048D1*
X36746Y19444D2*
X37048D1*
X36847Y19723D2*
X36890Y19709D1*
X36919Y19680D1*
X36933Y19637D1*
Y19623D1*
X36919Y19580D1*
X36890Y19551D1*
X36847Y19536D1*
X36833D1*
X36790Y19551D1*
X36761Y19580D1*
X36747Y19623D1*
Y19637D1*
X36761Y19680D1*
X36790Y19709D1*
X36847Y19723D1*
X36919D1*
X36990Y19709D1*
X37034Y19680D1*
X37048Y19637D1*
Y19608D1*
X37034Y19565D1*
X37005Y19551D1*
X37048Y19873D2*
X36747Y20017D1*
Y19816D1*
X37048Y20109D2*
X36747Y20310D1*
X36890Y20403D2*
Y20532D1*
X36875Y20575D1*
X36861Y20590D1*
X36833Y20604D1*
X36804D1*
X36775Y20590D1*
X36761Y20575D1*
X36746Y20532D1*
Y20403D1*
X37048D1*
X36890Y20503D2*
X37048Y20604D1*
X36746Y20883D2*
Y20697D1*
X37048D1*
X36890D2*
Y20811D1*
X36804Y20976D2*
X36790Y21005D1*
X36747Y21048D1*
X37048D1*
X36811Y21213D2*
X36983D1*
X36854Y21141D2*
X36940Y21284D1*
X36854D2*
X36940Y21141D1*
X37890Y18669D2*
Y18798D1*
X37875Y18841D1*
X37861Y18856D1*
X37833Y18870D1*
X37804D1*
X37775Y18856D1*
X37761Y18841D1*
X37746Y18798D1*
Y18669D1*
X38048D1*
X37890Y18770D2*
X38048Y18870D1*
X37904Y18963D2*
Y19092D1*
X37890Y19135D1*
X37875Y19149D1*
X37847Y19164D1*
X37804D1*
X37775Y19149D1*
X37761Y19135D1*
X37746Y19092D1*
Y18963D1*
X38048D1*
X37746Y19256D2*
X38048D1*
X37847Y19536D2*
X37890Y19521D1*
X37919Y19493D1*
X37933Y19449D1*
Y19435D1*
X37919Y19392D1*
X37890Y19364D1*
X37847Y19349D1*
X37833D1*
X37790Y19364D1*
X37761Y19392D1*
X37747Y19435D1*
Y19449D1*
X37761Y19493D1*
X37790Y19521D1*
X37847Y19536D1*
X37919D1*
X37990Y19521D1*
X38034Y19493D1*
X38048Y19449D1*
Y19421D1*
X38034Y19378D1*
X38005Y19364D1*
X37790Y19800D2*
X37761Y19786D1*
X37747Y19743D1*
Y19715D1*
X37761Y19671D1*
X37804Y19643D1*
X37876Y19628D1*
X37947D1*
X38005Y19643D1*
X38034Y19671D1*
X38048Y19715D1*
Y19729D1*
X38034Y19772D1*
X38005Y19800D1*
X37962Y19815D1*
X37947D1*
X37904Y19800D1*
X37876Y19772D1*
X37861Y19729D1*
Y19715D1*
X37876Y19671D1*
X37904Y19643D1*
X37947Y19628D1*
X38048Y19907D2*
X37747Y20108D1*
X37890Y20201D2*
Y20330D1*
X37875Y20373D1*
X37861Y20388D1*
X37833Y20402D1*
X37804D1*
X37775Y20388D1*
X37761Y20373D1*
X37746Y20330D1*
Y20201D1*
X38048D1*
X37890Y20301D2*
X38048Y20402D1*
X37746Y20681D2*
Y20495D1*
X38048D1*
X37890D2*
Y20609D1*
X37747Y20860D2*
X37761Y20817D1*
X37804Y20788D1*
X37876Y20774D1*
X37919D1*
X37990Y20788D1*
X38034Y20817D1*
X38048Y20860D1*
Y20889D1*
X38034Y20932D1*
X37990Y20960D1*
X37919Y20975D1*
X37876D1*
X37804Y20960D1*
X37761Y20932D1*
X37747Y20889D1*
Y20860D1*
X37804Y20960D2*
X37990Y20788D1*
X37811Y21139D2*
X37983D1*
X37854Y21067D2*
X37940Y21211D1*
X37854D2*
X37940Y21067D1*
X38952Y18732D2*
Y18861D1*
X38938Y18904D1*
X38924Y18918D1*
X38895Y18933D1*
X38866D1*
X38838Y18918D1*
X38823Y18904D1*
X38809Y18861D1*
Y18732D1*
X39110D1*
X38952Y18832D2*
X39110Y18933D1*
X38967Y19025D2*
Y19155D1*
X38952Y19197D1*
X38938Y19212D1*
X38909Y19226D1*
X38866D1*
X38838Y19212D1*
X38823Y19197D1*
X38809Y19155D1*
Y19025D1*
X39110D1*
X38809Y19491D2*
Y19348D1*
X38938Y19333D1*
X38924Y19348D1*
X38909Y19391D1*
Y19434D1*
X38924Y19477D1*
X38952Y19506D1*
X38996Y19520D1*
X39024D1*
X39067Y19506D1*
X39096Y19477D1*
X39110Y19434D1*
Y19391D1*
X39096Y19348D1*
X39081Y19333D1*
X39053Y19319D1*
X39110Y19670D2*
X38809Y19813D1*
Y19612D1*
X39110Y19906D2*
X38809Y20107D1*
X38952Y20200D2*
Y20329D1*
X38938Y20372D1*
X38924Y20386D1*
X38895Y20401D1*
X38866D1*
X38838Y20386D1*
X38823Y20372D1*
X38809Y20329D1*
Y20200D1*
X39110D1*
X38952Y20300D2*
X39110Y20401D1*
X38881Y20708D2*
X38852Y20694D1*
X38823Y20665D1*
X38809Y20637D1*
Y20579D1*
X38823Y20551D1*
X38852Y20522D1*
X38881Y20508D1*
X38924Y20493D1*
X38996D1*
X39038Y20508D1*
X39067Y20522D1*
X39096Y20551D1*
X39110Y20579D1*
Y20637D1*
X39096Y20665D1*
X39067Y20694D1*
X39038Y20708D1*
X38909Y20988D2*
X38952Y20973D1*
X38981Y20945D1*
X38996Y20902D1*
Y20887D1*
X38981Y20844D1*
X38952Y20816D1*
X38909Y20801D1*
X38895D1*
X38852Y20816D1*
X38823Y20844D1*
X38809Y20887D1*
Y20902D1*
X38823Y20945D1*
X38852Y20973D1*
X38909Y20988D1*
X38981D1*
X39053Y20973D1*
X39096Y20945D1*
X39110Y20902D1*
Y20873D1*
X39096Y20830D1*
X39067Y20816D1*
X38874Y21152D2*
X39046D1*
X38917Y21080D2*
X39003Y21224D1*
X38917D2*
X39003Y21080D1*
X39952Y20232D2*
Y20361D1*
X39938Y20404D1*
X39924Y20418D1*
X39895Y20433D1*
X39866D1*
X39838Y20418D1*
X39823Y20404D1*
X39809Y20361D1*
Y20232D1*
X40110D1*
X39952Y20332D2*
X40110Y20433D1*
X39809Y20525D2*
X40110D1*
Y20626D1*
X40096Y20669D1*
X40067Y20698D1*
X40038Y20712D1*
X39996Y20726D1*
X39924D1*
X39881Y20712D1*
X39852Y20698D1*
X39823Y20669D1*
X39809Y20626D1*
Y20525D1*
X39852Y20991D2*
X39823Y20977D1*
X39809Y20934D1*
Y20905D1*
X39823Y20862D1*
X39867Y20833D1*
X39938Y20819D1*
X40010D1*
X40067Y20833D1*
X40096Y20862D1*
X40110Y20905D1*
Y20919D1*
X40096Y20962D1*
X40067Y20991D1*
X40024Y21005D1*
X40010D1*
X39967Y20991D1*
X39938Y20962D1*
X39924Y20919D1*
Y20905D1*
X39938Y20862D1*
X39967Y20833D1*
X40010Y20819D1*
X39874Y21170D2*
X40046D1*
X39917Y21098D2*
X40003Y21241D1*
X39917D2*
X40003Y21098D1*
X40953Y20169D2*
Y20298D1*
X40938Y20341D1*
X40924Y20356D1*
X40895Y20370D1*
X40866D1*
X40838Y20356D1*
X40823Y20341D1*
X40809Y20298D1*
Y20169D1*
X41110D1*
X40953Y20270D2*
X41110Y20370D1*
X40809Y20463D2*
X41110D1*
Y20563D1*
X41096Y20606D1*
X41067Y20635D1*
X41038Y20649D1*
X40996Y20664D1*
X40924D1*
X40881Y20649D1*
X40852Y20635D1*
X40823Y20606D1*
X40809Y20563D1*
Y20463D1*
Y20928D2*
Y20785D1*
X40938Y20771D1*
X40924Y20785D1*
X40909Y20828D1*
Y20871D1*
X40924Y20914D1*
X40953Y20943D1*
X40996Y20957D1*
X41024D1*
X41067Y20943D1*
X41096Y20914D1*
X41110Y20871D1*
Y20828D1*
X41096Y20785D1*
X41082Y20771D1*
X41053Y20756D1*
X40874Y21122D2*
X41046D1*
X40917Y21050D2*
X41003Y21194D1*
X40917D2*
X41003Y21050D1*
X41953Y18732D2*
Y18861D1*
X41938Y18904D1*
X41924Y18918D1*
X41895Y18933D1*
X41866D1*
X41838Y18918D1*
X41823Y18904D1*
X41809Y18861D1*
Y18732D1*
X42110D1*
X41953Y18832D2*
X42110Y18933D1*
X41967Y19025D2*
Y19155D1*
X41953Y19197D1*
X41938Y19212D1*
X41909Y19226D1*
X41866D1*
X41838Y19212D1*
X41823Y19197D1*
X41809Y19155D1*
Y19025D1*
X42110D1*
X41809Y19491D2*
Y19348D1*
X41938Y19333D1*
X41924Y19348D1*
X41909Y19391D1*
Y19434D1*
X41924Y19477D1*
X41953Y19506D1*
X41996Y19520D1*
X42024D1*
X42067Y19506D1*
X42096Y19477D1*
X42110Y19434D1*
Y19391D1*
X42096Y19348D1*
X42082Y19333D1*
X42053Y19319D1*
X41852Y19785D2*
X41824Y19770D1*
X41809Y19727D1*
Y19699D1*
X41824Y19656D1*
X41867Y19627D1*
X41938Y19612D1*
X42010D1*
X42067Y19627D1*
X42096Y19656D1*
X42110Y19699D1*
Y19713D1*
X42096Y19756D1*
X42067Y19785D1*
X42024Y19799D1*
X42010D1*
X41967Y19785D1*
X41938Y19756D1*
X41924Y19713D1*
Y19699D1*
X41938Y19656D1*
X41967Y19627D1*
X42010Y19612D1*
X42110Y19891D2*
X41809Y20092D1*
X41953Y20185D2*
Y20314D1*
X41938Y20357D1*
X41924Y20372D1*
X41895Y20386D1*
X41866D1*
X41838Y20372D1*
X41823Y20357D1*
X41809Y20314D1*
Y20185D1*
X42110D1*
X41953Y20286D2*
X42110Y20386D1*
X41881Y20694D2*
X41852Y20680D1*
X41823Y20651D1*
X41809Y20622D1*
Y20565D1*
X41823Y20536D1*
X41852Y20507D1*
X41881Y20493D1*
X41924Y20479D1*
X41996D1*
X42038Y20493D1*
X42067Y20507D1*
X42096Y20536D1*
X42110Y20565D1*
Y20622D1*
X42096Y20651D1*
X42067Y20680D1*
X42038Y20694D1*
X41809Y20858D2*
X41824Y20815D1*
X41852Y20801D1*
X41881D1*
X41909Y20815D1*
X41924Y20844D1*
X41938Y20901D1*
X41953Y20944D1*
X41981Y20973D1*
X42010Y20987D1*
X42053D1*
X42082Y20973D1*
X42096Y20959D1*
X42110Y20915D1*
Y20858D1*
X42096Y20815D1*
X42082Y20801D1*
X42053Y20786D1*
X42010D1*
X41981Y20801D1*
X41953Y20830D1*
X41938Y20872D1*
X41924Y20930D1*
X41909Y20959D1*
X41881Y20973D1*
X41852D1*
X41824Y20959D1*
X41809Y20915D1*
Y20858D1*
X41874Y21152D2*
X42046D1*
X41917Y21080D2*
X42003Y21223D1*
X41917D2*
X42003Y21080D1*
X42953Y18919D2*
Y19048D1*
X42938Y19091D1*
X42924Y19106D1*
X42895Y19120D1*
X42866D1*
X42838Y19106D1*
X42823Y19091D1*
X42809Y19048D1*
Y18919D1*
X43110D1*
X42953Y19020D2*
X43110Y19120D1*
X42967Y19213D2*
Y19342D1*
X42953Y19385D1*
X42938Y19399D1*
X42909Y19414D1*
X42866D1*
X42838Y19399D1*
X42823Y19385D1*
X42809Y19342D1*
Y19213D1*
X43110D1*
X42809Y19678D2*
Y19535D1*
X42938Y19521D1*
X42924Y19535D1*
X42909Y19578D1*
Y19621D1*
X42924Y19664D1*
X42953Y19693D1*
X42996Y19707D1*
X43024D1*
X43067Y19693D1*
X43096Y19664D1*
X43110Y19621D1*
Y19578D1*
X43096Y19535D1*
X43082Y19521D1*
X43053Y19506D1*
X42809Y19972D2*
Y19829D1*
X42938Y19815D1*
X42924Y19829D1*
X42909Y19872D1*
Y19915D1*
X42924Y19958D1*
X42953Y19987D1*
X42996Y20001D1*
X43024D1*
X43067Y19987D1*
X43096Y19958D1*
X43110Y19915D1*
Y19872D1*
X43096Y19829D1*
X43082Y19815D1*
X43053Y19800D1*
X43110Y20094D2*
X42809Y20294D1*
X42953Y20387D2*
Y20516D1*
X42938Y20559D1*
X42924Y20574D1*
X42895Y20588D1*
X42866D1*
X42838Y20574D1*
X42823Y20559D1*
X42809Y20516D1*
Y20387D1*
X43110D1*
X42953Y20488D2*
X43110Y20588D1*
X42881Y20896D2*
X42852Y20882D1*
X42823Y20853D1*
X42809Y20824D1*
Y20767D1*
X42823Y20738D1*
X42852Y20710D1*
X42881Y20695D1*
X42924Y20681D1*
X42996D1*
X43038Y20695D1*
X43067Y20710D1*
X43096Y20738D1*
X43110Y20767D1*
Y20824D1*
X43096Y20853D1*
X43067Y20882D1*
X43038Y20896D1*
X43110Y21046D2*
X42809Y21190D1*
Y20989D1*
X43890Y18919D2*
Y19048D1*
X43875Y19091D1*
X43861Y19106D1*
X43833Y19120D1*
X43804D1*
X43775Y19106D1*
X43761Y19091D1*
X43746Y19048D1*
Y18919D1*
X44048D1*
X43890Y19020D2*
X44048Y19120D1*
X43904Y19213D2*
Y19342D1*
X43890Y19385D1*
X43875Y19399D1*
X43847Y19414D1*
X43804D1*
X43775Y19399D1*
X43761Y19385D1*
X43746Y19342D1*
Y19213D1*
X44048D1*
X43747Y19678D2*
Y19535D1*
X43876Y19521D1*
X43861Y19535D1*
X43847Y19578D1*
Y19621D1*
X43861Y19664D1*
X43890Y19693D1*
X43933Y19707D1*
X43962D1*
X44005Y19693D1*
X44034Y19664D1*
X44048Y19621D1*
Y19578D1*
X44034Y19535D1*
X44019Y19521D1*
X43990Y19506D1*
X44048Y19944D2*
X43747D1*
X43947Y19800D1*
Y20015D1*
X44048Y20108D2*
X43747Y20309D1*
X43890Y20401D2*
Y20530D1*
X43875Y20574D1*
X43861Y20588D1*
X43833Y20602D1*
X43804D1*
X43775Y20588D1*
X43761Y20574D1*
X43746Y20530D1*
Y20401D1*
X44048D1*
X43890Y20502D2*
X44048Y20602D1*
X43818Y20910D2*
X43790Y20896D1*
X43761Y20867D1*
X43746Y20839D1*
Y20781D1*
X43761Y20752D1*
X43790Y20724D1*
X43818Y20709D1*
X43861Y20695D1*
X43933D1*
X43976Y20709D1*
X44005Y20724D1*
X44033Y20752D1*
X44048Y20781D1*
Y20839D1*
X44033Y20867D1*
X44005Y20896D1*
X43976Y20910D1*
X43790Y21175D2*
X43761Y21161D1*
X43747Y21118D1*
Y21089D1*
X43761Y21046D1*
X43804Y21017D1*
X43876Y21003D1*
X43947D1*
X44005Y21017D1*
X44034Y21046D1*
X44048Y21089D1*
Y21103D1*
X44034Y21146D1*
X44005Y21175D1*
X43962Y21189D1*
X43947D1*
X43904Y21175D1*
X43876Y21146D1*
X43861Y21103D1*
Y21089D1*
X43876Y21046D1*
X43904Y21017D1*
X43947Y21003D1*
X44953Y19107D2*
Y19236D1*
X44938Y19279D1*
X44924Y19293D1*
X44895Y19308D1*
X44866D1*
X44838Y19293D1*
X44823Y19279D1*
X44809Y19236D1*
Y19107D1*
X45110D1*
X44953Y19207D2*
X45110Y19308D1*
X44967Y19400D2*
Y19530D1*
X44953Y19572D1*
X44938Y19587D1*
X44909Y19601D1*
X44866D1*
X44838Y19587D1*
X44823Y19572D1*
X44809Y19530D1*
Y19400D1*
X45110D1*
Y19837D2*
X44809D1*
X45010Y19694D1*
Y19909D1*
X44867Y20002D2*
X44852Y20031D1*
X44809Y20074D1*
X45110D1*
Y20166D2*
X44809Y20367D1*
X44953Y20460D2*
Y20589D1*
X44938Y20632D1*
X44924Y20647D1*
X44895Y20661D1*
X44866D1*
X44838Y20647D1*
X44823Y20632D1*
X44809Y20589D1*
Y20460D1*
X45110D1*
X44953Y20560D2*
X45110Y20661D1*
X44809Y20753D2*
X45110D1*
Y20883D1*
X45096Y20926D1*
X45082Y20940D1*
X45053Y20954D1*
X45010D1*
X44981Y20940D1*
X44967Y20926D1*
X44953Y20883D1*
X44938Y20926D1*
X44924Y20940D1*
X44895Y20954D1*
X44866D1*
X44838Y20940D1*
X44823Y20926D1*
X44809Y20883D1*
Y20753D1*
X44953D2*
Y20883D1*
X44909Y21234D2*
X44953Y21219D1*
X44981Y21191D1*
X44996Y21148D1*
Y21133D1*
X44981Y21090D1*
X44953Y21062D1*
X44909Y21047D1*
X44895D1*
X44852Y21062D1*
X44824Y21090D1*
X44809Y21133D1*
Y21148D1*
X44824Y21191D1*
X44852Y21219D1*
X44909Y21234D1*
X44981D1*
X45053Y21219D1*
X45096Y21191D1*
X45110Y21148D1*
Y21119D1*
X45096Y21076D1*
X45067Y21062D1*
X45953Y18732D2*
Y18861D1*
X45938Y18904D1*
X45924Y18918D1*
X45895Y18933D1*
X45866D1*
X45838Y18918D1*
X45823Y18904D1*
X45809Y18861D1*
Y18732D1*
X46110D1*
X45953Y18832D2*
X46110Y18933D1*
X45967Y19025D2*
Y19155D1*
X45953Y19197D1*
X45938Y19212D1*
X45909Y19226D1*
X45866D1*
X45838Y19212D1*
X45823Y19197D1*
X45809Y19155D1*
Y19025D1*
X46110D1*
Y19462D2*
X45809D1*
X46010Y19319D1*
Y19534D1*
X45809Y19713D2*
X45824Y19670D1*
X45867Y19641D1*
X45938Y19627D1*
X45981D1*
X46053Y19641D1*
X46096Y19670D1*
X46110Y19713D1*
Y19741D1*
X46096Y19785D1*
X46053Y19813D1*
X45981Y19828D1*
X45938D1*
X45867Y19813D1*
X45824Y19785D1*
X45809Y19741D1*
Y19713D1*
X45867Y19813D2*
X46053Y19641D1*
X46110Y19920D2*
X45809Y20121D1*
X45953Y20214D2*
Y20343D1*
X45938Y20386D1*
X45924Y20401D1*
X45895Y20415D1*
X45866D1*
X45838Y20401D1*
X45823Y20386D1*
X45809Y20343D1*
Y20214D1*
X46110D1*
X45953Y20314D2*
X46110Y20415D1*
X45809Y20507D2*
X46110D1*
Y20637D1*
X46096Y20680D1*
X46082Y20694D1*
X46053Y20708D1*
X46010D1*
X45981Y20694D1*
X45967Y20680D1*
X45953Y20637D1*
X45938Y20680D1*
X45924Y20694D1*
X45895Y20708D1*
X45866D1*
X45838Y20694D1*
X45823Y20680D1*
X45809Y20637D1*
Y20507D1*
X45953D2*
Y20637D1*
X45809Y20873D2*
X45824Y20830D1*
X45852Y20815D1*
X45881D1*
X45909Y20830D1*
X45924Y20858D1*
X45938Y20916D1*
X45953Y20959D1*
X45981Y20987D1*
X46010Y21002D1*
X46053D1*
X46082Y20987D1*
X46096Y20973D1*
X46110Y20930D1*
Y20873D1*
X46096Y20830D1*
X46082Y20815D1*
X46053Y20801D1*
X46010D1*
X45981Y20815D1*
X45953Y20844D1*
X45938Y20887D1*
X45924Y20944D1*
X45909Y20973D1*
X45881Y20987D1*
X45852D1*
X45824Y20973D1*
X45809Y20930D1*
Y20873D1*
X45874Y21166D2*
X46046D1*
X45917Y21094D2*
X46003Y21238D1*
X45917D2*
X46003Y21094D1*
X46953Y20232D2*
Y20361D1*
X46938Y20404D1*
X46924Y20418D1*
X46895Y20433D1*
X46866D1*
X46838Y20418D1*
X46823Y20404D1*
X46809Y20361D1*
Y20232D1*
X47110D1*
X46953Y20332D2*
X47110Y20433D1*
X46881Y20740D2*
X46852Y20726D1*
X46823Y20697D1*
X46809Y20669D1*
Y20611D1*
X46823Y20583D1*
X46852Y20554D1*
X46881Y20540D1*
X46924Y20525D1*
X46996D1*
X47038Y20540D1*
X47067Y20554D1*
X47096Y20583D1*
X47110Y20611D1*
Y20669D1*
X47096Y20697D1*
X47067Y20726D1*
X47038Y20740D1*
X46867Y20833D2*
X46852Y20862D1*
X46809Y20905D1*
X47110D1*
X46809Y21027D2*
Y21184D1*
X46924Y21098D1*
Y21141D1*
X46938Y21170D1*
X46953Y21184D1*
X46996Y21199D1*
X47024D1*
X47067Y21184D1*
X47096Y21156D1*
X47110Y21112D1*
Y21069D1*
X47096Y21027D1*
X47082Y21012D1*
X47053Y20998D1*
X47953Y18732D2*
Y18861D1*
X47938Y18904D1*
X47924Y18918D1*
X47895Y18933D1*
X47866D1*
X47838Y18918D1*
X47823Y18904D1*
X47809Y18861D1*
Y18732D1*
X48110D1*
X47953Y18832D2*
X48110Y18933D1*
X47967Y19025D2*
Y19155D1*
X47953Y19197D1*
X47938Y19212D1*
X47909Y19226D1*
X47866D1*
X47838Y19212D1*
X47823Y19197D1*
X47809Y19155D1*
Y19025D1*
X48110D1*
X47809Y19348D2*
Y19505D1*
X47924Y19419D1*
Y19462D1*
X47938Y19491D1*
X47953Y19505D1*
X47996Y19520D1*
X48024D1*
X48067Y19505D1*
X48096Y19477D1*
X48110Y19434D1*
Y19390D1*
X48096Y19348D1*
X48082Y19333D1*
X48053Y19319D1*
X47909Y19799D2*
X47953Y19785D1*
X47981Y19756D1*
X47996Y19713D1*
Y19699D1*
X47981Y19656D1*
X47953Y19627D1*
X47909Y19612D1*
X47895D1*
X47852Y19627D1*
X47824Y19656D1*
X47809Y19699D1*
Y19713D1*
X47824Y19756D1*
X47852Y19785D1*
X47909Y19799D1*
X47981D1*
X48053Y19785D1*
X48096Y19756D1*
X48110Y19713D1*
Y19684D1*
X48096Y19641D1*
X48067Y19627D1*
X48110Y19892D2*
X47809Y20093D1*
X47953Y20185D2*
Y20314D1*
X47938Y20357D1*
X47924Y20372D1*
X47895Y20386D1*
X47866D1*
X47838Y20372D1*
X47823Y20357D1*
X47809Y20314D1*
Y20185D1*
X48110D1*
X47953Y20286D2*
X48110Y20386D1*
X47809Y20479D2*
X48110D1*
Y20608D1*
X48096Y20651D1*
X48082Y20666D1*
X48053Y20680D1*
X48010D1*
X47981Y20666D1*
X47967Y20651D1*
X47953Y20608D1*
X47938Y20651D1*
X47924Y20666D1*
X47895Y20680D1*
X47866D1*
X47838Y20666D1*
X47823Y20651D1*
X47809Y20608D1*
Y20479D1*
X47953D2*
Y20608D1*
X48110Y20830D2*
X47809Y20974D1*
Y20773D1*
X47874Y21138D2*
X48046D1*
X47917Y21066D2*
X48003Y21210D1*
X47917D2*
X48003Y21066D1*
X48953Y18669D2*
Y18798D1*
X48938Y18841D1*
X48924Y18856D1*
X48895Y18870D1*
X48866D1*
X48838Y18856D1*
X48823Y18841D1*
X48809Y18798D1*
Y18669D1*
X49110D1*
X48953Y18770D2*
X49110Y18870D1*
X48967Y18963D2*
Y19092D1*
X48953Y19135D1*
X48938Y19149D1*
X48909Y19164D1*
X48866D1*
X48838Y19149D1*
X48823Y19135D1*
X48809Y19092D1*
Y18963D1*
X49110D1*
X48809Y19256D2*
X49110D1*
X48809Y19521D2*
Y19378D1*
X48938Y19364D1*
X48924Y19378D1*
X48909Y19421D1*
Y19464D1*
X48924Y19507D1*
X48953Y19536D1*
X48996Y19550D1*
X49024D1*
X49067Y19536D1*
X49096Y19507D1*
X49110Y19464D1*
Y19421D1*
X49096Y19378D1*
X49082Y19364D1*
X49053Y19349D1*
X48809Y19714D2*
X48824Y19671D1*
X48852Y19657D1*
X48881D1*
X48909Y19671D1*
X48924Y19700D1*
X48938Y19757D1*
X48953Y19800D1*
X48981Y19829D1*
X49010Y19843D1*
X49053D1*
X49082Y19829D1*
X49096Y19815D1*
X49110Y19772D1*
Y19714D1*
X49096Y19671D1*
X49082Y19657D1*
X49053Y19643D1*
X49010D1*
X48981Y19657D1*
X48953Y19686D1*
X48938Y19728D1*
X48924Y19786D1*
X48909Y19815D1*
X48881Y19829D1*
X48852D1*
X48824Y19815D1*
X48809Y19772D1*
Y19714D1*
X49110Y19936D2*
X48809Y20137D1*
X48953Y20229D2*
Y20358D1*
X48938Y20402D1*
X48924Y20416D1*
X48895Y20430D1*
X48866D1*
X48838Y20416D1*
X48823Y20402D1*
X48809Y20358D1*
Y20229D1*
X49110D1*
X48953Y20330D2*
X49110Y20430D1*
X48881Y20738D2*
X48852Y20724D1*
X48823Y20695D1*
X48809Y20667D1*
Y20609D1*
X48823Y20580D1*
X48852Y20552D1*
X48881Y20537D1*
X48924Y20523D1*
X48996D1*
X49038Y20537D1*
X49067Y20552D1*
X49096Y20580D1*
X49110Y20609D1*
Y20667D1*
X49096Y20695D1*
X49067Y20724D1*
X49038Y20738D1*
X48867Y20831D2*
X48852Y20860D1*
X48809Y20903D1*
X49110D1*
X48809Y21082D2*
X48824Y21039D1*
X48867Y21010D1*
X48938Y20995D1*
X48981D1*
X49053Y21010D1*
X49096Y21039D1*
X49110Y21082D1*
Y21110D1*
X49096Y21153D1*
X49053Y21182D1*
X48981Y21196D1*
X48938D1*
X48867Y21182D1*
X48824Y21153D1*
X48809Y21110D1*
Y21082D1*
X48867Y21182D2*
X49053Y21010D1*
X49953Y20419D2*
Y20548D1*
X49938Y20591D1*
X49924Y20606D1*
X49895Y20620D1*
X49866D1*
X49838Y20606D1*
X49823Y20591D1*
X49809Y20548D1*
Y20419D1*
X50110D1*
X49953Y20520D2*
X50110Y20620D1*
X49809Y20713D2*
X50110D1*
Y20813D1*
X50096Y20856D1*
X50067Y20885D1*
X50038Y20899D1*
X49996Y20914D1*
X49924D1*
X49881Y20899D1*
X49852Y20885D1*
X49823Y20856D1*
X49809Y20813D1*
Y20713D1*
Y21078D2*
X49824Y21035D1*
X49852Y21021D1*
X49881D1*
X49909Y21035D1*
X49924Y21064D1*
X49938Y21121D1*
X49953Y21164D1*
X49981Y21193D1*
X50010Y21207D1*
X50053D1*
X50082Y21193D1*
X50096Y21178D1*
X50110Y21135D1*
Y21078D1*
X50096Y21035D1*
X50082Y21021D1*
X50053Y21006D1*
X50010D1*
X49981Y21021D1*
X49953Y21049D1*
X49938Y21092D1*
X49924Y21150D1*
X49909Y21178D1*
X49881Y21193D1*
X49852D1*
X49824Y21178D1*
X49809Y21135D1*
Y21078D1*
X55952Y15930D2*
X55938Y15959D1*
X55909Y15988D1*
X55881Y16002D1*
X55823D1*
X55794Y15988D1*
X55766Y15959D1*
X55751Y15930D1*
X55737Y15887D1*
Y15815D1*
X55751Y15772D1*
X55766Y15744D1*
X55794Y15715D1*
X55823Y15700D1*
X55881D1*
X55909Y15715D1*
X55938Y15744D1*
X55952Y15772D1*
Y15815D1*
X55881D1*
X56246Y16002D2*
Y15700D1*
X56045Y16002D1*
Y15700D1*
X56339Y16002D2*
Y15700D1*
X56439D1*
X56482Y15715D1*
X56511Y15744D1*
X56525Y15772D1*
X56539Y15815D1*
Y15887D1*
X56525Y15930D1*
X56511Y15959D1*
X56482Y15988D1*
X56439Y16002D1*
X56339D1*
X54342Y16724D2*
X54227Y17026D1*
X54112Y16724D1*
X54155Y16825D2*
X54299D1*
X54635Y17026D2*
Y16724D1*
X54435Y17026D1*
Y16724D1*
X54728Y16675D2*
X55001D1*
X55180Y17026D2*
X55151Y17011D1*
X55122Y16983D1*
X55108Y16954D1*
X55093Y16911D1*
Y16839D1*
X55108Y16796D1*
X55122Y16767D1*
X55151Y16739D1*
X55180Y16724D1*
X55237D1*
X55265Y16739D1*
X55294Y16767D1*
X55309Y16796D1*
X55323Y16839D1*
Y16911D1*
X55309Y16954D1*
X55294Y16983D1*
X55265Y17011D1*
X55237Y17026D1*
X55180D1*
X55415D2*
Y16811D1*
X55430Y16767D1*
X55459Y16739D1*
X55502Y16724D1*
X55530D1*
X55573Y16739D1*
X55602Y16767D1*
X55616Y16811D1*
Y17026D1*
X55810D2*
Y16724D1*
X55709Y17026D2*
X55910D1*
X56003Y16675D2*
X56275D1*
X56382Y16954D2*
Y16968D1*
X56397Y16997D1*
X56411Y17011D1*
X56440Y17025D1*
X56497D1*
X56526Y17011D1*
X56540Y16997D1*
X56555Y16968D1*
Y16940D1*
X56540Y16911D1*
X56511Y16868D1*
X56368Y16724D1*
X56569D1*
X54404Y17700D2*
X54289Y18002D1*
X54175Y17700D1*
X54218Y17801D2*
X54361D1*
X54698Y18002D2*
Y17700D1*
X54497Y18002D1*
Y17700D1*
X54791Y17651D2*
X55063D1*
X55242Y18002D2*
X55213Y17988D1*
X55185Y17959D1*
X55170Y17930D1*
X55156Y17887D1*
Y17815D1*
X55170Y17772D1*
X55185Y17744D1*
X55213Y17715D1*
X55242Y17700D1*
X55299D1*
X55328Y17715D1*
X55357Y17744D1*
X55371Y17772D1*
X55385Y17815D1*
Y17887D1*
X55371Y17930D1*
X55357Y17959D1*
X55328Y17988D1*
X55299Y18002D1*
X55242D1*
X55478D2*
Y17787D1*
X55492Y17744D1*
X55521Y17715D1*
X55564Y17700D1*
X55593D1*
X55636Y17715D1*
X55665Y17744D1*
X55679Y17787D1*
Y18002D1*
X55872D2*
Y17700D1*
X55772Y18002D2*
X55972D1*
X56065Y17651D2*
X56338D1*
X56430Y17944D2*
X56459Y17959D1*
X56502Y18002D1*
Y17700D1*
X22951Y5787D2*
D149*
Y6002D1*
X22926Y6074D1*
X22903Y6099D1*
X22855Y6122D1*
X22807D1*
X22760Y6099D1*
X22735Y6074D1*
X22711Y6002D1*
Y5787D1*
X23214D1*
X22951Y5955D2*
X23214Y6122D1*
X23023Y6277D2*
Y6564D1*
X22975D1*
X22926Y6540D1*
X22903Y6516D1*
X22879Y6468D1*
Y6396D1*
X22903Y6349D1*
X22951Y6301D1*
X23023Y6277D1*
X23070D1*
X23142Y6301D1*
X23190Y6349D1*
X23214Y6396D1*
Y6468D1*
X23190Y6516D1*
X23142Y6564D1*
X22951Y6981D2*
X22903Y6957D1*
X22879Y6885D1*
Y6814D1*
X22903Y6742D1*
X22951Y6718D1*
X22998Y6742D1*
X23023Y6790D1*
X23046Y6909D1*
X23070Y6957D1*
X23118Y6981D1*
X23142D1*
X23190Y6957D1*
X23214Y6885D1*
Y6814D1*
X23190Y6742D1*
X23142Y6718D1*
X23023Y7135D2*
Y7422D1*
X22975D1*
X22926Y7399D1*
X22903Y7375D1*
X22879Y7327D1*
Y7255D1*
X22903Y7207D1*
X22951Y7159D1*
X23023Y7135D1*
X23070D1*
X23142Y7159D1*
X23190Y7207D1*
X23214Y7255D1*
Y7327D1*
X23190Y7375D1*
X23142Y7422D1*
X22711Y7649D2*
X23118D1*
X23190Y7672D1*
X23214Y7720D1*
Y7768D1*
X22879Y7577D2*
Y7744D1*
X21951Y5787D2*
Y6002D1*
X21926Y6074D1*
X21903Y6099D1*
X21855Y6122D1*
X21807D1*
X21760Y6099D1*
X21735Y6074D1*
X21711Y6002D1*
Y5787D1*
X22214D1*
X21951Y5955D2*
X22214Y6122D1*
X21711Y6277D2*
X22214Y6612D1*
X21711D2*
X22214Y6277D1*
X20774Y5955D2*
X21276D1*
X20774Y5787D2*
Y6122D1*
Y6277D2*
X21276Y6612D1*
X20774D2*
X21276Y6277D1*
X19893Y6146D2*
X19846Y6122D1*
X19798Y6074D1*
X19774Y6027D1*
Y5931D1*
X19798Y5883D1*
X19846Y5836D1*
X19893Y5811D1*
X19965Y5787D1*
X20085D1*
X20156Y5811D1*
X20204Y5836D1*
X20252Y5883D1*
X20276Y5931D1*
Y6027D1*
X20252Y6074D1*
X20204Y6122D1*
X20156Y6146D1*
X20085D1*
Y6027D1*
X19774Y6635D2*
X20276D1*
X19774Y6301D1*
X20276D1*
X19774Y6790D2*
X20276D1*
Y6957D1*
X20252Y7029D1*
X20204Y7077D1*
X20156Y7101D1*
X20085Y7125D1*
X19965D1*
X19893Y7101D1*
X19846Y7077D1*
X19798Y7029D1*
X19774Y6957D1*
Y6790D1*
X18712Y6074D2*
Y5836D1*
X18927Y5812D1*
X18903Y5836D1*
X18879Y5907D1*
Y5979D1*
X18903Y6051D1*
X18951Y6099D1*
X19023Y6122D1*
X19070D1*
X19142Y6099D1*
X19190Y6051D1*
X19214Y5979D1*
Y5907D1*
X19190Y5836D1*
X19166Y5812D1*
X19118Y5787D1*
X18711Y6277D2*
X19214Y6468D1*
X18711Y6659D1*
X54235Y15347D2*
X54498Y15012D1*
Y15347D2*
X54235Y15012D1*
X52679Y14202D2*
X52822Y13867D1*
X52775Y13771D1*
X52727Y13723D1*
X52679Y13699D1*
X52655D1*
X52966Y14202D2*
X52822Y13867D1*
X55300Y14832D2*
X55563D1*
X55300Y14497D1*
X55563D1*
X55822Y24468D2*
X55774Y24444D1*
X55726Y24396D1*
X55702Y24348D1*
Y24253D1*
X55726Y24205D1*
X55774Y24157D1*
X55822Y24133D1*
X55894Y24109D1*
X56014D1*
X56085Y24133D1*
X56133Y24157D1*
X56180Y24205D1*
X56205Y24253D1*
Y24348D1*
X56180Y24396D1*
X56133Y24444D1*
X56085Y24468D1*
X56014D1*
Y24348D1*
X55702Y24957D2*
X56205D1*
X55702Y24622D1*
X56205D1*
X55702Y25112D2*
X56205D1*
Y25279D1*
X56180Y25351D1*
X56133Y25399D1*
X56085Y25423D1*
X56014Y25447D1*
X55894D1*
X55822Y25423D1*
X55774Y25399D1*
X55726Y25351D1*
X55702Y25279D1*
Y25112D1*
X55156Y28841D2*
Y28531D1*
X55658D1*
Y28841D1*
X55395Y28531D2*
Y28722D1*
X55407Y28996D2*
Y29272D1*
X55658Y29809D2*
X55156D1*
X55658Y29618D1*
X55156Y29426D1*
X55658D1*
X55156Y30107D2*
X55179Y30059D1*
X55228Y30011D1*
X55275Y29987D1*
X55347Y29963D1*
X55467D1*
X55538Y29987D1*
X55586Y30011D1*
X55634Y30059D1*
X55658Y30107D1*
Y30203D1*
X55634Y30250D1*
X55586Y30298D1*
X55538Y30322D1*
X55467Y30346D1*
X55347D1*
X55275Y30322D1*
X55228Y30298D1*
X55179Y30250D1*
X55156Y30203D1*
Y30107D1*
Y30668D2*
X55658D1*
X55156Y30500D2*
Y30835D1*
Y31133D2*
X55179Y31085D1*
X55228Y31038D1*
X55275Y31013D1*
X55347Y30989D1*
X55467D1*
X55538Y31013D1*
X55586Y31038D1*
X55634Y31085D1*
X55658Y31133D1*
Y31229D1*
X55634Y31276D1*
X55586Y31324D1*
X55538Y31348D1*
X55467Y31372D1*
X55347D1*
X55275Y31348D1*
X55228Y31324D1*
X55179Y31276D1*
X55156Y31229D1*
Y31133D1*
X55419Y32012D2*
Y32228D1*
X55395Y32299D1*
X55371Y32324D1*
X55323Y32347D1*
X55251D1*
X55204Y32324D1*
X55179Y32299D1*
X55156Y32228D1*
Y32012D1*
X55658D1*
X55395Y32502D2*
Y32717D1*
X55371Y32789D1*
X55347Y32813D1*
X55299Y32837D1*
X55251D1*
X55204Y32813D1*
X55179Y32789D1*
X55156Y32717D1*
Y32502D1*
X55658D1*
X55395Y32669D2*
X55658Y32837D1*
X55156Y33135D2*
X55179Y33087D1*
X55228Y33039D1*
X55275Y33015D1*
X55347Y32991D1*
X55467D1*
X55538Y33015D1*
X55586Y33039D1*
X55634Y33087D1*
X55658Y33135D1*
Y33230D1*
X55634Y33278D1*
X55586Y33326D1*
X55538Y33350D1*
X55467Y33373D1*
X55347D1*
X55275Y33350D1*
X55228Y33326D1*
X55179Y33278D1*
X55156Y33230D1*
Y33135D1*
Y33695D2*
X55658D1*
X55156Y33528D2*
Y33863D1*
Y34161D2*
X55179Y34113D1*
X55228Y34065D1*
X55275Y34041D1*
X55347Y34017D1*
X55467D1*
X55538Y34041D1*
X55586Y34065D1*
X55634Y34113D1*
X55658Y34161D1*
Y34257D1*
X55634Y34304D1*
X55586Y34352D1*
X55538Y34376D1*
X55467Y34400D1*
X55347D1*
X55275Y34376D1*
X55228Y34352D1*
X55179Y34304D1*
X55156Y34257D1*
Y34161D1*
X55252Y35040D2*
X55228Y35088D1*
X55156Y35160D1*
X55658D1*
X55610Y35338D2*
X55634Y35314D1*
X55658Y35338D1*
X55634Y35362D1*
X55610Y35338D1*
X55156Y35661D2*
X55180Y35589D1*
X55252Y35541D1*
X55371Y35517D1*
X55443D1*
X55562Y35541D1*
X55634Y35589D1*
X55658Y35661D1*
Y35708D1*
X55634Y35780D1*
X55562Y35827D1*
X55443Y35852D1*
X55371D1*
X55252Y35827D1*
X55180Y35780D1*
X55156Y35708D1*
Y35661D1*
X55252Y35827D2*
X55562Y35541D1*
X56402Y29505D2*
X56378Y29553D1*
X56307Y29625D1*
X56809D1*
X56307Y29923D2*
X56331Y29851D1*
X56402Y29803D1*
X56522Y29779D1*
X56594D1*
X56713Y29803D1*
X56785Y29851D1*
X56809Y29923D1*
Y29971D1*
X56785Y30042D1*
X56713Y30090D1*
X56594Y30114D1*
X56522D1*
X56402Y30090D1*
X56331Y30042D1*
X56307Y29971D1*
Y29923D1*
X56402Y30090D2*
X56713Y29803D1*
X56809Y30269D2*
X56307Y30604D1*
X56402Y30758D2*
X56378Y30806D1*
X56307Y30878D1*
X56809D1*
X56378Y31319D2*
X56331Y31295D1*
X56307Y31224D1*
Y31176D1*
X56331Y31104D1*
X56402Y31056D1*
X56522Y31032D1*
X56641D1*
X56737Y31056D1*
X56785Y31104D1*
X56809Y31176D1*
Y31200D1*
X56785Y31271D1*
X56737Y31319D1*
X56665Y31343D1*
X56641D1*
X56569Y31319D1*
X56522Y31271D1*
X56498Y31200D1*
Y31176D1*
X56522Y31104D1*
X56569Y31056D1*
X56641Y31032D1*
X56809Y31497D2*
X56307Y31832D1*
X56426Y32011D2*
X56402D1*
X56354Y32035D1*
X56331Y32059D1*
X56307Y32107D1*
Y32202D1*
X56331Y32250D1*
X56354Y32274D1*
X56402Y32298D1*
X56450D1*
X56498Y32274D1*
X56569Y32226D1*
X56809Y31987D1*
Y32322D1*
X56307Y32620D2*
X56331Y32548D1*
X56402Y32500D1*
X56522Y32476D1*
X56594D1*
X56713Y32500D1*
X56785Y32548D1*
X56809Y32620D1*
Y32667D1*
X56785Y32739D1*
X56713Y32787D1*
X56594Y32811D1*
X56522D1*
X56402Y32787D1*
X56331Y32739D1*
X56307Y32667D1*
Y32620D1*
X56402Y32787D2*
X56713Y32500D1*
X56402Y32965D2*
X56378Y33013D1*
X56307Y33085D1*
X56809D1*
X56378Y33527D2*
X56331Y33503D1*
X56307Y33431D1*
Y33383D1*
X56331Y33312D1*
X56402Y33263D1*
X56522Y33240D1*
X56641D1*
X56737Y33263D1*
X56785Y33312D1*
X56809Y33383D1*
Y33407D1*
X56785Y33478D1*
X56737Y33527D1*
X56665Y33550D1*
X56641D1*
X56569Y33527D1*
X56522Y33478D1*
X56498Y33407D1*
Y33383D1*
X56522Y33312D1*
X56569Y33263D1*
X56641Y33240D1*
X23091Y23687D2*
X23139Y23711D1*
X23211Y23783D1*
Y23281D1*
X23390Y23663D2*
Y23687D1*
X23413Y23735D1*
X23437Y23759D1*
X23485Y23783D1*
X23581D1*
X23628Y23759D1*
X23652Y23735D1*
X23676Y23687D1*
Y23639D1*
X23652Y23591D1*
X23605Y23520D1*
X23365Y23281D1*
X23700D1*
X23855Y23783D2*
X24046Y23281D1*
X24237Y23783D1*
X24391Y23198D2*
X24846D1*
X25335Y23711D2*
X25288Y23759D1*
X25216Y23783D1*
X25120D1*
X25048Y23759D1*
X25000Y23711D1*
Y23664D1*
X25024Y23616D1*
X25048Y23592D1*
X25096Y23568D1*
X25239Y23520D1*
X25288Y23496D1*
X25311Y23472D1*
X25335Y23424D1*
Y23353D1*
X25288Y23305D1*
X25216Y23281D1*
X25120D1*
X25048Y23305D1*
X25000Y23353D1*
X25489Y23783D2*
X25609Y23281D1*
X25729Y23783D1*
X25848Y23281D1*
X25968Y23783D1*
X4563Y22970D2*
X4325D1*
X4301Y22755D1*
X4325Y22779D1*
X4396Y22803D1*
X4468D1*
X4540Y22779D1*
X4588Y22731D1*
X4611Y22659D1*
Y22612D1*
X4588Y22540D1*
X4540Y22492D1*
X4468Y22468D1*
X4396D1*
X4325Y22492D1*
X4301Y22516D1*
X4276Y22564D1*
X4766Y22971D2*
X4957Y22468D1*
X5148Y22971D1*
X5303Y22385D2*
X5757D1*
X6294Y22468D2*
Y22971D1*
X6103Y22468D1*
X5911Y22971D1*
Y22468D1*
X6831D2*
X6639Y22971D1*
X6448Y22468D1*
X6520Y22636D2*
X6759D1*
X6986Y22971D2*
Y22468D1*
X7475Y22971D2*
Y22468D1*
X7140Y22971D1*
Y22468D1*
X21966Y34284D2*
X22157Y33782D1*
X22348Y34284D1*
X22503Y33699D2*
X22957D1*
X23111Y34284D2*
Y33782D1*
X23327D1*
X23399Y33806D1*
X23423Y33830D1*
X23446Y33877D1*
Y33949D1*
X23423Y33997D1*
X23399Y34021D1*
X23327Y34045D1*
X23399Y34069D1*
X23423Y34093D1*
X23446Y34141D1*
Y34189D1*
X23423Y34236D1*
X23399Y34260D1*
X23327Y34284D1*
X23111D1*
Y34045D2*
X23327D1*
X23984Y33782D2*
X23792Y34284D1*
X23601Y33782D1*
X23673Y33949D2*
X23912D1*
X24306Y34284D2*
Y33782D1*
X24138Y34284D2*
X24473D1*
X24795D2*
Y33782D1*
X24627Y34284D2*
X24962D1*
X25117Y33699D2*
X25571D1*
X25725Y34021D2*
X25941D1*
X26012Y34045D1*
X26037Y34069D1*
X26060Y34117D1*
Y34189D1*
X26037Y34236D1*
X26012Y34260D1*
X25941Y34284D1*
X25725D1*
Y33782D1*
X26215Y34045D2*
X26430D1*
X26502Y34069D1*
X26526Y34093D1*
X26550Y34141D1*
Y34189D1*
X26526Y34236D1*
X26502Y34260D1*
X26430Y34284D1*
X26215D1*
Y33782D1*
X26382Y34045D2*
X26550Y33782D1*
X26848Y34284D2*
X26800Y34260D1*
X26752Y34212D1*
X26728Y34165D1*
X26704Y34093D1*
Y33973D1*
X26728Y33902D1*
X26752Y33854D1*
X26800Y33806D1*
X26848Y33782D1*
X26943D1*
X26991Y33806D1*
X27039Y33854D1*
X27063Y33902D1*
X27087Y33973D1*
Y34093D1*
X27063Y34165D1*
X27039Y34212D1*
X26991Y34260D1*
X26943Y34284D1*
X26848D1*
X27408D2*
Y33782D1*
X27241Y34284D2*
X27576D1*
X55703Y21344D2*
Y21607D1*
X55894Y21464D1*
Y21536D1*
X55918Y21583D1*
X55942Y21607D1*
X56014Y21631D1*
X56061D1*
X56133Y21607D1*
X56181Y21559D1*
X56205Y21488D1*
Y21416D1*
X56181Y21344D1*
X56157Y21321D1*
X56109Y21296D1*
X56157Y21809D2*
X56181Y21786D1*
X56205Y21809D1*
X56181Y21834D1*
X56157Y21809D1*
X55703Y22036D2*
Y22299D1*
X55894Y22156D1*
Y22227D1*
X55918Y22275D1*
X55942Y22299D1*
X56014Y22323D1*
X56061D1*
X56133Y22299D1*
X56181Y22251D1*
X56205Y22179D1*
Y22108D1*
X56181Y22036D1*
X56157Y22012D1*
X56109Y21988D1*
X55702Y22477D2*
X56205Y22669D1*
X55702Y22860D1*
X15414Y4121D2*
D12*
Y4322D1*
X15327D1*
X15299Y4312D1*
X15289Y4303D1*
X15280Y4284D1*
Y4255D1*
X15289Y4236D1*
X15299Y4226D1*
X15327Y4217D1*
X15299Y4207D1*
X15289Y4198D1*
X15280Y4179D1*
Y4159D1*
X15289Y4140D1*
X15299Y4131D1*
X15327Y4121D1*
X15414D1*
Y4217D2*
X15327D1*
X15170Y4188D2*
X15189Y4198D1*
X15208Y4217D1*
X15218Y4246D1*
Y4265D1*
X15208Y4293D1*
X15189Y4312D1*
X15170Y4322D1*
X15141D1*
X15122Y4312D1*
X15103Y4293D1*
X15094Y4265D1*
Y4246D1*
X15103Y4217D1*
X15122Y4198D1*
X15141Y4188D1*
X15170D1*
X14917D2*
Y4322D1*
Y4217D2*
X14936Y4198D1*
X14955Y4188D1*
X14984D1*
X15003Y4198D1*
X15022Y4217D1*
X15032Y4246D1*
Y4265D1*
X15022Y4293D1*
X15003Y4312D1*
X14984Y4322D1*
X14955D1*
X14936Y4312D1*
X14917Y4293D1*
X14855Y4188D2*
Y4322D1*
Y4246D2*
X14846Y4217D1*
X14827Y4198D1*
X14807Y4188D1*
X14779D1*
X14602Y4121D2*
Y4322D1*
Y4217D2*
X14621Y4198D1*
X14640Y4188D1*
X14669D1*
X14688Y4198D1*
X14707Y4217D1*
X14717Y4246D1*
Y4265D1*
X14707Y4293D1*
X14688Y4312D1*
X14669Y4322D1*
X14640D1*
X14621Y4312D1*
X14602Y4293D1*
X14222Y4121D2*
X14346D1*
Y4322D1*
X14222D1*
X14346Y4217D2*
X14269D1*
X14045Y4121D2*
Y4322D1*
Y4217D2*
X14064Y4198D1*
X14083Y4188D1*
X14112D1*
X14131Y4198D1*
X14150Y4217D1*
X14160Y4246D1*
Y4265D1*
X14150Y4293D1*
X14131Y4312D1*
X14112Y4322D1*
X14083D1*
X14064Y4312D1*
X14045Y4293D1*
X13869Y4198D2*
Y4351D1*
X13878Y4379D1*
X13888Y4389D1*
X13907Y4399D1*
X13936D1*
X13955Y4389D1*
X13869Y4226D2*
X13888Y4207D1*
X13907Y4198D1*
X13936D1*
X13955Y4207D1*
X13974Y4226D1*
X13983Y4255D1*
Y4274D1*
X13974Y4303D1*
X13955Y4322D1*
X13936Y4332D1*
X13907D1*
X13888Y4322D1*
X13869Y4303D1*
X13807Y4246D2*
X13692D1*
Y4226D1*
X13702Y4207D1*
X13711Y4198D1*
X13730Y4188D1*
X13759D1*
X13778Y4198D1*
X13797Y4217D1*
X13807Y4246D1*
Y4265D1*
X13797Y4293D1*
X13778Y4312D1*
X13759Y4322D1*
X13730D1*
X13711Y4312D1*
X13692Y4293D1*
M02*
