M48
;DRILL file {KiCad 4.0.7} date 01/11/18 09:08:40
;FORMAT={-:-/ absolute / inch / decimal}
FMAT,2
INCH,TZ
T1C0.010
T2C0.012
T3C0.020
T4C0.026
T5C0.028
T6C0.039
T7C0.047
T8C0.071
T9C0.102
T10C0.126
%
G90
G05
M72
T1
X1.4269Y-2.2936
X1.4269Y-2.6578
X1.4269Y-3.0512
X1.4272Y-3.5433
X1.4272Y-3.937
X1.4272Y-4.3307
X1.4272Y-4.7244
X1.4272Y-5.1181
X1.4272Y-5.5118
X1.4272Y-5.9055
X1.4272Y-6.3681
X1.5059Y-3.9075
X1.5059Y-3.937
X1.5059Y-3.9665
X1.5059Y-3.9961
X1.5059Y-4.0256
X1.6437Y-3.1102
X1.6437Y-3.2283
X1.6732Y-3.1102
X1.6732Y-3.1693
X1.6732Y-3.2283
X1.82Y-4.2135
X1.8209Y-4.8425
X1.8698Y-2.2936
X1.8701Y-6.1614
X1.8701Y-6.1909
X1.8701Y-6.2205
X1.8701Y-6.25
X1.8701Y-6.2795
X1.8996Y-4.8622
X1.9Y-4.2228
X1.9045Y-5.2299
X1.9059Y-4.6
X1.9388Y-2.7468
X1.9388Y-2.7859
X1.9388Y-2.8245
X1.9388Y-2.864
X1.939Y-2.5886
X1.939Y-2.628
X1.939Y-2.6673
X1.939Y-2.7067
X1.939Y-2.9035
X1.948Y-4.95
X1.9587Y-4.3012
X1.9685Y-6.3681
X1.9781Y-2.864
X1.9783Y-2.5886
X1.9783Y-2.628
X1.9783Y-2.9035
X1.9783Y-4.0354
X2.0079Y-5.5709
X2.015Y-4.425
X2.015Y-4.4644
X2.015Y-4.5037
X2.015Y-4.5431
X2.015Y-4.5825
X2.015Y-4.6219
X2.015Y-4.6612
X2.015Y-4.7006
X2.015Y-4.74
X2.015Y-4.7793
X2.015Y-5.055
X2.015Y-5.0944
X2.015Y-5.1337
X2.015Y-5.1731
X2.015Y-5.2125
X2.015Y-5.2519
X2.015Y-5.2912
X2.015Y-5.3306
X2.015Y-5.37
X2.015Y-5.4093
X2.0174Y-2.5889
X2.0175Y-2.864
X2.0177Y-2.628
X2.0177Y-2.9035
X2.0177Y-4.2323
X2.0177Y-4.8524
X2.0238Y-2.6883
X2.0238Y-2.7277
X2.0238Y-2.767
X2.0238Y-2.8064
X2.0276Y-3.6614
X2.0276Y-3.8976
X2.051Y-3.3994
X2.051Y-3.4388
X2.051Y-3.4782
X2.051Y-3.5175
X2.051Y-3.7223
X2.051Y-3.7616
X2.051Y-3.801
X2.051Y-3.8404
X2.0543Y-4.424
X2.0544Y-4.4644
X2.0544Y-4.5037
X2.0544Y-4.5431
X2.0544Y-4.5825
X2.0544Y-4.6219
X2.0544Y-4.6612
X2.0544Y-4.7006
X2.0544Y-4.74
X2.0544Y-4.7793
X2.0544Y-5.055
X2.0544Y-5.0944
X2.0544Y-5.1337
X2.0544Y-5.1731
X2.0544Y-5.2125
X2.0544Y-5.2519
X2.0544Y-5.2912
X2.0544Y-5.3306
X2.0544Y-5.37
X2.0544Y-5.4093
X2.0571Y-2.5886
X2.0571Y-2.628
X2.0571Y-2.8642
X2.0571Y-2.8642
X2.0571Y-2.9035
X2.0571Y-3.3071
X2.0571Y-3.3465
X2.0571Y-3.8976
X2.0571Y-5.5709
X2.0632Y-2.6883
X2.0632Y-2.7277
X2.0632Y-2.767
X2.0632Y-2.8064
X2.0768Y-4.3019
X2.0768Y-4.9213
X2.0904Y-3.3994
X2.0904Y-3.4388
X2.0904Y-3.4782
X2.0904Y-3.5175
X2.0904Y-3.7223
X2.0904Y-3.7616
X2.0904Y-3.801
X2.0904Y-3.8404
X2.0937Y-4.4644
X2.0937Y-4.5037
X2.0937Y-4.5431
X2.0937Y-4.5825
X2.0937Y-4.6219
X2.0937Y-4.6612
X2.0937Y-4.7006
X2.0937Y-4.74
X2.0937Y-4.7793
X2.0937Y-5.055
X2.0937Y-5.0944
X2.0937Y-5.1337
X2.0937Y-5.1731
X2.0937Y-5.2125
X2.0937Y-5.2519
X2.0937Y-5.2912
X2.0937Y-5.3306
X2.0937Y-5.37
X2.0937Y-5.4093
X2.0946Y-4.4232
X2.0965Y-2.5886
X2.0965Y-2.628
X2.0965Y-2.8642
X2.0965Y-2.9035
X2.0965Y-3.3071
X2.0965Y-3.3465
X2.0965Y-3.6024
X2.0965Y-3.6417
X2.0965Y-3.8976
X2.0965Y-3.937
X2.1025Y-2.6883
X2.1025Y-2.7277
X2.1025Y-2.767
X2.1025Y-2.8064
X2.1063Y-5.5709
X2.1298Y-3.3994
X2.1298Y-3.4388
X2.1298Y-3.4782
X2.1298Y-3.5175
X2.1298Y-3.7223
X2.1298Y-3.7616
X2.1298Y-3.801
X2.1298Y-3.8404
X2.1331Y-4.4232
X2.1331Y-4.4644
X2.1331Y-4.5037
X2.1331Y-4.5431
X2.1331Y-4.5825
X2.1331Y-4.6219
X2.1331Y-4.6612
X2.1331Y-4.7006
X2.1331Y-4.74
X2.1331Y-4.7793
X2.1331Y-5.055
X2.1331Y-5.0944
X2.1331Y-5.1337
X2.1331Y-5.1731
X2.1331Y-5.2125
X2.1331Y-5.2519
X2.1331Y-5.2912
X2.1331Y-5.3306
X2.1331Y-5.37
X2.1331Y-5.4093
X2.1358Y-2.5886
X2.1358Y-2.628
X2.1358Y-2.8642
X2.1358Y-2.9035
X2.1358Y-3.3071
X2.1358Y-3.3465
X2.1358Y-3.6024
X2.1358Y-3.6417
X2.1358Y-3.8976
X2.1358Y-3.937
X2.1419Y-2.6883
X2.1419Y-2.7277
X2.1419Y-2.767
X2.1419Y-2.8064
X2.1555Y-4.0748
X2.1654Y-4.2913
X2.1654Y-4.3307
X2.1654Y-5.5709
X2.1691Y-3.3994
X2.1691Y-3.4388
X2.1691Y-3.4782
X2.1691Y-3.5175
X2.1691Y-3.7223
X2.1691Y-3.7616
X2.1691Y-3.801
X2.1691Y-3.8404
X2.1725Y-4.4232
X2.1725Y-4.4644
X2.1725Y-4.5037
X2.1725Y-4.5431
X2.1725Y-4.5825
X2.1725Y-4.6219
X2.1725Y-4.6612
X2.1725Y-4.7006
X2.1725Y-4.74
X2.1725Y-4.7793
X2.1725Y-5.055
X2.1725Y-5.0944
X2.1725Y-5.1337
X2.1725Y-5.1731
X2.1725Y-5.2125
X2.1725Y-5.2519
X2.1725Y-5.2912
X2.1725Y-5.3306
X2.1725Y-5.37
X2.1725Y-5.4093
X2.1752Y-3.3071
X2.1752Y-3.3465
X2.1752Y-3.6024
X2.1752Y-3.6417
X2.1752Y-3.8976
X2.1752Y-3.937
X2.2119Y-4.4232
X2.2119Y-4.4644
X2.2119Y-4.5037
X2.2119Y-4.5431
X2.2119Y-4.5825
X2.2119Y-4.6219
X2.2119Y-4.6612
X2.2119Y-4.7006
X2.2119Y-4.74
X2.2119Y-4.7793
X2.2119Y-5.055
X2.2119Y-5.0944
X2.2119Y-5.1337
X2.2119Y-5.1731
X2.2119Y-5.2125
X2.2119Y-5.2519
X2.2119Y-5.2912
X2.2119Y-5.3306
X2.2119Y-5.37
X2.2119Y-5.4093
X2.2146Y-3.3071
X2.2146Y-3.3465
X2.2146Y-3.6024
X2.2146Y-3.6417
X2.2146Y-3.8976
X2.2146Y-3.937
X2.2146Y-5.5709
X2.2512Y-4.4232
X2.2512Y-4.4644
X2.2512Y-4.5037
X2.2512Y-4.5431
X2.2512Y-4.5825
X2.2512Y-4.6219
X2.2512Y-4.6612
X2.2512Y-4.7006
X2.2512Y-4.74
X2.2512Y-4.7793
X2.2512Y-5.055
X2.2512Y-5.0944
X2.2512Y-5.1337
X2.2512Y-5.1731
X2.2512Y-5.2125
X2.2512Y-5.2519
X2.2512Y-5.2912
X2.2512Y-5.3306
X2.2512Y-5.37
X2.2512Y-5.4093
X2.2539Y-3.3071
X2.2539Y-3.3465
X2.2539Y-3.3858
X2.2539Y-3.4252
X2.2539Y-3.4646
X2.2539Y-3.5039
X2.2539Y-3.5433
X2.2539Y-3.5827
X2.2539Y-3.622
X2.2539Y-3.6614
X2.2539Y-3.7008
X2.2539Y-3.7402
X2.2539Y-3.7795
X2.2539Y-3.8189
X2.2539Y-3.8583
X2.2539Y-3.8976
X2.2539Y-3.937
X2.2635Y-2.2936
X2.2638Y-5.5709
X2.2906Y-4.4232
X2.2906Y-4.4644
X2.2906Y-4.5037
X2.2906Y-4.5431
X2.2906Y-4.5825
X2.2906Y-4.6219
X2.2906Y-4.6612
X2.2906Y-4.7006
X2.2906Y-4.74
X2.2906Y-4.7793
X2.2906Y-5.055
X2.2906Y-5.0944
X2.2906Y-5.1337
X2.2906Y-5.1731
X2.2906Y-5.2125
X2.2906Y-5.2519
X2.2906Y-5.2912
X2.2906Y-5.3306
X2.2906Y-5.37
X2.2906Y-5.4093
X2.3228Y-5.5709
X2.34Y-4.0137
X2.3622Y-6.3681
X2.372Y-3.1299
X2.372Y-5.5709
X2.373Y-4.0758
X2.3847Y-4.1008
X2.4049Y-3.1705
X2.4114Y-3.1299
X2.4114Y-5.5709
X2.4256Y-4.1856
X2.45Y-3.2843
X2.465Y-4.9847
X2.5197Y-3.9961
X2.5237Y-5.2606
X2.5237Y-5.3
X2.5237Y-5.3393
X2.5295Y-3.2972
X2.545Y-4.9845
X2.5631Y-5.2606
X2.5631Y-5.3
X2.5631Y-5.3393
X2.5787Y-4.3012
X2.5787Y-4.3406
X2.5787Y-4.5472
X2.5787Y-4.5866
X2.58Y-4.0049
X2.6025Y-5.2606
X2.6025Y-5.3
X2.6025Y-5.3393
X2.6083Y-3.1398
X2.625Y-4.9833
X2.6277Y-4.341
X2.628Y-4.3012
X2.628Y-4.5472
X2.628Y-4.5866
X2.6419Y-5.2606
X2.6419Y-5.3
X2.6419Y-5.3393
X2.6523Y-3.5294
X2.6523Y-3.5688
X2.6523Y-3.6081
X2.6523Y-3.6475
X2.6523Y-3.6869
X2.6523Y-3.7263
X2.6575Y-2.2933
X2.6656Y-4.9828
X2.672Y-2.6534
X2.672Y-2.6928
X2.672Y-2.7322
X2.672Y-2.7715
X2.672Y-2.8109
X2.672Y-2.8503
X2.6772Y-4.3012
X2.6772Y-4.5472
X2.6772Y-4.5866
X2.6778Y-4.3399
X2.6812Y-5.2606
X2.6812Y-5.3
X2.6812Y-5.3393
X2.6917Y-3.5294
X2.6917Y-3.5688
X2.6917Y-3.6081
X2.6917Y-3.6475
X2.6917Y-3.6869
X2.6917Y-3.7263
X2.705Y-5.0475
X2.7114Y-2.6534
X2.7114Y-2.6928
X2.7114Y-2.7322
X2.7114Y-2.7715
X2.7114Y-2.8109
X2.7114Y-2.8503
X2.7206Y-5.2606
X2.7206Y-5.3
X2.7206Y-5.3393
X2.7311Y-3.5294
X2.7311Y-3.5688
X2.7311Y-3.6081
X2.7311Y-3.6475
X2.7311Y-3.6869
X2.7311Y-3.7263
X2.7507Y-2.6534
X2.7507Y-2.6928
X2.7507Y-2.7322
X2.7507Y-2.7715
X2.7507Y-2.8109
X2.7507Y-2.8503
X2.7559Y-6.3681
X2.7749Y-5.1364
X2.7854Y-4.9699
X2.8839Y-4.1142
X2.8839Y-4.1535
X2.8839Y-4.7343
X2.8839Y-4.7736
X2.8937Y-2.9331
X2.9019Y-4.9813
X2.9134Y-3.1299
X2.9425Y-4.1536
X2.9425Y-4.7737
X2.9429Y-4.1142
X2.9429Y-4.7343
X2.9568Y-5.2606
X2.9568Y-5.3
X2.9568Y-5.3393
X2.9724Y-5.0492
X2.996Y-4.153
X2.996Y-4.773
X2.9962Y-5.2606
X2.9962Y-5.3
X2.9962Y-5.3393
X2.9965Y-4.1132
X2.9965Y-4.7333
X3.0118Y-2.9232
X3.0118Y-3.248
X3.0356Y-5.2606
X3.0356Y-5.3
X3.0356Y-5.3393
X3.0444Y-4.9803
X3.0512Y-2.2933
X3.0535Y-3.0357
X3.0563Y-3.0957
X3.0749Y-5.2606
X3.0749Y-5.3
X3.0749Y-5.3393
X3.0906Y-4.9699
X3.1143Y-5.2606
X3.1143Y-5.3
X3.1143Y-5.3393
X3.1398Y-5.0492
X3.1496Y-3.1496
X3.1496Y-6.3681
X3.1537Y-5.2606
X3.1537Y-5.3
X3.1537Y-5.3393
X3.1988Y-3.2579
X3.2041Y-5.1377
X3.2087Y-2.9232
X3.215Y-4.9699
X3.2579Y-2.9921
X3.317Y-3.1607
X3.3268Y-4.9699
X3.3858Y-2.8839
X3.3899Y-5.2606
X3.3899Y-5.3
X3.3899Y-5.3393
X3.4055Y-5.0492
X3.4154Y-3.0709
X3.4252Y-2.8346
X3.4293Y-5.2606
X3.4293Y-5.3
X3.4293Y-5.3393
X3.4449Y-2.2933
X3.4646Y-4.1831
X3.4646Y-4.2224
X3.4646Y-4.2618
X3.4686Y-5.2606
X3.4686Y-5.3
X3.4686Y-5.3393
X3.49Y-4.9861
X3.5039Y-4.1831
X3.5039Y-4.2224
X3.5039Y-4.2618
X3.508Y-5.2606
X3.508Y-5.3
X3.508Y-5.3393
X3.5236Y-4.9606
X3.526Y-3.211
X3.5335Y-3.1594
X3.5335Y-3.6516
X3.535Y-3.6909
X3.5433Y-4.1831
X3.5433Y-4.2224
X3.5433Y-4.2618
X3.5433Y-6.3681
X3.5474Y-5.2606
X3.5474Y-5.3
X3.5474Y-5.3393
X3.57Y-5.0464
X3.5728Y-3.6516
X3.5728Y-3.6909
X3.5827Y-4.1831
X3.5827Y-4.2224
X3.5827Y-4.2618
X3.5867Y-5.2606
X3.5867Y-5.3
X3.5867Y-5.3393
X3.6018Y-4.2894
X3.622Y-4.1831
X3.622Y-4.2224
X3.622Y-4.2618
X3.6319Y-3.3366
X3.6397Y-5.1359
X3.6516Y-4.9606
X3.6614Y-4.1831
X3.6614Y-4.2224
X3.6614Y-4.2618
X3.6614Y-4.5276
X3.6614Y-4.5571
X3.7008Y-4.5276
X3.7008Y-4.5571
X3.7153Y-4.1637
X3.7205Y-2.6969
X3.7402Y-3.7205
X3.7402Y-4.5276
X3.7402Y-4.5571
X3.8Y-4.8531
X3.8091Y-3.0315
X3.8239Y-4.5258
X3.8386Y-2.2933
X3.858Y-2.9217
X3.878Y-4.8524
X3.8976Y-2.5984
X3.9122Y-5.1239
X3.9122Y-5.1633
X3.9122Y-5.2026
X3.9122Y-5.242
X3.9122Y-5.2814
X3.9122Y-5.3207
X3.9272Y-2.6083
X3.937Y-6.3681
X3.9515Y-5.1239
X3.9515Y-5.1633
X3.9515Y-5.2026
X3.9515Y-5.242
X3.9515Y-5.2814
X3.9515Y-5.3207
X3.96Y-4.8557
X3.9625Y-3.9677
X3.9909Y-5.1239
X3.9909Y-5.1633
X3.9909Y-5.2026
X3.9909Y-5.242
X3.9909Y-5.2814
X3.9909Y-5.3207
X3.9932Y-3.6559
X3.9948Y-3.9669
X3.9999Y-4.9784
X4.0242Y-3.6333
X4.0248Y-3.9663
X4.0303Y-5.1239
X4.0303Y-5.1633
X4.0303Y-5.2026
X4.0303Y-5.242
X4.0303Y-5.2814
X4.0303Y-5.3207
X4.04Y-4.8569
X4.054Y-2.7165
X4.0551Y-3.9665
X4.0655Y-2.988
X4.0696Y-5.1239
X4.0696Y-5.1633
X4.0696Y-5.2026
X4.0696Y-5.242
X4.0696Y-5.2814
X4.0696Y-5.3207
X4.0846Y-3.0709
X4.0866Y-3.9665
X4.0945Y-5.7874
X4.0945Y-5.8465
X4.0945Y-6.1614
X4.109Y-5.1239
X4.109Y-5.1633
X4.109Y-5.2026
X4.109Y-5.242
X4.109Y-5.2814
X4.109Y-5.3207
X4.1142Y-3.9665
X4.1154Y-2.6981
X4.1155Y-3.278
X4.12Y-4.8564
X4.1255Y-2.988
X4.1484Y-5.1239
X4.1484Y-5.1633
X4.1484Y-5.2026
X4.1484Y-5.242
X4.1484Y-5.2814
X4.1484Y-5.3207
X4.1732Y-3.089
X4.1908Y-4.5887
X4.1942Y-5.7886
X4.2Y-4.8551
X4.2Y-5.1313
X4.2028Y-5.8465
X4.2055Y-2.493
X4.2057Y-6.0942
X4.2323Y-2.2933
X4.2439Y-2.8463
X4.2618Y-2.687
X4.2913Y-5.7874
X4.3012Y-5.8465
X4.3129Y-3.2525
X4.3307Y-2.4469
X4.3307Y-2.6083
X4.3307Y-6.3681
X4.3406Y-5.3839
X4.3799Y-5.3839
X4.3802Y-3.0337
X4.3898Y-5.7874
X4.3921Y-4.7909
X4.3996Y-5.0295
X4.3996Y-5.0591
X4.3996Y-5.0886
X4.3996Y-5.8465
X4.4003Y-6.1713
X4.4094Y-4.9636
X4.4193Y-2.687
X4.4291Y-5.0296
X4.4291Y-4.9213
X4.4291Y-5.0591
X4.4291Y-5.0886
X4.439Y-5.3839
X4.449Y-4.3962
X4.4491Y-4.7441
X4.4587Y-4.8917
X4.4783Y-5.3839
X4.4882Y-5.7874
X4.4907Y-6.1306
X4.498Y-5.8465
X4.4991Y-6.1709
X4.5036Y-4.9791
X4.5036Y-5.0312
X4.512Y-4.393
X4.5177Y-3.8553
X4.5361Y-4.9791
X4.5361Y-5.0312
X4.5372Y-2.9962
X4.5374Y-5.3839
X4.5483Y-3.8553
X4.5571Y-4.7441
X4.5581Y-4.3916
X4.5659Y-3.8157
X4.5768Y-5.3839
X4.5866Y-5.7874
X4.5921Y-4.3774
X4.596Y-6.1713
X4.5965Y-5.8465
X4.6036Y-6.1329
X4.6063Y-2.4606
X4.6063Y-4.9409
X4.6194Y-4.3736
X4.626Y-2.2933
X4.6358Y-3.0217
X4.6358Y-3.5433
X4.6358Y-5.3839
X4.6367Y-3.8146
X4.6469Y-4.373
X4.6552Y-3.6124
X4.6654Y-3.061
X4.6692Y-3.783
X4.6748Y-4.3804
X4.6752Y-3.1693
X4.6752Y-3.5433
X4.6752Y-5.3839
X4.685Y-5.7874
X4.6927Y-3.9093
X4.6944Y-6.1716
X4.6949Y-5.8465
X4.7018Y-6.123
X4.7047Y-2.9823
X4.7049Y-4.3853
X4.7146Y-3.0709
X4.7146Y-3.7402
X4.7243Y-3.8815
X4.7244Y-6.3681
X4.7323Y-4.377
X4.7343Y-5.3839
X4.7543Y-3.6716
X4.759Y-4.37
X4.7653Y-3.7598
X4.7736Y-3.7106
X4.7736Y-5.3839
X4.7736Y-5.4921
X4.7736Y-5.5315
X4.7835Y-5.7874
X4.7897Y-6.1213
X4.7933Y-4.3701
X4.7933Y-5.8465
X4.8327Y-3.5728
X4.833Y-3.6119
X4.8399Y-4.9435
X4.856Y-2.9466
X4.8723Y-3.6119
X4.8819Y-5.7874
X4.8819Y-5.8465
X4.8917Y-4.439
X4.9056Y-5.2606
X4.9056Y-5.3
X4.9056Y-5.3393
X4.9117Y-3.6119
X4.92Y-3.3045
X4.9213Y-2.9429
X4.9213Y-4.6457
X4.9245Y-5.0431
X4.9311Y-4.439
X4.945Y-5.2606
X4.945Y-5.3
X4.945Y-5.3393
X4.9511Y-3.6119
X4.9705Y-4.439
X4.9776Y-2.9449
X4.9803Y-4.6457
X4.9844Y-5.2606
X4.9844Y-5.3
X4.9844Y-5.3393
X4.9898Y-3.6119
X5.005Y-5.045
X5.0197Y-2.2933
X5.0237Y-5.2606
X5.0237Y-5.3
X5.0237Y-5.3393
X5.0394Y-2.6575
X5.0394Y-4.9699
X5.0394Y-4.6458
X5.04Y-2.9435
X5.0591Y-3.3241
X5.0631Y-5.2606
X5.0631Y-5.3
X5.0631Y-5.3393
X5.0655Y-2.9321
X5.0848Y-5.0459
X5.0979Y-2.4522
X5.0983Y-4.6457
X5.1025Y-5.2606
X5.1025Y-5.3
X5.1025Y-5.3393
X5.1083Y-4.439
X5.1181Y-2.7264
X5.1181Y-6.3681
X5.1435Y-3.7931
X5.1448Y-4.0404
X5.1476Y-3.5531
X5.1476Y-4.439
X5.1537Y-5.1374
X5.1575Y-2.9429
X5.1586Y-4.0039
X5.16Y-3.3054
X5.165Y-4.9531
X5.1666Y-4.6463
X5.1672Y-3.7081
X5.17Y-3.902
X5.1773Y-3.9683
X5.187Y-3.5335
X5.187Y-4.439
X5.1925Y-4.0325
X5.2033Y-2.384
X5.2165Y-3.3071
X5.2264Y-2.8346
X5.2336Y-4.2648
X5.2362Y-2.5984
X5.2362Y-5.4921
X5.2362Y-5.5315
X5.2704Y-2.8423
X5.2799Y-3.3082
X5.2854Y-2.5197
X5.2854Y-2.9429
X5.289Y-4.2479
X5.2953Y-6.1368
X5.305Y-4.9607
X5.3135Y-3.6431
X5.32Y-3.68
X5.3248Y-3.3071
X5.3351Y-3.8154
X5.3425Y-4.186
X5.3445Y-3.7205
X5.3467Y-4.0804
X5.3543Y-3.75
X5.3544Y-3.9
X5.36Y-3.305
X5.3642Y-3.0512
X5.3642Y-4.0551
X5.3659Y-3.7889
X5.3682Y-5.2606
X5.3682Y-5.3
X5.3682Y-5.3393
X5.3805Y-3.4105
X5.3839Y-5.047
X5.3839Y-6.0925
X5.3845Y-4.4781
X5.3937Y-2.7756
X5.3937Y-6.1811
X5.3939Y-4.4124
X5.3952Y-3.8202
X5.4Y-4.0566
X5.4017Y-3.8513
X5.4035Y-4.498
X5.4076Y-5.2606
X5.4076Y-5.3
X5.4076Y-5.3393
X5.4094Y-2.8612
X5.4134Y-2.2933
X5.4395Y-3.4105
X5.44Y-3.305
X5.4419Y-3.6112
X5.4448Y-4.4521
X5.447Y-5.2606
X5.447Y-5.3
X5.447Y-5.3393
X5.4617Y-4.0166
X5.465Y-5.0468
X5.4823Y-3.6024
X5.4837Y-6.0783
X5.4863Y-5.2606
X5.4863Y-5.3
X5.4863Y-5.3393
X5.5118Y-2.6969
X5.5118Y-6.3681
X5.5182Y-4.7454
X5.5254Y-4.0686
X5.5257Y-5.2606
X5.5257Y-5.3
X5.5257Y-5.3393
X5.527Y-4.4124
X5.5396Y-4.3496
X5.5413Y-5.0394
X5.5491Y-3.5909
X5.56Y-2.9439
X5.56Y-3.3061
X5.5605Y-3.4105
X5.561Y-4.7277
X5.564Y-3.8287
X5.5651Y-5.2606
X5.5651Y-5.3
X5.5651Y-5.3393
X5.5663Y-4.0135
X5.5688Y-3.6463
X5.5699Y-2.4504
X5.5724Y-4.2439
X5.5739Y-3.6734
X5.5807Y-6.1811
X5.5906Y-3.8091
X5.5967Y-3.6184
X5.6008Y-3.7808
X5.6041Y-3.8792
X5.6045Y-4.6545
X5.6102Y-3.2972
X5.6146Y-5.135
X5.6195Y-3.4105
X5.6201Y-3.0315
X5.6215Y-3.5945
X5.6219Y-3.7502
X5.6228Y-4.9892
X5.6239Y-3.6227
X5.6309Y-3.9987
X5.631Y-4.027
X5.6337Y-3.9147
X5.6426Y-3.7717
X5.6554Y-4.2039
X5.6595Y-3.5915
X5.6633Y-4.0602
X5.6693Y-3.4843
X5.6791Y-6.125
X5.68Y-3.3062
X5.68Y-2.9298
X5.6802Y-3.877
X5.6805Y-3.4105
X5.6805Y-3.9793
X5.6874Y-4.2523
X5.7087Y-3.6044
X5.7116Y-4.6526
X5.7185Y-3.9567
X5.7283Y-3.0246
X5.7336Y-2.8553
X5.7382Y-3.3268
X5.7475Y-4.3326
X5.7622Y-3.7716
X5.7716Y-4.7571
X5.772Y-3.3169
X5.7723Y-4.2119
X5.7868Y-6.1815
X5.7972Y-3.2972
X5.7972Y-3.8091
X5.7974Y-3.76
X5.7982Y-3.6023
X5.7987Y-3.8991
X5.8071Y-2.2933
X5.8071Y-3.8681
X5.8168Y-4.7438
X5.821Y-5.2606
X5.821Y-5.3
X5.821Y-5.3393
X5.8329Y-3.2984
X5.8465Y-3.0315
X5.8468Y-5.0423
X5.8604Y-5.2606
X5.8604Y-5.3
X5.8604Y-5.3393
X5.8661Y-4.3307
X5.876Y-3.2972
X5.8905Y-4.1195
X5.8996Y-6.1161
X5.8997Y-5.2606
X5.8997Y-5.3
X5.8997Y-5.3393
X5.9055Y-6.3681
X5.9154Y-3.0512
X5.9212Y-3.3092
X5.9252Y-5.047
X5.9391Y-5.2606
X5.9391Y-5.3
X5.9391Y-5.3393
X5.9449Y-2.7657
X5.9495Y-4.3018
X5.9497Y-4.6603
X5.9602Y-4.7648
X5.9775Y-4.0605
X5.9785Y-5.2606
X5.9785Y-5.3
X5.9785Y-5.3393
X5.9895Y-3.8179
X5.99Y-3.76
X6.Y-3.305
X6.0001Y-4.1083
X6.0039Y-3.0413
X6.0049Y-5.0461
X6.0178Y-5.2606
X6.0178Y-5.3
X6.0178Y-5.3393
X6.0179Y-4.1512
X6.0302Y-4.3406
X6.0332Y-4.9636
X6.0433Y-2.9134
X6.0433Y-3.0413
X6.0673Y-4.9633
X6.0726Y-4.7007
X6.0728Y-5.128
X6.08Y-3.3041
X6.0834Y-3.9695
X6.0897Y-3.5708
X6.0905Y-3.3711
X6.0906Y-3.4409
X6.0908Y-3.511
X6.0925Y-3.6417
X6.0925Y-3.75
X6.0925Y-4.0748
X6.0928Y-3.8573
X6.1048Y-4.9865
X6.1189Y-5.1187
X6.122Y-5.1476
X6.123Y-5.0644
X6.1417Y-4.9537
X6.1459Y-3.086
X6.1461Y-5.0795
X6.1497Y-4.33
X6.1594Y-3.2299
X6.1614Y-5.4724
X6.168Y-3.1332
X6.1702Y-2.9712
X6.1764Y-5.0997
X6.1897Y-3.2091
X6.1936Y-5.0262
X6.1936Y-5.0537
X6.1953Y-4.6811
X6.2003Y-5.4723
X6.2008Y-2.2933
X6.2116Y-3.2338
X6.2303Y-4.3307
X6.2307Y-4.4507
X6.2402Y-4.1437
X6.2598Y-4.626
X6.2884Y-2.8926
X6.2957Y-3.2419
X6.2992Y-6.3681
X6.3057Y-2.7941
X6.3091Y-4.626
X6.3287Y-3.8976
X6.3287Y-4.3307
X6.3317Y-4.5014
X6.3333Y-2.7969
X6.3373Y-3.2972
X6.3484Y-3.5138
X6.3486Y-3.5726
X6.3487Y-3.6447
X6.3529Y-2.9144
X6.3553Y-3.435
X6.3563Y-4.0212
X6.3681Y-4.7047
X6.3681Y-5.1772
X6.3681Y-5.2067
X6.3681Y-5.2362
X6.3681Y-5.2657
X6.3681Y-5.2953
X6.3681Y-5.3248
X6.3681Y-5.3543
X6.4075Y-5.2657
X6.4075Y-5.2953
X6.4075Y-5.3248
X6.4075Y-5.3543
X6.4469Y-3.75
X6.451Y-3.9687
X6.4567Y-3.8583
X6.4636Y-4.98
X6.4764Y-6.2008
X6.4817Y-4.7648
X6.4961Y-6.2402
X6.5019Y-2.9937
X6.513Y-4.2224
X6.522Y-4.0408
X6.5232Y-4.7648
X6.5373Y-3.3587
X6.548Y-4.7526
X6.5527Y-4.7195
X6.5748Y-5.9606
X6.5846Y-5.2657
X6.5846Y-5.2953
X6.5846Y-5.3248
X6.5846Y-5.3543
X6.5856Y-4.6949
X6.5945Y-2.2933
X6.602Y-4.6639
X6.6043Y-5.748
X6.6053Y-5.7195
X6.6054Y-5.098
X6.6132Y-4.6891
X6.6207Y-4.6342
X6.6211Y-5.1766
X6.6211Y-5.2062
X6.6211Y-5.2357
X6.6211Y-5.2652
X6.6211Y-5.2953
X6.6211Y-5.3248
X6.6211Y-5.3543
X6.624Y-6.1417
X6.6309Y-4.9718
X6.6473Y-4.6731
X6.6525Y-4.5581
X6.6535Y-4.7146
X6.664Y-5.0327
X6.6709Y-4.5365
X6.6756Y-5.061
X6.6762Y-3.8251
X6.6917Y-5.0914
X6.6929Y-6.3681
X6.6989Y-4.9936
X6.7116Y-4.2801
X6.7126Y-5.0394
X6.716Y-4.9411
X6.7224Y-5.0098
X6.7339Y-4.2511
X6.7438Y-4.9616
X6.7717Y-3.5581
X6.7717Y-3.6909
X6.7819Y-4.8297
X6.811Y-6.1713
X6.8209Y-2.8543
X6.8268Y-3.8953
X6.8452Y-5.1337
X6.8452Y-5.1731
X6.8452Y-5.2125
X6.8452Y-5.2519
X6.8452Y-5.2912
X6.8452Y-5.3306
X6.8541Y-4.8487
X6.8568Y-4.7044
X6.8701Y-5.7579
X6.8846Y-5.1337
X6.8846Y-5.1731
X6.8846Y-5.2125
X6.8846Y-5.2519
X6.8846Y-5.2912
X6.8846Y-5.3306
X6.8894Y-4.7044
X6.8898Y-4.4882
X6.8996Y-6.1024
X6.9094Y-3.4744
X6.9094Y-5.7579
X6.919Y-4.7044
X6.924Y-5.1337
X6.924Y-5.1731
X6.924Y-5.2125
X6.924Y-5.2519
X6.924Y-5.2912
X6.924Y-5.3306
X6.9275Y-3.3645
X6.9478Y-4.8206
X6.9561Y-4.278
X6.9633Y-5.1337
X6.9633Y-5.1731
X6.9633Y-5.2125
X6.9633Y-5.2519
X6.9633Y-5.2912
X6.9633Y-5.3306
X6.9783Y-3.3661
X6.9796Y-4.9733
X6.9882Y-2.2933
X6.9957Y-3.6
X7.0027Y-5.1337
X7.0027Y-5.1731
X7.0027Y-5.2125
X7.0027Y-5.2519
X7.0027Y-5.2912
X7.0027Y-5.3306
X7.0177Y-4.8228
X7.0276Y-6.2205
X7.0421Y-5.1337
X7.0421Y-5.1731
X7.0421Y-5.2125
X7.0421Y-5.2519
X7.0421Y-5.2912
X7.0421Y-5.3306
X7.0472Y-5.7677
X7.0472Y-6.0531
X7.0661Y-4.278
X7.0815Y-5.1337
X7.0815Y-5.1731
X7.0815Y-5.2125
X7.0815Y-5.2519
X7.0815Y-5.2912
X7.0815Y-5.3306
X7.0861Y-4.208
X7.0866Y-5.7677
X7.0866Y-6.3681
X7.09Y-3.7072
X7.0965Y-4.8327
X7.1053Y-4.5079
X7.1208Y-5.1337
X7.1208Y-5.1731
X7.1208Y-5.2125
X7.1208Y-5.2519
X7.1208Y-5.2912
X7.1208Y-5.3306
X7.1361Y-4.1046
X7.1602Y-5.1337
X7.1602Y-5.1731
X7.1602Y-5.2125
X7.1602Y-5.2519
X7.1602Y-5.2912
X7.1602Y-5.3306
X7.1651Y-3.7405
X7.1653Y-3.8141
X7.1654Y-3.7776
X7.1659Y-4.4887
X7.1722Y-4.8356
X7.1798Y-5.0983
X7.2047Y-4.2323
X7.2343Y-5.7677
X7.2441Y-4.8228
X7.2736Y-5.7677
X7.2835Y-4.8228
X7.2933Y-4.0059
X7.2937Y-4.1135
X7.4311Y-2.2933
X7.4311Y-2.6575
X7.4311Y-3.0512
X7.4311Y-3.4449
X7.4311Y-3.8386
X7.4311Y-4.2323
X7.4311Y-4.5276
X7.4311Y-4.9213
X7.4311Y-5.315
X7.4311Y-5.7087
X7.4311Y-6.1024
X7.4311Y-6.3681
T2
X3.6833Y-4.3569
X3.6833Y-4.3884
X3.6833Y-4.4199
X3.6833Y-4.4514
X3.7305Y-4.3569
X3.7305Y-4.3884
X3.7305Y-4.4199
X3.7305Y-4.4514
X6.4508Y-5.2874
X6.4508Y-5.3346
X6.4823Y-5.2874
X6.4823Y-5.3346
X6.5138Y-5.2874
X6.5138Y-5.3346
X6.5453Y-5.2874
X6.5453Y-5.3346
T3
X1.5591Y-2.5197
X1.5591Y-6.1417
X1.5867Y-2.4529
X1.5867Y-2.5865
X1.5867Y-6.0749
X1.5867Y-6.2085
X1.6535Y-2.4252
X1.6535Y-2.6142
X1.6535Y-6.0472
X1.6535Y-6.2362
X1.7204Y-2.4529
X1.7204Y-2.5865
X1.7204Y-6.0749
X1.7204Y-6.2085
X1.748Y-2.5197
X1.748Y-6.1417
X4.2953Y-3.6417
X4.323Y-3.5749
X4.323Y-3.7085
X4.3898Y-3.5472
X4.3898Y-3.7362
X4.4566Y-3.5749
X4.4566Y-3.7085
X4.4843Y-3.6417
X7.1102Y-2.5197
X7.1102Y-6.1417
X7.1379Y-2.4529
X7.1379Y-2.5865
X7.1379Y-6.0749
X7.1379Y-6.2085
X7.2047Y-2.4252
X7.2047Y-2.6142
X7.2047Y-6.0472
X7.2047Y-6.2362
X7.2715Y-2.4529
X7.2715Y-2.5865
X7.2715Y-6.0749
X7.2715Y-6.2085
X7.2992Y-2.5197
X7.2992Y-6.1417
T6
X2.7402Y-5.8913
X2.8402Y-5.8913
X2.9402Y-5.8913
X3.0402Y-5.8913
X3.1402Y-5.8913
X3.2402Y-5.8913
X3.3402Y-5.8913
X3.4402Y-5.8913
X3.5402Y-5.8913
X3.6402Y-5.8913
X4.037Y-5.9236
X4.037Y-6.0236
X4.137Y-5.9236
X4.137Y-6.0236
X4.237Y-5.9236
X4.237Y-6.0236
X4.337Y-5.9236
X4.337Y-6.0236
X4.437Y-5.9236
X4.437Y-6.0236
X4.537Y-5.9236
X4.537Y-6.0236
X4.637Y-5.9236
X4.637Y-6.0236
X4.737Y-5.9236
X4.737Y-6.0236
X4.837Y-5.9236
X4.837Y-6.0236
X4.937Y-5.9236
X4.937Y-6.0236
X5.3362Y-5.9236
X5.3362Y-6.0236
X5.4362Y-5.9236
X5.4362Y-6.0236
X5.5362Y-5.9236
X5.5362Y-6.0236
X5.6362Y-5.9236
X5.6362Y-6.0236
X5.7362Y-5.9236
X5.7362Y-6.0236
X5.8362Y-5.9236
X5.8362Y-6.0236
X5.9362Y-5.9236
X5.9362Y-6.0236
X6.0362Y-5.9236
X6.0362Y-6.0236
X6.1362Y-5.9236
X6.1362Y-6.0236
X6.2173Y-2.6969
X6.2362Y-5.9236
X6.2362Y-6.0236
X6.3173Y-2.6969
X6.4173Y-2.6969
X6.5173Y-2.6969
X6.6173Y-2.6969
X6.7173Y-2.6969
T7
X2.8348Y-6.0882
X2.9254Y-6.0882
X3.0415Y-6.0882
X3.1321Y-6.0882
X3.2482Y-6.0882
X3.3388Y-6.0882
X3.4549Y-6.0882
X3.5455Y-6.0882
T8
X1.5622Y-3.5031
X1.5622Y-3.7
X1.5748Y-2.7559
X1.5748Y-2.9528
X1.8378Y-3.5031
X1.8378Y-3.7
X1.8504Y-2.7559
X1.8504Y-2.9528
X6.9685Y-2.8445
X6.9685Y-3.0413
X7.2441Y-2.8445
X7.2441Y-3.0413
T9
X2.6402Y-6.2205
X3.7402Y-6.2205
X3.937Y-6.2205
X5.037Y-6.2205
X5.2362Y-6.2205
X6.3362Y-6.2205
T10
X1.6535Y-2.5197
X1.6535Y-6.1417
X4.3898Y-3.6417
X7.2047Y-2.5197
X7.2047Y-6.1417
T4
X7.1479Y-3.3094G85X7.1321Y-3.3094
G05
X7.1479Y-3.5G85X7.1321Y-3.5
G05
T5
X7.268Y-3.2972G85X7.2483Y-3.2972
G05
X7.268Y-3.5122G85X7.2483Y-3.5122
G05
T0
M30
