M48
;DRILL file {KiCad 4.0.7} date 02/09/18 23:36:36
;FORMAT={-:-/ absolute / metric / decimal}
FMAT,2
METRIC,TZ
T1C0.250
T2C0.300
T3C0.500
T4C1.000
T5C1.200
T6C1.800
T7C2.600
T8C3.200
%
G90
G05
M71
T1
X-5.757Y97.743
X-5.757Y88.493
X-5.757Y78.5
X-5.75Y66.
X-5.75Y56.
X-5.75Y46.
X-5.75Y36.
X-5.75Y26.
X-5.75Y16.
X-5.75Y6.
X-5.75Y-5.75
X-3.787Y53.882
X-3.766Y54.835
X-3.766Y55.852
X-3.75Y56.75
X-0.418Y76.993
X-0.4Y74.005
X0.5Y77.
X0.5Y75.5
X0.5Y74.
X4.228Y48.978
X4.25Y33.
X5.489Y-2.479
X5.493Y97.743
X5.498Y-1.454
X5.5Y-0.5
X5.5Y-3.5
X6.25Y32.5
X6.26Y48.74
X6.374Y23.16
X6.41Y39.16
X7.Y37.1
X7.245Y86.23
X7.245Y85.238
X7.245Y84.258
X7.245Y83.255
X7.25Y90.25
X7.25Y89.25
X7.25Y88.25
X7.25Y87.25
X7.25Y82.25
X7.7Y48.8
X7.974Y31.828
X8.Y-5.75
X8.245Y83.255
X8.25Y90.25
X8.25Y89.25
X8.25Y82.25
X8.25Y53.5
X9.Y14.5
X9.1Y33.1
X9.181Y43.605
X9.181Y42.605
X9.181Y41.605
X9.181Y40.605
X9.181Y39.605
X9.181Y38.605
X9.181Y37.605
X9.181Y36.605
X9.181Y35.605
X9.181Y34.605
X9.181Y27.603
X9.181Y26.603
X9.181Y25.603
X9.181Y24.603
X9.181Y23.603
X9.181Y22.603
X9.181Y21.603
X9.181Y20.603
X9.181Y19.603
X9.181Y18.603
X9.242Y90.241
X9.245Y83.255
X9.25Y89.25
X9.25Y82.25
X9.25Y48.5
X9.404Y87.718
X9.404Y86.718
X9.404Y85.718
X9.404Y84.718
X9.5Y63.
X9.5Y57.
X10.096Y69.654
X10.096Y68.654
X10.096Y67.654
X10.096Y66.654
X10.096Y61.454
X10.096Y60.454
X10.096Y59.454
X10.096Y58.454
X10.178Y43.63
X10.181Y42.605
X10.181Y41.605
X10.181Y40.605
X10.181Y39.605
X10.181Y38.605
X10.181Y37.605
X10.181Y36.605
X10.181Y35.605
X10.181Y34.605
X10.181Y27.603
X10.181Y26.603
X10.181Y25.603
X10.181Y24.603
X10.181Y23.603
X10.181Y22.603
X10.181Y21.603
X10.181Y20.603
X10.181Y19.603
X10.181Y18.603
X10.25Y90.25
X10.25Y89.25
X10.25Y83.25
X10.25Y82.25
X10.25Y72.
X10.25Y71.
X10.25Y14.5
X10.404Y87.718
X10.404Y86.718
X10.404Y85.718
X10.404Y84.718
X10.5Y30.25
X11.096Y69.654
X11.096Y68.654
X11.096Y67.654
X11.096Y66.654
X11.096Y61.454
X11.096Y60.454
X11.096Y59.454
X11.096Y58.454
X11.181Y42.605
X11.181Y41.605
X11.181Y40.605
X11.181Y39.605
X11.181Y38.605
X11.181Y37.605
X11.181Y36.605
X11.181Y35.605
X11.181Y34.605
X11.181Y27.603
X11.181Y26.603
X11.181Y25.603
X11.181Y24.603
X11.181Y23.603
X11.181Y22.603
X11.181Y21.603
X11.181Y20.603
X11.181Y19.603
X11.181Y18.603
X11.203Y43.65
X11.25Y90.25
X11.25Y89.25
X11.25Y83.25
X11.25Y82.25
X11.25Y72.
X11.25Y71.
X11.25Y64.5
X11.25Y63.5
X11.25Y57.
X11.25Y56.
X11.404Y87.718
X11.404Y86.718
X11.404Y85.718
X11.404Y84.718
X11.5Y14.5
X12.096Y69.654
X12.096Y68.654
X12.096Y67.654
X12.096Y66.654
X12.096Y61.454
X12.096Y60.454
X12.096Y59.454
X12.096Y58.454
X12.181Y43.65
X12.181Y42.605
X12.181Y41.605
X12.181Y40.605
X12.181Y39.605
X12.181Y38.605
X12.181Y37.605
X12.181Y36.605
X12.181Y35.605
X12.181Y34.605
X12.181Y27.603
X12.181Y26.603
X12.181Y25.603
X12.181Y24.603
X12.181Y23.603
X12.181Y22.603
X12.181Y21.603
X12.181Y20.603
X12.181Y19.603
X12.181Y18.603
X12.25Y90.25
X12.25Y89.25
X12.25Y83.25
X12.25Y82.25
X12.25Y72.
X12.25Y71.
X12.25Y64.5
X12.25Y63.5
X12.25Y57.
X12.25Y56.
X12.404Y87.718
X12.404Y86.718
X12.404Y85.718
X12.404Y84.718
X12.943Y52.009
X13.Y47.
X13.Y46.
X13.Y14.5
X13.096Y69.654
X13.096Y68.654
X13.096Y67.654
X13.096Y66.654
X13.096Y61.454
X13.096Y60.454
X13.096Y59.454
X13.096Y58.454
X13.181Y43.65
X13.181Y42.605
X13.181Y41.605
X13.181Y40.605
X13.181Y39.605
X13.181Y38.605
X13.181Y37.605
X13.181Y36.605
X13.181Y35.605
X13.181Y34.605
X13.181Y27.603
X13.181Y26.603
X13.181Y25.603
X13.181Y24.603
X13.181Y23.603
X13.181Y22.603
X13.181Y21.603
X13.181Y20.603
X13.181Y19.603
X13.181Y18.603
X13.25Y72.
X13.25Y71.
X13.25Y64.5
X13.25Y63.5
X13.25Y57.
X13.25Y56.
X14.181Y43.65
X14.181Y42.605
X14.181Y41.605
X14.181Y40.605
X14.181Y39.605
X14.181Y38.605
X14.181Y37.605
X14.181Y36.605
X14.181Y35.605
X14.181Y34.605
X14.181Y27.603
X14.181Y26.603
X14.181Y25.603
X14.181Y24.603
X14.181Y23.603
X14.181Y22.603
X14.181Y21.603
X14.181Y20.603
X14.181Y19.603
X14.181Y18.603
X14.25Y72.
X14.25Y71.
X14.25Y64.5
X14.25Y63.5
X14.25Y57.
X14.25Y56.
X14.25Y14.5
X15.181Y43.65
X15.181Y42.605
X15.181Y41.605
X15.181Y40.605
X15.181Y39.605
X15.181Y38.605
X15.181Y37.605
X15.181Y36.605
X15.181Y35.605
X15.181Y34.605
X15.181Y27.603
X15.181Y26.603
X15.181Y25.603
X15.181Y24.603
X15.181Y23.603
X15.181Y22.603
X15.181Y21.603
X15.181Y20.603
X15.181Y19.603
X15.181Y18.603
X15.25Y72.
X15.25Y71.
X15.25Y70.
X15.25Y69.
X15.25Y68.
X15.25Y67.
X15.25Y66.
X15.25Y65.
X15.25Y64.
X15.25Y63.
X15.25Y62.
X15.25Y61.
X15.25Y60.
X15.25Y59.
X15.25Y58.
X15.25Y57.
X15.25Y56.
X15.493Y97.743
X15.5Y14.5
X16.181Y43.65
X16.181Y42.605
X16.181Y41.605
X16.181Y40.605
X16.181Y39.605
X16.181Y38.605
X16.181Y37.605
X16.181Y36.605
X16.181Y35.605
X16.181Y34.605
X16.181Y27.603
X16.181Y26.603
X16.181Y25.603
X16.181Y24.603
X16.181Y23.603
X16.181Y22.603
X16.181Y21.603
X16.181Y20.603
X16.181Y19.603
X16.181Y18.603
X17.Y14.5
X17.436Y54.051
X18.Y-5.75
X18.027Y51.406
X18.25Y76.5
X18.25Y14.5
X19.048Y75.548
X19.25Y76.5
X19.25Y14.5
X19.589Y49.474
X20.23Y72.579
X21.405Y30.181
X21.577Y53.468
X21.96Y54.627
X22.103Y22.381
X22.103Y21.381
X22.103Y20.381
X22.25Y72.25
X22.25Y1.75
X22.5Y26.
X22.888Y77.792
X23.103Y22.381
X23.103Y21.381
X23.103Y20.381
X23.5Y46.75
X23.5Y45.75
X23.5Y40.5
X23.5Y39.5
X23.545Y53.709
X24.103Y22.381
X24.103Y21.381
X24.103Y20.381
X24.643Y26.139
X24.744Y45.738
X24.75Y46.75
X24.75Y40.5
X24.75Y39.5
X25.103Y22.381
X25.103Y21.381
X25.103Y20.381
X25.369Y66.353
X25.369Y65.353
X25.369Y64.353
X25.369Y63.353
X25.369Y62.353
X25.369Y61.353
X25.5Y97.75
X25.631Y30.026
X25.869Y88.603
X25.869Y87.603
X25.869Y86.603
X25.869Y85.603
X25.869Y84.603
X25.869Y83.603
X26.Y46.75
X26.Y40.5
X26.Y39.5
X26.017Y45.767
X26.103Y22.381
X26.103Y21.381
X26.103Y20.381
X26.369Y66.353
X26.369Y65.353
X26.369Y64.353
X26.369Y63.353
X26.369Y62.353
X26.369Y61.353
X26.75Y26.
X26.869Y88.603
X26.869Y87.603
X26.869Y86.603
X26.869Y85.603
X26.869Y84.603
X26.869Y83.603
X27.103Y22.381
X27.103Y21.381
X27.103Y20.381
X27.369Y66.353
X27.369Y65.353
X27.369Y64.353
X27.369Y63.353
X27.369Y62.353
X27.369Y61.353
X27.749Y73.588
X27.869Y88.603
X27.869Y87.603
X27.869Y86.603
X27.869Y85.603
X27.869Y84.603
X27.869Y83.603
X28.Y-5.75
X28.5Y75.
X29.554Y24.239
X29.715Y30.048
X29.754Y75.281
X31.25Y51.5
X31.25Y50.5
X31.25Y35.75
X31.25Y34.75
X31.5Y81.5
X32.Y76.5
X32.381Y30.19
X32.74Y50.499
X32.74Y34.749
X32.75Y51.5
X32.75Y35.75
X32.96Y70.53
X33.103Y22.381
X33.103Y21.381
X33.103Y20.381
X33.5Y26.
X34.099Y50.515
X34.099Y34.765
X34.103Y22.381
X34.103Y21.381
X34.103Y20.381
X34.112Y51.524
X34.112Y35.774
X35.103Y22.381
X35.103Y21.381
X35.103Y20.381
X35.5Y97.75
X35.558Y78.894
X35.596Y26.025
X35.63Y77.37
X35.879Y82.665
X36.103Y22.381
X36.103Y21.381
X36.103Y20.381
X36.4Y74.
X36.55Y30.026
X37.007Y72.137
X37.103Y22.381
X37.103Y21.381
X37.103Y20.381
X37.75Y26.
X38.Y76.
X38.Y-5.75
X38.103Y22.381
X38.103Y21.381
X38.103Y20.381
X39.324Y72.8
X39.5Y81.75
X40.431Y24.252
X40.514Y30.196
X40.75Y80.
X42.273Y75.174
X42.325Y81.325
X43.432Y30.054
X44.Y82.75
X44.103Y22.381
X44.103Y21.381
X44.103Y20.381
X44.5Y26.
X44.75Y78.
X45.Y84.5
X45.103Y22.381
X45.103Y21.381
X45.103Y20.381
X45.5Y97.75
X46.Y49.75
X46.Y48.75
X46.Y47.75
X46.103Y22.381
X46.103Y21.381
X46.103Y20.381
X46.684Y25.973
X46.75Y89.75
X47.Y49.75
X47.Y48.75
X47.Y47.75
X47.103Y22.381
X47.103Y21.381
X47.103Y20.381
X47.5Y91.
X47.656Y30.026
X47.75Y75.25
X47.75Y74.25
X47.75Y63.25
X47.788Y62.25
X47.8Y46.1
X48.Y49.75
X48.Y48.75
X48.Y47.75
X48.Y-5.75
X48.103Y22.381
X48.103Y21.381
X48.103Y20.381
X48.75Y63.25
X48.75Y62.25
X48.79Y25.998
X49.Y49.75
X49.Y48.75
X49.Y47.75
X49.103Y22.381
X49.103Y21.381
X49.103Y20.381
X50.Y49.75
X50.Y48.75
X50.Y47.75
X50.25Y71.25
X51.Y49.75
X51.Y48.75
X51.Y47.75
X51.Y41.
X51.Y40.
X51.482Y24.196
X51.487Y30.914
X52.Y41.
X52.Y40.
X52.369Y50.241
X53.Y61.5
X53.Y41.
X53.Y40.
X53.985Y88.294
X54.Y41.
X54.Y40.
X54.487Y80.637
X55.126Y41.045
X55.5Y97.75
X55.5Y33.4
X55.975Y78.881
X56.83Y90.129
X57.252Y55.216
X57.369Y25.853
X57.369Y24.853
X57.369Y23.853
X57.369Y22.853
X57.369Y21.853
X57.369Y20.853
X57.5Y33.5
X57.796Y89.727
X58.Y-5.75
X58.29Y55.2
X58.369Y25.853
X58.369Y24.853
X58.369Y23.853
X58.369Y22.853
X58.369Y21.853
X58.369Y20.853
X59.369Y24.85
X59.369Y23.853
X59.369Y22.853
X59.369Y21.853
X59.369Y20.853
X59.393Y55.2
X59.4Y25.8
X59.5Y33.6
X59.561Y62.891
X60.369Y25.853
X60.369Y24.853
X60.369Y23.853
X60.369Y22.853
X60.369Y21.853
X60.369Y20.853
X60.568Y55.184
X61.263Y80.106
X61.369Y25.853
X61.369Y24.853
X61.369Y23.853
X61.369Y22.853
X61.369Y21.853
X61.369Y20.853
X61.5Y33.6
X61.712Y55.152
X61.75Y78.
X62.Y9.
X62.Y7.5
X62.Y-0.5
X62.369Y25.853
X62.369Y24.853
X62.369Y23.853
X62.369Y22.853
X62.369Y21.853
X62.369Y20.853
X62.5Y44.836
X62.5Y86.25
X62.532Y87.468
X62.533Y72.74
X62.766Y55.152
X62.787Y80.106
X63.369Y25.853
X63.369Y24.853
X63.369Y23.853
X63.369Y22.853
X63.369Y21.853
X63.369Y20.853
X63.5Y33.7
X63.926Y1.074
X64.532Y8.968
X64.61Y-0.74
X64.68Y25.664
X64.75Y7.5
X64.803Y92.777
X65.5Y97.75
X65.5Y33.7
X65.888Y45.864
X65.917Y46.965
X65.996Y48.008
X66.019Y48.957
X66.111Y37.105
X66.25Y87.75
X66.287Y38.053
X66.3Y84.6
X66.438Y39.017
X66.503Y40.999
X66.579Y40.052
X66.608Y41.943
X66.863Y0.779
X67.Y9.
X67.032Y-0.753
X67.042Y43.694
X67.115Y42.746
X67.137Y45.588
X67.143Y44.638
X67.25Y7.5
X68.Y93.85
X68.Y89.75
X68.Y-5.75
X68.25Y19.25
X68.718Y30.5
X68.882Y78.864
X69.181Y32.514
X69.25Y19.25
X69.441Y0.77
X69.5Y28.25
X69.5Y27.25
X69.5Y26.2
X69.5Y9.
X69.6Y-0.78
X69.75Y7.5
X70.18Y30.5
X70.25Y87.75
X70.5Y28.247
X70.5Y27.25
X70.5Y26.2
X70.75Y19.25
X71.75Y19.25
X71.99Y0.752
X72.Y9.
X72.101Y-0.767
X72.25Y7.5
X72.392Y29.531
X72.392Y28.206
X73.218Y29.531
X73.218Y28.206
X73.246Y79.897
X73.25Y19.25
X73.732Y70.178
X74.25Y19.25
X74.352Y44.056
X74.393Y42.216
X74.393Y39.364
X74.403Y45.538
X74.479Y35.769
X74.5Y9.
X74.641Y0.702
X74.723Y-0.753
X74.75Y7.5
X75.1Y94.
X75.5Y97.75
X75.75Y79.25
X75.75Y66.
X75.75Y19.25
X76.Y94.75
X76.243Y64.246
X76.5Y78.25
X76.75Y75.5
X76.75Y66.
X76.75Y19.25
X76.883Y0.727
X77.Y9.
X77.238Y-0.759
X77.25Y7.5
X77.532Y80.218
X78.Y-5.75
X78.25Y19.25
X79.134Y51.683
X79.148Y49.779
X79.176Y48.785
X79.176Y46.798
X79.192Y50.728
X79.205Y47.792
X79.209Y43.121
X79.217Y41.171
X79.228Y38.09
X79.239Y40.174
X79.25Y19.25
X79.25Y16.5
X79.25Y15.5
X79.4Y62.6
X79.5Y9.
X79.75Y7.5
X80.Y0.25
X80.1Y30.3
X80.758Y64.258
X81.2Y65.1
X81.343Y81.157
X81.758Y64.258
X82.Y9.
X82.Y7.5
X82.25Y43.35
X82.603Y22.381
X82.603Y21.381
X82.603Y20.381
X82.758Y64.258
X82.9Y81.157
X82.954Y72.
X83.Y38.
X83.Y26.
X83.25Y43.35
X83.603Y22.381
X83.603Y21.381
X83.603Y20.381
X83.758Y64.258
X84.2Y77.209
X84.25Y43.35
X84.5Y38.
X84.603Y22.381
X84.603Y21.381
X84.603Y20.381
X84.741Y64.258
X85.1Y29.7
X85.127Y26.25
X85.5Y97.75
X85.5Y83.6
X85.603Y22.381
X85.603Y21.381
X85.603Y20.381
X86.Y88.5
X86.Y81.157
X86.002Y37.997
X86.027Y71.819
X86.603Y22.381
X86.603Y21.381
X86.603Y20.381
X86.9Y84.5
X87.157Y25.841
X87.4Y77.7
X87.497Y38.
X87.603Y22.381
X87.603Y21.381
X87.603Y20.381
X87.75Y43.35
X88.Y86.75
X88.Y-5.75
X88.059Y49.12
X88.1Y30.4
X88.4Y68.
X88.506Y60.7
X88.75Y43.35
X88.807Y49.706
X89.076Y71.796
X89.1Y81.157
X89.14Y54.828
X89.14Y61.75
X89.231Y37.983
X89.318Y56.889
X89.4Y67.3
X89.661Y95.241
X89.741Y52.906
X89.75Y43.35
X89.908Y55.999
X90.005Y24.364
X90.101Y71.227
X91.Y90.
X91.Y16.5
X91.Y15.5
X91.105Y84.019
X91.191Y48.4
X91.4Y30.4
X91.522Y51.675
X92.029Y84.722
X92.1Y81.157
X92.152Y71.792
X92.25Y92.
X92.782Y48.036
X92.838Y49.49
X93.092Y62.082
X93.1Y57.1
X93.2Y52.1
X93.239Y53.051
X93.25Y71.25
X93.436Y59.65
X93.492Y-1.305
X93.759Y62.845
X93.8Y56.2
X94.Y42.8
X94.118Y71.817
X94.2Y44.8
X94.231Y53.769
X94.353Y22.381
X94.353Y21.381
X94.353Y20.381
X94.41Y59.555
X94.455Y52.545
X94.664Y69.374
X94.716Y62.02
X94.75Y26.2
X94.783Y1.861
X94.97Y42.994
X94.995Y83.11
X95.Y44.1
X95.Y-1.
X95.191Y76.504
X95.353Y22.381
X95.353Y21.381
X95.353Y20.381
X95.5Y97.75
X95.9Y59.7
X96.164Y69.374
X96.169Y71.817
X96.353Y22.381
X96.353Y21.381
X96.353Y20.381
X96.8Y29.5
X96.808Y88.3
X96.811Y26.25
X96.906Y45.413
X97.Y59.7
X97.343Y64.138
X97.35Y1.775
X97.353Y22.381
X97.353Y21.381
X97.353Y20.381
X97.587Y86.788
X98.Y-5.75
X98.35Y64.649
X98.353Y22.381
X98.353Y21.381
X98.353Y20.381
X98.71Y47.802
X98.847Y26.1
X99.197Y72.031
X99.2Y63.725
X99.206Y82.133
X99.208Y69.576
X99.353Y22.381
X99.353Y21.381
X99.353Y20.381
X99.7Y30.5
X99.75Y64.603
X99.841Y-1.697
X100.305Y86.677
X100.4Y71.625
X100.455Y46.728
X100.724Y52.276
X100.731Y69.576
X100.837Y82.579
X101.325Y64.174
X101.508Y24.382
X101.53Y53.041
X101.664Y61.821
X102.219Y64.509
X102.25Y46.75
X102.284Y71.948
X102.289Y69.482
X102.297Y59.667
X102.305Y82.115
X102.4Y1.275
X102.805Y53.176
X102.991Y52.13
X103.2Y30.7
X103.4Y82.2
X103.693Y63.969
X103.697Y59.994
X103.755Y71.384
X104.006Y56.104
X104.149Y38.173
X104.3Y64.7
X104.643Y71.762
X104.706Y62.062
X104.75Y59.25
X104.814Y35.948
X104.829Y55.351
X105.144Y82.941
X105.182Y-1.73
X105.276Y46.724
X105.289Y75.129
X105.377Y58.25
X105.5Y97.75
X105.853Y22.381
X105.853Y21.381
X105.853Y20.381
X105.859Y34.322
X106.333Y71.748
X106.454Y26.024
X106.529Y32.808
X106.664Y35.808
X106.75Y70.5
X106.819Y38.149
X106.853Y22.381
X106.853Y21.381
X106.853Y20.381
X107.45Y75.115
X107.6Y1.225
X107.624Y51.364
X107.853Y22.381
X107.853Y21.381
X107.853Y20.381
X108.Y70.
X108.Y-5.75
X108.112Y46.648
X108.35Y71.939
X108.445Y35.089
X108.495Y26.
X108.5Y29.5
X108.513Y34.089
X108.825Y95.375
X108.853Y22.381
X108.853Y21.381
X108.853Y20.381
X109.3Y83.1
X109.416Y76.47
X109.844Y52.764
X109.853Y22.381
X109.853Y21.381
X109.853Y20.381
X110.1Y60.496
X110.229Y58.985
X110.234Y71.066
X110.3Y72.074
X110.5Y26.
X110.557Y29.509
X110.673Y50.4
X110.8Y61.3
X110.853Y22.381
X110.853Y21.381
X110.853Y20.381
X110.964Y46.5
X111.044Y32.103
X112.343Y22.939
X112.432Y72.075
X112.518Y55.175
X112.521Y57.21
X112.679Y65.3
X112.698Y70.374
X112.7Y68.602
X112.707Y66.822
X112.75Y63.51
X112.75Y60.75
X112.783Y52.555
X112.828Y45.26
X113.198Y82.853
X113.474Y87.189
X113.8Y88.9
X113.828Y74.527
X114.4Y89.9
X114.5Y17.
X114.7Y77.
X114.956Y73.629
X115.25Y45.256
X115.4Y17.004
X115.5Y97.75
X115.764Y74.609
X115.872Y71.267
X115.953Y73.133
X116.1Y40.
X116.181Y76.872
X116.5Y50.75
X117.176Y82.25
X117.75Y74.72
X118.Y-5.75
X118.2Y40.1
X118.291Y41.476
X118.756Y71.31
X118.788Y37.932
X118.904Y59.549
X118.996Y82.23
X119.044Y35.902
X119.127Y53.863
X119.3Y66.75
X119.3Y63.5
X119.3Y45.268
X119.578Y35.117
X119.75Y24.
X119.75Y23.
X119.75Y22.
X119.75Y21.
X119.75Y20.
X119.937Y36.65
X119.95Y65.18
X120.099Y68.687
X120.7Y26.8
X120.74Y21.989
X120.75Y21.
X120.75Y20.
X120.796Y28.416
X121.1Y63.8
X121.1Y56.7
X121.7Y60.721
X121.81Y57.986
X121.85Y55.194
X121.897Y37.413
X122.5Y2.2
X122.5Y1.2
X122.5Y-1.5
X122.661Y28.466
X123.243Y85.575
X123.542Y50.778
X123.6Y52.4
X123.771Y48.078
X124.25Y49.25
X124.681Y28.43
X125.195Y41.031
X125.25Y22.
X125.25Y21.
X125.25Y20.
X125.5Y97.75
X125.551Y35.456
X125.605Y61.152
X125.62Y34.406
X125.66Y42.214
X125.775Y10.725
X125.804Y9.786
X126.134Y24.015
X126.15Y23.013
X126.15Y22.
X126.15Y21.
X126.15Y20.
X126.25Y-0.441
X128.Y-5.75
X128.885Y47.291
X128.919Y61.729
X129.187Y30.3
X129.2Y43.1
X130.125Y65.625
X130.471Y45.734
X130.8Y49.425
X130.856Y41.578
X131.Y-0.75
X131.25Y83.5
X131.869Y25.603
X131.869Y24.603
X131.869Y23.603
X131.869Y22.603
X131.869Y21.603
X131.869Y20.603
X131.95Y46.801
X131.953Y36.484
X132.1Y41.9
X132.5Y9.75
X132.869Y25.603
X132.869Y24.603
X132.869Y23.603
X132.869Y22.603
X132.869Y21.603
X132.869Y20.603
X132.992Y36.508
X133.Y57.25
X133.25Y1.
X133.5Y67.75
X133.5Y46.8
X133.5Y9.75
X133.8Y41.9
X133.869Y25.603
X133.869Y24.603
X133.869Y23.603
X133.869Y22.603
X133.869Y21.603
X133.869Y20.603
X133.933Y36.542
X133.958Y70.541
X134.25Y57.25
X134.869Y25.603
X134.869Y24.603
X134.869Y23.603
X134.869Y22.603
X134.869Y21.603
X134.869Y20.603
X135.25Y70.5
X135.283Y29.679
X135.5Y97.75
X135.69Y64.56
X135.869Y25.603
X135.869Y24.603
X135.869Y23.603
X135.869Y22.603
X135.869Y21.603
X135.869Y20.603
X136.5Y-2.
X136.869Y25.603
X136.869Y24.603
X136.869Y23.603
X136.869Y22.603
X136.869Y21.603
X136.869Y20.603
X137.Y9.5
X137.Y2.25
X137.869Y25.603
X137.869Y24.603
X137.869Y23.603
X137.869Y22.603
X137.869Y21.603
X137.869Y20.603
X138.Y9.5
X138.Y-5.75
X138.086Y61.836
X138.869Y25.603
X138.869Y24.603
X138.869Y23.603
X138.869Y22.603
X138.869Y21.603
X138.869Y20.603
X139.869Y25.603
X139.869Y24.603
X139.869Y23.603
X139.869Y22.603
X139.869Y21.603
X139.869Y20.603
X139.995Y60.992
X139.999Y59.123
X140.Y60.05
X140.015Y41.987
X140.367Y26.504
X141.75Y9.5
X142.Y42.25
X142.75Y9.5
X143.Y42.25
X143.5Y53.75
X143.5Y48.75
X144.25Y6.
X146.75Y97.75
X146.75Y88.5
X146.75Y78.5
X146.75Y68.5
X146.75Y58.5
X146.75Y48.5
X146.75Y41.
X146.75Y31.
X146.75Y21.
X146.75Y11.
X146.75Y1.
X146.75Y-5.75
T2
X51.555Y45.334
X51.555Y44.534
X51.555Y43.734
X51.555Y42.934
X52.755Y45.334
X52.755Y44.534
X52.755Y43.734
X52.755Y42.934
X121.85Y21.7
X121.85Y20.5
X122.65Y21.7
X122.65Y20.5
X123.45Y21.7
X123.45Y20.5
X124.25Y21.7
X124.25Y20.5
T3
X-2.4Y92.
X-2.4Y0.
X-1.697Y93.697
X-1.697Y90.303
X-1.697Y1.697
X-1.697Y-1.697
X0.Y94.4
X0.Y89.6
X0.Y2.4
X0.Y-2.4
X1.697Y93.697
X1.697Y90.303
X1.697Y1.697
X1.697Y-1.697
X2.4Y92.
X2.4Y0.
X67.1Y63.5
X67.803Y65.197
X67.803Y61.803
X69.5Y65.9
X69.5Y61.1
X71.197Y65.197
X71.197Y61.803
X71.9Y63.5
X138.6Y92.
X138.6Y0.
X139.303Y93.697
X139.303Y90.303
X139.303Y1.697
X139.303Y-1.697
X141.Y94.4
X141.Y89.6
X141.Y2.4
X141.Y-2.4
X142.697Y93.697
X142.697Y90.303
X142.697Y1.697
X142.697Y-1.697
X143.4Y92.
X143.4Y0.
T4
X27.6Y6.36
X30.14Y6.36
X32.68Y6.36
X35.22Y6.36
X37.76Y6.36
X40.3Y6.36
X42.84Y6.36
X45.38Y6.36
X47.92Y6.36
X50.46Y6.36
X60.54Y5.54
X60.54Y3.
X63.08Y5.54
X63.08Y3.
X65.62Y5.54
X65.62Y3.
X68.16Y5.54
X68.16Y3.
X70.7Y5.54
X70.7Y3.
X73.24Y5.54
X73.24Y3.
X75.78Y5.54
X75.78Y3.
X78.32Y5.54
X78.32Y3.
X80.86Y5.54
X80.86Y3.
X83.4Y5.54
X83.4Y3.
X93.54Y5.54
X93.54Y3.
X96.08Y5.54
X96.08Y3.
X98.62Y5.54
X98.62Y3.
X101.16Y5.54
X101.16Y3.
X103.7Y5.54
X103.7Y3.
X106.24Y5.54
X106.24Y3.
X108.78Y5.54
X108.78Y3.
X111.32Y5.54
X111.32Y3.
X113.86Y5.54
X113.86Y3.
X115.92Y87.5
X116.4Y5.54
X116.4Y3.
X118.46Y87.5
X121.Y87.5
X123.54Y87.5
X126.08Y87.5
X128.62Y87.5
T5
X30.005Y1.36
X32.305Y1.36
X35.255Y1.36
X37.555Y1.36
X40.505Y1.36
X42.805Y1.36
X45.755Y1.36
X48.055Y1.36
T6
X-2.32Y67.02
X-2.32Y62.02
X-2.Y86.
X-2.Y81.
X4.68Y67.02
X4.68Y62.02
X5.Y86.
X5.Y81.
X135.Y83.75
X135.Y78.75
X142.Y83.75
X142.Y78.75
T7
X25.06Y-2.
X53.Y-2.
X58.Y-2.
X85.94Y-2.
X91.Y-2.
X118.94Y-2.
T8
X0.Y92.
X0.Y0.
X69.5Y63.5
X141.Y92.
X141.Y0.
T3
X141.75Y71.95G85X141.75Y72.65
G05
X141.75Y66.35G85X141.75Y67.05
G05
X143.9Y68.95G85X143.9Y70.05
G05
T0
M30
