M48
;DRILL file {KiCad 4.0.7} date 01/18/18 08:30:03
;FORMAT={-:-/ absolute / metric / decimal}
FMAT,2
METRIC,TZ
T1C0.250
T2C0.300
T3C0.500
T4C1.000
T5C1.200
T6C1.800
T7C2.600
T8C3.200
%
G90
G05
M71
T1
X36.243Y-58.257
X36.243Y-67.507
X36.243Y-77.5
X36.25Y-90.
X36.25Y-100.
X36.25Y-110.
X36.25Y-120.
X36.25Y-130.
X36.25Y-140.
X36.25Y-150.
X36.25Y-161.75
X38.25Y-99.25
X38.25Y-100.
X38.25Y-100.75
X38.25Y-101.5
X38.25Y-102.25
X41.75Y-79.
X41.75Y-82.
X42.5Y-79.
X42.5Y-80.5
X42.5Y-82.
X46.228Y-107.022
X46.25Y-123.
X47.493Y-58.257
X47.5Y-156.5
X47.5Y-157.25
X47.5Y-158.
X47.5Y-158.75
X47.5Y-159.5
X48.25Y-123.5
X48.26Y-107.26
X48.374Y-132.84
X48.41Y-116.84
X49.245Y-69.77
X49.245Y-70.762
X49.245Y-71.742
X49.245Y-72.745
X49.25Y-65.75
X49.25Y-66.75
X49.25Y-67.75
X49.25Y-68.75
X49.25Y-73.75
X49.48Y-125.73
X49.75Y-109.25
X50.Y-161.75
X50.245Y-72.745
X50.25Y-65.75
X50.25Y-66.75
X50.25Y-73.75
X50.25Y-102.5
X51.Y-141.5
X51.181Y-112.395
X51.181Y-113.395
X51.181Y-114.395
X51.181Y-115.395
X51.181Y-116.395
X51.181Y-117.395
X51.181Y-118.395
X51.181Y-119.395
X51.181Y-120.395
X51.181Y-121.395
X51.181Y-128.397
X51.181Y-129.397
X51.181Y-130.397
X51.181Y-131.397
X51.181Y-132.397
X51.181Y-133.397
X51.181Y-134.397
X51.181Y-135.397
X51.181Y-136.397
X51.181Y-137.397
X51.242Y-65.759
X51.245Y-72.745
X51.25Y-66.75
X51.25Y-73.75
X51.25Y-107.5
X51.25Y-123.25
X51.404Y-68.282
X51.404Y-69.282
X51.404Y-70.282
X51.404Y-71.282
X51.5Y-93.
X51.5Y-99.
X52.096Y-86.346
X52.096Y-87.346
X52.096Y-88.346
X52.096Y-89.346
X52.096Y-94.546
X52.096Y-95.546
X52.096Y-96.546
X52.096Y-97.546
X52.178Y-112.37
X52.181Y-113.395
X52.181Y-114.395
X52.181Y-115.395
X52.181Y-116.395
X52.181Y-117.395
X52.181Y-118.395
X52.181Y-119.395
X52.181Y-120.395
X52.181Y-121.395
X52.181Y-128.397
X52.181Y-129.397
X52.181Y-130.397
X52.181Y-131.397
X52.181Y-132.397
X52.181Y-133.397
X52.181Y-134.397
X52.181Y-135.397
X52.181Y-136.397
X52.181Y-137.397
X52.25Y-65.75
X52.25Y-66.75
X52.25Y-72.75
X52.25Y-72.75
X52.25Y-73.75
X52.25Y-84.
X52.25Y-85.
X52.25Y-99.
X52.25Y-141.5
X52.404Y-68.282
X52.404Y-69.282
X52.404Y-70.282
X52.404Y-71.282
X52.75Y-109.269
X52.75Y-125.
X53.096Y-86.346
X53.096Y-87.346
X53.096Y-88.346
X53.096Y-89.346
X53.096Y-94.546
X53.096Y-95.546
X53.096Y-96.546
X53.096Y-97.546
X53.181Y-113.395
X53.181Y-114.395
X53.181Y-115.395
X53.181Y-116.395
X53.181Y-117.395
X53.181Y-118.395
X53.181Y-119.395
X53.181Y-120.395
X53.181Y-121.395
X53.181Y-128.397
X53.181Y-129.397
X53.181Y-130.397
X53.181Y-131.397
X53.181Y-132.397
X53.181Y-133.397
X53.181Y-134.397
X53.181Y-135.397
X53.181Y-136.397
X53.181Y-137.397
X53.203Y-112.35
X53.25Y-65.75
X53.25Y-66.75
X53.25Y-72.75
X53.25Y-73.75
X53.25Y-84.
X53.25Y-85.
X53.25Y-91.5
X53.25Y-92.5
X53.25Y-99.
X53.25Y-100.
X53.404Y-68.282
X53.404Y-69.282
X53.404Y-70.282
X53.404Y-71.282
X53.5Y-141.5
X54.096Y-86.346
X54.096Y-87.346
X54.096Y-88.346
X54.096Y-89.346
X54.096Y-94.546
X54.096Y-95.546
X54.096Y-96.546
X54.096Y-97.546
X54.181Y-112.35
X54.181Y-113.395
X54.181Y-114.395
X54.181Y-115.395
X54.181Y-116.395
X54.181Y-117.395
X54.181Y-118.395
X54.181Y-119.395
X54.181Y-120.395
X54.181Y-121.395
X54.181Y-128.397
X54.181Y-129.397
X54.181Y-130.397
X54.181Y-131.397
X54.181Y-132.397
X54.181Y-133.397
X54.181Y-134.397
X54.181Y-135.397
X54.181Y-136.397
X54.181Y-137.397
X54.25Y-65.75
X54.25Y-66.75
X54.25Y-72.75
X54.25Y-73.75
X54.25Y-84.
X54.25Y-85.
X54.25Y-91.5
X54.25Y-92.5
X54.25Y-99.
X54.25Y-100.
X54.404Y-68.282
X54.404Y-69.282
X54.404Y-70.282
X54.404Y-71.282
X54.75Y-103.751
X55.Y-109.
X55.Y-110.
X55.Y-141.5
X55.096Y-86.346
X55.096Y-87.346
X55.096Y-88.346
X55.096Y-89.346
X55.096Y-94.546
X55.096Y-95.546
X55.096Y-96.546
X55.096Y-97.546
X55.181Y-112.35
X55.181Y-113.395
X55.181Y-114.395
X55.181Y-115.395
X55.181Y-116.395
X55.181Y-117.395
X55.181Y-118.395
X55.181Y-119.395
X55.181Y-120.395
X55.181Y-121.395
X55.181Y-128.397
X55.181Y-129.397
X55.181Y-130.397
X55.181Y-131.397
X55.181Y-132.397
X55.181Y-133.397
X55.181Y-134.397
X55.181Y-135.397
X55.181Y-136.397
X55.181Y-137.397
X55.25Y-84.
X55.25Y-85.
X55.25Y-91.5
X55.25Y-92.5
X55.25Y-99.
X55.25Y-100.
X56.181Y-112.35
X56.181Y-113.395
X56.181Y-114.395
X56.181Y-115.395
X56.181Y-116.395
X56.181Y-117.395
X56.181Y-118.395
X56.181Y-119.395
X56.181Y-120.395
X56.181Y-121.395
X56.181Y-128.397
X56.181Y-129.397
X56.181Y-130.397
X56.181Y-131.397
X56.181Y-132.397
X56.181Y-133.397
X56.181Y-134.397
X56.181Y-135.397
X56.181Y-136.397
X56.181Y-137.397
X56.25Y-84.
X56.25Y-85.
X56.25Y-91.5
X56.25Y-92.5
X56.25Y-99.
X56.25Y-100.
X56.25Y-141.5
X57.181Y-112.35
X57.181Y-113.395
X57.181Y-114.395
X57.181Y-115.395
X57.181Y-116.395
X57.181Y-117.395
X57.181Y-118.395
X57.181Y-119.395
X57.181Y-120.395
X57.181Y-121.395
X57.181Y-128.397
X57.181Y-129.397
X57.181Y-130.397
X57.181Y-131.397
X57.181Y-132.397
X57.181Y-133.397
X57.181Y-134.397
X57.181Y-135.397
X57.181Y-136.397
X57.181Y-137.397
X57.25Y-84.
X57.25Y-85.
X57.25Y-86.
X57.25Y-87.
X57.25Y-88.
X57.25Y-89.
X57.25Y-90.
X57.25Y-91.
X57.25Y-92.
X57.25Y-93.
X57.25Y-94.
X57.25Y-95.
X57.25Y-96.
X57.25Y-97.
X57.25Y-98.
X57.25Y-99.
X57.25Y-100.
X57.493Y-58.257
X57.5Y-141.5
X58.181Y-112.35
X58.181Y-113.395
X58.181Y-114.395
X58.181Y-115.395
X58.181Y-116.395
X58.181Y-117.395
X58.181Y-118.395
X58.181Y-119.395
X58.181Y-120.395
X58.181Y-121.395
X58.181Y-128.397
X58.181Y-129.397
X58.181Y-130.397
X58.181Y-131.397
X58.181Y-132.397
X58.181Y-133.397
X58.181Y-134.397
X58.181Y-135.397
X58.181Y-136.397
X58.181Y-137.397
X59.Y-141.5
X59.436Y-101.949
X60.Y-161.75
X60.25Y-79.5
X60.25Y-141.5
X60.374Y-104.306
X61.048Y-80.452
X61.25Y-79.5
X61.25Y-141.5
X61.611Y-106.315
X62.23Y-83.421
X62.611Y-126.611
X63.5Y-102.5
X64.075Y-101.492
X64.103Y-133.619
X64.103Y-134.619
X64.103Y-135.619
X64.25Y-83.75
X64.643Y-126.607
X64.888Y-78.208
X65.103Y-133.619
X65.103Y-134.619
X65.103Y-135.619
X65.5Y-109.25
X65.5Y-110.25
X65.5Y-115.5
X65.5Y-116.5
X65.532Y-101.725
X66.103Y-133.619
X66.103Y-134.619
X66.103Y-135.619
X66.675Y-126.575
X66.744Y-110.262
X66.75Y-109.25
X66.75Y-115.5
X66.75Y-116.5
X67.103Y-133.619
X67.103Y-134.619
X67.103Y-135.619
X67.369Y-89.647
X67.369Y-90.647
X67.369Y-91.647
X67.369Y-92.647
X67.369Y-93.647
X67.369Y-94.647
X67.5Y-58.25
X67.706Y-126.562
X67.869Y-67.397
X67.869Y-68.397
X67.869Y-69.397
X67.869Y-70.397
X67.869Y-71.397
X67.869Y-72.397
X68.Y-109.25
X68.Y-115.5
X68.Y-116.5
X68.017Y-110.233
X68.103Y-133.619
X68.103Y-134.619
X68.103Y-135.619
X68.369Y-89.647
X68.369Y-90.647
X68.369Y-91.647
X68.369Y-92.647
X68.369Y-93.647
X68.369Y-94.647
X68.707Y-128.207
X68.869Y-67.397
X68.869Y-68.397
X68.869Y-69.397
X68.869Y-70.397
X68.869Y-71.397
X68.869Y-72.397
X69.103Y-133.619
X69.103Y-134.619
X69.103Y-135.619
X69.369Y-89.647
X69.369Y-90.647
X69.369Y-91.647
X69.369Y-92.647
X69.369Y-93.647
X69.369Y-94.647
X69.869Y-67.397
X69.869Y-68.397
X69.869Y-69.397
X69.869Y-70.397
X69.869Y-71.397
X69.869Y-72.397
X69.87Y-82.25
X70.Y-161.75
X70.483Y-130.464
X70.5Y-81.
X70.75Y-126.236
X72.255Y-79.755
X73.25Y-104.5
X73.25Y-105.5
X73.25Y-120.25
X73.25Y-121.25
X73.5Y-74.5
X73.708Y-126.525
X74.Y-79.5
X74.74Y-105.501
X74.74Y-121.251
X74.75Y-104.5
X74.75Y-120.25
X75.Y-85.25
X75.103Y-133.619
X75.103Y-134.619
X75.103Y-135.619
X75.5Y-128.25
X76.099Y-105.485
X76.099Y-121.235
X76.103Y-133.619
X76.103Y-134.619
X76.103Y-135.619
X76.112Y-104.476
X76.112Y-120.226
X76.5Y-74.25
X76.5Y-82.5
X77.103Y-133.619
X77.103Y-134.619
X77.103Y-135.619
X77.327Y-126.5
X77.5Y-58.25
X77.558Y-77.106
X77.63Y-78.63
X78.103Y-133.619
X78.103Y-134.619
X78.103Y-135.619
X78.5Y-126.236
X79.Y-83.75
X79.103Y-133.619
X79.103Y-134.619
X79.103Y-135.619
X79.75Y-128.25
X80.Y-80.
X80.Y-161.75
X80.103Y-133.619
X80.103Y-134.619
X80.103Y-135.619
X81.25Y-82.75
X81.384Y-130.498
X81.5Y-74.25
X81.661Y-126.236
X82.75Y-76.
X84.252Y-80.283
X84.5Y-126.236
X86.Y-73.25
X86.103Y-133.619
X86.103Y-134.619
X86.103Y-135.619
X86.5Y-128.25
X86.75Y-78.
X87.Y-72.
X87.103Y-133.619
X87.103Y-134.619
X87.103Y-135.619
X87.5Y-58.25
X88.Y-106.25
X88.Y-107.25
X88.Y-108.25
X88.103Y-133.619
X88.103Y-134.619
X88.103Y-135.619
X88.646Y-126.646
X89.Y-106.25
X89.Y-107.25
X89.Y-108.25
X89.103Y-133.619
X89.103Y-134.619
X89.103Y-135.619
X89.5Y-126.
X89.56Y-81.56
X89.75Y-80.25
X89.75Y-92.75
X89.788Y-93.75
X90.Y-106.25
X90.Y-107.25
X90.Y-108.25
X90.Y-161.75
X90.103Y-133.619
X90.103Y-134.619
X90.103Y-135.619
X90.678Y-128.178
X90.75Y-92.75
X90.75Y-93.75
X91.Y-106.25
X91.Y-107.25
X91.Y-108.25
X91.103Y-133.619
X91.103Y-134.619
X91.103Y-135.619
X91.484Y-108.95
X92.Y-106.25
X92.Y-107.25
X92.Y-108.25
X92.25Y-84.75
X92.448Y-130.453
X92.75Y-126.
X93.Y-106.25
X93.Y-107.25
X93.Y-108.25
X93.Y-115.
X93.Y-115.75
X94.Y-115.
X94.Y-115.75
X94.369Y-105.759
X94.5Y-68.5
X95.Y-94.5
X95.Y-115.
X95.Y-115.75
X96.52Y-123.27
X96.75Y-77.
X97.126Y-114.955
X97.5Y-58.25
X97.994Y-74.211
X98.5Y-123.25
X99.Y-66.
X99.369Y-130.147
X99.369Y-131.147
X99.369Y-132.147
X99.369Y-133.147
X99.369Y-134.147
X99.369Y-135.147
X99.75Y-66.25
X100.Y-161.75
X100.369Y-130.147
X100.369Y-131.147
X100.369Y-132.147
X100.369Y-133.147
X100.369Y-134.147
X100.369Y-135.147
X100.584Y-123.334
X100.647Y-100.779
X101.369Y-130.147
X101.369Y-131.147
X101.369Y-132.147
X101.369Y-133.147
X101.369Y-134.147
X101.369Y-135.147
X101.427Y-92.86
X101.468Y-100.76
X101.597Y-126.452
X102.215Y-92.285
X102.231Y-100.745
X102.369Y-130.147
X102.369Y-131.147
X102.369Y-132.147
X102.369Y-133.147
X102.369Y-134.147
X102.369Y-135.147
X102.616Y-123.366
X102.972Y-69.
X103.Y-100.75
X103.263Y-75.894
X103.369Y-130.147
X103.369Y-131.147
X103.369Y-132.147
X103.369Y-133.147
X103.369Y-134.147
X103.369Y-135.147
X103.75Y-78.
X103.8Y-100.75
X104.Y-147.
X104.Y-148.5
X104.Y-156.5
X104.369Y-130.147
X104.369Y-131.147
X104.369Y-132.147
X104.369Y-133.147
X104.369Y-134.147
X104.369Y-135.147
X104.5Y-100.75
X104.532Y-68.532
X104.533Y-83.26
X104.648Y-123.352
X104.787Y-75.894
X105.369Y-130.147
X105.369Y-131.147
X105.369Y-132.147
X105.369Y-133.147
X105.369Y-134.147
X105.369Y-135.147
X106.446Y-116.554
X106.532Y-147.032
X106.68Y-123.32
X106.68Y-130.336
X106.75Y-148.5
X106.819Y-63.321
X106.825Y-154.793
X107.5Y-58.25
X107.794Y-72.297
X108.25Y-68.25
X109.Y-147.
X109.25Y-148.5
X110.Y-62.15
X110.Y-66.25
X110.Y-161.75
X110.25Y-136.75
X111.25Y-136.75
X111.258Y-77.055
X111.5Y-147.
X111.56Y-121.69
X111.75Y-127.75
X111.75Y-128.5
X111.75Y-129.25
X111.75Y-148.5
X111.767Y-156.75
X112.Y-126.076
X112.25Y-68.25
X112.5Y-127.753
X112.5Y-125.
X112.5Y-128.5
X112.5Y-129.25
X112.75Y-136.75
X113.006Y-111.663
X113.006Y-120.5
X113.25Y-124.25
X113.75Y-136.75
X114.Y-147.
X114.065Y-155.718
X114.25Y-148.5
X114.276Y-156.74
X114.392Y-126.468
X114.392Y-127.793
X114.606Y-111.581
X114.75Y-97.925
X115.218Y-126.468
X115.218Y-127.793
X115.246Y-76.103
X115.25Y-136.75
X115.526Y-97.925
X115.75Y-120.5
X115.775Y-111.547
X115.975Y-96.918
X116.25Y-136.75
X116.5Y-147.
X116.639Y-111.186
X116.738Y-156.75
X116.75Y-148.5
X116.931Y-155.775
X117.Y-62.5
X117.Y-125.5
X117.333Y-111.088
X117.5Y-58.25
X117.75Y-76.75
X117.75Y-90.
X117.75Y-136.75
X117.773Y-96.891
X118.033Y-111.075
X118.243Y-91.754
X118.5Y-77.75
X118.599Y-96.088
X118.739Y-111.261
X118.75Y-80.5
X118.75Y-90.
X118.75Y-136.75
X119.Y-147.
X119.195Y-99.296
X119.238Y-156.759
X119.25Y-148.5
X119.425Y-155.525
X119.5Y-75.75
X119.503Y-111.385
X119.75Y-78.
X119.75Y-95.
X119.997Y-98.589
X120.Y-161.75
X120.2Y-111.175
X120.25Y-136.75
X120.76Y-93.26
X120.878Y-110.998
X121.038Y-95.5
X121.25Y-94.25
X121.25Y-136.75
X121.25Y-139.5
X121.25Y-140.5
X121.5Y-147.
X121.658Y-155.481
X121.75Y-111.
X121.75Y-148.5
X122.75Y-90.75
X122.758Y-91.742
X122.934Y-125.566
X123.343Y-74.843
X123.758Y-91.742
X124.Y-147.
X124.Y-148.5
X124.25Y-112.75
X124.603Y-133.619
X124.603Y-134.619
X124.603Y-135.619
X124.758Y-91.742
X124.968Y-83.934
X125.Y-74.75
X125.Y-118.
X125.082Y-128.093
X125.25Y-112.75
X125.603Y-133.619
X125.603Y-134.619
X125.603Y-135.619
X125.758Y-91.742
X126.25Y-112.75
X126.43Y-74.8
X126.5Y-118.
X126.603Y-133.619
X126.603Y-134.619
X126.603Y-135.619
X126.741Y-91.742
X127.127Y-128.143
X127.5Y-58.25
X127.603Y-133.619
X127.603Y-134.619
X127.603Y-135.619
X128.Y-67.5
X128.Y-126.236
X128.002Y-118.003
X128.016Y-74.766
X128.502Y-84.432
X128.603Y-133.619
X128.603Y-134.619
X128.603Y-135.619
X128.663Y-74.476
X129.154Y-128.166
X129.485Y-62.286
X129.497Y-118.
X129.603Y-133.619
X129.603Y-134.619
X129.603Y-135.619
X129.75Y-112.75
X130.Y-69.25
X130.Y-161.75
X130.645Y-96.345
X130.679Y-102.626
X130.75Y-90.25
X130.75Y-112.75
X130.903Y-130.49
X131.Y-74.75
X131.029Y-101.7
X131.064Y-83.958
X131.191Y-125.809
X131.231Y-118.017
X131.246Y-94.186
X131.318Y-99.111
X131.503Y-100.794
X131.75Y-89.75
X131.75Y-112.75
X131.89Y-102.425
X132.163Y-60.554
X132.5Y-84.
X132.75Y-72.
X132.933Y-108.325
X133.Y-66.
X133.Y-139.5
X133.Y-140.5
X133.869Y-72.194
X134.11Y-84.027
X134.25Y-64.
X134.25Y-74.75
X134.341Y-107.897
X134.5Y-155.875
X134.747Y-126.003
X134.964Y-92.536
X135.128Y-93.472
X135.25Y-84.
X135.511Y-96.911
X135.699Y-106.324
X135.75Y-94.5
X135.807Y-103.643
X136.Y-95.25
X136.002Y-99.06
X136.144Y-83.946
X136.25Y-77.5
X136.25Y-103.
X136.295Y-96.239
X136.353Y-133.619
X136.353Y-134.619
X136.353Y-135.619
X136.664Y-86.626
X136.75Y-128.193
X136.75Y-154.75
X136.765Y-113.745
X137.Y-70.5
X137.Y-157.
X137.004Y-112.075
X137.037Y-97.033
X137.161Y-103.039
X137.204Y-97.823
X137.25Y-114.25
X137.353Y-133.619
X137.353Y-134.619
X137.353Y-135.619
X137.399Y-72.675
X137.5Y-58.25
X138.164Y-86.626
X138.176Y-83.946
X138.224Y-91.724
X138.297Y-113.083
X138.353Y-133.619
X138.353Y-134.619
X138.353Y-135.619
X138.728Y-102.022
X138.811Y-128.189
X139.25Y-91.5
X139.285Y-154.388
X139.353Y-133.619
X139.353Y-134.619
X139.353Y-135.619
X140.Y-68.5
X140.Y-161.75
X140.163Y-120.534
X140.345Y-103.342
X140.353Y-133.619
X140.353Y-134.619
X140.353Y-135.619
X140.385Y-112.075
X140.706Y-110.48
X140.75Y-128.
X140.948Y-91.21
X141.224Y-74.776
X141.224Y-83.974
X141.236Y-86.626
X141.25Y-120.084
X141.325Y-97.25
X141.353Y-133.619
X141.353Y-134.619
X141.353Y-135.619
X141.384Y-101.944
X141.448Y-92.615
X141.476Y-62.24
X141.538Y-107.794
X141.578Y-93.303
X141.75Y-157.
X142.Y-96.75
X142.157Y-91.907
X142.26Y-96.033
X142.345Y-98.53
X142.355Y-118.224
X142.5Y-83.75
X142.611Y-130.429
X142.736Y-86.626
X142.75Y-77.
X142.785Y-91.301
X142.795Y-95.256
X142.818Y-126.725
X142.848Y-92.015
X143.025Y-101.567
X143.027Y-102.285
X143.095Y-99.433
X143.323Y-95.801
X143.648Y-106.778
X143.752Y-91.225
X143.847Y-103.128
X144.Y-88.5
X144.25Y-155.575
X144.272Y-83.978
X144.273Y-74.417
X144.277Y-98.475
X144.284Y-86.626
X144.285Y-101.075
X144.46Y-108.008
X145.002Y-91.552
X145.074Y-118.175
X145.25Y-100.5
X145.5Y-76.825
X145.634Y-72.525
X145.75Y-84.5
X145.985Y-110.048
X146.36Y-95.799
X146.599Y-120.831
X146.608Y-84.25
X146.618Y-106.981
X146.984Y-157.01
X147.25Y-83.75
X147.25Y-96.75
X147.253Y-95.503
X147.275Y-91.498
X147.286Y-99.036
X147.5Y-58.25
X147.5Y-98.25
X147.746Y-120.492
X147.853Y-133.619
X147.853Y-134.619
X147.853Y-135.619
X148.157Y-83.78
X148.5Y-77.
X148.508Y-128.075
X148.853Y-133.619
X148.853Y-134.619
X148.853Y-135.619
X149.Y-110.
X149.25Y-83.75
X149.618Y-104.636
X149.85Y-155.35
X149.853Y-133.619
X149.853Y-134.619
X149.853Y-135.619
X150.Y-161.75
X150.25Y-77.5
X150.399Y-84.054
X150.5Y-128.193
X150.853Y-133.619
X150.853Y-134.619
X150.853Y-135.619
X151.Y-70.25
X151.117Y-109.265
X151.122Y-118.372
X151.389Y-121.025
X151.827Y-103.136
X151.853Y-133.619
X151.853Y-134.619
X151.853Y-135.619
X152.133Y-96.975
X152.146Y-95.504
X152.4Y-83.946
X152.402Y-104.352
X152.5Y-77.25
X152.524Y-128.172
X152.853Y-133.619
X152.853Y-134.619
X152.853Y-135.619
X152.854Y-105.44
X153.167Y-110.25
X153.242Y-126.075
X153.5Y-74.
X153.5Y-77.25
X154.11Y-126.068
X154.244Y-119.397
X154.25Y-130.25
X154.432Y-83.925
X154.518Y-100.825
X154.679Y-90.699
X154.698Y-85.626
X154.7Y-87.398
X154.707Y-89.179
X154.75Y-92.5
X154.75Y-95.25
X154.75Y-103.5
X154.758Y-97.975
X155.063Y-126.658
X155.421Y-130.016
X155.5Y-130.75
X155.525Y-128.635
X156.Y-125.825
X156.105Y-78.386
X156.11Y-129.019
X156.202Y-109.982
X156.449Y-82.038
X156.5Y-139.
X156.666Y-79.584
X156.722Y-75.467
X156.88Y-129.532
X157.218Y-81.512
X157.318Y-127.664
X157.318Y-128.364
X157.361Y-118.9
X157.489Y-138.996
X157.5Y-58.25
X157.775Y-82.137
X158.25Y-110.
X158.259Y-113.047
X158.5Y-105.25
X159.Y-117.5
X159.726Y-73.471
X159.911Y-82.345
X160.Y-161.75
X160.165Y-70.971
X160.25Y-117.5
X160.75Y-99.
X160.75Y-110.
X160.825Y-114.336
X160.865Y-71.042
X160.967Y-83.749
X161.25Y-89.25
X161.254Y-90.744
X161.258Y-92.575
X161.365Y-74.025
X161.425Y-87.25
X161.45Y-102.137
X161.75Y-119.5
X161.75Y-131.5
X161.75Y-132.25
X161.75Y-133.
X161.75Y-133.75
X161.75Y-134.5
X161.75Y-135.25
X161.75Y-136.
X162.75Y-133.75
X162.75Y-134.5
X162.75Y-135.25
X162.75Y-136.
X163.75Y-95.25
X163.856Y-100.806
X164.Y-98.
X164.175Y-126.492
X164.5Y-157.5
X164.636Y-121.025
X165.Y-158.5
X165.149Y-76.04
X165.21Y-102.46
X165.43Y-107.249
X165.689Y-121.025
X166.047Y-85.312
X166.318Y-120.717
X166.438Y-119.875
X167.Y-151.4
X167.25Y-133.75
X167.25Y-134.5
X167.25Y-135.25
X167.25Y-136.
X167.275Y-119.25
X167.5Y-58.25
X167.69Y-118.463
X167.75Y-146.
X167.775Y-145.275
X167.777Y-129.489
X167.975Y-119.103
X168.165Y-117.71
X168.175Y-131.485
X168.175Y-132.237
X168.175Y-132.987
X168.175Y-133.737
X168.175Y-134.5
X168.175Y-135.25
X168.175Y-136.
X168.25Y-156.
X168.425Y-126.285
X168.609Y-115.228
X168.609Y-115.928
X168.841Y-118.697
X169.Y-119.75
X169.266Y-127.829
X169.56Y-128.551
X169.575Y-97.157
X169.968Y-129.321
X170.Y-161.75
X170.151Y-126.837
X170.211Y-111.372
X170.5Y-128.
X170.587Y-125.505
X170.75Y-127.25
X170.885Y-108.709
X170.969Y-111.316
X171.294Y-126.025
X171.7Y-110.299
X172.Y-90.375
X172.Y-93.75
X172.259Y-122.675
X172.789Y-106.572
X173.Y-156.75
X173.25Y-72.5
X173.5Y-97.853
X173.869Y-130.397
X173.869Y-131.397
X173.869Y-132.397
X173.869Y-133.397
X173.869Y-134.397
X173.869Y-135.397
X173.95Y-109.199
X174.093Y-123.157
X174.162Y-119.492
X174.5Y-146.25
X174.869Y-130.397
X174.869Y-131.397
X174.869Y-132.397
X174.869Y-133.397
X174.869Y-134.397
X174.869Y-135.397
X174.992Y-119.492
X175.Y-98.75
X175.Y-114.
X175.25Y-155.
X175.5Y-88.25
X175.5Y-146.25
X175.742Y-119.492
X175.869Y-130.397
X175.869Y-131.397
X175.869Y-132.397
X175.869Y-133.397
X175.869Y-134.397
X175.869Y-135.397
X175.958Y-85.459
X176.25Y-98.75
X176.475Y-122.443
X176.869Y-130.397
X176.869Y-131.397
X176.869Y-132.397
X176.869Y-133.397
X176.869Y-134.397
X176.869Y-135.397
X177.25Y-85.5
X177.283Y-126.321
X177.5Y-58.25
X177.69Y-91.44
X177.869Y-130.397
X177.869Y-131.397
X177.869Y-132.397
X177.869Y-133.397
X177.869Y-134.397
X177.869Y-135.397
X178.25Y-122.5
X178.5Y-158.
X178.869Y-130.397
X178.869Y-131.397
X178.869Y-132.397
X178.869Y-133.397
X178.869Y-134.397
X178.869Y-135.397
X179.Y-146.5
X179.Y-153.75
X179.869Y-130.397
X179.869Y-131.397
X179.869Y-132.397
X179.869Y-133.397
X179.869Y-134.397
X179.869Y-135.397
X180.Y-146.5
X180.Y-161.75
X180.086Y-94.164
X180.25Y-122.75
X180.475Y-114.5
X180.869Y-130.397
X180.869Y-131.397
X180.869Y-132.397
X180.869Y-133.397
X180.869Y-134.397
X180.869Y-135.397
X181.869Y-130.397
X181.869Y-131.397
X181.869Y-132.397
X181.869Y-133.397
X181.869Y-134.397
X181.869Y-135.397
X181.995Y-95.008
X181.999Y-96.877
X182.Y-95.95
X182.015Y-114.013
X182.175Y-122.825
X182.367Y-129.496
X183.75Y-146.5
X184.Y-122.5
X184.75Y-146.5
X185.Y-122.5
X185.5Y-102.25
X185.5Y-107.25
X188.75Y-58.25
X188.75Y-67.5
X188.75Y-77.5
X188.75Y-87.5
X188.75Y-97.5
X188.75Y-107.5
X188.75Y-115.
X188.75Y-125.
X188.75Y-135.
X188.75Y-145.
X188.75Y-155.
X188.75Y-161.75
T2
X93.555Y-110.666
X93.555Y-111.466
X93.555Y-112.266
X93.555Y-113.066
X94.755Y-110.666
X94.755Y-111.466
X94.755Y-112.266
X94.755Y-113.066
X163.85Y-134.3
X163.85Y-135.5
X164.65Y-134.3
X164.65Y-135.5
X165.45Y-134.3
X165.45Y-135.5
X166.25Y-134.3
X166.25Y-135.5
T3
X39.6Y-64.
X39.6Y-156.
X40.303Y-62.303
X40.303Y-65.697
X40.303Y-154.303
X40.303Y-157.697
X42.Y-61.6
X42.Y-66.4
X42.Y-153.6
X42.Y-158.4
X43.697Y-62.303
X43.697Y-65.697
X43.697Y-154.303
X43.697Y-157.697
X44.4Y-64.
X44.4Y-156.
X109.1Y-92.5
X109.803Y-90.803
X109.803Y-94.197
X111.5Y-90.1
X111.5Y-94.9
X113.197Y-90.803
X113.197Y-94.197
X113.9Y-92.5
X180.6Y-64.
X180.6Y-156.
X181.303Y-62.303
X181.303Y-65.697
X181.303Y-154.303
X181.303Y-157.697
X183.Y-61.6
X183.Y-66.4
X183.Y-153.6
X183.Y-158.4
X184.697Y-62.303
X184.697Y-65.697
X184.697Y-154.303
X184.697Y-157.697
X185.4Y-64.
X185.4Y-156.
T4
X69.6Y-149.64
X72.14Y-149.64
X74.68Y-149.64
X77.22Y-149.64
X79.76Y-149.64
X82.3Y-149.64
X84.84Y-149.64
X87.38Y-149.64
X89.92Y-149.64
X92.46Y-149.64
X102.54Y-150.46
X102.54Y-153.
X105.08Y-150.46
X105.08Y-153.
X107.62Y-150.46
X107.62Y-153.
X110.16Y-150.46
X110.16Y-153.
X112.7Y-150.46
X112.7Y-153.
X115.24Y-150.46
X115.24Y-153.
X117.78Y-150.46
X117.78Y-153.
X120.32Y-150.46
X120.32Y-153.
X122.86Y-150.46
X122.86Y-153.
X125.4Y-150.46
X125.4Y-153.
X135.54Y-150.46
X135.54Y-153.
X138.08Y-150.46
X138.08Y-153.
X140.62Y-150.46
X140.62Y-153.
X143.16Y-150.46
X143.16Y-153.
X145.7Y-150.46
X145.7Y-153.
X148.24Y-150.46
X148.24Y-153.
X150.78Y-150.46
X150.78Y-153.
X153.32Y-150.46
X153.32Y-153.
X155.86Y-150.46
X155.86Y-153.
X157.92Y-68.5
X158.4Y-150.46
X158.4Y-153.
X160.46Y-68.5
X163.Y-68.5
X165.54Y-68.5
X168.08Y-68.5
X170.62Y-68.5
T5
X72.005Y-154.64
X74.305Y-154.64
X77.255Y-154.64
X79.555Y-154.64
X82.505Y-154.64
X84.805Y-154.64
X87.755Y-154.64
X90.055Y-154.64
T6
X39.68Y-88.98
X39.68Y-93.98
X40.Y-70.
X40.Y-75.
X46.68Y-88.98
X46.68Y-93.98
X47.Y-70.
X47.Y-75.
X177.Y-72.25
X177.Y-77.25
X184.Y-72.25
X184.Y-77.25
T7
X67.06Y-158.
X95.Y-158.
X100.Y-158.
X127.94Y-158.
X133.Y-158.
X160.94Y-158.
T8
X42.Y-64.
X42.Y-156.
X111.5Y-92.5
X183.Y-64.
X183.Y-156.
T3
X183.75Y-84.05G85X183.75Y-83.35
G05
X183.75Y-89.65G85X183.75Y-88.95
G05
X185.9Y-87.05G85X185.9Y-85.95
G05
T0
M30
