G04 #@! TF.FileFunction,Soldermask,Top*
%FSLAX46Y46*%
G04 Gerber Fmt 4.6, Leading zero omitted, Abs format (unit mm)*
G04 Created by KiCad (PCBNEW 4.0.7) date 01/12/18 12:19:17*
%MOMM*%
%LPD*%
G01*
G04 APERTURE LIST*
%ADD10C,0.100000*%
%ADD11R,0.850000X0.900000*%
%ADD12R,0.900000X0.850000*%
%ADD13R,1.800000X2.200000*%
%ADD14R,0.500000X1.300000*%
%ADD15R,0.500000X0.750000*%
%ADD16R,1.160000X0.750000*%
%ADD17R,0.800000X0.350000*%
%ADD18R,0.350000X0.800000*%
%ADD19R,0.925000X1.425000*%
%ADD20R,1.200000X0.500000*%
%ADD21R,1.650000X0.700000*%
%ADD22R,0.700000X2.050000*%
%ADD23R,0.750000X1.410000*%
%ADD24R,6.500000X2.750000*%
%ADD25R,9.500000X10.900000*%
%ADD26R,4.700000X0.900000*%
%ADD27R,0.500000X1.200000*%
%ADD28R,0.600000X1.000000*%
%ADD29R,1.000000X0.600000*%
%ADD30R,1.000000X0.900000*%
%ADD31R,6.000000X1.700000*%
%ADD32R,1.750000X0.500000*%
%ADD33O,1.600000X1.200000*%
%ADD34O,1.800000X1.300000*%
%ADD35R,2.600000X1.530000*%
%ADD36R,1.300000X1.000000*%
%ADD37R,1.000000X1.300000*%
%ADD38R,0.900000X1.000000*%
%ADD39R,2.600000X3.400000*%
%ADD40R,1.100000X1.700000*%
%ADD41R,1.100000X1.350000*%
%ADD42R,1.350000X1.100000*%
%ADD43R,1.700000X1.100000*%
%ADD44R,1.700000X3.600000*%
%ADD45R,3.600000X1.700000*%
%ADD46R,0.475000X0.600000*%
%ADD47R,0.400000X0.750000*%
%ADD48R,0.600000X0.475000*%
%ADD49R,0.750000X0.400000*%
%ADD50R,0.900000X0.800000*%
%ADD51R,4.390000X4.600000*%
%ADD52R,1.700000X1.650000*%
%ADD53R,1.300000X1.650000*%
%ADD54R,1.800000X1.800000*%
%ADD55O,1.800000X1.800000*%
%ADD56R,0.550000X0.700000*%
%ADD57C,2.900000*%
%ADD58R,4.100000X2.600000*%
%ADD59R,0.900000X0.700000*%
%ADD60R,1.600000X2.500000*%
%ADD61R,1.600000X1.150000*%
%ADD62R,2.500000X1.600000*%
%ADD63R,1.150000X1.600000*%
%ADD64C,6.500000*%
%ADD65C,0.900000*%
%ADD66R,1.100000X2.850000*%
%ADD67C,1.800000*%
%ADD68C,2.700000*%
%ADD69R,1.600000X0.400000*%
%ADD70R,0.400000X1.600000*%
%ADD71R,1.300000X1.700000*%
%ADD72R,0.700000X1.650000*%
%ADD73R,1.700000X1.300000*%
%ADD74R,2.098980X3.099740*%
%ADD75R,1.500000X1.700000*%
%ADD76R,5.060000X3.900000*%
%ADD77R,2.000000X1.800000*%
%ADD78R,0.700000X2.500000*%
%ADD79C,2.100000*%
%ADD80R,3.900000X2.100000*%
%ADD81R,1.100000X3.300000*%
%ADD82C,0.254000*%
G04 APERTURE END LIST*
D10*
D11*
X137000000Y47750000D03*
X137000000Y49250000D03*
D12*
X113714000Y72156000D03*
X115214000Y72156000D03*
D13*
X85334000Y55260000D03*
X85334000Y61160000D03*
X82634000Y61160000D03*
X82634000Y55260000D03*
D14*
X136498500Y71732000D03*
X135863500Y71732000D03*
X135228500Y71732000D03*
X134593500Y71732000D03*
X133958500Y71732000D03*
X133323500Y71732000D03*
X132688500Y71732000D03*
X132053500Y71732000D03*
X132053500Y66532000D03*
X132688500Y66532000D03*
X133323500Y66532000D03*
X133958500Y66532000D03*
X134593500Y66532000D03*
X135228500Y66532000D03*
X135863500Y66532000D03*
X136498500Y66532000D03*
D15*
X19453000Y52500000D03*
X20753000Y52500000D03*
X20103000Y54400000D03*
X20103000Y52500000D03*
X20753000Y54400000D03*
X19453000Y54400000D03*
D16*
X58893000Y74706000D03*
X58893000Y73756000D03*
X58893000Y72806000D03*
X61093000Y72806000D03*
X61093000Y74706000D03*
X61093000Y73756000D03*
D17*
X71405000Y30119000D03*
X71405000Y29619000D03*
X71405000Y29119000D03*
X71405000Y28619000D03*
X71405000Y28119000D03*
X71405000Y27619000D03*
D18*
X72055000Y26969000D03*
X72555000Y26969000D03*
X73055000Y26969000D03*
X73555000Y26969000D03*
D17*
X74205000Y27619000D03*
X74205000Y28119000D03*
X74205000Y28619000D03*
X74205000Y29119000D03*
X74205000Y29619000D03*
X74205000Y30119000D03*
D18*
X73555000Y30769000D03*
X73055000Y30769000D03*
X72555000Y30769000D03*
X72055000Y30769000D03*
D19*
X73217500Y28206500D03*
X73217500Y29531500D03*
X72392500Y28206500D03*
X72392500Y29531500D03*
D20*
X64701000Y85653000D03*
X64701000Y85003000D03*
X64701000Y84353000D03*
X64701000Y83703000D03*
X69001000Y83703000D03*
X69001000Y84353000D03*
X69001000Y85003000D03*
X69001000Y85653000D03*
D16*
X80768000Y68050000D03*
X80768000Y67100000D03*
X80768000Y66150000D03*
X82968000Y66150000D03*
X82968000Y68050000D03*
X84964000Y41718000D03*
X84964000Y40768000D03*
X84964000Y39818000D03*
X87164000Y39818000D03*
X87164000Y41718000D03*
D21*
X130800000Y54741001D03*
X130800000Y53471001D03*
X130800000Y52201001D03*
X130800000Y50931001D03*
X136200000Y50931001D03*
X136200000Y52201001D03*
X136200000Y53471001D03*
X136200000Y54741001D03*
D22*
X141642000Y27984000D03*
X140372000Y27984000D03*
X139102000Y27984000D03*
X137832000Y27984000D03*
X136562000Y27984000D03*
X135292000Y27984000D03*
X134022000Y27984000D03*
X132752000Y27984000D03*
X131482000Y27984000D03*
X130212000Y27984000D03*
X130212000Y18584000D03*
X131482000Y18584000D03*
X132752000Y18584000D03*
X134022000Y18584000D03*
X135292000Y18584000D03*
X136562000Y18584000D03*
X137832000Y18584000D03*
X139102000Y18584000D03*
X140372000Y18584000D03*
X141642000Y18584000D03*
D23*
X100621000Y18560000D03*
X100621000Y24250000D03*
X99351000Y18560000D03*
X99351000Y24250000D03*
X98081000Y18560000D03*
X98081000Y24250000D03*
X96811000Y18560000D03*
X96811000Y24250000D03*
X95541000Y18560000D03*
X95541000Y24250000D03*
X94271000Y18560000D03*
X94271000Y24250000D03*
X93001000Y18560000D03*
X93001000Y24250000D03*
D24*
X96811000Y21405000D03*
D23*
X112330000Y18560000D03*
X112330000Y24250000D03*
X111060000Y18560000D03*
X111060000Y24250000D03*
X109790000Y18560000D03*
X109790000Y24250000D03*
X108520000Y18560000D03*
X108520000Y24250000D03*
X107250000Y18560000D03*
X107250000Y24250000D03*
X105980000Y18560000D03*
X105980000Y24250000D03*
X104710000Y18560000D03*
X104710000Y24250000D03*
D24*
X108520000Y21405000D03*
D23*
X88937000Y18560000D03*
X88937000Y24250000D03*
X87667000Y18560000D03*
X87667000Y24250000D03*
X86397000Y18560000D03*
X86397000Y24250000D03*
X85127000Y18560000D03*
X85127000Y24250000D03*
X83857000Y18560000D03*
X83857000Y24250000D03*
X82587000Y18560000D03*
X82587000Y24250000D03*
X81317000Y18560000D03*
X81317000Y24250000D03*
D24*
X85127000Y21405000D03*
D23*
X50456000Y18535000D03*
X50456000Y24225000D03*
X49186000Y18535000D03*
X49186000Y24225000D03*
X47916000Y18535000D03*
X47916000Y24225000D03*
X46646000Y18535000D03*
X46646000Y24225000D03*
X45376000Y18535000D03*
X45376000Y24225000D03*
X44106000Y18535000D03*
X44106000Y24225000D03*
X42836000Y18535000D03*
X42836000Y24225000D03*
D24*
X46646000Y21380000D03*
D23*
X39407000Y18535000D03*
X39407000Y24225000D03*
X38137000Y18535000D03*
X38137000Y24225000D03*
X36867000Y18535000D03*
X36867000Y24225000D03*
X35597000Y18535000D03*
X35597000Y24225000D03*
X34327000Y18535000D03*
X34327000Y24225000D03*
X33057000Y18535000D03*
X33057000Y24225000D03*
X31787000Y18535000D03*
X31787000Y24225000D03*
D24*
X35597000Y21380000D03*
D23*
X28485000Y18535000D03*
X28485000Y24225000D03*
X27215000Y18535000D03*
X27215000Y24225000D03*
X25945000Y18535000D03*
X25945000Y24225000D03*
X24675000Y18535000D03*
X24675000Y24225000D03*
X23405000Y18535000D03*
X23405000Y24225000D03*
X22135000Y18535000D03*
X22135000Y24225000D03*
X20865000Y18535000D03*
X20865000Y24225000D03*
D24*
X24675000Y21380000D03*
D25*
X12616000Y39160000D03*
D26*
X3466000Y36620000D03*
X3466000Y37890000D03*
X3466000Y40430000D03*
X3466000Y41700000D03*
X3466000Y42970000D03*
X3466000Y39160000D03*
X3466000Y35350000D03*
D25*
X12683000Y23158000D03*
D26*
X3533000Y20618000D03*
X3533000Y21888000D03*
X3533000Y24428000D03*
X3533000Y25698000D03*
X3533000Y26968000D03*
X3533000Y23158000D03*
X3533000Y19348000D03*
D22*
X65950000Y27859000D03*
X64680000Y27859000D03*
X63410000Y27859000D03*
X62140000Y27859000D03*
X60870000Y27859000D03*
X59600000Y27859000D03*
X58330000Y27859000D03*
X57060000Y27859000D03*
X55790000Y27859000D03*
X54520000Y27859000D03*
X54520000Y18459000D03*
X55790000Y18459000D03*
X57060000Y18459000D03*
X58330000Y18459000D03*
X59600000Y18459000D03*
X60870000Y18459000D03*
X62140000Y18459000D03*
X63410000Y18459000D03*
X64680000Y18459000D03*
X65950000Y18459000D03*
D15*
X20088000Y75548000D03*
X21388000Y75548000D03*
X20738000Y77448000D03*
X20738000Y75548000D03*
X21388000Y77448000D03*
X20088000Y77448000D03*
D27*
X41025000Y77850000D03*
X41675000Y77850000D03*
X42325000Y77850000D03*
X42975000Y77850000D03*
X42975000Y82150000D03*
X42325000Y82150000D03*
X41675000Y82150000D03*
X41025000Y82150000D03*
D28*
X51103000Y88996000D03*
X52603000Y88996000D03*
D29*
X109122000Y38414000D03*
X109122000Y39914000D03*
X19468000Y60484000D03*
X19468000Y58984000D03*
X21500000Y60484000D03*
X21500000Y58984000D03*
X63295000Y89008000D03*
X63295000Y90508000D03*
X96176000Y77260000D03*
X96176000Y75760000D03*
D28*
X9538000Y55924000D03*
X8038000Y55924000D03*
X9538000Y64052000D03*
X8038000Y64052000D03*
X11074000Y53892000D03*
X9574000Y53892000D03*
D29*
X61263000Y82622000D03*
X61263000Y81122000D03*
X61263000Y86178000D03*
X61263000Y84678000D03*
D28*
X57961000Y90774000D03*
X59461000Y90774000D03*
X54405000Y90774000D03*
X55905000Y90774000D03*
X55179000Y72740000D03*
X56679000Y72740000D03*
X55179000Y74772000D03*
X56679000Y74772000D03*
D29*
X71931000Y90290000D03*
X71931000Y91790000D03*
X74979000Y90290000D03*
X74979000Y91790000D03*
D28*
X72250000Y93500000D03*
X73750000Y93500000D03*
X57500000Y77750000D03*
X56000000Y77750000D03*
D29*
X74299126Y88000588D03*
X74299126Y86500588D03*
X74299126Y84710588D03*
X74299126Y83210588D03*
X71931000Y84678000D03*
X71931000Y83178000D03*
X68883000Y81364000D03*
X68883000Y79864000D03*
X71931000Y79864000D03*
X71931000Y81364000D03*
D28*
X115750000Y50750000D03*
X114250000Y50750000D03*
D29*
X94144000Y77260000D03*
X94144000Y75760000D03*
D28*
X117536000Y50750000D03*
X119036000Y50750000D03*
D29*
X70776000Y34310000D03*
X70776000Y32810000D03*
X74840000Y34322000D03*
X74840000Y32822000D03*
X76745000Y34322000D03*
X76745000Y32822000D03*
X76745000Y31528000D03*
X76745000Y30028000D03*
X76745000Y28734000D03*
X76745000Y27234000D03*
X117250000Y41536000D03*
X117250000Y43036000D03*
X120500000Y41536000D03*
X120500000Y43036000D03*
X115218000Y38664000D03*
X115218000Y40164000D03*
X112170000Y38414000D03*
X112170000Y39914000D03*
X102272000Y80030000D03*
X102272000Y78530000D03*
X82968000Y80042000D03*
X82968000Y78542000D03*
X109122000Y41208000D03*
X109122000Y42708000D03*
X115218000Y41458000D03*
X115218000Y42958000D03*
X112170000Y41208000D03*
X112170000Y42708000D03*
D28*
X42500000Y84000000D03*
X44000000Y84000000D03*
D29*
X34580000Y84050000D03*
X34580000Y82550000D03*
D28*
X56675000Y39446000D03*
X55175000Y39446000D03*
X59977000Y39446000D03*
X58477000Y39446000D03*
X63279000Y39446000D03*
X61779000Y39446000D03*
X118000000Y52500000D03*
X116500000Y52500000D03*
X121000000Y52500000D03*
X119500000Y52500000D03*
D29*
X55163000Y50253000D03*
X55163000Y51753000D03*
D28*
X58326000Y46304000D03*
X56826000Y46304000D03*
X54778000Y61429000D03*
X56278000Y61429000D03*
D29*
X54778000Y64477000D03*
X54778000Y62977000D03*
X49250000Y40750000D03*
X49250000Y39250000D03*
X92112000Y78530000D03*
X92112000Y80030000D03*
X89064000Y78542000D03*
X89064000Y80042000D03*
D28*
X130250000Y79750000D03*
X128750000Y79750000D03*
X130250000Y83500000D03*
X128750000Y83500000D03*
X129097000Y54960000D03*
X127597000Y54960000D03*
X136250000Y56500000D03*
X134750000Y56500000D03*
X129097000Y50896000D03*
X127597000Y50896000D03*
D29*
X138340000Y30536000D03*
X138340000Y32036000D03*
X134276000Y30536000D03*
X134276000Y32036000D03*
X140372000Y30536000D03*
X140372000Y32036000D03*
X132244000Y30536000D03*
X132244000Y32036000D03*
X130212000Y30536000D03*
X130212000Y32036000D03*
X136308000Y30536000D03*
X136308000Y32036000D03*
X119000000Y28500000D03*
X119000000Y27000000D03*
X121000000Y27000000D03*
X121000000Y28500000D03*
X96811000Y28607000D03*
X96811000Y27107000D03*
X98843000Y27107000D03*
X98843000Y28607000D03*
X100875000Y27107000D03*
X100875000Y28607000D03*
X108495000Y28607000D03*
X108495000Y27107000D03*
X110527000Y27107000D03*
X110527000Y28607000D03*
X112559000Y27107000D03*
X112559000Y28607000D03*
X112432000Y77260000D03*
X112432000Y75760000D03*
X122750000Y27000000D03*
X122750000Y28500000D03*
X108368000Y77260000D03*
X108368000Y75760000D03*
X94779000Y27107000D03*
X94779000Y28607000D03*
X92747000Y27107000D03*
X92747000Y28607000D03*
X106336000Y77248000D03*
X106336000Y75748000D03*
X106463000Y27119000D03*
X106463000Y28619000D03*
X104431000Y27107000D03*
X104431000Y28607000D03*
X92112000Y77248000D03*
X92112000Y75748000D03*
X89064000Y77248000D03*
X89064000Y75748000D03*
X85127000Y28607000D03*
X85127000Y27107000D03*
X87159000Y27107000D03*
X87159000Y28607000D03*
X99224000Y80030000D03*
X99224000Y78530000D03*
X99224000Y77236000D03*
X99224000Y75736000D03*
X102272000Y77260000D03*
X102272000Y75760000D03*
D28*
X117996000Y70378000D03*
X116496000Y70378000D03*
D29*
X89191000Y27107000D03*
X89191000Y28607000D03*
X46646000Y28480000D03*
X46646000Y26980000D03*
X48678000Y26980000D03*
X48678000Y28480000D03*
X50710000Y26980000D03*
X50710000Y28480000D03*
X35597000Y28480000D03*
X35597000Y26980000D03*
X37629000Y26980000D03*
X37629000Y28480000D03*
X39661000Y26980000D03*
X39661000Y28480000D03*
X24675000Y28480000D03*
X24675000Y26980000D03*
X26707000Y26980000D03*
X26707000Y28480000D03*
X28739000Y26980000D03*
X28739000Y28480000D03*
X110400000Y77260000D03*
X110400000Y75760000D03*
X44614000Y26980000D03*
X44614000Y28480000D03*
X42582000Y26980000D03*
X42582000Y28480000D03*
D28*
X118008000Y66822000D03*
X116508000Y66822000D03*
D29*
X33565000Y26980000D03*
X33565000Y28480000D03*
X31533000Y26968000D03*
X31533000Y28468000D03*
D28*
X118020000Y68600000D03*
X116520000Y68600000D03*
D29*
X22643000Y26980000D03*
X22643000Y28480000D03*
X20611000Y26980000D03*
X20611000Y28480000D03*
X9308000Y47530000D03*
X9308000Y46030000D03*
X9308000Y31782000D03*
X9308000Y30282000D03*
D28*
X118008000Y65294000D03*
X116508000Y65294000D03*
X117996000Y63516000D03*
X116496000Y63516000D03*
D29*
X62648000Y30294000D03*
X62648000Y31794000D03*
X58584000Y30282000D03*
X58584000Y31782000D03*
X64680000Y30282000D03*
X64680000Y31782000D03*
X56552000Y30270000D03*
X56552000Y31770000D03*
X54520000Y30282000D03*
X54520000Y31782000D03*
X60616000Y30270000D03*
X60616000Y31770000D03*
X6260000Y46030000D03*
X6260000Y47530000D03*
X6260000Y30270000D03*
X6260000Y31770000D03*
D28*
X46388000Y40716000D03*
X44888000Y40716000D03*
X44888000Y42748000D03*
X46388000Y42748000D03*
X118020000Y72156000D03*
X116520000Y72156000D03*
D29*
X83095000Y27107000D03*
X83095000Y28607000D03*
X81063000Y27095000D03*
X81063000Y28595000D03*
X86016000Y77248000D03*
X86016000Y75748000D03*
D28*
X32898000Y78894000D03*
X34398000Y78894000D03*
X34398000Y80418000D03*
X32898000Y80418000D03*
D29*
X19976000Y83090000D03*
X19976000Y81590000D03*
X22262000Y83102000D03*
X22262000Y81602000D03*
D28*
X39250000Y74250000D03*
X40750000Y74250000D03*
D29*
X104304000Y77248000D03*
X104304000Y75748000D03*
X82968000Y77248000D03*
X82968000Y75748000D03*
D28*
X38196000Y89264000D03*
X36696000Y89264000D03*
X40990000Y89264000D03*
X39490000Y89264000D03*
X45000000Y74250000D03*
X46500000Y74250000D03*
X42250000Y74250000D03*
X43750000Y74250000D03*
X38716000Y80882000D03*
X37216000Y80882000D03*
D29*
X34580000Y86844000D03*
X34580000Y85344000D03*
X79208000Y77000000D03*
X79208000Y75500000D03*
X79208000Y79818001D03*
X79208000Y78318001D03*
X34500000Y75750000D03*
X34500000Y74250000D03*
X87794000Y57460000D03*
X87794000Y58960000D03*
D30*
X4228000Y45896000D03*
X4228000Y47796000D03*
X2228000Y46846000D03*
X4228000Y30016000D03*
X4228000Y31916000D03*
X2228000Y30966000D03*
D31*
X59862000Y48780000D03*
X59862000Y53480000D03*
D29*
X42082000Y45500000D03*
X42082000Y47000000D03*
X105320000Y68636000D03*
X105320000Y70136000D03*
D32*
X139476000Y68220000D03*
X139476000Y68870000D03*
X139476000Y69520000D03*
X139476000Y70170000D03*
X139476000Y70820000D03*
D33*
X139356000Y67100000D03*
X139356000Y71940000D03*
D34*
X142356000Y66790000D03*
X142356000Y72250000D03*
D35*
X142596000Y68560000D03*
X142596000Y70480000D03*
D36*
X141750000Y60200000D03*
X141750000Y63500000D03*
D37*
X50723000Y86964000D03*
X54023000Y86964000D03*
X54533000Y94330000D03*
X57833000Y94330000D03*
D38*
X53323000Y80852000D03*
X51423000Y80852000D03*
X52373000Y78852000D03*
D39*
X-2150000Y75500000D03*
X4650000Y75500000D03*
D36*
X40500000Y87150000D03*
X40500000Y83850000D03*
X41500000Y66650000D03*
X41500000Y63350000D03*
X39000000Y49400000D03*
X39000000Y46100000D03*
D12*
X134685000Y49372000D03*
X133185000Y49372000D03*
X134772000Y64560000D03*
X133272000Y64560000D03*
D40*
X132522000Y62528000D03*
X135522000Y62528000D03*
D11*
X138086000Y63048000D03*
X138086000Y64548000D03*
X53000000Y62826000D03*
X53000000Y64326000D03*
X115206000Y46006000D03*
X115206000Y44506000D03*
D41*
X19611000Y50844000D03*
X21611000Y50844000D03*
D42*
X17436000Y57051000D03*
X17436000Y55051000D03*
X23532000Y57051000D03*
X23532000Y55051000D03*
D41*
X19484000Y56940000D03*
X21484000Y56940000D03*
D11*
X96176000Y72954000D03*
X96176000Y74454000D03*
D12*
X63307000Y91790000D03*
X64807000Y91790000D03*
D11*
X62787000Y81134000D03*
X62787000Y82634000D03*
D40*
X50873000Y83408000D03*
X53873000Y83408000D03*
D43*
X52373000Y76272000D03*
X52373000Y73272000D03*
D11*
X74299126Y79896588D03*
X74299126Y81396588D03*
X94144000Y72954000D03*
X94144000Y74454000D03*
X72808000Y34310000D03*
X72808000Y32810000D03*
X99224000Y72942000D03*
X99224000Y74442000D03*
X93500000Y-250000D03*
X93500000Y1250000D03*
X102272000Y72954000D03*
X102272000Y74454000D03*
X96250000Y-1000000D03*
X96250000Y500000D03*
D12*
X96164000Y68370000D03*
X94664000Y68370000D03*
D11*
X112170000Y45756000D03*
X112170000Y44256000D03*
D12*
X70750000Y93500000D03*
X69250000Y93500000D03*
D43*
X49448000Y53900000D03*
X49448000Y50900000D03*
X46908000Y53900000D03*
X46908000Y50900000D03*
D11*
X51734000Y52412000D03*
X51734000Y53912000D03*
D12*
X58465000Y41224000D03*
X59965000Y41224000D03*
X113750000Y52500000D03*
X115250000Y52500000D03*
X58326000Y44780000D03*
X56826000Y44780000D03*
D11*
X53512000Y50241000D03*
X53512000Y51741000D03*
D43*
X85000000Y68600000D03*
X85000000Y65600000D03*
X50968000Y65088000D03*
X50968000Y62088000D03*
X78650000Y68600000D03*
X78650000Y65600000D03*
D40*
X132435000Y47340000D03*
X135435000Y47340000D03*
D11*
X112432000Y72966000D03*
X112432000Y74466000D03*
X108368000Y72954000D03*
X108368000Y74454000D03*
X106336000Y72954000D03*
X106336000Y74454000D03*
X101000000Y-1000000D03*
X101000000Y500000D03*
X106250000Y-1000000D03*
X106250000Y500000D03*
X92112000Y72954000D03*
X92112000Y74454000D03*
X89064000Y72942000D03*
X89064000Y74442000D03*
D12*
X102284000Y70402000D03*
X103784000Y70402000D03*
X113714000Y70378000D03*
X115214000Y70378000D03*
D11*
X110400000Y72954000D03*
X110400000Y74454000D03*
D12*
X113714000Y66822000D03*
X115214000Y66822000D03*
X113714000Y68600000D03*
X115214000Y68600000D03*
X113714000Y65294000D03*
X115214000Y65294000D03*
X113714000Y63516000D03*
X115214000Y63516000D03*
D44*
X46142000Y67304000D03*
X46142000Y61904000D03*
D12*
X58326000Y43383000D03*
X56826000Y43383000D03*
D11*
X46654000Y46546000D03*
X46654000Y45046000D03*
D43*
X44368000Y44804000D03*
X44368000Y47804000D03*
X89282000Y42268000D03*
X89282000Y39268000D03*
D40*
X41090000Y49860000D03*
X44090000Y49860000D03*
D45*
X38366000Y54432000D03*
X43766000Y54432000D03*
D43*
X82932000Y42292000D03*
X82932000Y39292000D03*
D11*
X31500000Y84050000D03*
X31500000Y82550000D03*
D41*
X20230000Y73704000D03*
X22230000Y73704000D03*
D12*
X34398000Y77370000D03*
X32898000Y77370000D03*
D42*
X18198000Y79784000D03*
X18198000Y77784000D03*
X24294000Y79800000D03*
X24294000Y77800000D03*
D41*
X20246000Y79800000D03*
X22246000Y79800000D03*
D11*
X104304000Y72954000D03*
X104304000Y74454000D03*
D12*
X40750000Y76000000D03*
X39250000Y76000000D03*
X46500000Y75750000D03*
X45000000Y75750000D03*
D11*
X77750000Y75500000D03*
X77750000Y77000000D03*
D43*
X96938000Y47000000D03*
X96938000Y44000000D03*
D12*
X102284000Y68500000D03*
X103784000Y68500000D03*
D11*
X89572000Y60738000D03*
X89572000Y59238000D03*
X109130000Y58984000D03*
X109130000Y60484000D03*
X108876000Y51364000D03*
X108876000Y52864000D03*
X87794000Y61754000D03*
X87794000Y60254000D03*
X87794000Y54666000D03*
X87794000Y56166000D03*
X98716000Y46804000D03*
X98716000Y48304000D03*
D12*
X100736000Y68500000D03*
X99236000Y68500000D03*
D46*
X37462500Y84650000D03*
X38537500Y84650000D03*
D47*
X38000000Y86425000D03*
X38000000Y84575000D03*
D46*
X38537500Y86350000D03*
X37462500Y86350000D03*
X37416500Y77492000D03*
X38491500Y77492000D03*
D47*
X37954000Y79267000D03*
X37954000Y77417000D03*
D46*
X38491500Y79192000D03*
X37416500Y79192000D03*
D48*
X66343000Y91790000D03*
X66343000Y90715000D03*
D49*
X68118000Y91252500D03*
X66268000Y91252500D03*
D48*
X68043000Y90715000D03*
X68043000Y91790000D03*
X57287000Y87950500D03*
X57287000Y89025500D03*
D49*
X55512000Y88488000D03*
X57362000Y88488000D03*
D48*
X55587000Y89025500D03*
X55587000Y87950500D03*
D50*
X8336000Y70026000D03*
X8336000Y68756000D03*
X8336000Y67476000D03*
X8336000Y66206000D03*
X13836000Y66206000D03*
X13836000Y67476000D03*
X13836000Y68756000D03*
X13836000Y70026000D03*
D51*
X11586000Y68116000D03*
D52*
X12336000Y69206000D03*
X12336000Y67026000D03*
D53*
X10336000Y69206000D03*
X10336000Y67026000D03*
D50*
X8344000Y61898000D03*
X8344000Y60628000D03*
X8344000Y59348000D03*
X8344000Y58078000D03*
X13844000Y58078000D03*
X13844000Y59348000D03*
X13844000Y60628000D03*
X13844000Y61898000D03*
D51*
X11594000Y59988000D03*
D52*
X12344000Y61078000D03*
X12344000Y58898000D03*
D53*
X10344000Y61078000D03*
X10344000Y58898000D03*
D48*
X58422000Y63177500D03*
X58422000Y64252500D03*
D49*
X56647000Y63715000D03*
X58497000Y63715000D03*
D48*
X56722000Y64252500D03*
X56722000Y63177500D03*
D54*
X128620000Y87500000D03*
D55*
X126080000Y87500000D03*
X123540000Y87500000D03*
X121000000Y87500000D03*
X118460000Y87500000D03*
X115920000Y87500000D03*
D37*
X55670000Y48336000D03*
X52370000Y48336000D03*
D56*
X58977000Y84390000D03*
X58977000Y86490000D03*
X61009000Y88708000D03*
X61009000Y90808000D03*
D38*
X55995000Y80630000D03*
X57895000Y80630000D03*
X56945000Y82630000D03*
D28*
X117996000Y55194000D03*
X116496000Y55194000D03*
D29*
X58977000Y89250000D03*
X58977000Y87750000D03*
D11*
X109122000Y45756000D03*
X109122000Y44256000D03*
X63250000Y9000000D03*
X63250000Y7500000D03*
X65750000Y9000000D03*
X65750000Y7500000D03*
X68250000Y9000000D03*
X68250000Y7500000D03*
X70750000Y9000000D03*
X70750000Y7500000D03*
X73250000Y9000000D03*
X73250000Y7500000D03*
D12*
X113726000Y55194000D03*
X115226000Y55194000D03*
X113714000Y57992000D03*
X115214000Y57992000D03*
D11*
X75750000Y9000000D03*
X75750000Y7500000D03*
X78250000Y9000000D03*
X78250000Y7500000D03*
X103074000Y46006000D03*
X103074000Y44506000D03*
X100276000Y45994000D03*
X100276000Y44494000D03*
X80750000Y9000000D03*
X80750000Y7500000D03*
X83250000Y9000000D03*
X83250000Y7500000D03*
D28*
X117996000Y57992000D03*
X116496000Y57992000D03*
X120802000Y55194000D03*
X119302000Y55194000D03*
X120790000Y57992000D03*
X119290000Y57992000D03*
D29*
X103074000Y41458000D03*
X103074000Y42958000D03*
X100276000Y41470000D03*
X100276000Y42970000D03*
X103074000Y38664000D03*
X103074000Y40164000D03*
X100276000Y38664000D03*
X100276000Y40164000D03*
D11*
X82968000Y72966000D03*
X82968000Y74466000D03*
X86016000Y72954000D03*
X86016000Y74454000D03*
D50*
X14134000Y84362000D03*
X14134000Y85632000D03*
X14134000Y86912000D03*
X14134000Y88182000D03*
X8634000Y88182000D03*
X8634000Y86912000D03*
X8634000Y85632000D03*
X8634000Y84362000D03*
D51*
X10884000Y86272000D03*
D52*
X10134000Y85182000D03*
X10134000Y87362000D03*
D53*
X12134000Y85182000D03*
X12134000Y87362000D03*
D11*
X63000000Y-500000D03*
X63000000Y1000000D03*
X70750000Y-750000D03*
X70750000Y750000D03*
X73250000Y-750000D03*
X73250000Y750000D03*
D29*
X86016000Y80030000D03*
X86016000Y78530000D03*
D57*
X-2000000Y81000000D03*
X5000000Y81000000D03*
X-2000000Y86000000D03*
X5000000Y86000000D03*
X-2320000Y62020000D03*
X4680000Y62020000D03*
X-2320000Y67020000D03*
X4680000Y67020000D03*
X135000000Y78750000D03*
X142000000Y78750000D03*
X135000000Y83750000D03*
X142000000Y83750000D03*
D12*
X82500000Y93750000D03*
X84000000Y93750000D03*
X101000000Y92500000D03*
X99500000Y92500000D03*
D11*
X89250000Y86750000D03*
X89250000Y88250000D03*
X95000000Y86750000D03*
X95000000Y88250000D03*
D29*
X82500000Y90750000D03*
X82500000Y92250000D03*
X101250000Y89750000D03*
X101250000Y91250000D03*
X84250000Y92250000D03*
X84250000Y90750000D03*
X99500000Y91250000D03*
X99500000Y89750000D03*
X86000000Y92250000D03*
X86000000Y93750000D03*
X86000000Y89500000D03*
X86000000Y91000000D03*
X98000000Y91000000D03*
X98000000Y92500000D03*
X98000000Y88250000D03*
X98000000Y89750000D03*
D21*
X89300000Y93655000D03*
X89300000Y92385000D03*
X89300000Y91115000D03*
X89300000Y89845000D03*
X94700000Y89845000D03*
X94700000Y91115000D03*
X94700000Y92385000D03*
X94700000Y93655000D03*
D58*
X24750000Y37750000D03*
X32750000Y37750000D03*
X24750000Y48500000D03*
X32750000Y48500000D03*
D12*
X129750000Y64500000D03*
X131250000Y64500000D03*
X143250000Y52750000D03*
X144750000Y52750000D03*
D59*
X109000000Y89900000D03*
X109000000Y91600000D03*
D29*
X109000000Y87000000D03*
X109000000Y88500000D03*
X130500000Y69750000D03*
X130500000Y71250000D03*
X130500000Y68500000D03*
X130500000Y67000000D03*
D60*
X128500000Y13100000D03*
D61*
X128500000Y10725000D03*
D60*
X133000000Y13100000D03*
D61*
X133000000Y10725000D03*
D60*
X137500000Y13100000D03*
D61*
X137500000Y10725000D03*
D60*
X142250000Y13100000D03*
D61*
X142250000Y10725000D03*
D62*
X82750000Y16000000D03*
D63*
X80375000Y16000000D03*
D62*
X87500000Y16000000D03*
D63*
X89875000Y16000000D03*
D64*
X141000000Y0D03*
D65*
X143400000Y0D03*
X142697056Y-1697056D03*
X141000000Y-2400000D03*
X139302944Y-1697056D03*
X138600000Y0D03*
X139302944Y1697056D03*
X141000000Y2400000D03*
X142697056Y1697056D03*
D64*
X141000000Y92000000D03*
D65*
X143400000Y92000000D03*
X142697056Y90302944D03*
X141000000Y89600000D03*
X139302944Y90302944D03*
X138600000Y92000000D03*
X139302944Y93697056D03*
X141000000Y94400000D03*
X142697056Y93697056D03*
D64*
X69500000Y63500000D03*
D65*
X71900000Y63500000D03*
X71197056Y61802944D03*
X69500000Y61100000D03*
X67802944Y61802944D03*
X67100000Y63500000D03*
X67802944Y65197056D03*
X69500000Y65900000D03*
X71197056Y65197056D03*
D64*
X0Y0D03*
D65*
X2400000Y0D03*
X1697056Y-1697056D03*
X0Y-2400000D03*
X-1697056Y-1697056D03*
X-2400000Y0D03*
X-1697056Y1697056D03*
X0Y2400000D03*
X1697056Y1697056D03*
D64*
X0Y92000000D03*
D65*
X2400000Y92000000D03*
X1697056Y90302944D03*
X0Y89600000D03*
X-1697056Y90302944D03*
X-2400000Y92000000D03*
X-1697056Y93697056D03*
X0Y94400000D03*
X1697056Y93697056D03*
D66*
X122250000Y81880000D03*
X122250000Y76120000D03*
X126250000Y76120000D03*
X126250000Y81880000D03*
D30*
X77500000Y83450000D03*
X77500000Y81550000D03*
X79500000Y82500000D03*
D43*
X140000000Y37750000D03*
X140000000Y40750000D03*
X133000000Y37750000D03*
X133000000Y40750000D03*
D16*
X137750000Y38300000D03*
X137750000Y39250000D03*
X137750000Y40200000D03*
X135550000Y40200000D03*
X135550000Y38300000D03*
D67*
X93540000Y5540000D03*
X96080000Y5540000D03*
X98620000Y5540000D03*
X101160000Y5540000D03*
X103700000Y5540000D03*
X106240000Y5540000D03*
X108780000Y5540000D03*
X111320000Y5540000D03*
X113860000Y5540000D03*
X116400000Y5540000D03*
D68*
X91000000Y-2000000D03*
X118940000Y-2000000D03*
D67*
X93540000Y3000000D03*
X96080000Y3000000D03*
X98620000Y3000000D03*
X101160000Y3000000D03*
X103700000Y3000000D03*
X106240000Y3000000D03*
X108780000Y3000000D03*
X111320000Y3000000D03*
X113860000Y3000000D03*
X116400000Y3000000D03*
X60540000Y5540000D03*
X63080000Y5540000D03*
X65620000Y5540000D03*
X68160000Y5540000D03*
X70700000Y5540000D03*
X73240000Y5540000D03*
X75780000Y5540000D03*
X78320000Y5540000D03*
X80860000Y5540000D03*
X83400000Y5540000D03*
D68*
X58000000Y-2000000D03*
X85940000Y-2000000D03*
D67*
X60540000Y3000000D03*
X63080000Y3000000D03*
X65620000Y3000000D03*
X68160000Y3000000D03*
X70700000Y3000000D03*
X73240000Y3000000D03*
X75780000Y3000000D03*
X78320000Y3000000D03*
X80860000Y3000000D03*
X83400000Y3000000D03*
D42*
X44750000Y79250000D03*
X44750000Y81250000D03*
D41*
X60993000Y76804000D03*
X58993000Y76804000D03*
X67133000Y87726000D03*
X69133000Y87726000D03*
X93000000Y95250000D03*
X91000000Y95250000D03*
D11*
X117250000Y80250000D03*
X117250000Y78750000D03*
X119000000Y80250000D03*
X119000000Y78750000D03*
X78250000Y-750000D03*
X78250000Y750000D03*
X75750000Y-750000D03*
X75750000Y750000D03*
D43*
X127750000Y18250000D03*
X127750000Y21250000D03*
X71250000Y21250000D03*
X71250000Y18250000D03*
X78750000Y21250000D03*
X78750000Y18250000D03*
X115000000Y21250000D03*
X115000000Y18250000D03*
X68750000Y21250000D03*
X68750000Y18250000D03*
D40*
X17000000Y46500000D03*
X14000000Y46500000D03*
D43*
X73750000Y21250000D03*
X73750000Y18250000D03*
X14250000Y16500000D03*
X14250000Y13500000D03*
X10250000Y16500000D03*
X10250000Y13500000D03*
X76250000Y21250000D03*
X76250000Y18250000D03*
X18250000Y16500000D03*
X18250000Y13500000D03*
D29*
X117250000Y77500000D03*
X117250000Y76000000D03*
X119000000Y77500000D03*
X119000000Y76000000D03*
D69*
X106924000Y52464000D03*
X106924000Y52964000D03*
X106924000Y53464000D03*
X106924000Y53964000D03*
X106924000Y54464000D03*
X106924000Y54964000D03*
X106924000Y55464000D03*
X106924000Y55964000D03*
X106924000Y56464000D03*
X106924000Y56964000D03*
X106924000Y57464000D03*
X106924000Y57964000D03*
X106924000Y58464000D03*
X106924000Y58964000D03*
X106924000Y59464000D03*
X106924000Y59964000D03*
X106924000Y60464000D03*
X106924000Y60964000D03*
X106924000Y61464000D03*
X106924000Y61964000D03*
X106924000Y62464000D03*
X106924000Y62964000D03*
X106924000Y63464000D03*
X106924000Y63964000D03*
X106924000Y64464000D03*
D70*
X105224000Y66164000D03*
X104724000Y66164000D03*
X104224000Y66164000D03*
X103724000Y66164000D03*
X103224000Y66164000D03*
X102724000Y66164000D03*
X102224000Y66164000D03*
X101724000Y66164000D03*
X101224000Y66164000D03*
X100724000Y66164000D03*
X100224000Y66164000D03*
X99724000Y66164000D03*
X99224000Y66164000D03*
X98724000Y66164000D03*
X98224000Y66164000D03*
X97724000Y66164000D03*
X97224000Y66164000D03*
X96724000Y66164000D03*
X96224000Y66164000D03*
X95724000Y66164000D03*
X95224000Y66164000D03*
X94724000Y66164000D03*
X94224000Y66164000D03*
X93724000Y66164000D03*
X93224000Y66164000D03*
D69*
X91524000Y64464000D03*
X91524000Y63964000D03*
X91524000Y63464000D03*
X91524000Y62964000D03*
X91524000Y62464000D03*
X91524000Y61964000D03*
X91524000Y61464000D03*
X91524000Y60964000D03*
X91524000Y60464000D03*
X91524000Y59964000D03*
X91524000Y59464000D03*
X91524000Y58964000D03*
X91524000Y58464000D03*
X91524000Y57964000D03*
X91524000Y57464000D03*
X91524000Y56964000D03*
X91524000Y56464000D03*
X91524000Y55964000D03*
X91524000Y55464000D03*
X91524000Y54964000D03*
X91524000Y54464000D03*
X91524000Y53964000D03*
X91524000Y53464000D03*
X91524000Y52964000D03*
X91524000Y52464000D03*
D70*
X93224000Y50764000D03*
X93724000Y50764000D03*
X94224000Y50764000D03*
X94724000Y50764000D03*
X95224000Y50764000D03*
X95724000Y50764000D03*
X96224000Y50764000D03*
X96724000Y50764000D03*
X97224000Y50764000D03*
X97724000Y50764000D03*
X98224000Y50764000D03*
X98724000Y50764000D03*
X99224000Y50764000D03*
X99724000Y50764000D03*
X100224000Y50764000D03*
X100724000Y50764000D03*
X101224000Y50764000D03*
X101724000Y50764000D03*
X102224000Y50764000D03*
X102724000Y50764000D03*
X103224000Y50764000D03*
X103724000Y50764000D03*
X104224000Y50764000D03*
X104724000Y50764000D03*
X105224000Y50764000D03*
D21*
X49455000Y46039000D03*
X49455000Y44769000D03*
X49455000Y43499000D03*
X49455000Y42229000D03*
X54855000Y42229000D03*
X54855000Y43499000D03*
X54855000Y44769000D03*
X54855000Y46039000D03*
D71*
X52755000Y43334000D03*
X52755000Y44934000D03*
X51555000Y43334000D03*
X51555000Y44934000D03*
D72*
X124955000Y23800000D03*
X123685000Y23800000D03*
X122415000Y23800000D03*
X121145000Y23800000D03*
X121145000Y18400000D03*
X122415000Y18400000D03*
X123685000Y18400000D03*
X124955000Y18400000D03*
D73*
X122250000Y20500000D03*
X123850000Y20500000D03*
X122250000Y21700000D03*
X123850000Y21700000D03*
D11*
X120500000Y46000000D03*
X120500000Y44500000D03*
X117250000Y46000000D03*
X117250000Y44500000D03*
D36*
X76250000Y68400000D03*
X76250000Y65100000D03*
X142500000Y37900000D03*
X142500000Y34600000D03*
D12*
X113750000Y60750000D03*
X115250000Y60750000D03*
D11*
X106000000Y46000000D03*
X106000000Y44500000D03*
D36*
X124000000Y2900000D03*
X124000000Y-400000D03*
D38*
X128550000Y-2250000D03*
X130450000Y-2250000D03*
X129500000Y-250000D03*
D29*
X126250000Y2750000D03*
X126250000Y1250000D03*
D28*
X125500000Y-2250000D03*
X124000000Y-2250000D03*
D29*
X129500000Y2750000D03*
X129500000Y1250000D03*
D28*
X116500000Y60750000D03*
X118000000Y60750000D03*
X119250000Y60750000D03*
X120750000Y60750000D03*
D29*
X135000000Y2250000D03*
X135000000Y750000D03*
X135000000Y-500000D03*
X135000000Y-2000000D03*
X106000000Y43000000D03*
X106000000Y41500000D03*
D74*
X23483740Y63798000D03*
X17484260Y63798000D03*
D75*
X7450000Y-3065000D03*
X7450000Y-935000D03*
D76*
X11250000Y-2000000D03*
D77*
X11950000Y-2935000D03*
X11950000Y-1035000D03*
X9850000Y-1035000D03*
X9850000Y-2935000D03*
D78*
X13350000Y-1985000D03*
D75*
X-1750000Y54120000D03*
X-1750000Y56250000D03*
D76*
X2050000Y55185000D03*
D77*
X2750000Y54250000D03*
X2750000Y56150000D03*
X650000Y56150000D03*
X650000Y54250000D03*
D78*
X4150000Y55200000D03*
D74*
X23991740Y86175400D03*
X17992260Y86175400D03*
D67*
X27600000Y6360000D03*
X30140000Y6360000D03*
X32680000Y6360000D03*
X35220000Y6360000D03*
X37760000Y6360000D03*
X40300000Y6360000D03*
X42840000Y6360000D03*
X45380000Y6360000D03*
X47920000Y6360000D03*
X50460000Y6360000D03*
D79*
X30005000Y1360000D03*
X32305000Y1360000D03*
X35255000Y1360000D03*
X37555000Y1360000D03*
X40505000Y1360000D03*
X42805000Y1360000D03*
X45755000Y1360000D03*
X48055000Y1360000D03*
D68*
X25060000Y-2000000D03*
X53000000Y-2000000D03*
D80*
X31750000Y67250000D03*
X61750000Y65500000D03*
X95000000Y39000000D03*
X63500000Y57000000D03*
X77750000Y70750000D03*
X127250000Y42750000D03*
X134000000Y92250000D03*
D41*
X35250000Y72250000D03*
X33250000Y72250000D03*
D16*
X29400000Y74200000D03*
X29400000Y73250000D03*
X29400000Y72300000D03*
X31600000Y72300000D03*
X31600000Y74200000D03*
D81*
X144850000Y55500000D03*
X138650000Y55500000D03*
X138650000Y50000000D03*
X144850000Y50000000D03*
D82*
G36*
X147373000Y-6373000D02*
X-6373000Y-6373000D01*
X-6373000Y97000000D01*
X-5127000Y97000000D01*
X-5127000Y-5000000D01*
X-5116994Y-5049410D01*
X-5088553Y-5091035D01*
X-5046159Y-5118315D01*
X-5000000Y-5127000D01*
X146000000Y-5127000D01*
X146049410Y-5116994D01*
X146091035Y-5088553D01*
X146118315Y-5046159D01*
X146127000Y-5000000D01*
X146127000Y97000000D01*
X146116994Y97049410D01*
X146088553Y97091035D01*
X146046159Y97118315D01*
X146000000Y97127000D01*
X-5000000Y97127000D01*
X-5049410Y97116994D01*
X-5091035Y97088553D01*
X-5118315Y97046159D01*
X-5127000Y97000000D01*
X-6373000Y97000000D01*
X-6373000Y98373000D01*
X147373000Y98373000D01*
X147373000Y-6373000D01*
X147373000Y-6373000D01*
G37*
X147373000Y-6373000D02*
X-6373000Y-6373000D01*
X-6373000Y97000000D01*
X-5127000Y97000000D01*
X-5127000Y-5000000D01*
X-5116994Y-5049410D01*
X-5088553Y-5091035D01*
X-5046159Y-5118315D01*
X-5000000Y-5127000D01*
X146000000Y-5127000D01*
X146049410Y-5116994D01*
X146091035Y-5088553D01*
X146118315Y-5046159D01*
X146127000Y-5000000D01*
X146127000Y97000000D01*
X146116994Y97049410D01*
X146088553Y97091035D01*
X146046159Y97118315D01*
X146000000Y97127000D01*
X-5000000Y97127000D01*
X-5049410Y97116994D01*
X-5091035Y97088553D01*
X-5118315Y97046159D01*
X-5127000Y97000000D01*
X-6373000Y97000000D01*
X-6373000Y98373000D01*
X147373000Y98373000D01*
X147373000Y-6373000D01*
M02*
