M48
;DRILL file {KiCad 4.0.7} date 01/15/18 18:20:25
;FORMAT={-:-/ absolute / inch / decimal}
FMAT,2
INCH,TZ
T1C0.010
T2C0.012
T3C0.020
T4C0.039
T5C0.047
T6C0.071
T7C0.102
T8C0.126
%
G90
G05
M72
T1
X-0.2267Y3.8481
X-0.2267Y3.484
X-0.2267Y3.0905
X-0.2264Y2.5984
X-0.2264Y2.2047
X-0.2264Y1.811
X-0.2264Y1.4173
X-0.2264Y1.0236
X-0.2264Y0.6299
X-0.2264Y0.2362
X-0.2264Y-0.2264
X-0.1476Y2.2343
X-0.1476Y2.2047
X-0.1476Y2.1752
X-0.1476Y2.1457
X-0.1476Y2.1161
X-0.0098Y3.0315
X-0.0098Y2.9134
X0.0197Y3.0315
X0.0197Y2.9724
X0.0197Y2.9134
X0.1665Y1.9283
X0.1673Y1.2992
X0.2162Y3.8481
X0.2165Y-0.0197
X0.2165Y-0.0492
X0.2165Y-0.0787
X0.2165Y-0.1083
X0.2165Y-0.1378
X0.2461Y1.2795
X0.2465Y1.9189
X0.251Y0.9118
X0.2524Y1.5417
X0.2852Y3.3949
X0.2852Y3.3558
X0.2852Y3.3173
X0.2852Y3.2778
X0.2854Y3.5531
X0.2854Y3.5138
X0.2854Y3.4744
X0.2854Y3.435
X0.2854Y3.2382
X0.2945Y1.1917
X0.3051Y1.8406
X0.315Y-0.2264
X0.3246Y3.2778
X0.3248Y3.5531
X0.3248Y3.5138
X0.3248Y3.2382
X0.3248Y2.1063
X0.3543Y0.5709
X0.3615Y1.7167
X0.3615Y1.6774
X0.3615Y1.638
X0.3615Y1.5986
X0.3615Y1.5593
X0.3615Y1.5199
X0.3615Y1.4805
X0.3615Y1.4411
X0.3615Y1.4018
X0.3615Y1.3624
X0.3615Y1.0867
X0.3615Y1.0474
X0.3615Y1.008
X0.3615Y0.9686
X0.3615Y0.9293
X0.3615Y0.8899
X0.3615Y0.8505
X0.3615Y0.8111
X0.3615Y0.7718
X0.3615Y0.7324
X0.3639Y3.5528
X0.364Y3.2778
X0.3642Y3.5138
X0.3642Y3.2382
X0.3642Y1.9094
X0.3642Y1.2894
X0.3702Y3.4535
X0.3702Y3.4141
X0.3702Y3.3747
X0.3702Y3.3353
X0.374Y2.4803
X0.374Y2.2441
X0.3975Y2.7423
X0.3975Y2.7029
X0.3975Y2.6636
X0.3975Y2.6242
X0.3975Y2.4195
X0.3975Y2.3801
X0.3975Y2.3407
X0.3975Y2.3014
X0.4007Y1.7177
X0.4008Y1.6774
X0.4008Y1.638
X0.4008Y1.5986
X0.4008Y1.5593
X0.4008Y1.5199
X0.4008Y1.4805
X0.4008Y1.4411
X0.4008Y1.4018
X0.4008Y1.3624
X0.4008Y1.0867
X0.4008Y1.0474
X0.4008Y1.008
X0.4008Y0.9686
X0.4008Y0.9293
X0.4008Y0.8899
X0.4008Y0.8505
X0.4008Y0.8111
X0.4008Y0.7718
X0.4008Y0.7324
X0.4035Y3.5531
X0.4035Y3.5138
X0.4035Y3.2776
X0.4035Y3.2776
X0.4035Y3.2382
X0.4035Y2.8346
X0.4035Y2.7953
X0.4035Y2.2441
X0.4035Y0.5709
X0.4096Y3.4535
X0.4096Y3.4141
X0.4096Y3.3747
X0.4096Y3.3353
X0.4232Y1.8398
X0.4232Y1.2205
X0.4369Y2.7423
X0.4369Y2.7029
X0.4369Y2.6636
X0.4369Y2.6242
X0.4369Y2.4195
X0.4369Y2.3801
X0.4369Y2.3407
X0.4369Y2.3014
X0.4402Y1.6774
X0.4402Y1.638
X0.4402Y1.5986
X0.4402Y1.5593
X0.4402Y1.5199
X0.4402Y1.4805
X0.4402Y1.4411
X0.4402Y1.4018
X0.4402Y1.3624
X0.4402Y1.0867
X0.4402Y1.0474
X0.4402Y1.008
X0.4402Y0.9686
X0.4402Y0.9293
X0.4402Y0.8899
X0.4402Y0.8505
X0.4402Y0.8111
X0.4402Y0.7718
X0.4402Y0.7324
X0.4411Y1.7185
X0.4429Y3.5531
X0.4429Y3.5138
X0.4429Y3.2776
X0.4429Y3.2382
X0.4429Y2.8346
X0.4429Y2.7953
X0.4429Y2.5394
X0.4429Y2.5
X0.4429Y2.2441
X0.4429Y2.2047
X0.449Y3.4535
X0.449Y3.4141
X0.449Y3.3747
X0.449Y3.3353
X0.4528Y0.5709
X0.4762Y2.7423
X0.4762Y2.7029
X0.4762Y2.6636
X0.4762Y2.6242
X0.4762Y2.4195
X0.4762Y2.3801
X0.4762Y2.3407
X0.4762Y2.3014
X0.4796Y1.7185
X0.4796Y1.6774
X0.4796Y1.638
X0.4796Y1.5986
X0.4796Y1.5593
X0.4796Y1.5199
X0.4796Y1.4805
X0.4796Y1.4411
X0.4796Y1.4018
X0.4796Y1.3624
X0.4796Y1.0867
X0.4796Y1.0474
X0.4796Y1.008
X0.4796Y0.9686
X0.4796Y0.9293
X0.4796Y0.8899
X0.4796Y0.8505
X0.4796Y0.8111
X0.4796Y0.7718
X0.4796Y0.7324
X0.4823Y3.5531
X0.4823Y3.5138
X0.4823Y3.2776
X0.4823Y3.2382
X0.4823Y2.8346
X0.4823Y2.7953
X0.4823Y2.5394
X0.4823Y2.5
X0.4823Y2.2441
X0.4823Y2.2047
X0.4884Y3.4535
X0.4884Y3.4141
X0.4884Y3.3747
X0.4884Y3.3353
X0.502Y2.0571
X0.5118Y1.8504
X0.5118Y1.811
X0.5118Y0.5709
X0.5156Y2.7423
X0.5156Y2.7029
X0.5156Y2.6636
X0.5156Y2.6242
X0.5156Y2.4195
X0.5156Y2.3801
X0.5156Y2.3407
X0.5156Y2.3014
X0.5189Y1.7185
X0.5189Y1.6774
X0.5189Y1.638
X0.5189Y1.5986
X0.5189Y1.5593
X0.5189Y1.5199
X0.5189Y1.4805
X0.5189Y1.4411
X0.5189Y1.4018
X0.5189Y1.3624
X0.5189Y1.0867
X0.5189Y1.0474
X0.5189Y1.008
X0.5189Y0.9686
X0.5189Y0.9293
X0.5189Y0.8899
X0.5189Y0.8505
X0.5189Y0.8111
X0.5189Y0.7718
X0.5189Y0.7324
X0.5217Y2.8346
X0.5217Y2.7953
X0.5217Y2.5394
X0.5217Y2.5
X0.5217Y2.2441
X0.5217Y2.2047
X0.5583Y1.7185
X0.5583Y1.6774
X0.5583Y1.638
X0.5583Y1.5986
X0.5583Y1.5593
X0.5583Y1.5199
X0.5583Y1.4805
X0.5583Y1.4411
X0.5583Y1.4018
X0.5583Y1.3624
X0.5583Y1.0867
X0.5583Y1.0474
X0.5583Y1.008
X0.5583Y0.9686
X0.5583Y0.9293
X0.5583Y0.8899
X0.5583Y0.8505
X0.5583Y0.8111
X0.5583Y0.7718
X0.5583Y0.7324
X0.561Y2.8346
X0.561Y2.7953
X0.561Y2.5394
X0.561Y2.5
X0.561Y2.2441
X0.561Y2.2047
X0.561Y0.5709
X0.5977Y1.7185
X0.5977Y1.6774
X0.5977Y1.638
X0.5977Y1.5986
X0.5977Y1.5593
X0.5977Y1.5199
X0.5977Y1.4805
X0.5977Y1.4411
X0.5977Y1.4018
X0.5977Y1.3624
X0.5977Y1.0867
X0.5977Y1.0474
X0.5977Y1.008
X0.5977Y0.9686
X0.5977Y0.9293
X0.5977Y0.8899
X0.5977Y0.8505
X0.5977Y0.8111
X0.5977Y0.7718
X0.5977Y0.7324
X0.6004Y2.8346
X0.6004Y2.7953
X0.6004Y2.7559
X0.6004Y2.7165
X0.6004Y2.6772
X0.6004Y2.6378
X0.6004Y2.5984
X0.6004Y2.5591
X0.6004Y2.5197
X0.6004Y2.4803
X0.6004Y2.4409
X0.6004Y2.4016
X0.6004Y2.3622
X0.6004Y2.3228
X0.6004Y2.2835
X0.6004Y2.2441
X0.6004Y2.2047
X0.6099Y3.8481
X0.6102Y0.5709
X0.637Y1.7185
X0.637Y1.6774
X0.637Y1.638
X0.637Y1.5986
X0.637Y1.5593
X0.637Y1.5199
X0.637Y1.4805
X0.637Y1.4411
X0.637Y1.4018
X0.637Y1.3624
X0.637Y1.0867
X0.637Y1.0474
X0.637Y1.008
X0.637Y0.9686
X0.637Y0.9293
X0.637Y0.8899
X0.637Y0.8505
X0.637Y0.8111
X0.637Y0.7718
X0.637Y0.7324
X0.6693Y0.5709
X0.6865Y2.128
X0.7087Y-0.2264
X0.7185Y3.0118
X0.7185Y0.5709
X0.7234Y2.0352
X0.7499Y2.9743
X0.7579Y3.0118
X0.7579Y0.5709
X0.7721Y1.9561
X0.7965Y2.8574
X0.8115Y1.157
X0.8465Y2.1063
X0.8691Y2.146
X0.8702Y0.8811
X0.8702Y0.8418
X0.8702Y0.8024
X0.876Y2.8445
X0.8915Y1.1572
X0.9011Y3.0627
X0.9096Y0.8811
X0.9096Y0.8418
X0.9096Y0.8024
X0.9252Y1.8406
X0.9252Y1.8012
X0.9252Y1.5945
X0.9252Y1.5551
X0.9265Y2.1368
X0.9489Y0.8811
X0.9489Y0.8418
X0.9489Y0.8024
X0.9715Y1.1585
X0.9742Y1.8007
X0.9744Y1.8406
X0.9744Y1.5945
X0.9744Y1.5551
X0.9883Y0.8811
X0.9883Y0.8418
X0.9883Y0.8024
X0.9988Y2.6123
X0.9988Y2.573
X0.9988Y2.5336
X0.9988Y2.4942
X0.9988Y2.4548
X0.9988Y2.4155
X1.0039Y3.8484
X1.0121Y1.159
X1.0185Y3.4883
X1.0185Y3.4489
X1.0185Y3.4096
X1.0185Y3.3702
X1.0185Y3.3308
X1.0185Y3.2915
X1.0236Y1.8406
X1.0236Y1.5945
X1.0236Y1.5551
X1.0243Y1.8019
X1.0277Y0.8811
X1.0277Y0.8418
X1.0277Y0.8024
X1.0381Y2.6123
X1.0381Y2.573
X1.0381Y2.5336
X1.0381Y2.4942
X1.0381Y2.4548
X1.0381Y2.4155
X1.0515Y1.0942
X1.0578Y3.4883
X1.0578Y3.4489
X1.0578Y3.4096
X1.0578Y3.3702
X1.0578Y3.3308
X1.0578Y3.2915
X1.067Y0.8811
X1.067Y0.8418
X1.067Y0.8024
X1.0775Y2.6123
X1.0775Y2.573
X1.0775Y2.5336
X1.0775Y2.4942
X1.0775Y2.4548
X1.0775Y2.4155
X1.0972Y3.4883
X1.0972Y3.4489
X1.0972Y3.4096
X1.0972Y3.3702
X1.0972Y3.3308
X1.0972Y3.2915
X1.0972Y2.9035
X1.1024Y-0.2264
X1.1214Y1.0053
X1.122Y2.9528
X1.1319Y1.1718
X1.1911Y3.0018
X1.2303Y2.0276
X1.2303Y1.9882
X1.2303Y1.4075
X1.2303Y1.3681
X1.2402Y3.2087
X1.2484Y1.1604
X1.2598Y3.0118
X1.289Y1.9882
X1.289Y1.3681
X1.2894Y2.0276
X1.2894Y1.4075
X1.2992Y2.7854
X1.3033Y0.8811
X1.3033Y0.8418
X1.3033Y0.8024
X1.3189Y1.0925
X1.3425Y1.9888
X1.3425Y1.3687
X1.3426Y0.8811
X1.3426Y0.8418
X1.3426Y0.8024
X1.343Y2.0285
X1.343Y1.4084
X1.3583Y3.2185
X1.3583Y2.8937
X1.382Y0.8811
X1.382Y0.8418
X1.382Y0.8024
X1.3908Y1.1614
X1.3976Y3.8484
X1.3999Y3.1061
X1.4028Y3.0461
X1.4214Y0.8811
X1.4214Y0.8418
X1.4214Y0.8024
X1.437Y1.1718
X1.4567Y2.8445
X1.4607Y0.8811
X1.4607Y0.8418
X1.4607Y0.8024
X1.4862Y1.0925
X1.4961Y2.9921
X1.4961Y-0.2264
X1.5001Y0.8811
X1.5001Y0.8418
X1.5001Y0.8024
X1.5453Y2.8839
X1.5505Y1.004
X1.5551Y3.2185
X1.5615Y1.1718
X1.6043Y3.1496
X1.6635Y2.981
X1.6732Y1.1718
X1.7323Y3.2579
X1.7363Y0.8811
X1.7363Y0.8418
X1.7363Y0.8024
X1.752Y1.0925
X1.7618Y3.0709
X1.7717Y3.3071
X1.7757Y0.8811
X1.7757Y0.8418
X1.7757Y0.8024
X1.7913Y3.8484
X1.811Y1.9587
X1.811Y1.9193
X1.811Y1.8799
X1.8151Y0.8811
X1.8151Y0.8418
X1.8151Y0.8024
X1.8365Y1.1557
X1.8504Y1.9587
X1.8504Y1.9193
X1.8504Y1.8799
X1.8544Y0.8811
X1.8544Y0.8418
X1.8544Y0.8024
X1.8701Y1.1811
X1.8725Y2.9307
X1.8799Y2.9823
X1.8799Y2.4902
X1.8814Y2.4508
X1.8898Y1.9587
X1.8898Y1.9193
X1.8898Y1.8799
X1.8898Y-0.2264
X1.8938Y0.8811
X1.8938Y0.8418
X1.8938Y0.8024
X1.9165Y1.0954
X1.9193Y2.4902
X1.9193Y2.4508
X1.9291Y1.9587
X1.9291Y1.9193
X1.9291Y1.8799
X1.9332Y0.8811
X1.9332Y0.8418
X1.9332Y0.8024
X1.9482Y1.8524
X1.9685Y1.9587
X1.9685Y1.9193
X1.9685Y1.8799
X1.9783Y2.8051
X1.9861Y1.0058
X1.998Y1.1811
X2.0079Y1.9587
X2.0079Y1.9193
X2.0079Y1.8799
X2.0079Y1.6142
X2.0079Y1.5846
X2.0472Y1.6142
X2.0472Y1.5846
X2.0618Y1.978
X2.0669Y3.4449
X2.0866Y2.4213
X2.0866Y1.6142
X2.0866Y1.5846
X2.1465Y1.2886
X2.1555Y3.1102
X2.1703Y1.6159
X2.185Y3.8484
X2.2045Y3.22
X2.2244Y1.2894
X2.2441Y3.5433
X2.2586Y1.0178
X2.2586Y0.9785
X2.2586Y0.9391
X2.2586Y0.8997
X2.2586Y0.8604
X2.2586Y0.821
X2.2736Y3.5335
X2.2835Y-0.2264
X2.298Y1.0178
X2.298Y0.9785
X2.298Y0.9391
X2.298Y0.8997
X2.298Y0.8604
X2.298Y0.821
X2.3065Y1.2861
X2.3089Y2.174
X2.3374Y1.0178
X2.3374Y0.9785
X2.3374Y0.9391
X2.3374Y0.8997
X2.3374Y0.8604
X2.3374Y0.821
X2.3397Y2.4858
X2.3413Y2.1748
X2.3463Y1.1633
X2.3707Y2.5085
X2.3713Y2.1754
X2.3767Y1.0178
X2.3767Y0.9785
X2.3767Y0.9391
X2.3767Y0.8997
X2.3767Y0.8604
X2.3767Y0.821
X2.3865Y1.2848
X2.4005Y3.4252
X2.4016Y2.1752
X2.4119Y3.1538
X2.4161Y1.0178
X2.4161Y0.9785
X2.4161Y0.9391
X2.4161Y0.8997
X2.4161Y0.8604
X2.4161Y0.821
X2.4311Y3.0709
X2.4331Y2.1752
X2.4409Y0.3543
X2.4409Y0.2953
X2.4409Y-0.0197
X2.4555Y1.0178
X2.4555Y0.9785
X2.4555Y0.9391
X2.4555Y0.8997
X2.4555Y0.8604
X2.4555Y0.821
X2.4606Y2.1752
X2.4619Y3.4436
X2.4619Y2.8638
X2.4665Y1.2854
X2.4719Y3.1538
X2.4948Y1.0178
X2.4948Y0.9785
X2.4948Y0.9391
X2.4948Y0.8997
X2.4948Y0.8604
X2.4948Y0.821
X2.5372Y1.553
X2.5406Y0.3531
X2.5465Y1.2866
X2.5465Y1.0104
X2.5492Y0.2953
X2.5519Y3.6488
X2.5522Y0.0475
X2.5787Y3.8484
X2.5903Y3.2954
X2.6083Y3.4547
X2.6378Y0.3543
X2.6476Y0.2953
X2.6772Y3.6949
X2.6772Y3.5335
X2.6772Y-0.2264
X2.687Y0.7579
X2.7264Y0.7579
X2.7267Y3.1081
X2.7362Y0.3543
X2.7386Y1.3508
X2.7461Y1.1122
X2.7461Y1.0827
X2.7461Y1.0531
X2.7461Y0.2953
X2.7467Y-0.0295
X2.7559Y1.1781
X2.7657Y3.4547
X2.7756Y1.1121
X2.7756Y1.2205
X2.7756Y1.0827
X2.7756Y1.0531
X2.7854Y0.7579
X2.7955Y1.7455
X2.7955Y1.3976
X2.8051Y1.25
X2.8248Y0.7579
X2.8346Y0.3543
X2.8372Y0.0111
X2.8445Y0.2953
X2.8455Y-0.0291
X2.8501Y1.1627
X2.8501Y1.1105
X2.8585Y1.7488
X2.8642Y2.2864
X2.8826Y1.1627
X2.8826Y1.1105
X2.8837Y3.1455
X2.8839Y0.7579
X2.8947Y2.2864
X2.9035Y1.3976
X2.9045Y1.7501
X2.9124Y2.3261
X2.9232Y0.7579
X2.9331Y0.3543
X2.9386Y1.7643
X2.9424Y-0.0295
X2.9429Y0.2953
X2.95Y0.0089
X2.9528Y3.6811
X2.9528Y1.2008
X2.9659Y1.7682
X2.9724Y3.8484
X2.9823Y3.1201
X2.9823Y2.5984
X2.9823Y0.7579
X2.9832Y2.3271
X2.9934Y1.7687
X3.0017Y2.5294
X3.0118Y3.0807
X3.0157Y2.3587
X3.0212Y1.7614
X3.0217Y2.9724
X3.0217Y2.5984
X3.0217Y0.7579
X3.0315Y0.3543
X3.0392Y2.2324
X3.0409Y-0.0299
X3.0413Y0.2953
X3.0482Y0.0187
X3.0512Y3.1594
X3.0513Y1.7565
X3.061Y3.0709
X3.061Y2.4016
X3.0708Y2.2603
X3.0709Y-0.2264
X3.0787Y1.7648
X3.0807Y0.7579
X3.1008Y2.4701
X3.1054Y1.7717
X3.1118Y2.3819
X3.1201Y2.4311
X3.1201Y0.7579
X3.1201Y0.6496
X3.1201Y0.6102
X3.1299Y0.3543
X3.1361Y0.0204
X3.1398Y1.7717
X3.1398Y0.2953
X3.1791Y2.5689
X3.1794Y2.5298
X3.1864Y1.1982
X3.2025Y3.1952
X3.2188Y2.5298
X3.2283Y0.3543
X3.2283Y0.2953
X3.2382Y1.7028
X3.2521Y0.8811
X3.2521Y0.8418
X3.2521Y0.8024
X3.2582Y2.5298
X3.2665Y2.8372
X3.2677Y3.1988
X3.2677Y1.4961
X3.271Y1.0987
X3.2776Y1.7028
X3.2915Y0.8811
X3.2915Y0.8418
X3.2915Y0.8024
X3.2975Y2.5298
X3.3169Y1.7028
X3.324Y3.1969
X3.3268Y1.4961
X3.3308Y0.8811
X3.3308Y0.8418
X3.3308Y0.8024
X3.3362Y2.5298
X3.3515Y1.0967
X3.3661Y3.8484
X3.3702Y0.8811
X3.3702Y0.8418
X3.3702Y0.8024
X3.3858Y3.4843
X3.3858Y1.1718
X3.3859Y1.4959
X3.3865Y3.1982
X3.4056Y2.8176
X3.4096Y0.8811
X3.4096Y0.8418
X3.4096Y0.8024
X3.4119Y3.2096
X3.4313Y1.0958
X3.4443Y3.6895
X3.4448Y1.4961
X3.4489Y0.8811
X3.4489Y0.8418
X3.4489Y0.8024
X3.4547Y1.7028
X3.4646Y3.4154
X3.4646Y-0.2264
X3.4899Y2.3486
X3.4913Y2.1013
X3.4941Y2.5886
X3.4941Y1.7028
X3.5001Y1.0043
X3.5039Y3.1988
X3.5051Y2.1378
X3.5065Y2.8363
X3.5115Y1.1886
X3.513Y1.4954
X3.5136Y2.4336
X3.5165Y2.2397
X3.5237Y2.1735
X3.5335Y2.6083
X3.5335Y1.7028
X3.539Y2.1093
X3.5497Y3.7577
X3.563Y2.8346
X3.5728Y3.3071
X3.58Y1.877
X3.5827Y3.5433
X3.5827Y0.6496
X3.5827Y0.6102
X3.6169Y3.2994
X3.6264Y2.8336
X3.6319Y3.622
X3.6319Y3.1988
X3.6355Y1.8938
X3.6417Y0.0049
X3.6515Y1.181
X3.66Y2.4986
X3.6665Y2.4617
X3.6713Y2.8346
X3.6815Y2.3263
X3.6889Y1.9557
X3.6909Y2.4213
X3.6932Y2.0613
X3.7008Y2.3917
X3.7009Y2.2417
X3.7065Y2.8368
X3.7106Y3.0906
X3.7106Y2.0866
X3.7124Y2.3528
X3.7147Y0.8811
X3.7147Y0.8418
X3.7147Y0.8024
X3.7269Y2.7313
X3.7303Y1.0948
X3.7303Y0.0492
X3.7309Y1.6636
X3.7402Y3.3661
X3.7402Y-0.0394
X3.7403Y1.7293
X3.7416Y2.3215
X3.7465Y2.0851
X3.7482Y2.2904
X3.75Y1.6437
X3.7541Y0.8811
X3.7541Y0.8418
X3.7541Y0.8024
X3.7559Y3.2805
X3.7598Y3.8484
X3.786Y2.7313
X3.7865Y2.8368
X3.7883Y2.5306
X3.7912Y1.6897
X3.7934Y0.8811
X3.7934Y0.8418
X3.7934Y0.8024
X3.8082Y2.1251
X3.8115Y1.0949
X3.8287Y2.5394
X3.8301Y0.0635
X3.8328Y0.8811
X3.8328Y0.8418
X3.8328Y0.8024
X3.8583Y3.4449
X3.8583Y-0.2264
X3.8647Y1.3963
X3.8718Y2.0731
X3.8722Y0.8811
X3.8722Y0.8418
X3.8722Y0.8024
X3.8734Y1.7293
X3.8861Y1.7921
X3.8878Y1.1024
X3.8956Y2.5508
X3.9065Y3.1978
X3.9065Y2.8357
X3.9069Y2.7313
X3.9075Y1.414
X3.9104Y2.313
X3.9115Y0.8811
X3.9115Y0.8418
X3.9115Y0.8024
X3.9128Y2.1282
X3.9153Y2.4955
X3.9164Y3.6913
X3.9188Y1.8979
X3.9204Y2.4684
X3.9272Y-0.0394
X3.937Y2.3327
X3.9432Y2.5234
X3.9472Y2.3609
X3.9506Y2.2626
X3.951Y1.4872
X3.9567Y2.8445
X3.9611Y1.0067
X3.966Y2.7313
X3.9665Y3.1102
X3.9679Y2.5472
X3.9683Y2.3915
X3.9692Y1.1526
X3.9704Y2.5191
X3.9774Y2.143
X3.9774Y2.1148
X3.9801Y2.2271
X3.9891Y2.3701
X4.0019Y1.9379
X4.006Y2.5502
X4.0097Y2.0816
X4.0157Y2.6575
X4.0256Y0.0167
X4.0265Y2.8355
X4.0265Y3.2119
X4.0266Y2.2648
X4.0269Y2.7313
X4.027Y2.1624
X4.0339Y1.8895
X4.0552Y2.5373
X4.058Y1.4892
X4.065Y2.185
X4.0748Y3.1171
X4.0801Y3.2864
X4.0846Y2.815
X4.0939Y1.8091
X4.1087Y2.3701
X4.1181Y1.3846
X4.1184Y2.8248
X4.1188Y1.9299
X4.1332Y-0.0398
X4.1437Y2.8445
X4.1437Y2.3327
X4.1438Y2.3818
X4.1447Y2.5395
X4.1451Y2.2427
X4.1535Y3.8484
X4.1535Y2.2736
X4.1632Y1.398
X4.1674Y0.8811
X4.1674Y0.8418
X4.1674Y0.8024
X4.1794Y2.8433
X4.1929Y3.1102
X4.1932Y1.0994
X4.2068Y0.8811
X4.2068Y0.8418
X4.2068Y0.8024
X4.2126Y1.811
X4.2224Y2.8445
X4.2369Y2.0222
X4.2461Y0.0256
X4.2462Y0.8811
X4.2462Y0.8418
X4.2462Y0.8024
X4.252Y-0.2264
X4.2618Y3.0906
X4.2677Y2.8325
X4.2717Y1.0948
X4.2856Y0.8811
X4.2856Y0.8418
X4.2856Y0.8024
X4.2913Y3.376
X4.296Y1.8399
X4.2961Y1.4814
X4.3067Y1.377
X4.3239Y2.0813
X4.3249Y0.8811
X4.3249Y0.8418
X4.3249Y0.8024
X4.3359Y2.3238
X4.3365Y2.3817
X4.3465Y2.8368
X4.3466Y2.0334
X4.3504Y3.1004
X4.3513Y1.0956
X4.3643Y0.8811
X4.3643Y0.8418
X4.3643Y0.8024
X4.3643Y1.9906
X4.3767Y1.8012
X4.3796Y1.1781
X4.3898Y3.2283
X4.3898Y3.1004
X4.4138Y1.1784
X4.4191Y1.4411
X4.4193Y1.0138
X4.4265Y2.8376
X4.4299Y2.1722
X4.4362Y2.5709
X4.4369Y2.7706
X4.437Y2.7009
X4.4373Y2.6307
X4.439Y2.5
X4.439Y2.3917
X4.439Y2.0669
X4.4393Y2.2844
X4.4513Y1.1552
X4.4654Y1.023
X4.4685Y0.9941
X4.4695Y1.0774
X4.4882Y1.188
X4.4923Y3.0557
X4.4925Y1.0622
X4.4961Y1.8117
X4.5059Y2.9119
X4.5079Y0.6693
X4.5144Y3.0085
X4.5166Y3.1706
X4.5228Y1.0421
X4.5361Y2.9326
X4.5401Y1.1156
X4.5401Y1.088
X4.5418Y1.4606
X4.5468Y0.6695
X4.5472Y3.8484
X4.5581Y2.908
X4.5768Y1.811
X4.5771Y1.6911
X4.5866Y1.998
X4.6063Y1.5157
X4.6349Y3.2492
X4.6422Y2.8998
X4.6457Y-0.2264
X4.6522Y3.3476
X4.6555Y1.5157
X4.6752Y2.2441
X4.6752Y1.811
X4.6781Y1.6403
X4.6797Y3.3448
X4.6838Y2.8445
X4.6949Y2.628
X4.695Y2.5691
X4.6952Y2.497
X4.6994Y3.2274
X4.7018Y2.7067
X4.7028Y2.1206
X4.7146Y1.437
X4.7146Y0.9646
X4.7146Y0.935
X4.7146Y0.9055
X4.7146Y0.876
X4.7146Y0.8465
X4.7146Y0.8169
X4.7146Y0.7874
X4.7539Y0.876
X4.7539Y0.8465
X4.7539Y0.8169
X4.7539Y0.7874
X4.7933Y2.3917
X4.7975Y2.173
X4.8031Y2.2835
X4.81Y1.1617
X4.8228Y-0.0591
X4.8282Y1.377
X4.8425Y-0.0984
X4.8484Y3.148
X4.8595Y1.9193
X4.8622Y2.0965
X4.8697Y1.377
X4.8837Y2.783
X4.8944Y1.3891
X4.8991Y1.4222
X4.9213Y0.1811
X4.9311Y0.876
X4.9311Y0.8465
X4.9311Y0.8169
X4.9311Y0.7874
X4.9321Y1.4469
X4.9409Y3.8484
X4.9484Y1.4778
X4.9508Y0.3937
X4.9518Y0.4222
X4.9518Y1.0437
X4.9596Y1.4526
X4.9671Y1.5075
X4.9675Y0.9652
X4.9675Y0.9355
X4.9675Y0.906
X4.9675Y0.8765
X4.9675Y0.8465
X4.9675Y0.8169
X4.9675Y0.7874
X4.9705Y0.
X4.9774Y1.1699
X4.9937Y1.4686
X4.999Y1.5836
X5.Y1.4272
X5.0105Y1.1091
X5.0174Y1.6052
X5.022Y1.0807
X5.0226Y2.3167
X5.0381Y1.0504
X5.0394Y-0.2264
X5.0453Y1.1481
X5.0581Y1.8616
X5.0591Y1.1024
X5.0625Y1.2006
X5.0689Y1.1319
X5.0803Y1.8906
X5.0903Y1.1801
X5.1181Y2.5837
X5.1181Y2.4508
X5.1283Y1.312
X5.1575Y-0.0295
X5.1673Y3.2874
X5.1772Y2.2539
X5.1917Y1.008
X5.1917Y0.9686
X5.1917Y0.9293
X5.1917Y0.8899
X5.1917Y0.8505
X5.1917Y0.8111
X5.2005Y1.293
X5.2032Y1.4373
X5.2165Y0.3839
X5.2311Y1.008
X5.2311Y0.9686
X5.2311Y0.9293
X5.2311Y0.8899
X5.2311Y0.8505
X5.2311Y0.8111
X5.2359Y1.4373
X5.2362Y1.6535
X5.2461Y0.0394
X5.2559Y2.6673
X5.2559Y0.3839
X5.2654Y1.4373
X5.2704Y1.008
X5.2704Y0.9686
X5.2704Y0.9293
X5.2704Y0.8899
X5.2704Y0.8505
X5.2704Y0.8111
X5.273Y1.8638
X5.274Y2.7772
X5.2943Y1.3212
X5.3051Y1.8012
X5.3098Y1.008
X5.3098Y0.9686
X5.3098Y0.9293
X5.3098Y0.8899
X5.3098Y0.8505
X5.3098Y0.8111
X5.3248Y2.7756
X5.3261Y1.1685
X5.3346Y3.8484
X5.3421Y2.5417
X5.348Y1.9479
X5.3492Y1.008
X5.3492Y0.9686
X5.3492Y0.9293
X5.3492Y0.8899
X5.3492Y0.8505
X5.3492Y0.8111
X5.3642Y1.3189
X5.374Y-0.0787
X5.3885Y1.008
X5.3885Y0.9686
X5.3885Y0.9293
X5.3885Y0.8899
X5.3885Y0.8505
X5.3885Y0.8111
X5.3937Y1.8445
X5.3937Y0.374
X5.3937Y0.0886
X5.4279Y1.008
X5.4279Y0.9686
X5.4279Y0.9293
X5.4279Y0.8899
X5.4279Y0.8505
X5.4279Y0.8111
X5.4331Y0.374
X5.4331Y-0.2264
X5.4365Y2.4345
X5.4429Y1.3091
X5.4518Y1.6339
X5.4673Y1.008
X5.4673Y0.9686
X5.4673Y0.9293
X5.4673Y0.8899
X5.4673Y0.8505
X5.4673Y0.8111
X5.5067Y1.008
X5.5067Y0.9686
X5.5067Y0.9293
X5.5067Y0.8899
X5.5067Y0.8505
X5.5067Y0.8111
X5.5116Y2.4013
X5.5118Y2.3277
X5.5118Y2.3642
X5.5124Y1.653
X5.5187Y1.3061
X5.5263Y1.0435
X5.5807Y0.374
X5.5906Y1.3189
X5.6201Y0.374
X5.6299Y1.3189
X5.6398Y2.1358
X5.7776Y3.8484
X5.7776Y3.4843
X5.7776Y3.0906
X5.7776Y2.6969
X5.7776Y2.3031
X5.7776Y1.9094
X5.7776Y1.6142
X5.7776Y1.2205
X5.7776Y0.8268
X5.7776Y0.4331
X5.7776Y0.0394
X5.7776Y-0.2264
T2
X2.0297Y1.7848
X2.0297Y1.7533
X2.0297Y1.7218
X2.0297Y1.6903
X2.077Y1.7848
X2.077Y1.7533
X2.077Y1.7218
X2.077Y1.6903
X4.7972Y0.8543
X4.7972Y0.8071
X4.8287Y0.8543
X4.8287Y0.8071
X4.8602Y0.8543
X4.8602Y0.8071
X4.8917Y0.8543
X4.8917Y0.8071
T3
X-0.0945Y3.622
X-0.0945Y0.
X-0.0668Y3.6889
X-0.0668Y3.5552
X-0.0668Y0.0668
X-0.0668Y-0.0668
X0.Y3.7165
X0.Y3.5276
X0.Y0.0945
X0.Y-0.0945
X0.0668Y3.6889
X0.0668Y3.5552
X0.0668Y0.0668
X0.0668Y-0.0668
X0.0945Y3.622
X0.0945Y0.
X2.6417Y2.5
X2.6694Y2.5668
X2.6694Y2.4332
X2.7362Y2.5945
X2.7362Y2.4055
X2.803Y2.5668
X2.803Y2.4332
X2.8307Y2.5
X5.4567Y3.622
X5.4567Y0.
X5.4844Y3.6889
X5.4844Y3.5552
X5.4844Y0.0668
X5.4844Y-0.0668
X5.5512Y3.7165
X5.5512Y3.5276
X5.5512Y0.0945
X5.5512Y-0.0945
X5.618Y3.6889
X5.618Y3.5552
X5.618Y0.0668
X5.618Y-0.0668
X5.6457Y3.622
X5.6457Y0.
T4
X1.0866Y0.2504
X1.1866Y0.2504
X1.2866Y0.2504
X1.3866Y0.2504
X1.4866Y0.2504
X1.5866Y0.2504
X1.6866Y0.2504
X1.7866Y0.2504
X1.8866Y0.2504
X1.9866Y0.2504
X2.3835Y0.2181
X2.3835Y0.1181
X2.4835Y0.2181
X2.4835Y0.1181
X2.5835Y0.2181
X2.5835Y0.1181
X2.6835Y0.2181
X2.6835Y0.1181
X2.7835Y0.2181
X2.7835Y0.1181
X2.8835Y0.2181
X2.8835Y0.1181
X2.9835Y0.2181
X2.9835Y0.1181
X3.0835Y0.2181
X3.0835Y0.1181
X3.1835Y0.2181
X3.1835Y0.1181
X3.2835Y0.2181
X3.2835Y0.1181
X3.6827Y0.2181
X3.6827Y0.1181
X3.7827Y0.2181
X3.7827Y0.1181
X3.8827Y0.2181
X3.8827Y0.1181
X3.9827Y0.2181
X3.9827Y0.1181
X4.0827Y0.2181
X4.0827Y0.1181
X4.1827Y0.2181
X4.1827Y0.1181
X4.2827Y0.2181
X4.2827Y0.1181
X4.3827Y0.2181
X4.3827Y0.1181
X4.4827Y0.2181
X4.4827Y0.1181
X4.5638Y3.4449
X4.5827Y0.2181
X4.5827Y0.1181
X4.6638Y3.4449
X4.7638Y3.4449
X4.8638Y3.4449
X4.9638Y3.4449
X5.0638Y3.4449
T5
X1.1813Y0.0535
X1.2719Y0.0535
X1.388Y0.0535
X1.4785Y0.0535
X1.5947Y0.0535
X1.6852Y0.0535
X1.8014Y0.0535
X1.8919Y0.0535
T6
X-0.0913Y2.6386
X-0.0913Y2.4417
X-0.0787Y3.3858
X-0.0787Y3.189
X0.1843Y2.6386
X0.1843Y2.4417
X0.1969Y3.3858
X0.1969Y3.189
X5.315Y3.2972
X5.315Y3.1004
X5.5906Y3.2972
X5.5906Y3.1004
T7
X0.9866Y-0.0787
X2.0866Y-0.0787
X2.2835Y-0.0787
X3.3835Y-0.0787
X3.5827Y-0.0787
X4.6827Y-0.0787
T8
X0.Y3.622
X0.Y0.
X2.7362Y2.5
X5.5512Y3.622
X5.5512Y0.
T3
X5.5807Y2.8327G85X5.5807Y2.8602
G05
X5.5807Y2.6122G85X5.5807Y2.6398
G05
X5.6654Y2.7146G85X5.6654Y2.7579
G05
T0
M30
