M48
;DRILL file {KiCad (5.0.0-rc2-198-gb8bbb15aa)} date 04/06/22 07:42:42
;FORMAT={-:-/ absolute / metric / decimal}
FMAT,2
METRIC,TZ
T1C0.300
T2C0.500
T3C0.600
T4C0.850
T5C0.950
T6C1.000
T7C1.200
T8C2.570
T9C3.200
%
G90
G05
M71
T1
X24.225Y-48.
X24.4Y-54.625
X25.45Y-134.65
X25.55Y-95.95
X25.85Y-103.975
X25.875Y-108.3
X25.875Y-148.475
X26.Y-54.675
X26.35Y-134.625
X26.45Y-95.925
X27.375Y-42.825
X27.8Y-40.075
X28.175Y-52.
X29.225Y-83.05
X30.225Y-83.05
X31.1Y-83.025
X31.6Y-54.25
X32.884Y-53.699
X33.225Y-49.6
X33.675Y-81.55
X34.475Y-81.55
X36.25Y-86.775
X36.25Y-87.5
X36.25Y-88.425
X36.25Y-89.175
X36.25Y-90.275
X36.25Y-91.
X36.25Y-91.925
X36.25Y-92.675
X36.25Y-93.775
X36.25Y-94.5
X36.25Y-95.425
X36.25Y-96.175
X36.25Y-97.275
X36.25Y-98.
X36.25Y-98.925
X36.25Y-99.675
X36.25Y-100.775
X36.25Y-101.5
X36.25Y-102.425
X36.25Y-103.175
X36.25Y-104.275
X36.25Y-105.
X36.25Y-105.925
X36.25Y-106.675
X36.25Y-107.775
X36.25Y-108.5
X36.25Y-109.425
X36.25Y-110.175
X36.25Y-111.3
X36.25Y-112.025
X36.25Y-112.95
X36.25Y-113.7
X36.25Y-114.8
X36.25Y-115.525
X36.25Y-116.45
X36.25Y-117.2
X36.25Y-118.3
X36.25Y-119.025
X36.25Y-119.95
X36.25Y-120.7
X36.25Y-121.8
X36.25Y-122.525
X36.25Y-123.45
X36.25Y-124.2
X36.25Y-125.325
X36.25Y-126.05
X36.25Y-126.975
X36.25Y-127.725
X36.25Y-128.825
X36.25Y-129.55
X36.25Y-130.475
X36.25Y-131.225
X36.25Y-132.325
X36.25Y-133.05
X36.25Y-133.975
X36.25Y-134.725
X36.25Y-135.825
X36.25Y-136.55
X36.25Y-137.475
X36.25Y-138.225
X36.25Y-139.325
X36.25Y-140.05
X36.25Y-140.975
X36.25Y-141.725
X36.25Y-142.825
X36.25Y-143.55
X36.25Y-144.475
X36.25Y-145.225
X36.25Y-146.325
X36.25Y-147.05
X36.25Y-147.975
X36.25Y-148.725
X36.25Y-149.825
X36.25Y-150.55
X36.25Y-151.475
X36.25Y-152.225
X36.25Y-153.325
X36.25Y-154.05
X36.25Y-154.975
X36.25Y-155.725
X36.25Y-156.825
X36.25Y-157.55
X36.25Y-158.475
X36.25Y-159.225
X36.25Y-160.325
X36.25Y-161.05
X36.25Y-161.975
X36.25Y-162.725
X36.25Y-163.825
X36.25Y-164.55
X36.25Y-165.475
X36.25Y-166.225
X36.25Y-167.325
X36.25Y-168.05
X36.25Y-168.975
X36.25Y-169.725
X37.425Y-38.6
X37.45Y-35.
X38.675Y-32.525
X39.55Y-47.
X39.75Y-86.8
X39.75Y-87.525
X39.75Y-88.45
X39.75Y-89.2
X39.75Y-90.3
X39.75Y-91.025
X39.75Y-91.95
X39.75Y-92.7
X39.75Y-93.8
X39.75Y-94.525
X39.75Y-95.45
X39.75Y-96.2
X39.75Y-97.3
X39.75Y-98.025
X39.75Y-98.95
X39.75Y-99.7
X39.75Y-100.8
X39.75Y-101.525
X39.75Y-102.45
X39.75Y-103.2
X39.75Y-104.3
X39.75Y-105.025
X39.75Y-105.95
X39.75Y-106.7
X39.75Y-107.8
X39.75Y-108.525
X39.75Y-109.45
X39.75Y-110.2
X39.75Y-111.325
X39.75Y-112.05
X39.75Y-112.975
X39.75Y-113.725
X39.75Y-114.825
X39.75Y-115.55
X39.75Y-116.475
X39.75Y-117.225
X39.75Y-118.325
X39.75Y-119.05
X39.75Y-119.975
X39.75Y-120.725
X39.75Y-121.825
X39.75Y-122.55
X39.75Y-123.475
X39.75Y-124.225
X39.75Y-125.35
X39.75Y-126.075
X39.75Y-127.
X39.75Y-127.75
X39.75Y-128.85
X39.75Y-129.575
X39.75Y-130.5
X39.75Y-131.25
X39.75Y-132.35
X39.75Y-133.075
X39.75Y-134.
X39.75Y-134.75
X39.75Y-135.85
X39.75Y-136.575
X39.75Y-137.5
X39.75Y-138.25
X39.75Y-139.35
X39.75Y-140.075
X39.75Y-141.
X39.75Y-141.75
X39.75Y-142.85
X39.75Y-143.575
X39.75Y-144.5
X39.75Y-145.25
X39.75Y-146.35
X39.75Y-147.075
X39.75Y-148.
X39.75Y-148.75
X39.75Y-149.85
X39.75Y-150.575
X39.75Y-151.5
X39.75Y-152.25
X39.75Y-153.35
X39.75Y-154.075
X39.75Y-155.
X39.75Y-155.75
X39.75Y-156.85
X39.75Y-157.575
X39.75Y-158.5
X39.75Y-159.25
X39.75Y-160.35
X39.75Y-161.075
X39.75Y-162.
X39.75Y-162.75
X39.75Y-163.85
X39.75Y-164.575
X39.75Y-165.5
X39.75Y-166.25
X39.75Y-167.35
X39.75Y-168.075
X39.75Y-169.
X39.75Y-169.75
X40.15Y-39.075
X40.175Y-30.05
X40.775Y-44.25
X41.35Y-59.075
X41.975Y-63.625
X43.35Y-43.95
X43.75Y-24.025
X44.525Y-171.35
X45.05Y-23.975
X45.05Y-24.95
X46.175Y-180.125
X46.25Y-64.975
X46.25Y-67.525
X46.3Y-58.925
X47.575Y-182.65
X47.675Y-58.75
X48.Y-38.7
X48.2Y-178.55
X49.5Y-27.5
X49.5Y-28.5
X49.5Y-29.5
X49.5Y-30.5
X49.5Y-31.5
X49.5Y-32.5
X49.5Y-33.5
X49.5Y-34.5
X50.3Y-180.2
X50.425Y-176.125
X50.5Y-27.5
X50.5Y-28.5
X50.5Y-29.5
X50.5Y-30.5
X50.5Y-31.5
X50.5Y-32.5
X50.5Y-33.5
X50.5Y-34.5
X50.725Y-169.8
X50.85Y-155.45
X50.9Y-99.475
X50.9Y-113.35
X50.9Y-131.05
X50.9Y-134.525
X50.9Y-138.075
X50.9Y-141.5
X50.9Y-151.95
X50.923Y-110.086
X50.925Y-89.025
X50.925Y-92.45
X50.925Y-95.975
X50.925Y-106.5
X50.925Y-117.025
X50.925Y-145.025
X50.925Y-148.575
X50.925Y-158.95
X50.931Y-102.897
X50.95Y-120.475
X50.95Y-164.625
X50.95Y-168.075
X50.976Y-124.101
X51.5Y-27.5
X51.5Y-28.5
X51.5Y-29.5
X51.5Y-30.5
X51.5Y-31.5
X51.5Y-32.5
X51.5Y-33.5
X51.5Y-34.5
X51.5Y-49.5
X51.5Y-50.5
X51.5Y-51.5
X51.5Y-52.5
X51.5Y-53.5
X51.5Y-54.5
X51.5Y-55.5
X51.5Y-56.5
X51.679Y-129.432
X51.7Y-170.
X51.925Y-70.025
X51.925Y-126.45
X51.975Y-86.55
X52.5Y-27.5
X52.5Y-28.5
X52.5Y-29.5
X52.5Y-30.5
X52.5Y-31.5
X52.5Y-32.5
X52.5Y-33.5
X52.5Y-34.5
X52.5Y-49.5
X52.5Y-50.5
X52.5Y-51.5
X52.5Y-52.5
X52.5Y-53.5
X52.5Y-54.5
X52.5Y-55.5
X52.5Y-56.5
X52.525Y-74.45
X53.275Y-72.425
X53.5Y-27.5
X53.5Y-28.5
X53.5Y-29.5
X53.5Y-30.5
X53.5Y-31.5
X53.5Y-32.5
X53.5Y-33.5
X53.5Y-34.5
X53.5Y-49.5
X53.5Y-50.5
X53.5Y-51.5
X53.5Y-52.5
X53.5Y-53.5
X53.5Y-54.5
X53.5Y-55.5
X53.5Y-56.5
X53.725Y-62.725
X53.825Y-81.525
X54.45Y-169.15
X54.5Y-27.5
X54.5Y-28.5
X54.5Y-29.5
X54.5Y-30.5
X54.5Y-31.5
X54.5Y-32.5
X54.5Y-33.5
X54.5Y-34.5
X54.5Y-49.5
X54.5Y-50.5
X54.5Y-51.5
X54.5Y-52.5
X54.5Y-53.5
X54.5Y-54.5
X54.5Y-55.5
X54.5Y-56.5
X54.65Y-167.75
X54.925Y-63.25
X55.5Y-27.5
X55.5Y-28.5
X55.5Y-29.5
X55.5Y-30.5
X55.5Y-31.5
X55.5Y-32.5
X55.5Y-33.5
X55.5Y-34.5
X55.5Y-49.5
X55.5Y-50.5
X55.5Y-51.5
X55.5Y-52.5
X55.5Y-53.5
X55.5Y-54.5
X55.5Y-55.5
X55.5Y-56.5
X56.35Y-70.525
X56.5Y-27.5
X56.5Y-28.5
X56.5Y-29.5
X56.5Y-30.5
X56.5Y-31.5
X56.5Y-32.5
X56.5Y-33.5
X56.5Y-34.5
X56.5Y-49.5
X56.5Y-50.5
X56.5Y-51.5
X56.5Y-52.5
X56.5Y-53.5
X56.5Y-54.5
X56.5Y-55.5
X56.5Y-56.5
X57.5Y-27.5
X57.5Y-28.5
X57.5Y-29.5
X57.5Y-30.5
X57.5Y-31.5
X57.5Y-32.5
X57.5Y-33.5
X57.5Y-34.5
X57.5Y-49.5
X57.5Y-50.5
X57.5Y-51.5
X57.5Y-52.5
X57.5Y-53.5
X57.5Y-54.5
X57.5Y-55.5
X57.5Y-56.5
X57.7Y-70.825
X58.5Y-27.5
X58.5Y-28.5
X58.5Y-29.5
X58.5Y-30.5
X58.5Y-31.5
X58.5Y-32.5
X58.5Y-33.5
X58.5Y-34.5
X58.5Y-49.5
X58.5Y-50.5
X58.5Y-51.5
X58.5Y-52.5
X58.5Y-53.5
X58.5Y-54.5
X58.5Y-55.5
X58.5Y-56.5
X58.625Y-101.65
X58.65Y-77.45
X58.675Y-142.175
X59.025Y-114.325
X59.075Y-89.25
X59.15Y-90.325
X59.2Y-132.25
X59.251Y-134.049
X59.35Y-145.9
X59.5Y-49.5
X59.5Y-50.5
X59.5Y-51.5
X59.5Y-52.5
X59.5Y-53.5
X59.5Y-54.5
X59.5Y-55.5
X59.5Y-56.5
X59.5Y-109.15
X60.45Y-128.05
X60.5Y-49.5
X60.5Y-50.5
X60.5Y-51.5
X60.5Y-52.5
X60.5Y-53.5
X60.5Y-54.5
X60.5Y-55.5
X60.5Y-56.5
X60.625Y-105.875
X60.7Y-106.725
X60.825Y-104.625
X60.85Y-154.65
X60.875Y-110.65
X60.95Y-108.575
X61.05Y-151.65
X61.05Y-170.65
X61.2Y-149.65
X61.325Y-72.375
X61.325Y-79.375
X61.4Y-71.55
X61.5Y-38.8
X61.6Y-45.4
X62.379Y-180.709
X62.475Y-173.65
X62.475Y-174.7
X62.5Y-27.5
X62.5Y-28.5
X62.5Y-29.5
X62.5Y-30.5
X62.5Y-31.5
X62.5Y-32.5
X62.5Y-33.5
X62.5Y-34.5
X62.725Y-91.55
X62.775Y-178.125
X63.05Y-113.725
X63.25Y-178.725
X63.325Y-177.45
X63.425Y-146.6
X63.5Y-27.5
X63.5Y-28.5
X63.5Y-29.5
X63.5Y-30.5
X63.5Y-31.5
X63.5Y-32.5
X63.5Y-33.5
X63.5Y-34.5
X63.55Y-118.525
X63.9Y-148.05
X64.45Y-73.025
X64.5Y-27.5
X64.5Y-28.5
X64.5Y-29.5
X64.5Y-30.5
X64.5Y-31.5
X64.5Y-32.5
X64.5Y-33.5
X64.5Y-34.5
X64.5Y-49.5
X64.5Y-50.5
X64.5Y-51.5
X64.5Y-52.5
X64.5Y-53.5
X64.5Y-54.5
X64.5Y-55.5
X64.5Y-56.5
X64.575Y-71.625
X64.8Y-147.725
X64.825Y-58.7
X64.825Y-111.7
X65.2Y-163.95
X65.325Y-104.925
X65.45Y-170.225
X65.5Y-27.5
X65.5Y-28.5
X65.5Y-29.5
X65.5Y-30.5
X65.5Y-31.5
X65.5Y-32.5
X65.5Y-33.5
X65.5Y-34.5
X65.5Y-49.5
X65.5Y-50.5
X65.5Y-51.5
X65.5Y-52.5
X65.5Y-53.5
X65.5Y-54.5
X65.5Y-55.5
X65.5Y-56.5
X65.7Y-120.25
X66.1Y-88.65
X66.4Y-116.425
X66.5Y-27.5
X66.5Y-28.5
X66.5Y-29.5
X66.5Y-30.5
X66.5Y-31.5
X66.5Y-32.5
X66.5Y-33.5
X66.5Y-34.5
X66.5Y-49.5
X66.5Y-50.5
X66.5Y-51.5
X66.5Y-52.5
X66.5Y-53.5
X66.5Y-54.5
X66.5Y-55.5
X66.5Y-56.5
X66.725Y-99.075
X66.95Y-133.2
X67.375Y-135.375
X67.4Y-149.9
X67.4Y-151.55
X67.4Y-153.2
X67.426Y-154.876
X67.5Y-27.5
X67.5Y-28.5
X67.5Y-29.5
X67.5Y-30.5
X67.5Y-31.5
X67.5Y-32.5
X67.5Y-33.5
X67.5Y-34.5
X67.5Y-49.5
X67.5Y-50.5
X67.5Y-51.5
X67.5Y-52.5
X67.5Y-53.5
X67.5Y-54.5
X67.5Y-55.5
X67.5Y-56.5
X67.725Y-160.8
X67.75Y-69.525
X67.75Y-76.2
X68.125Y-73.185
X68.475Y-140.05
X68.5Y-27.5
X68.5Y-28.5
X68.5Y-29.5
X68.5Y-30.5
X68.5Y-31.5
X68.5Y-32.5
X68.5Y-33.5
X68.5Y-34.5
X68.5Y-49.5
X68.5Y-50.5
X68.5Y-52.5
X68.5Y-53.5
X68.5Y-54.5
X68.5Y-55.5
X68.5Y-56.5
X68.65Y-135.825
X68.925Y-78.125
X68.95Y-79.7
X69.25Y-160.375
X69.275Y-73.225
X69.3Y-124.425
X69.4Y-121.35
X69.5Y-27.5
X69.5Y-28.5
X69.5Y-29.5
X69.5Y-30.5
X69.5Y-31.5
X69.5Y-32.5
X69.5Y-33.5
X69.5Y-34.5
X69.5Y-49.5
X69.5Y-50.5
X69.5Y-52.5
X69.5Y-53.5
X69.5Y-54.5
X69.5Y-55.5
X69.5Y-56.5
X70.276Y-136.954
X70.5Y-27.5
X70.5Y-28.5
X70.5Y-29.5
X70.5Y-30.5
X70.5Y-31.5
X70.5Y-32.5
X70.5Y-33.5
X70.5Y-34.5
X70.5Y-49.5
X70.5Y-50.5
X70.5Y-51.5
X70.5Y-52.5
X70.5Y-53.5
X70.5Y-54.5
X70.5Y-55.5
X70.5Y-56.5
X71.125Y-61.655
X71.15Y-70.95
X71.15Y-123.2
X71.375Y-81.3
X71.5Y-27.5
X71.5Y-28.5
X71.5Y-29.5
X71.5Y-30.5
X71.5Y-31.5
X71.5Y-32.5
X71.5Y-33.5
X71.5Y-34.5
X71.5Y-49.5
X71.5Y-50.5
X71.5Y-51.5
X71.5Y-52.5
X71.5Y-53.5
X71.5Y-54.5
X71.5Y-55.5
X71.5Y-56.5
X71.6Y-163.9
X71.625Y-62.975
X71.7Y-149.7
X71.725Y-109.07
X71.925Y-108.276
X72.Y-82.175
X72.2Y-124.975
X72.5Y-49.5
X72.5Y-50.5
X72.5Y-51.5
X72.5Y-52.5
X72.5Y-53.5
X72.5Y-54.5
X72.5Y-55.5
X72.5Y-56.5
X72.7Y-117.75
X72.725Y-133.525
X72.755Y-118.614
X72.758Y-119.364
X72.775Y-116.8
X72.85Y-115.025
X72.85Y-134.825
X72.875Y-114.167
X72.9Y-121.5
X72.925Y-72.
X73.2Y-126.175
X73.2Y-155.35
X73.425Y-149.55
X73.45Y-152.525
X73.5Y-49.5
X73.5Y-50.5
X73.5Y-51.5
X73.5Y-52.5
X73.5Y-53.5
X73.5Y-54.5
X73.5Y-55.5
X73.51Y-56.425
X73.65Y-115.8
X73.675Y-158.425
X73.825Y-91.85
X73.85Y-67.375
X73.875Y-89.5
X73.875Y-94.15
X73.95Y-62.375
X74.135Y-96.159
X74.138Y-114.26
X74.15Y-122.875
X74.2Y-38.8
X74.2Y-170.35
X74.225Y-60.1
X74.275Y-100.675
X74.5Y-181.275
X74.7Y-45.3
X74.85Y-104.55
X74.9Y-87.4
X75.Y-132.875
X75.025Y-177.6
X75.05Y-162.25
X75.2Y-178.875
X75.3Y-97.9
X75.425Y-178.225
X75.5Y-27.5
X75.5Y-28.5
X75.5Y-29.5
X75.5Y-30.5
X75.5Y-31.5
X75.5Y-32.5
X75.5Y-33.5
X75.5Y-34.5
X75.525Y-73.25
X75.9Y-72.025
X75.9Y-104.525
X75.9Y-127.6
X75.95Y-133.475
X76.1Y-69.375
X76.25Y-139.725
X76.275Y-125.625
X76.425Y-82.6
X76.5Y-27.5
X76.5Y-28.5
X76.5Y-29.5
X76.5Y-30.5
X76.5Y-31.5
X76.5Y-32.5
X76.5Y-33.5
X76.5Y-34.5
X76.5Y-122.9
X76.675Y-121.75
X76.675Y-114.125
X76.9Y-104.525
X77.075Y-171.975
X77.075Y-172.8
X77.15Y-118.775
X77.325Y-152.125
X77.325Y-152.975
X77.5Y-27.5
X77.5Y-28.5
X77.5Y-29.5
X77.5Y-30.5
X77.5Y-31.5
X77.5Y-32.5
X77.5Y-33.5
X77.5Y-34.5
X77.5Y-49.5
X77.5Y-50.5
X77.5Y-51.5
X77.5Y-52.5
X77.5Y-53.5
X77.5Y-54.5
X77.5Y-55.5
X77.5Y-56.425
X77.625Y-122.925
X77.65Y-118.1
X77.697Y-116.9
X77.7Y-137.7
X78.05Y-132.875
X78.075Y-114.2
X78.375Y-114.95
X78.4Y-141.675
X78.5Y-27.5
X78.5Y-28.5
X78.5Y-29.5
X78.5Y-30.5
X78.5Y-31.5
X78.5Y-32.5
X78.5Y-33.5
X78.5Y-34.5
X78.5Y-49.5
X78.5Y-50.5
X78.5Y-51.5
X78.5Y-52.5
X78.5Y-53.5
X78.5Y-54.5
X78.5Y-55.5
X78.5Y-56.425
X78.575Y-100.65
X78.725Y-77.575
X78.836Y-137.764
X79.225Y-158.125
X79.25Y-164.025
X79.275Y-59.975
X79.4Y-125.875
X79.5Y-27.5
X79.5Y-28.5
X79.5Y-29.5
X79.5Y-30.5
X79.5Y-31.5
X79.5Y-32.5
X79.5Y-33.5
X79.5Y-34.5
X79.5Y-49.5
X79.5Y-50.5
X79.5Y-51.5
X79.5Y-52.5
X79.5Y-53.5
X79.5Y-54.5
X79.5Y-55.5
X79.5Y-56.425
X79.575Y-132.925
X79.625Y-104.475
X79.9Y-72.75
X80.1Y-122.4
X80.5Y-27.5
X80.5Y-28.5
X80.5Y-29.5
X80.5Y-30.5
X80.5Y-31.5
X80.5Y-32.5
X80.5Y-33.5
X80.5Y-34.5
X80.5Y-49.5
X80.5Y-50.5
X80.5Y-51.5
X80.5Y-52.5
X80.5Y-53.5
X80.5Y-54.5
X80.5Y-55.5
X80.5Y-56.425
X80.65Y-121.525
X81.075Y-126.05
X81.075Y-137.5
X81.1Y-132.9
X81.25Y-118.325
X81.275Y-120.825
X81.339Y-117.402
X81.45Y-74.175
X81.5Y-27.5
X81.5Y-28.5
X81.5Y-29.5
X81.5Y-30.5
X81.5Y-31.5
X81.5Y-32.5
X81.5Y-33.5
X81.5Y-34.5
X81.5Y-49.5
X81.5Y-50.5
X81.5Y-51.5
X81.5Y-52.5
X81.5Y-53.5
X81.5Y-54.5
X81.5Y-55.5
X81.5Y-56.425
X81.975Y-170.35
X82.053Y-161.475
X82.4Y-110.675
X82.5Y-27.5
X82.5Y-28.5
X82.5Y-29.5
X82.5Y-30.5
X82.5Y-31.5
X82.5Y-32.5
X82.5Y-33.5
X82.5Y-34.5
X82.5Y-49.5
X82.5Y-50.5
X82.5Y-51.5
X82.5Y-52.5
X82.5Y-53.5
X82.5Y-54.5
X82.5Y-55.5
X82.5Y-56.425
X82.55Y-123.2
X82.625Y-132.825
X82.688Y-87.287
X83.275Y-111.1
X83.5Y-27.5
X83.5Y-28.5
X83.5Y-29.5
X83.5Y-30.5
X83.5Y-31.5
X83.5Y-32.5
X83.5Y-33.5
X83.5Y-34.5
X83.5Y-49.5
X83.5Y-50.5
X83.5Y-51.5
X83.5Y-52.5
X83.5Y-53.5
X83.5Y-54.5
X83.5Y-55.5
X83.5Y-56.425
X83.525Y-113.775
X83.601Y-125.2
X83.875Y-104.825
X84.15Y-132.825
X84.4Y-108.25
X84.475Y-116.75
X84.5Y-27.5
X84.5Y-28.5
X84.5Y-29.5
X84.5Y-30.5
X84.5Y-31.5
X84.5Y-32.5
X84.5Y-33.5
X84.5Y-34.5
X84.5Y-49.5
X84.5Y-50.5
X84.5Y-51.5
X84.5Y-52.5
X84.5Y-53.5
X84.5Y-54.5
X84.5Y-55.5
X84.5Y-56.425
X84.675Y-100.75
X84.725Y-103.025
X84.875Y-166.65
X84.925Y-160.725
X84.95Y-158.9
X85.09Y-116.321
X85.15Y-168.075
X85.175Y-152.4
X85.401Y-66.401
X85.5Y-49.5
X85.5Y-50.5
X85.5Y-51.5
X85.5Y-52.5
X85.5Y-53.5
X85.5Y-54.5
X85.5Y-55.5
X85.5Y-56.425
X85.5Y-177.575
X85.775Y-122.325
X85.8Y-87.2
X85.8Y-115.771
X85.875Y-113.5
X85.875Y-138.925
X85.95Y-150.25
X86.4Y-67.275
X86.5Y-49.5
X86.5Y-50.5
X86.5Y-51.5
X86.5Y-52.5
X86.5Y-53.5
X86.5Y-54.5
X86.5Y-55.5
X86.5Y-56.425
X86.95Y-118.275
X87.3Y-38.7
X87.4Y-182.125
X87.675Y-125.025
X87.7Y-45.3
X87.725Y-134.325
X87.75Y-176.15
X87.85Y-112.375
X87.866Y-115.378
X88.5Y-27.5
X88.5Y-28.5
X88.5Y-29.5
X88.5Y-30.5
X88.5Y-31.5
X88.5Y-32.5
X88.5Y-33.5
X88.5Y-34.5
X88.525Y-119.
X88.525Y-128.65
X88.525Y-137.6
X88.7Y-68.5
X88.8Y-86.925
X89.175Y-129.275
X89.2Y-119.75
X89.2Y-138.625
X89.5Y-27.5
X89.5Y-28.5
X89.5Y-29.5
X89.5Y-30.5
X89.5Y-31.5
X89.5Y-32.5
X89.5Y-33.5
X89.5Y-34.5
X89.825Y-119.075
X89.825Y-128.7
X89.85Y-137.6
X89.85Y-154.525
X90.075Y-132.55
X90.275Y-123.175
X90.3Y-159.525
X90.375Y-164.225
X90.5Y-27.5
X90.5Y-28.5
X90.5Y-29.5
X90.5Y-30.5
X90.5Y-31.5
X90.5Y-32.5
X90.5Y-33.5
X90.5Y-34.5
X90.5Y-49.5
X90.5Y-50.5
X90.5Y-51.5
X90.5Y-52.5
X90.5Y-53.5
X90.5Y-54.5
X90.5Y-55.5
X90.5Y-56.425
X90.625Y-59.925
X90.7Y-172.375
X91.1Y-95.
X91.475Y-161.375
X91.5Y-27.5
X91.5Y-28.5
X91.5Y-29.5
X91.5Y-30.5
X91.5Y-31.5
X91.5Y-32.5
X91.5Y-33.5
X91.5Y-34.5
X91.5Y-49.5
X91.5Y-50.5
X91.5Y-51.5
X91.5Y-52.5
X91.5Y-53.5
X91.5Y-54.5
X91.5Y-55.5
X91.5Y-56.425
X91.55Y-178.825
X92.1Y-102.
X92.5Y-27.5
X92.5Y-28.5
X92.5Y-29.5
X92.5Y-30.5
X92.5Y-31.5
X92.5Y-32.5
X92.5Y-33.5
X92.5Y-34.5
X92.5Y-49.5
X92.5Y-50.5
X92.5Y-51.5
X92.5Y-52.5
X92.5Y-53.5
X92.5Y-54.5
X92.5Y-55.5
X92.5Y-56.425
X92.525Y-155.35
X92.65Y-174.
X92.85Y-144.7
X93.05Y-119.975
X93.05Y-129.425
X93.1Y-138.775
X93.225Y-181.7
X93.5Y-27.5
X93.5Y-28.5
X93.5Y-29.5
X93.5Y-30.5
X93.5Y-31.5
X93.5Y-32.5
X93.5Y-33.5
X93.5Y-34.5
X93.5Y-49.5
X93.5Y-50.5
X93.5Y-51.5
X93.5Y-52.5
X93.5Y-53.5
X93.5Y-54.5
X93.5Y-55.5
X93.5Y-56.425
X93.525Y-173.625
X93.65Y-103.325
X93.662Y-101.825
X93.662Y-102.55
X94.5Y-27.5
X94.5Y-28.5
X94.5Y-29.5
X94.5Y-30.5
X94.5Y-31.5
X94.5Y-32.5
X94.5Y-33.5
X94.5Y-34.5
X94.5Y-49.5
X94.5Y-50.5
X94.5Y-51.5
X94.5Y-52.5
X94.5Y-53.5
X94.5Y-54.5
X94.5Y-55.5
X94.5Y-56.425
X94.8Y-161.625
X94.975Y-157.475
X95.225Y-85.8
X95.5Y-27.5
X95.5Y-28.5
X95.5Y-29.5
X95.5Y-30.5
X95.5Y-31.5
X95.5Y-32.5
X95.5Y-33.5
X95.5Y-34.5
X95.5Y-49.5
X95.5Y-50.5
X95.5Y-51.5
X95.5Y-52.5
X95.5Y-53.5
X95.5Y-54.5
X95.5Y-55.5
X95.5Y-56.425
X95.8Y-83.3
X95.906Y-127.694
X95.925Y-129.2
X95.95Y-120.25
X95.975Y-124.725
X95.975Y-135.2
X95.975Y-139.675
X95.975Y-142.625
X95.987Y-117.2
X95.987Y-118.7
X95.987Y-123.2
X95.987Y-133.7
X95.987Y-141.2
X95.987Y-147.1
X96.Y-114.2
X96.Y-115.725
X96.Y-121.75
X96.Y-126.225
X96.Y-130.725
X96.Y-136.675
X96.Y-144.125
X96.Y-145.6
X96.Y-138.225
X96.025Y-132.2
X96.05Y-88.475
X96.076Y-148.506
X96.5Y-27.5
X96.5Y-28.5
X96.5Y-29.5
X96.5Y-30.5
X96.5Y-31.5
X96.5Y-32.5
X96.5Y-33.5
X96.5Y-34.5
X96.5Y-49.5
X96.5Y-50.5
X96.5Y-51.5
X96.5Y-52.5
X96.5Y-53.5
X96.5Y-54.5
X96.5Y-55.5
X96.5Y-56.425
X97.05Y-183.35
X97.075Y-101.475
X97.5Y-27.5
X97.5Y-28.5
X97.5Y-29.5
X97.5Y-30.5
X97.5Y-31.5
X97.5Y-32.5
X97.5Y-33.5
X97.5Y-34.5
X97.5Y-49.5
X97.5Y-50.5
X97.5Y-51.5
X97.5Y-52.5
X97.5Y-53.5
X97.5Y-54.5
X97.5Y-55.5
X97.5Y-56.425
X98.025Y-173.9
X98.5Y-49.5
X98.5Y-50.5
X98.5Y-51.5
X98.5Y-52.5
X98.5Y-53.5
X98.5Y-54.5
X98.5Y-55.5
X98.5Y-56.425
X98.875Y-68.8
X99.5Y-40.5
X99.5Y-49.5
X99.5Y-50.5
X99.5Y-51.5
X99.5Y-52.5
X99.5Y-53.5
X99.5Y-54.5
X99.5Y-55.5
X99.5Y-56.425
X99.725Y-69.025
X99.825Y-160.775
X99.975Y-175.175
X100.525Y-83.425
X100.6Y-69.075
X101.048Y-43.199
X101.3Y-90.875
X101.45Y-159.475
X103.175Y-155.35
X103.275Y-84.336
X103.628Y-98.573
X103.675Y-173.75
X103.8Y-52.6
X103.8Y-102.525
X103.825Y-170.725
X103.95Y-77.45
X104.05Y-27.1
X104.175Y-87.
X104.25Y-95.55
X104.25Y-162.7
X105.5Y-92.925
X105.725Y-114.175
X105.725Y-145.6
X105.749Y-115.699
X105.75Y-117.225
X105.75Y-124.7
X105.75Y-126.225
X105.75Y-129.175
X105.75Y-130.725
X105.75Y-132.2
X105.75Y-133.725
X105.75Y-135.2
X105.75Y-136.675
X105.75Y-139.725
X105.75Y-142.625
X105.75Y-144.125
X105.75Y-147.1
X105.75Y-148.6
X105.775Y-118.7
X105.775Y-120.225
X105.775Y-121.75
X105.775Y-127.725
X105.775Y-138.2
X105.775Y-141.2
X105.8Y-123.225
X106.575Y-54.85
X106.65Y-175.075
X106.664Y-80.214
X107.575Y-25.625
X107.775Y-18.
X108.15Y-167.675
X109.325Y-158.4
X109.375Y-180.4
X109.4Y-166.975
X110.1Y-157.4
X111.075Y-158.4
X111.475Y-17.975
X112.075Y-175.05
X112.675Y-30.625
X113.001Y-168.655
X113.575Y-30.625
X114.5Y-30.65
X116.45Y-55.
X117.35Y-156.95
X117.35Y-157.825
X117.35Y-158.675
X117.425Y-172.3
T2
X96.725Y-167.975
X97.428Y-166.278
X97.428Y-169.672
X99.125Y-165.575
X99.125Y-170.375
X100.822Y-166.278
X100.822Y-169.672
X101.525Y-167.975
X97.7Y-109.25
X98.403Y-107.553
X98.403Y-110.947
X100.1Y-106.85
X100.1Y-111.65
X101.797Y-107.553
X101.797Y-110.947
X102.5Y-109.25
X108.Y-56.3
X108.703Y-54.603
X108.703Y-57.997
X110.4Y-53.9
X110.4Y-58.7
X112.097Y-54.603
X112.097Y-57.997
X112.8Y-56.3
X28.525Y-45.75
X29.228Y-44.053
X29.228Y-47.447
X30.925Y-43.35
X30.925Y-48.15
X32.622Y-44.053
X32.622Y-47.447
X33.325Y-45.75
X53.125Y-174.95
X53.828Y-173.253
X53.828Y-176.647
X55.525Y-172.55
X55.525Y-177.35
X57.222Y-173.253
X57.222Y-176.647
X57.925Y-174.95
T4
X89.45Y-182.9
X94.45Y-182.9
T5
X31.375Y-90.361
X31.375Y-92.861
X31.375Y-95.361
X31.375Y-97.861
X31.375Y-100.361
X31.375Y-102.861
X47.033Y-186.427
X49.533Y-186.427
X52.033Y-186.427
X54.533Y-186.427
X31.165Y-109.585
X31.165Y-112.085
X31.165Y-114.585
X31.165Y-117.085
X31.165Y-119.585
X31.165Y-122.085
X73.731Y-145.4
X76.231Y-145.4
X78.731Y-145.4
X81.231Y-145.4
X83.731Y-145.4
X86.231Y-145.4
X31.165Y-149.075
X31.165Y-151.575
X31.165Y-154.075
X31.165Y-156.575
X31.165Y-159.075
X31.165Y-161.575
X31.165Y-164.075
X105.453Y-186.173
X107.953Y-186.173
X110.453Y-186.173
X112.953Y-186.173
X31.165Y-129.477
X31.165Y-131.977
X31.165Y-134.477
X31.165Y-136.977
X31.165Y-139.477
X31.165Y-141.977
T6
X116.001Y-19.843
X116.001Y-22.343
X112.96Y-83.095
X112.96Y-85.635
X112.96Y-88.175
X112.96Y-90.715
X112.96Y-93.255
X112.96Y-95.795
X115.5Y-83.095
X115.5Y-85.635
X115.5Y-88.175
X115.5Y-90.715
X115.5Y-93.255
X115.5Y-95.795
X112.875Y-102.3
X112.875Y-104.84
X112.875Y-107.38
X112.875Y-109.92
X112.875Y-112.46
X112.875Y-115.
X115.415Y-102.3
X115.415Y-104.84
X115.415Y-107.38
X115.415Y-109.92
X115.415Y-112.46
X115.415Y-115.
X65.241Y-186.427
X67.741Y-186.427
X78.525Y-154.425
X81.025Y-154.425
X112.8Y-140.675
X112.8Y-143.215
X112.8Y-145.755
X112.8Y-148.295
X112.8Y-150.835
X112.8Y-153.375
X115.34Y-140.675
X115.34Y-143.215
X115.34Y-145.755
X115.34Y-148.295
X115.34Y-150.835
X115.34Y-153.375
X77.941Y-186.427
X80.441Y-186.427
X112.8Y-121.425
X112.8Y-123.965
X112.8Y-126.505
X112.8Y-129.045
X112.8Y-131.585
X112.8Y-134.125
X115.34Y-121.425
X115.34Y-123.965
X115.34Y-126.505
X115.34Y-129.045
X115.34Y-131.585
X115.34Y-134.125
T7
X49.961Y-21.073
X105.841Y-21.073
T8
X25.907Y-61.437
X25.907Y-66.647
X25.907Y-71.857
X36.707Y-61.437
X36.707Y-61.437
X36.707Y-66.647
X36.707Y-71.857
X104.875Y-62.805
X104.875Y-68.015
X104.875Y-73.225
X104.875Y-73.225
X115.675Y-62.805
X115.675Y-68.015
X115.675Y-73.225
X104.947Y-38.091
X104.947Y-43.301
X104.947Y-48.511
X115.747Y-38.091
X115.747Y-38.091
X115.747Y-43.301
X115.747Y-48.511
X27.275Y-174.08
X27.275Y-179.29
X27.275Y-184.5
X27.275Y-184.5
X38.075Y-174.08
X38.075Y-179.29
X38.075Y-184.5
T9
X30.925Y-45.75
X55.525Y-174.95
X99.125Y-167.975
X100.1Y-109.25
X110.4Y-56.3
T3
X88.45Y-185.95G85X88.45Y-185.25
G05
X95.45Y-185.25G85X95.45Y-185.95
G05
T0
M30
